<?xml version="1.0" standalone="no"?>
<!DOCTYPE svg PUBLIC "-//W3C//DTD SVG 20010904//EN"
 "http://www.w3.org/TR/2001/REC-SVG-20010904/DTD/svg10.dtd">
<svg version="1.0" xmlns="http://www.w3.org/2000/svg"
 width="512.000000pt" height="512.000000pt" viewBox="0 0 512.000000 512.000000"
 preserveAspectRatio="xMidYMid meet">

<g transform="translate(0.000000,512.000000) scale(0.100000,-0.100000)"
fill="#000000" stroke="none">
<path d="M820 4784 c-234 -50 -436 -254 -485 -489 -21 -102 -21 -968 0 -1070
50 -237 252 -439 491 -490 101 -21 967 -21 1069 0 181 38 349 168 433 335 69
138 72 162 72 690 0 528 -3 552 -72 690 -84 167 -252 297 -433 335 -99 21
-978 20 -1075 -1z m1088 -343 c70 -38 100 -69 140 -145 l27 -51 0 -485 0 -485
-27 -52 c-35 -66 -85 -116 -151 -151 l-52 -27 -485 0 -485 0 -51 27 c-76 40
-107 70 -145 140 l-34 63 0 485 0 485 27 51 c15 28 38 64 52 81 27 32 112 82
160 94 17 4 240 7 496 6 l465 -2 63 -34z"/>
<path d="M3220 4784 c-177 -38 -348 -171 -429 -334 -68 -139 -71 -163 -71
-690 0 -527 3 -551 71 -690 82 -164 253 -296 435 -335 101 -21 967 -21 1069 0
181 38 349 168 433 335 69 138 72 162 72 690 0 528 -3 552 -72 690 -84 167
-252 297 -433 335 -99 21 -978 20 -1075 -1z"/>
<path d="M820 2384 c-234 -50 -436 -254 -485 -489 -21 -102 -21 -968 0 -1070
50 -237 252 -439 491 -490 101 -21 967 -21 1069 0 181 38 349 168 433 335 69
138 72 162 72 690 0 528 -3 552 -72 690 -84 167 -252 297 -433 335 -99 21
-978 20 -1075 -1z m1070 -335 c70 -33 126 -89 159 -159 l26 -55 0 -475 0 -475
-26 -55 c-33 -70 -89 -126 -159 -159 l-55 -26 -475 0 -475 0 -55 26 c-70 33
-126 89 -159 159 l-26 55 0 475 0 475 26 55 c43 90 123 157 216 179 21 5 243
9 493 8 l455 -2 55 -26z"/>
<path d="M3220 2384 c-177 -38 -348 -171 -429 -334 -68 -139 -71 -163 -71
-690 0 -527 3 -551 71 -690 82 -164 253 -296 435 -335 101 -21 967 -21 1069 0
181 38 349 168 433 335 69 138 72 162 72 690 0 528 -3 552 -72 690 -84 167
-252 297 -433 335 -99 21 -978 20 -1075 -1z m1070 -335 c70 -33 126 -89 159
-159 l26 -55 0 -475 0 -475 -26 -55 c-33 -70 -89 -126 -159 -159 l-55 -26
-475 0 -475 0 -55 26 c-70 33 -126 89 -159 159 l-26 55 0 475 0 475 26 55 c43
90 123 157 216 179 21 5 243 9 493 8 l455 -2 55 -26z"/>
</g>
</svg>
