<?xml version="1.0" standalone="no"?>
<!DOCTYPE svg PUBLIC "-//W3C//DTD SVG 20010904//EN"
 "http://www.w3.org/TR/2001/REC-SVG-20010904/DTD/svg10.dtd">
<svg version="1.0" xmlns="http://www.w3.org/2000/svg"
 width="100.000000pt" height="100.000000pt" viewBox="0 0 100.000000 100.000000"
 preserveAspectRatio="xMidYMid meet">

<g transform="translate(0.000000,100.000000) scale(0.100000,-0.100000)"
fill="#000000" stroke="none">
<path d="M464 742 c-6 -4 -13 -15 -17 -24 -5 -13 -17 -18 -45 -18 -45 0 -59
-13 -68 -59 -5 -25 -2 -37 15 -55 19 -20 20 -24 6 -36 -18 -15 -20 -71 -3 -88
9 -9 6 -12 -14 -12 -15 0 -29 -3 -31 -8 -3 -4 9 -7 26 -7 30 0 32 -2 31 -37
-1 -21 3 -38 7 -38 5 0 9 -10 9 -23 0 -13 6 -24 13 -25 6 -1 26 -4 42 -7 29
-5 29 -4 -2 5 -33 10 -40 24 -25 47 5 8 15 8 40 -2 35 -15 37 -18 22 -46 -10
-17 -22 -19 -115 -19 -102 0 -105 1 -106 23 0 12 -3 17 -5 10 -8 -19 -34 -3
-34 21 0 24 60 63 79 52 6 -4 11 0 11 8 0 17 -16 13 -67 -17 -40 -23 -42 -51
-9 -82 22 -21 34 -22 232 -26 115 -3 187 -4 159 -2 -71 5 -92 11 -99 29 -8 22
11 54 33 54 11 0 22 7 25 16 3 8 14 14 23 12 28 -6 39 35 33 120 -4 60 -8 77
-20 77 -12 0 -16 -18 -18 -92 -4 -120 -22 -122 -22 -4 0 91 -9 113 -35 91 -11
-9 -15 -40 -17 -119 l-2 -106 -5 112 c-3 61 -9 115 -13 118 -4 4 -14 5 -23 2
-12 -5 -15 -27 -15 -119 0 -143 -18 -134 -22 12 -2 85 -6 105 -18 105 -12 0
-15 -18 -17 -95 -2 -151 -2 -147 -13 -130 -5 8 -10 60 -10 116 0 64 -4 104
-12 112 -9 9 23 12 146 12 126 0 156 -3 148 -12 -6 -7 -12 -43 -14 -81 -3 -63
-2 -67 19 -67 12 0 29 -8 38 -17 10 -9 31 -17 48 -17 19 -1 34 -8 41 -21 6
-11 17 -24 24 -28 15 -10 16 -49 0 -65 -7 -7 -41 -13 -78 -14 l-65 -2 62 -3
c35 -2 72 1 83 7 27 14 26 53 -2 93 -31 43 -39 48 -70 44 -16 -2 -28 0 -28 4
0 5 -12 15 -26 22 -17 9 -23 17 -15 21 15 9 14 61 -1 86 -10 15 -9 22 6 39 14
15 17 29 12 52 -9 46 -24 59 -68 59 -28 0 -40 5 -45 18 -10 25 -23 32 -68 32
-22 0 -45 -4 -51 -8z m106 -22 c0 -5 -25 -10 -55 -10 -30 0 -55 5 -55 10 0 6
25 10 55 10 30 0 55 -4 55 -10z m91 -40 c10 -6 19 -17 19 -25 0 -13 -26 -15
-167 -13 l-168 2 145 6 145 6 -145 2 c-130 2 -143 4 -126 17 24 18 265 21 297
5z m-304 -187 c-3 -10 -5 -4 -5 12 0 17 2 24 5 18 2 -7 2 -21 0 -30z m320 0
c-3 -10 -5 -4 -5 12 0 17 2 24 5 18 2 -7 2 -21 0 -30z m-174 -158 c-3 -9 -8
-14 -10 -11 -3 3 -2 9 2 15 9 16 15 13 8 -4z"/>
<path d="M285 340 c-3 -5 -1 -10 4 -10 6 0 11 5 11 10 0 6 -2 10 -4 10 -3 0
-8 -4 -11 -10z"/>
</g>
</svg>
