<?xml version="1.0" standalone="no"?>
<!DOCTYPE svg PUBLIC "-//W3C//DTD SVG 20010904//EN"
 "http://www.w3.org/TR/2001/REC-SVG-20010904/DTD/svg10.dtd">
<svg version="1.0" xmlns="http://www.w3.org/2000/svg"
 width="520.000000pt" height="540.000000pt" viewBox="0 0 520.000000 540.000000"
 preserveAspectRatio="xMidYMid meet">

<g transform="translate(0.000000,540.000000) scale(0.100000,-0.100000)"
fill="#000000" stroke="none">
<path d="M1516 4429 c-114 -27 -247 -133 -302 -240 -56 -112 -54 -44 -54
-1557 0 -1514 -3 -1434 55 -1460 19 -9 256 -12 955 -12 l930 0 32 29 33 29 5
846 5 845 41 -34 c53 -44 108 -125 136 -200 23 -59 23 -68 28 -655 l5 -595 26
-56 c33 -69 89 -127 155 -160 41 -20 64 -24 144 -24 80 0 103 4 144 24 64 32
123 92 155 161 l26 55 3 1010 c2 757 0 1021 -9 1055 -11 40 -41 74 -258 293
-229 230 -249 247 -281 247 -57 -1 -98 -48 -85 -98 4 -16 70 -91 162 -183
l155 -156 -45 -7 c-59 -9 -119 -53 -146 -108 -31 -65 -30 -204 3 -273 47 -101
124 -144 254 -145 l82 0 0 -798 c0 -757 -1 -799 -19 -832 -55 -104 -198 -116
-269 -22 l-27 35 -6 591 c-6 654 -4 631 -75 775 -45 91 -147 201 -238 256
l-66 40 0 435 c0 239 -5 466 -10 504 -26 180 -165 334 -345 382 -39 11 -179
14 -655 13 -333 -1 -622 -5 -644 -10z m1334 -389 c19 -19 20 -33 20 -429 l0
-410 -26 -20 c-26 -21 -34 -21 -675 -21 -454 0 -655 3 -672 11 -46 21 -47 36
-45 455 l3 396 24 19 c22 18 48 19 687 19 651 0 664 0 684 -20z m1002 -637
c14 -13 18 -31 18 -95 l0 -78 -72 0 c-99 0 -118 17 -118 110 0 37 3 70 7 73 3
4 38 7 76 7 52 0 75 -4 89 -17z"/>
<path d="M0 100 l0 -100 2600 0 2600 0 0 100 0 100 -2600 0 -2600 0 0 -100z
m2207 -18 c-2 -15 -4 -2 -4 28 0 30 2 43 4 27 2 -15 2 -39 0 -55z m406 54 c3
-8 -3 -26 -14 -40 l-19 -25 22 -4 c16 -3 12 -5 -11 -6 l-34 -1 21 23 c26 27
30 62 7 53 -8 -3 -15 -1 -15 4 0 16 37 12 43 -4z m85 2 c29 -29 7 -78 -35 -78
-21 0 -23 5 -23 45 0 40 2 45 23 45 13 0 28 -5 35 -12z m90 0 c29 -29 7 -78
-35 -78 -21 0 -23 5 -23 45 0 40 2 45 23 45 13 0 28 -5 35 -12z m67 -28 c17 0
25 7 28 23 2 12 4 0 4 -28 0 -27 -2 -40 -4 -27 -3 15 -11 22 -28 22 -17 0 -25
-7 -28 -22 -2 -13 -4 0 -4 27 0 28 2 40 4 28 3 -16 11 -23 28 -23z m103 33
c-13 -3 -18 -16 -20 -46 l-1 -42 -4 42 c-3 29 -9 43 -21 46 -9 3 1 5 23 5 22
0 32 -2 23 -5z m32 -48 c0 -46 -3 -55 -17 -54 -11 0 -13 3 -5 6 7 3 12 24 12
54 0 27 2 49 5 49 3 0 5 -25 5 -55z m35 38 c6 -17 7 -17 21 1 15 22 19 10 4
-14 -6 -10 -4 -22 6 -37 27 -43 5 -23 -26 22 -17 25 -27 45 -22 45 6 0 13 -8
17 -17z m-847 -38 c3 -26 -1 -31 -23 -33 -32 -2 -35 27 -4 35 21 6 21 7 3 20
-19 14 -18 15 1 11 14 -2 21 -12 23 -33z m100 0 c3 -26 -1 -31 -23 -33 -32 -2
-35 27 -4 35 21 6 21 7 3 20 -19 14 -18 15 1 11 14 -2 21 -12 23 -33z m108 -5
l2 -35 -5 33 c-5 40 -25 38 -34 -4 l-7 -29 -1 33 c-1 41 -23 39 -32 -4 -6 -28
-7 -28 -8 7 l-1 36 43 -1 c41 -1 42 -2 43 -36z m35 13 c8 -19 13 -23 16 -13 3
8 7 21 9 29 2 8 7 11 10 8 9 -9 -34 -97 -48 -97 -10 0 -9 3 2 10 12 7 12 16 4
49 -13 47 -9 54 7 14z m603 -27 c-3 -9 -10 -16 -15 -16 -6 0 -5 9 1 21 13 24
24 20 14 -5z"/>
<path d="M2650 105 c0 -37 18 -47 40 -20 16 19 3 55 -21 55 -15 0 -19 -7 -19
-35z"/>
<path d="M2740 105 c0 -37 18 -47 40 -20 16 19 3 55 -21 55 -15 0 -19 -7 -19
-35z"/>
<path d="M2140 80 c0 -5 4 -10 9 -10 6 0 13 5 16 10 3 6 -1 10 -9 10 -9 0 -16
-4 -16 -10z"/>
<path d="M2240 80 c0 -5 4 -10 9 -10 6 0 13 5 16 10 3 6 -1 10 -9 10 -9 0 -16
-4 -16 -10z"/>
</g>
</svg>
