<?xml version="1.0" standalone="no"?>
<!DOCTYPE svg PUBLIC "-//W3C//DTD SVG 20010904//EN"
 "http://www.w3.org/TR/2001/REC-SVG-20010904/DTD/svg10.dtd">
<svg version="1.0" xmlns="http://www.w3.org/2000/svg"
 width="260.000000pt" height="260.000000pt" viewBox="0 0 260.000000 260.000000"
 preserveAspectRatio="xMidYMid meet">

<g transform="translate(0.000000,260.000000) scale(0.100000,-0.100000)"
fill="#000000" stroke="none">
<path d="M1195 2574 c-141 -19 -192 -30 -275 -56 -258 -82 -485 -244 -646
-463 -112 -152 -195 -349 -229 -539 -19 -114 -19 -318 0 -432 82 -472 420
-858 875 -1002 141 -44 227 -57 395 -55 176 1 293 22 450 84 178 69 319 163
456 306 174 181 286 397 336 651 25 130 22 366 -7 497 -57 258 -178 474 -367
656 -231 222 -513 341 -834 353 -68 2 -137 3 -154 0z m311 -89 c500 -88 898
-488 979 -985 86 -530 -181 -1048 -659 -1280 -190 -92 -357 -126 -575 -117
-265 11 -490 94 -693 256 -293 233 -452 564 -452 941 -1 256 63 467 204 675
191 281 487 464 840 518 67 11 276 6 356 -8z"/>
<path d="M1395 2263 c-108 -57 -154 -182 -106 -289 75 -164 316 -171 396 -11
58 117 10 253 -107 301 -48 20 -144 20 -183 -1z"/>
<path d="M1007 2016 c-45 -17 -26 -2 -272 -211 -110 -94 -226 -192 -257 -218
-85 -72 -92 -94 -132 -392 -19 -143 -36 -276 -38 -295 l-3 -35 95 0 95 0 5
-128 c5 -120 7 -130 29 -148 35 -28 92 -25 122 7 22 24 24 35 28 145 2 80 7
119 15 119 40 1 231 12 232 13 1 1 -13 106 -32 232 -19 127 -34 235 -34 242 0
12 338 309 344 302 2 -2 22 -38 45 -80 23 -42 49 -84 59 -93 11 -9 71 -26 143
-40 108 -21 127 -23 155 -11 60 25 72 88 26 134 -21 22 -46 31 -118 45 l-91
18 -68 126 c-104 193 -129 228 -175 252 -54 27 -125 34 -173 16z"/>
<path d="M1716 1418 c-9 -12 -16 -39 -16 -60 l0 -38 -110 0 c-107 0 -112 1
-152 30 -45 33 -92 38 -161 19 -68 -19 -87 -89 -32 -119 21 -11 31 -11 65 0
37 12 42 12 64 -9 13 -12 28 -40 35 -62 20 -68 51 -79 213 -79 132 0 137 1
167 26 38 32 51 77 51 177 0 107 -17 137 -77 137 -22 0 -37 -7 -47 -22z"/>
<path d="M1924 1331 c-46 -28 -64 -59 -64 -112 0 -100 100 -158 189 -111 38
20 71 73 71 112 0 39 -33 92 -71 112 -43 23 -86 23 -125 -1z"/>
<path d="M1222 1028 c-17 -17 -17 -429 0 -446 18 -18 56 -14 68 7 6 12 10 92
10 190 l0 171 388 0 387 0 -3 -152 c-4 -188 0 -216 34 -224 51 -13 54 0 54
230 0 152 -3 215 -12 224 -17 17 -909 17 -926 0z"/>
</g>
</svg>
