<?xml version="1.0" standalone="no"?>
<!DOCTYPE svg PUBLIC "-//W3C//DTD SVG 20010904//EN"
 "http://www.w3.org/TR/2001/REC-SVG-20010904/DTD/svg10.dtd">
<svg version="1.0" xmlns="http://www.w3.org/2000/svg"
 width="512.000000pt" height="512.000000pt" viewBox="0 0 512.000000 512.000000"
 preserveAspectRatio="xMidYMid meet">

<g transform="translate(0.000000,512.000000) scale(0.100000,-0.100000)"
fill="#000000" stroke="none">
<path d="M1145 4935 l-25 -24 0 -1269 0 -1269 52 13 c67 18 149 18 216 0 l52
-13 0 1269 0 1269 -25 24 c-23 24 -31 25 -135 25 -104 0 -112 -1 -135 -25z"/>
<path d="M2985 3575 c-16 -15 -25 -36 -25 -55 0 -19 9 -40 25 -55 15 -16 36
-25 55 -25 19 0 40 9 55 25 16 15 25 36 25 55 0 19 -9 40 -25 55 -15 16 -36
25 -55 25 -19 0 -40 -9 -55 -25z"/>
<path d="M2825 3415 c-16 -15 -25 -36 -25 -55 0 -19 9 -40 25 -55 15 -16 36
-25 55 -25 19 0 40 9 55 25 16 15 25 36 25 55 0 19 -9 40 -25 55 -15 16 -36
25 -55 25 -19 0 -40 -9 -55 -25z"/>
<path d="M3145 3415 c-16 -15 -25 -36 -25 -55 0 -19 9 -40 25 -55 15 -16 36
-25 55 -25 19 0 40 9 55 25 16 15 25 36 25 55 0 19 -9 40 -25 55 -15 16 -36
25 -55 25 -19 0 -40 -9 -55 -25z"/>
<path d="M2985 3255 c-16 -15 -25 -36 -25 -55 0 -19 9 -40 25 -55 15 -16 36
-25 55 -25 19 0 40 9 55 25 16 15 25 36 25 55 0 19 -9 40 -25 55 -15 16 -36
25 -55 25 -19 0 -40 -9 -55 -25z"/>
<path d="M4105 3095 c-16 -15 -25 -36 -25 -55 0 -19 9 -40 25 -55 15 -16 36
-25 55 -25 19 0 40 9 55 25 16 15 25 36 25 55 0 19 -9 40 -25 55 -15 16 -36
25 -55 25 -19 0 -40 -9 -55 -25z"/>
<path d="M3945 2935 c-16 -15 -25 -36 -25 -55 0 -19 9 -40 25 -55 15 -16 36
-25 55 -25 19 0 40 9 55 25 16 15 25 36 25 55 0 19 -9 40 -25 55 -15 16 -36
25 -55 25 -19 0 -40 -9 -55 -25z"/>
<path d="M4265 2935 c-16 -15 -25 -36 -25 -55 0 -19 9 -40 25 -55 15 -16 36
-25 55 -25 19 0 40 9 55 25 16 15 25 36 25 55 0 19 -9 40 -25 55 -15 16 -36
25 -55 25 -19 0 -40 -9 -55 -25z"/>
<path d="M4105 2775 c-16 -15 -25 -36 -25 -55 0 -19 9 -40 25 -55 15 -16 36
-25 55 -25 19 0 40 9 55 25 16 15 25 36 25 55 0 19 -9 40 -25 55 -15 16 -36
25 -55 25 -19 0 -40 -9 -55 -25z"/>
<path d="M3460 2385 c-86 -19 -211 -83 -282 -146 -31 -27 -79 -82 -105 -122
l-48 -72 -50 18 c-143 50 -314 -25 -381 -168 l-24 -50 942 -3 c518 -1 943 0
945 2 10 9 -29 66 -67 98 -44 39 -97 58 -157 58 -36 0 -41 4 -57 38 -32 67
-106 161 -166 211 -152 127 -356 177 -550 136z m195 -90 c50 -49 15 -135 -55
-135 -41 0 -80 39 -80 80 0 41 39 80 80 80 19 0 40 -9 55 -25z m248 -69 c103
-43 128 -177 48 -257 -65 -65 -157 -65 -222 0 -124 123 13 325 174 257z"/>
<path d="M1165 2306 c-113 -29 -211 -101 -257 -188 -19 -36 -23 -63 -26 -165
l-4 -122 -52 -24 c-65 -30 -117 -81 -154 -150 l-27 -52 -5 -552 c-5 -537 -6
-552 -26 -579 -44 -60 -66 -68 -189 -74 -113 -5 -116 -6 -148 -38 -27 -28 -32
-39 -32 -82 0 -43 5 -54 33 -82 l32 -33 253 -3 c160 -2 265 1 289 7 37 12 98
71 98 96 0 24 17 17 24 -9 3 -13 22 -38 41 -54 61 -55 149 -55 210 0 19 16 38
41 41 54 8 31 20 31 28 0 3 -13 22 -38 41 -54 61 -55 149 -55 210 0 19 16 38
41 41 54 7 26 24 33 24 9 0 -25 61 -84 98 -96 24 -6 129 -9 289 -7 l253 3 32
33 c28 28 33 39 33 82 0 43 -5 54 -32 82 -32 32 -35 33 -148 38 -123 6 -145
14 -189 74 -20 27 -21 42 -26 579 l-5 552 -27 52 c-37 69 -89 120 -155 150
l-53 24 0 102 c0 56 -5 119 -10 139 -26 93 -127 187 -239 223 -71 23 -201 28
-266 11z m-70 -571 l25 -24 0 -471 0 -471 -25 -24 c-32 -33 -78 -33 -110 0
l-25 24 0 471 0 471 25 24 c15 16 36 25 55 25 19 0 40 -9 55 -25z m358 14 c14
-6 30 -22 36 -36 15 -33 15 -513 0 -546 -22 -49 -86 -61 -124 -22 l-25 24 0
271 0 271 25 24 c26 27 51 31 88 14z"/>
<path d="M2435 1746 c-41 -18 -83 -69 -91 -111 -20 -108 56 -195 170 -195 51
0 46 12 72 -173 l18 -128 -107 -107 c-60 -60 -113 -123 -122 -144 -68 -165
107 -342 270 -274 19 8 35 12 35 8 0 -4 11 -87 24 -184 21 -160 26 -181 51
-214 51 -66 23 -64 777 -64 l683 0 40 23 c73 41 76 50 150 652 36 297 68 554
71 571 6 32 6 32 75 36 109 6 164 59 164 158 0 63 -16 95 -69 134 -27 20 -41
21 -484 24 l-456 3 -531 -530 c-291 -291 -540 -534 -552 -540 -54 -27 -130 -3
-163 52 -22 36 -25 72 -10 114 6 15 208 225 448 466 l437 437 -435 0 c-339 -1
-442 -4 -465 -14z m1766 -742 c16 -15 31 -41 34 -58 6 -30 -55 -455 -75 -528
-15 -53 -61 -88 -117 -88 -38 0 -50 5 -79 34 -28 28 -34 42 -34 76 0 39 64
473 77 515 7 26 42 65 68 76 35 15 95 3 126 -27z"/>
</g>
</svg>
