<?xml version="1.0" standalone="no"?>
<!DOCTYPE svg PUBLIC "-//W3C//DTD SVG 20010904//EN"
 "http://www.w3.org/TR/2001/REC-SVG-20010904/DTD/svg10.dtd">
<svg version="1.0" xmlns="http://www.w3.org/2000/svg"
 width="200.000000pt" height="200.000000pt" viewBox="0 0 200.000000 200.000000"
 preserveAspectRatio="xMidYMid meet">

<g transform="translate(0.000000,200.000000) scale(0.100000,-0.100000)"
fill="#000000" stroke="none">
<path d="M697 1949 c-50 -12 -91 -33 -154 -80 -59 -44 -118 -149 -129 -228
l-6 -48 -184 -138 -184 -137 0 -49 0 -50 206 156 c193 145 225 166 224 148 -1
-5 -95 -78 -209 -163 -116 -86 -204 -158 -197 -161 6 -4 26 -10 43 -14 27 -5
40 -1 78 26 26 19 44 38 41 46 -4 8 3 13 18 13 17 0 26 7 30 24 4 18 11 23 25
19 12 -3 34 6 56 23 28 21 35 32 31 50 -6 23 13 34 62 34 14 0 27 9 34 25 9
21 14 23 26 12 10 -8 46 -12 101 -11 105 1 179 27 243 84 l45 39 48 -15 c52
-15 101 -11 147 13 26 12 52 7 341 -72 172 -47 326 -85 342 -85 43 1 107 32
138 69 70 83 51 204 -40 267 -35 23 -622 185 -668 183 -16 0 -38 -4 -49 -8
-12 -4 -35 1 -65 17 -56 29 -127 27 -188 -5 l-41 -22 -23 25 c-24 26 -69 30
-142 13z m362 -40 c32 -11 39 -23 21 -34 -6 -4 -19 -24 -30 -45 -28 -55 -26
-124 5 -179 14 -23 25 -45 25 -47 0 -7 -78 -24 -91 -20 -8 2 -26 7 -41 10
l-27 6 30 56 c16 31 29 64 29 73 0 9 -20 47 -44 84 -46 70 -46 76 5 96 33 13
80 13 118 0z m-284 -51 c23 -27 26 -38 21 -74 -3 -23 -1 -56 4 -75 5 -18 8
-34 7 -36 -3 -2 -102 125 -121 155 -5 8 -4 24 3 38 15 35 53 31 86 -8z m115
-173 c0 -61 -43 -22 -55 50 l-6 40 30 -33 c17 -18 31 -43 31 -57z"/>
<path d="M665 1390 c-66 -10 -148 -52 -178 -92 -16 -21 -42 -93 -70 -193 -30
-105 -48 -154 -52 -142 -4 9 -2 23 4 31 46 56 -116 94 -176 42 l-28 -25 23
-23 c15 -16 38 -24 75 -28 46 -4 52 -8 55 -30 2 -14 10 -32 18 -41 13 -14 11
-27 -13 -105 -27 -87 -27 -96 -31 -387 -4 -329 -3 -332 57 -357 40 -16 92 -6
121 25 19 20 24 39 28 100 4 64 7 75 21 71 9 -3 61 -13 116 -23 143 -25 599
-25 735 0 52 10 102 20 111 23 14 4 17 -6 21 -70 3 -62 7 -79 27 -100 30 -32
81 -42 122 -26 60 25 61 29 57 352 l-4 293 -31 95 c-25 79 -28 96 -17 105 8 5
18 24 22 40 8 27 13 30 60 35 35 4 59 13 74 28 l22 22 -21 21 c-14 14 -38 23
-70 26 -80 8 -132 -25 -105 -67 5 -9 7 -23 2 -30 -6 -9 -9 -8 -13 6 -3 11 -25
84 -47 164 -23 79 -51 157 -62 172 -26 37 -99 73 -173 87 -65 12 -599 13 -680
1z m540 -54 c66 -3 138 -11 160 -18 57 -18 118 -83 145 -154 24 -65 66 -241
59 -248 -9 -10 -372 -26 -573 -26 -206 0 -555 16 -565 25 -6 7 16 106 50 217
51 168 92 195 310 207 131 7 167 6 414 -3z m-662 -707 c34 -37 35 -78 2 -117
-32 -38 -67 -47 -109 -27 -74 35 -76 138 -3 171 42 18 76 10 110 -27z m1027
26 c56 -29 67 -93 24 -144 -21 -25 -33 -31 -66 -31 -99 0 -133 128 -47 176 32
18 54 17 89 -1z m-190 -161 c0 -8 -87 -45 -145 -61 -27 -8 -113 -17 -190 -20
-168 -6 -285 11 -378 55 l-62 30 388 1 c213 1 387 -2 387 -5z m-952 -58 c5
-23 -39 -41 -67 -27 -27 15 -27 39 2 50 28 10 61 -1 65 -23z m1222 14 c12 -7
12 -13 4 -27 -23 -38 -96 -18 -80 22 6 17 53 20 76 5z"/>
</g>
</svg>
