<?xml version="1.0" standalone="no"?>
<!DOCTYPE svg PUBLIC "-//W3C//DTD SVG 20010904//EN"
 "http://www.w3.org/TR/2001/REC-SVG-20010904/DTD/svg10.dtd">
<svg version="1.0" xmlns="http://www.w3.org/2000/svg"
 width="225.000000pt" height="225.000000pt" viewBox="0 0 225.000000 225.000000"
 preserveAspectRatio="xMidYMid meet">

<g transform="translate(0.000000,225.000000) scale(0.100000,-0.100000)"
fill="#000000" stroke="none">
<path d="M925 2029 c-74 -29 -135 -90 -135 -134 0 -16 -8 -25 -25 -29 -39 -10
-76 -75 -85 -152 -8 -59 -19 -83 -42 -84 -16 0 -38 -61 -38 -102 0 -52 18 -90
48 -103 12 -5 22 -16 22 -23 0 -7 7 -15 15 -19 9 -3 28 -28 42 -56 32 -65 133
-165 196 -196 211 -102 466 -45 593 133 38 53 64 82 146 162 22 21 32 73 24
117 -6 31 -21 52 -60 85 -9 7 -25 45 -37 85 -12 39 -30 83 -40 97 -15 22 -15
28 -3 45 21 28 19 31 -38 44 -29 6 -66 20 -83 32 -59 39 -121 67 -180 79 -33
7 -77 18 -98 26 -54 20 -162 17 -222 -7z m397 -86 c85 -40 156 -106 197 -182
51 -97 36 -131 -17 -38 -43 76 -112 141 -190 179 -62 31 -74 33 -167 33 -91 0
-106 -3 -166 -31 -83 -39 -139 -89 -186 -166 -22 -36 -40 -55 -46 -49 -23 23
58 148 134 206 81 62 164 86 279 82 82 -2 104 -7 162 -34z m-407 -213 c46 -23
61 -25 185 -24 104 1 153 6 214 23 44 11 83 21 87 21 4 0 28 -35 53 -77 l46
-77 0 -103 c0 -56 5 -114 12 -128 16 -36 -2 -69 -59 -105 -46 -30 -52 -41 -10
-19 22 12 22 12 3 -9 -32 -36 -113 -83 -177 -103 -152 -47 -320 -4 -436 112
-56 56 -80 120 -57 154 10 13 14 53 14 130 -1 105 1 113 32 172 18 35 35 62
38 60 3 -2 28 -14 55 -27z m-170 -200 c0 -118 -1 -125 -20 -125 -19 0 -20 8
-23 114 -3 127 0 144 25 139 16 -3 18 -17 18 -128z m840 -20 l0 -125 -25 0
-25 0 -3 114 c-1 63 0 121 3 129 3 7 15 12 27 10 22 -3 23 -6 23 -128z m-827
-165 c-3 -3 -9 2 -12 12 -6 14 -5 15 5 6 7 -7 10 -15 7 -18z"/>
<path d="M1145 1216 c-11 -8 -16 -19 -12 -30 9 -23 142 -23 169 0 17 16 17 18
0 30 -23 18 -133 18 -157 0z m155 -20 c0 -2 -7 -7 -16 -10 -8 -3 -12 -2 -9 4
6 10 25 14 25 6z"/>
<path d="M1348 1213 c7 -3 16 -2 19 1 4 3 -2 6 -13 5 -11 0 -14 -3 -6 -6z"/>
<path d="M749 1085 c-119 -62 -210 -191 -227 -322 l-9 -63 104 0 103 0 0 119
c0 95 3 123 16 135 13 14 63 16 389 16 326 0 376 -2 389 -16 13 -12 16 -40 16
-135 l0 -119 103 0 104 0 -9 63 c-17 131 -112 265 -226 320 l-43 21 -57 -31
c-85 -47 -153 -63 -260 -63 -103 0 -207 28 -282 75 -48 30 -53 30 -111 0z"/>
<path d="M748 949 c-10 -5 -18 -15 -18 -20 0 -6 7 -3 16 5 13 14 62 16 379 16
317 0 366 -2 379 -16 9 -8 16 -11 16 -5 0 6 -9 15 -19 21 -26 14 -729 13 -753
-1z"/>
<path d="M742 908 c-9 -9 -12 -85 -12 -280 0 -254 1 -268 19 -278 11 -5 86
-10 170 -10 l151 0 0 -39 0 -38 -63 -6 c-97 -9 -127 -28 -69 -44 35 -10 339
-10 375 0 57 16 27 35 -70 44 l-63 6 0 38 0 39 151 0 c84 0 159 5 170 10 18
10 19 24 19 278 0 195 -3 271 -12 280 -17 17 -749 17 -766 0z"/>
</g>
</svg>
