<?xml version="1.0" standalone="no"?>
<!DOCTYPE svg PUBLIC "-//W3C//DTD SVG 20010904//EN"
 "http://www.w3.org/TR/2001/REC-SVG-20010904/DTD/svg10.dtd">
<svg version="1.0" xmlns="http://www.w3.org/2000/svg"
 width="260.000000pt" height="260.000000pt" viewBox="0 0 260.000000 260.000000"
 preserveAspectRatio="xMidYMid meet">

<g transform="translate(0.000000,260.000000) scale(0.100000,-0.100000)"
fill="#000000" stroke="none">
<path d="M649 2435 c-38 -20 -52 -67 -35 -110 18 -41 29 -48 91 -55 l50 -5 -1
-54 c-2 -60 -11 -71 -63 -71 -103 0 -301 -82 -406 -167 -115 -94 -194 -210
-245 -362 -102 -303 7 -653 263 -847 57 -43 210 -124 235 -124 6 0 23 -5 37
-10 l27 -10 -38 -26 c-72 -49 -107 -114 -108 -200 0 -189 208 -305 367 -204
129 82 152 261 47 369 l-40 41 490 0 490 0 0 -185 c0 -141 3 -193 14 -214 14
-27 53 -51 82 -51 24 0 71 28 80 47 4 10 11 110 14 222 l5 204 65 21 c249 84
439 287 506 541 14 51 19 104 18 200 0 120 -2 137 -33 225 -73 214 -201 361
-396 456 -143 69 -181 75 -498 81 l-278 5 3 57 3 56 54 5 c63 7 91 33 91 87 0
25 -8 43 -29 64 l-29 29 -404 0 c-331 -1 -408 -3 -429 -15z m559 -227 l3 -58
-136 0 -135 0 0 53 c0 30 3 57 7 61 4 3 63 5 132 4 l126 -3 3 -57z m632 -833
l0 -585 -540 0 -540 0 0 585 0 585 540 0 540 0 0 -585z m-1210 0 c0 -522 -1
-565 -17 -565 -30 0 -177 78 -226 121 -144 125 -224 333 -197 517 29 204 141
361 324 453 130 65 116 126 116 -526z m1461 523 c153 -76 271 -224 310 -388
49 -209 -32 -449 -198 -586 -56 -46 -186 -114 -217 -114 -14 0 -16 59 -16 565
0 653 -14 591 121 523z m-1357 -1464 c20 -20 21 -68 1 -84 -19 -16 -61 -16
-80 0 -20 16 -19 64 1 84 8 9 26 16 39 16 13 0 31 -7 39 -16z"/>
</g>
</svg>
