<?xml version="1.0" standalone="no"?>
<!DOCTYPE svg PUBLIC "-//W3C//DTD SVG 20010904//EN"
 "http://www.w3.org/TR/2001/REC-SVG-20010904/DTD/svg10.dtd">
<svg version="1.0" xmlns="http://www.w3.org/2000/svg"
 width="679.000000pt" height="588.000000pt" viewBox="0 0 679.000000 588.000000"
 preserveAspectRatio="xMidYMid meet">

<g transform="translate(0.000000,588.000000) scale(0.100000,-0.100000)"
fill="#000000" stroke="none">
<path d="M5275 5845 c-5 -2 -116 -13 -245 -25 -451 -40 -1245 -124 -1415 -150
-92 -14 -564 -77 -710 -95 -175 -21 -568 -77 -795 -114 -102 -17 -257 -39
-345 -51 -161 -21 -339 -51 -960 -159 -461 -81 -543 -98 -592 -127 -61 -35
-98 -96 -128 -209 -8 -32 -22 -66 -31 -76 -13 -14 -15 -39 -12 -151 l3 -133
77 -152 c72 -142 76 -154 66 -186 -9 -29 -7 -44 10 -88 17 -43 31 -145 67
-494 25 -242 54 -521 66 -620 25 -223 42 -390 63 -610 9 -93 21 -204 26 -245
5 -41 12 -113 16 -160 6 -82 5 -86 -20 -109 -37 -34 -35 -95 3 -175 35 -72
100 -245 126 -336 10 -36 22 -70 27 -76 12 -16 59 -185 55 -197 -2 -6 -19 34
-39 89 -19 54 -48 131 -63 169 -15 39 -35 91 -45 118 -9 26 -21 51 -25 55 -14
13 6 -51 62 -198 30 -80 68 -179 83 -220 114 -312 155 -419 158 -411 2 5 -11
49 -27 97 -17 49 -31 97 -31 109 1 20 1 20 15 1 8 -11 15 -32 15 -47 0 -15 6
-34 13 -41 6 -7 17 -26 23 -43 7 -16 19 -47 28 -68 10 -22 13 -36 7 -33 -5 4
-7 -3 -4 -15 4 -15 8 -17 14 -8 7 13 21 -27 35 -103 3 -21 10 -38 15 -38 5 0
6 -6 3 -13 -6 -17 12 -67 25 -67 5 0 7 10 4 23 -4 18 -3 19 6 7 13 -18 15
-134 2 -126 -5 3 -7 14 -4 24 2 10 -7 30 -21 46 l-24 29 23 -71 c33 -102 57
-132 103 -132 20 0 43 4 51 9 17 11 38 -13 69 -80 11 -26 28 -49 36 -52 9 -4
16 -15 16 -24 0 -32 29 -63 59 -63 26 0 468 90 781 159 74 16 254 55 400 85
146 30 360 76 475 101 184 40 628 135 1060 226 77 16 345 75 595 130 250 55
597 131 770 169 173 39 468 104 655 145 187 42 394 87 460 101 73 16 125 32
133 42 22 28 15 165 -12 230 l-23 57 13 255 c16 330 31 620 49 1010 9 173 27
539 40 813 14 274 25 504 25 512 0 8 21 18 57 26 93 21 97 28 89 183 -4 72 -9
139 -12 149 -4 14 -94 92 -221 192 -7 6 -17 52 -23 105 -15 140 -47 255 -79
294 -9 10 -90 76 -181 147 -91 70 -217 170 -281 221 -63 51 -161 128 -217 171
-94 71 -101 79 -91 99 15 27 6 106 -14 126 -14 13 -27 14 -93 4 -76 -10 -79
-10 -107 14 -52 44 -135 66 -182 49z m-269 -71 c-3 -9 -9 -28 -12 -42 l-5 -27
15 25 c8 14 15 32 16 40 0 9 8 16 18 17 15 1 18 -4 16 -25 -2 -16 -1 -19 2 -8
5 15 8 16 15 5 7 -11 12 -12 29 -1 24 15 33 15 25 2 -4 -7 3 -9 22 -5 26 6 27
5 10 -9 -18 -14 -18 -15 0 -19 10 -2 -4 -3 -32 -1 -33 2 -43 1 -30 -5 15 -6 2
-10 -48 -16 -37 -4 -70 -5 -73 -2 -8 8 18 87 29 87 5 0 6 -7 3 -16z m334 -16
c0 -6 -6 -5 -15 2 -8 7 -15 14 -15 16 0 2 7 1 15 -2 8 -4 15 -11 15 -16z
m-432 -18 c27 -17 32 -24 22 -35 -33 -40 -199 -47 -240 -10 -27 25 -25 34 13
50 50 22 165 19 205 -5z m307 0 c3 -5 -1 -10 -9 -10 -8 0 -18 5 -21 10 -3 6 1
10 9 10 8 0 18 -4 21 -10z m205 -46 c0 -8 -60 32 -65 44 -2 7 11 1 30 -14 19
-14 35 -28 35 -30z m-781 2 c20 -18 20 -20 5 -38 -10 -10 -24 -18 -32 -18 -9
0 -7 6 8 18 l23 19 -24 16 c-13 10 -30 17 -39 16 -9 0 -6 -4 8 -9 12 -5 22
-13 22 -18 0 -11 -48 -3 -56 9 -3 5 -16 9 -30 9 -14 0 -22 -4 -19 -10 8 -13
-7 -13 -41 0 -33 13 -61 -4 -43 -26 6 -8 16 -14 21 -14 6 0 4 7 -3 16 -12 14
-11 16 5 13 28 -6 31 -26 6 -34 -14 -4 -28 -1 -41 11 -18 16 -18 18 -2 36 12
14 25 17 47 13 23 -5 27 -4 16 4 -11 8 8 10 66 8 64 -2 86 -6 103 -21z m584
-18 c44 -12 75 -24 68 -26 -6 -2 -9 -8 -5 -13 3 -5 -2 -9 -11 -9 -12 0 -15 5
-11 16 5 13 1 14 -27 9 -45 -10 -54 -17 -31 -27 12 -5 2 -6 -26 -2 -33 4 -41
2 -30 -5 12 -9 11 -11 -9 -11 -20 0 -22 3 -17 28 4 15 14 33 23 40 15 11 15
12 -4 12 -17 0 -23 -8 -28 -40 -4 -22 -11 -40 -17 -40 -13 0 -3 57 13 77 15
17 18 17 112 -9z m-1073 -39 c0 -10 -4 -19 -10 -19 -5 0 -10 12 -10 26 0 14 4
23 10 19 6 -3 10 -15 10 -26z m420 23 c35 -16 16 -28 -47 -30 -56 -1 -63 0
-53 13 9 11 17 12 33 4 17 -10 19 -9 14 5 -5 12 -1 16 16 15 12 0 29 -3 37 -7z
m454 -14 c32 -14 30 -37 -4 -56 -23 -12 -19 -13 36 -7 57 5 63 4 93 -22 17
-15 31 -31 31 -36 0 -5 -16 5 -35 22 -20 17 -41 31 -48 31 -7 0 6 -16 28 -35
22 -19 35 -34 28 -35 -6 0 -14 4 -18 10 -3 5 -20 19 -38 30 -28 19 -27 17 7
-13 37 -33 80 -45 92 -26 3 5 15 4 27 -3 19 -10 21 -9 9 4 -17 21 3 35 23 18
8 -7 22 -9 31 -6 14 5 12 9 -10 27 -14 11 -31 17 -38 13 -7 -4 -10 -3 -5 1 4
5 -5 14 -20 21 l-28 11 28 8 c20 5 32 3 40 -7 7 -8 30 -28 52 -44 22 -16 43
-33 47 -39 5 -6 8 -6 8 2 0 6 -22 29 -50 51 l-49 39 50 10 50 10 64 -50 c36
-27 65 -53 65 -58 0 -5 -11 -9 -24 -9 -13 0 -98 -12 -188 -26 -89 -14 -253
-38 -362 -54 l-200 -29 -63 51 c-35 28 -63 55 -63 60 0 4 10 8 22 8 13 0 98
12 190 26 l168 26 46 -41 c52 -45 82 -56 40 -15 -14 15 -26 31 -26 36 0 6 -6
8 -14 5 -8 -3 -20 1 -26 9 -9 9 -33 14 -79 14 -75 0 -116 16 -116 45 0 40 158
56 229 23z m316 -2 c0 -11 -19 -15 -25 -6 -3 5 1 10 9 10 9 0 16 -2 16 -4z
m-1344 -27 c19 -22 19 -22 -1 -11 -11 6 -27 16 -35 22 -13 8 -13 10 1 10 9 0
24 -10 35 -21z m54 0 c-7 -11 -14 -18 -17 -15 -3 3 0 12 7 21 18 21 23 19 10
-6z m498 -13 c-10 -7 -18 -18 -18 -24 0 -15 38 -35 53 -28 7 2 5 5 -5 5 -26 1
-30 18 -11 41 24 27 129 29 149 3 19 -26 17 -32 -8 -27 -13 2 -17 1 -9 -2 11
-5 11 -8 0 -15 -11 -7 -11 -9 2 -9 8 0 24 7 35 15 19 15 19 15 0 30 -25 19
-14 30 13 13 45 -28 -4 -72 -72 -64 -20 2 -35 1 -32 -3 7 -12 -105 6 -121 19
-21 18 -17 39 9 50 31 12 35 11 15 -4z m656 -36 c15 -15 24 -30 19 -33 -10 -6
-82 41 -83 54 -1 16 38 3 64 -21z m-1464 16 c0 -2 -7 -20 -15 -40 -14 -34 -14
-36 4 -36 11 0 21 6 23 12 7 19 85 16 104 -4 15 -15 15 -17 -6 -28 -12 -7 -36
-9 -54 -6 -18 3 -53 2 -79 -3 -67 -12 -84 2 -67 55 7 21 18 42 24 46 11 8 66
11 66 4z m-142 -77 c3 -52 1 -57 -20 -63 -54 -14 -60 -9 -56 39 3 44 2 45 -25
45 -16 0 -26 -4 -23 -9 7 -10 -16 -21 -43 -21 -10 0 -26 9 -35 19 -17 19 -17
20 18 26 69 13 141 23 161 21 17 -1 20 -9 23 -57z m497 34 c11 -6 17 -14 13
-18 -3 -4 -17 1 -30 9 -26 17 -40 13 -32 -8 3 -9 -7 -13 -33 -13 -21 0 -50 -3
-65 -8 -25 -6 -28 -5 -28 19 0 30 12 32 63 11 41 -17 61 -19 35 -4 -10 5 -18
13 -18 18 0 11 73 7 95 -6z m1415 2 c7 -8 8 -15 2 -15 -5 0 -15 7 -22 15 -7 8
-8 15 -2 15 5 0 15 -7 22 -15z m-1179 -92 c40 -24 31 -38 -22 -39 -25 0 -54
-6 -66 -12 -32 -17 -67 -15 -91 7 -30 25 -28 41 6 42 41 2 54 -1 69 -17 19
-19 29 -18 12 2 -28 33 42 46 92 17z m-251 -21 c0 -4 15 -12 33 -17 45 -14 40
-29 -12 -33 -52 -4 -67 7 -52 37 11 20 31 29 31 13z m-240 -77 c35 -36 40 -45
25 -45 -11 0 -36 16 -57 37 -32 31 -39 34 -53 23 -8 -7 -18 -10 -22 -6 -8 8
27 35 47 36 9 0 36 -20 60 -45z m595 7 c-3 -3 -16 5 -28 17 l-22 23 28 -17
c15 -10 25 -20 22 -23z m-35 -1 c0 -5 -8 -7 -18 -4 -10 2 -19 11 -19 18 0 10
5 11 19 4 10 -5 18 -14 18 -18z m-730 -7 c-14 -36 -13 -44 10 -44 11 0 20 7
20 15 0 17 26 20 35 4 4 -6 13 -8 21 -5 7 3 16 1 19 -4 4 -6 1 -10 -5 -10 -6
0 -9 -10 -7 -22 2 -13 2 -18 0 -13 -9 24 -40 33 -84 25 -24 -5 -47 -5 -51 -1
-4 3 -3 23 3 44 7 26 15 37 29 37 17 0 18 -4 10 -26z m672 19 c-6 -2 -9 -10
-5 -16 4 -7 -1 -6 -10 2 -22 18 -21 21 6 20 12 0 16 -3 9 -6z m-97 -33 c4 0 2
7 -5 15 -15 18 -16 18 40 0 38 -12 40 -14 15 -13 -17 1 -36 -1 -43 -6 -14 -8
-52 10 -52 26 0 6 8 4 18 -5 10 -10 22 -17 27 -17z m-665 -25 c0 -38 -3 -45
-20 -45 -17 0 -20 7 -20 40 0 39 -1 40 -27 34 -16 -4 -29 -11 -31 -16 -6 -13
-28 -9 -41 6 -13 16 8 21 97 24 l42 2 0 -45z m585 29 c41 -17 43 -30 1 -15
-17 7 -26 7 -26 1 0 -6 -4 -10 -10 -10 -5 0 -10 9 -10 20 0 24 -2 24 45 4z
m-735 -33 c8 -10 24 -21 34 -25 34 -12 -3 -35 -71 -44 l-62 -9 -42 43 -42 42
49 7 c27 4 54 8 59 10 19 7 60 -6 75 -24z m-190 -1 c0 -5 -11 -10 -25 -10 -33
0 -32 -13 5 -43 35 -30 37 -37 12 -37 -10 0 -33 16 -52 35 -31 32 -37 34 -74
28 -24 -3 -38 -2 -33 3 5 5 41 14 80 20 40 6 75 12 80 13 4 0 7 -3 7 -9z
m1385 -62 c46 -40 82 -74 80 -77 -6 -5 -353 -60 -384 -61 -24 0 -187 137 -176
148 4 5 322 55 383 61 8 0 52 -31 97 -71z m-720 42 c3 -5 2 -10 -4 -10 -5 0
-13 5 -16 10 -3 6 -2 10 4 10 5 0 13 -4 16 -10z m-90 -10 c3 -5 -1 -10 -9 -10
-9 0 -16 5 -16 10 0 6 4 10 9 10 6 0 13 -4 16 -10z m-165 -22 c0 -4 -7 -8 -15
-8 -8 0 -15 4 -15 8 0 5 7 9 15 9 8 0 15 -4 15 -9z m-45 -8 c3 -6 -1 -7 -9 -4
-18 7 -21 14 -7 14 6 0 13 -4 16 -10z m-90 -10 c3 -5 2 -10 -4 -10 -5 0 -13 5
-16 10 -3 6 -2 10 4 10 5 0 13 -4 16 -10z m45 0 c0 -5 -5 -10 -11 -10 -5 0 -7
5 -4 10 3 6 8 10 11 10 2 0 4 -4 4 -10z m-190 -20 c0 -5 -2 -10 -4 -10 -3 0
-8 5 -11 10 -3 6 -1 10 4 10 6 0 11 -4 11 -10z m35 0 c3 -5 2 -10 -4 -10 -5 0
-13 5 -16 10 -3 6 -2 10 4 10 5 0 13 -4 16 -10z m738 -14 c42 -10 25 -22 -32
-24 -48 -1 -92 20 -76 37 4 3 11 -2 16 -12 10 -17 40 -23 52 -10 4 3 1 13 -6
22 -10 14 -10 14 3 5 8 -6 28 -14 43 -18z m-853 -7 c0 -6 -4 -7 -10 -4 -5 3
-10 11 -10 16 0 6 5 7 10 4 6 -3 10 -11 10 -16z m705 11 c3 -5 2 -10 -4 -10
-5 0 -13 5 -16 10 -3 6 -2 10 4 10 5 0 13 -4 16 -10z m-70 -10 c3 -5 1 -10 -4
-10 -6 0 -11 5 -11 10 0 6 2 10 4 10 3 0 8 -4 11 -10z m45 -6 c0 -2 -7 -4 -15
-4 -8 0 -15 4 -15 10 0 5 7 7 15 4 8 -4 15 -8 15 -10z m-70 -6 c0 -11 -28 -10
-35 1 -3 6 4 9 15 8 11 -1 20 -5 20 -9z m-55 -8 c-3 -5 -18 -10 -33 -9 -24 0
-25 1 -7 9 28 12 47 12 40 0z m-65 -8 c0 -5 -7 -9 -15 -9 -8 0 -12 4 -9 9 3 4
9 8 15 8 5 0 9 -4 9 -8z m358 -86 c156 -145 157 -147 141 -157 -8 -5 -21 -8
-29 -8 -11 1 -10 3 3 6 9 2 17 8 17 11 0 13 -228 222 -252 231 -22 9 -22 10
-2 10 14 1 58 -32 122 -93z m-453 74 c3 -5 1 -10 -4 -10 -6 0 -11 5 -11 10 0
6 2 10 4 10 3 0 8 -4 11 -10z m52 4 c-3 -3 -12 -4 -19 -1 -8 3 -5 6 6 6 11 1
17 -2 13 -5z m246 -1 c-7 -2 -21 -2 -30 0 -10 3 -4 5 12 5 17 0 24 -2 18 -5z
m-328 -12 c-15 -13 -73 -22 -80 -11 -3 5 7 11 22 13 52 8 67 7 58 -2z m263 2
c-10 -2 -26 -2 -35 0 -10 3 -2 5 17 5 19 0 27 -2 18 -5z m-360 -19 c-3 -3 -23
-7 -44 -10 -22 -2 -47 -7 -56 -10 -10 -3 -18 -1 -18 5 0 5 21 13 48 16 26 4
52 8 57 9 12 4 20 -2 13 -10z m295 9 c-7 -2 -21 -2 -30 0 -10 3 -4 5 12 5 17
0 24 -2 18 -5z m146 -7 c9 -11 8 -15 -5 -20 -10 -4 -21 -1 -26 6 -6 11 -10 10
-17 0 -11 -18 -97 -27 -106 -12 -10 16 3 26 17 12 16 -16 39 -15 36 1 -2 7 8
12 24 12 15 1 30 4 34 8 12 11 31 8 43 -7z m-206 -3 c-7 -2 -21 -2 -30 0 -10
3 -4 5 12 5 17 0 24 -2 18 -5z m-368 -13 c3 -5 1 -10 -4 -10 -6 0 -11 5 -11
10 0 6 2 10 4 10 3 0 8 -4 11 -10z m308 3 c-7 -2 -21 -2 -30 0 -10 3 -4 5 12
5 17 0 24 -2 18 -5z m-1686 -12 c13 -1 53 -40 53 -52 0 -4 -35 -10 -77 -14
-43 -3 -86 -10 -95 -15 -32 -18 -133 -12 -151 8 -9 9 -13 22 -9 29 7 12 66 29
94 28 28 0 21 -20 -7 -23 -15 -2 -24 -9 -22 -15 5 -17 97 -16 97 1 0 6 5 12
12 12 6 0 3 6 -8 14 -16 12 -16 15 -4 20 30 10 66 13 117 7z m1343 -1 c0 -5
-8 -10 -17 -10 -10 0 -43 -3 -73 -6 -30 -4 -52 -4 -49 0 4 4 28 9 55 13 27 3
51 7 53 9 9 8 31 4 31 -6z m255 -1 c-51 -10 -92 -10 -50 1 17 4 44 8 60 8 25
0 24 -2 -10 -9z m-1931 -18 c4 -5 0 -12 -6 -14 -8 -4 -7 -6 4 -6 16 -1 58 -45
58 -62 0 -5 -13 -9 -28 -9 -22 0 -35 10 -59 44 -32 45 -30 53 9 55 9 1 19 -3
22 -8z m1753 -7 c-3 -3 -12 -4 -19 -1 -8 3 -5 6 6 6 11 1 17 -2 13 -5z m-110
-10 c-3 -3 -12 -4 -19 -1 -8 3 -5 6 6 6 11 1 17 -2 13 -5z m193 1 c0 -3 -16
-11 -35 -19 -35 -15 -47 -35 -22 -37 28 -3 63 4 75 13 8 7 12 7 12 0 0 -5 15
-13 33 -17 l32 -8 -29 -4 c-16 -3 -32 0 -35 5 -7 11 -71 4 -71 -8 0 -16 51
-40 75 -36 14 3 23 1 20 -5 -4 -5 4 -9 17 -9 18 0 20 2 8 10 -12 8 -9 10 13
10 16 0 26 -4 22 -10 -3 -5 3 -10 14 -10 10 0 21 4 23 9 2 5 12 3 23 -6 18
-13 11 -14 -76 -11 -95 3 -96 3 -138 41 -22 20 -46 37 -52 37 -19 0 12 30 45
45 34 15 46 17 46 10z m440 -37 c38 -43 38 -43 16 -56 -19 -12 -16 -13 26 -8
30 4 50 1 54 -6 5 -7 0 -9 -14 -6 -12 4 -22 3 -22 -1 0 -9 -42 -8 -56 1 -6 4
-34 -2 -62 -14 -29 -12 -55 -18 -59 -14 -10 9 18 27 35 21 18 -7 43 5 35 18
-3 5 -1 7 5 4 14 -9 43 3 36 14 -3 5 2 6 12 2 14 -5 15 -3 5 15 -6 11 -22 29
-36 40 -24 19 -32 32 -19 32 4 0 23 -19 44 -42z m-697 25 c-7 -2 -19 -2 -25 0
-7 3 -2 5 12 5 14 0 19 -2 13 -5z m-1630 -35 l32 -32 -30 -7 c-24 -5 -34 -1
-50 18 -12 12 -28 23 -38 23 -19 0 -23 -15 -7 -25 21 -13 10 -35 -18 -35 -20
0 -35 9 -51 31 -13 17 -21 33 -18 35 6 6 86 22 120 23 20 1 38 -9 60 -31z
m1569 23 c-22 -6 -16 -14 84 -121 88 -95 114 -116 143 -121 l36 -6 -37 -2
c-34 -1 -43 6 -147 116 -61 65 -111 123 -111 130 0 8 11 13 28 12 26 -1 26 -1
4 -8z m328 -6 c-7 -9 -15 -13 -19 -10 -3 3 1 10 9 15 21 14 24 12 10 -5z m370
-5 c-20 -13 -33 -13 -25 0 3 6 14 10 23 10 15 0 15 -2 2 -10z m-2590 -10 c0
-5 21 -7 49 -3 47 5 52 4 83 -28 l33 -34 -34 -3 c-25 -3 -37 2 -48 17 -8 12
-23 21 -34 21 -21 0 -25 -10 -8 -27 15 -15 2 -33 -24 -33 -14 0 -32 15 -49 39
-36 50 -35 61 2 61 17 0 30 -4 30 -10z m3407 4 c-3 -3 -12 -4 -19 -1 -8 3 -5
6 6 6 11 1 17 -2 13 -5z m-1017 -19 c-7 -8 -24 -14 -39 -14 l-26 2 28 4 c15 2
25 9 22 14 -4 5 1 9 11 9 13 0 14 -3 4 -15z m132 -3 c-18 -10 -30 -21 -27 -24
3 -3 -13 -2 -35 2 -22 4 -44 11 -48 15 -4 4 6 5 21 1 16 -4 34 -3 40 2 13 10
42 19 67 20 8 1 0 -7 -18 -16z m825 12 c-3 -3 -12 -4 -19 -1 -8 3 -5 6 6 6 11
1 17 -2 13 -5z m-4542 -24 c3 -5 1 -10 -4 -10 -6 0 -11 5 -11 10 0 6 2 10 4
10 3 0 8 -4 11 -10z m1123 -11 c-7 -5 -23 -9 -35 -9 -14 0 -23 -6 -23 -16 0
-11 9 -15 33 -13 57 4 72 0 59 -13 -6 -6 -39 -12 -72 -12 -50 -1 -64 3 -76 18
-19 27 -18 32 14 44 51 21 132 21 100 1z m3272 17 c0 -9 -40 -13 -46 -5 -3 5
6 9 20 9 14 0 26 -2 26 -4z m187 -2 c-3 -3 -12 -4 -19 -1 -8 3 -5 6 6 6 11 1
17 -2 13 -5z m-1270 -21 c3 -8 -8 -11 -37 -8 -29 3 -38 0 -33 -8 4 -7 0 -6
-10 2 -9 7 -17 16 -17 19 0 3 3 3 6 0 3 -3 17 -2 32 2 34 11 54 8 59 -7z
m-2499 -11 c2 -7 -7 -12 -22 -12 -31 0 -32 -9 -6 -43 22 -27 20 -31 -22 -41
-22 -5 -29 -1 -47 30 -19 32 -25 35 -58 32 -57 -5 -53 19 4 27 26 4 66 10 88
15 47 9 57 8 63 -8z m168 -13 c14 -12 14 -14 -3 -20 -16 -7 -16 -8 0 -8 38 -2
14 -20 -39 -29 -77 -13 -124 0 -124 35 0 37 127 54 166 22z m3407 14 c-7 -2
-19 -2 -25 0 -7 3 -2 5 12 5 14 0 19 -2 13 -5z m-103 -13 c0 -5 -2 -10 -4 -10
-3 0 -8 5 -11 10 -3 6 -1 10 4 10 6 0 11 -4 11 -10z m-4242 -18 c2 -7 -3 -12
-12 -12 -9 0 -16 7 -16 16 0 17 22 14 28 -4z m56 -5 c-3 -8 -12 -18 -20 -21
-20 -8 -18 21 3 33 21 12 25 9 17 -12z m3576 -4 c0 -2 -15 -2 -32 1 -42 5 -40
4 -33 15 5 9 65 -5 65 -16z m-130 -22 c0 -5 -13 -9 -30 -9 -16 1 -30 5 -30 10
0 4 14 8 30 8 17 0 30 -4 30 -9z m517 3 c-3 -3 -12 -4 -19 -1 -8 3 -5 6 6 6
11 1 17 -2 13 -5z m-1586 -66 c122 -140 129 -154 77 -162 -288 -47 -423 -66
-438 -61 -27 8 -175 206 -160 215 6 4 100 19 208 34 108 16 199 30 201 32 2 2
16 4 31 4 21 0 40 -15 81 -62z m991 50 c-9 -9 -15 -9 -24 0 -9 9 -7 12 12 12
19 0 21 -3 12 -12z m355 -14 c-3 -3 -12 -4 -19 -1 -8 3 -5 6 6 6 11 1 17 -2
13 -5z m-54 -11 c-7 -2 -19 -2 -25 0 -7 3 -2 5 12 5 14 0 19 -2 13 -5z m-319
-11 c3 -5 -8 -8 -24 -8 -16 0 -27 3 -24 8 3 4 14 8 24 8 10 0 21 -4 24 -8z
m259 1 c-7 -2 -21 -2 -30 0 -10 3 -4 5 12 5 17 0 24 -2 18 -5z m-323 -13 c0
-5 -15 -10 -32 -9 -28 0 -30 2 -13 9 28 12 45 12 45 0z m263 3 c-7 -2 -21 -2
-30 0 -10 3 -4 5 12 5 17 0 24 -2 18 -5z m-3623 -13 c0 -5 -2 -10 -4 -10 -3 0
-8 5 -11 10 -3 6 -1 10 4 10 6 0 11 -4 11 -10z m3475 -10 c-55 -11 -111 -19
-125 -18 -34 1 157 36 195 36 17 0 -15 -8 -70 -18z m-448 -376 c-3 -3 -12 -4
-19 -1 -8 3 -5 6 6 6 11 1 17 -2 13 -5z m-717 -104 c0 -5 -10 -10 -22 -9 -22
0 -22 1 -3 9 11 5 21 9 23 9 1 1 2 -3 2 -9z m-217 -37 c-7 -2 -21 -2 -30 0
-10 3 -4 5 12 5 17 0 24 -2 18 -5z m-60 -10 c-7 -2 -19 -2 -25 0 -7 3 -2 5 12
5 14 0 19 -2 13 -5z m-194 -27 c-9 -10 -642 -76 -709 -75 -60 1 -3 17 63 18
32 1 102 6 155 11 53 6 165 17 247 26 83 8 159 17 170 18 35 5 78 6 74 2z
m-881 -83 c-15 -2 -42 -2 -60 0 -18 2 -6 4 27 4 33 0 48 -2 33 -4z m-828 -282
c23 -49 39 -71 52 -71 10 0 18 -1 18 -2 0 -2 14 -37 31 -78 17 -41 33 -89 34
-105 3 -26 27 -86 117 -285 12 -25 29 -64 39 -87 10 -24 24 -43 32 -43 7 0 23
-22 35 -48 23 -51 68 -82 117 -82 23 0 25 -4 25 -43 0 -24 9 -130 20 -237 11
-107 20 -211 20 -232 0 -27 6 -41 20 -50 11 -7 20 -23 20 -35 0 -13 6 -23 13
-23 9 0 9 -3 -1 -9 -12 -7 -10 -42 7 -212 11 -112 25 -269 31 -349 6 -80 22
-260 35 -400 33 -349 33 -340 18 -340 -7 0 -16 12 -20 28 -3 15 -21 60 -40
100 -18 40 -34 81 -34 90 -1 9 -5 4 -8 -13 -7 -30 -7 -30 -15 12 -4 24 -12 45
-16 48 -13 8 -158 302 -165 335 -4 16 -13 33 -20 38 -8 4 -20 25 -27 47 -10
30 -23 45 -55 63 -24 13 -43 29 -43 36 0 7 -13 33 -29 58 -16 25 -35 72 -41
104 -7 33 -16 61 -20 64 -4 3 -13 55 -18 115 -6 61 -20 184 -32 275 -11 91
-40 347 -65 570 -24 223 -47 421 -50 440 l-6 35 20 -30 c11 -16 41 -79 66
-138 26 -59 50 -106 52 -103 3 2 -5 26 -17 53 -87 190 -117 296 -135 468 -3
33 -9 73 -12 89 -8 44 9 25 47 -53z m179 -16 c0 -15 -3 -12 -13 11 -25 56 -28
82 -7 44 11 -19 20 -44 20 -55z m-152 53 c-3 -8 -6 -5 -6 6 -1 11 2 17 5 13 3
-3 4 -12 1 -19z m168 -88 c3 -5 1 -10 -4 -10 -6 0 -11 5 -11 10 0 6 2 10 4 10
3 0 8 -4 11 -10z m19 -141 c-3 -5 -11 -9 -17 -8 -8 0 -8 2 1 6 10 4 10 8 0 21
-12 15 -11 16 4 3 10 -7 15 -17 12 -22z m1166 21 c0 -5 -17 -9 -37 -9 -38 1
-38 1 -8 9 43 11 45 11 45 0z m-1110 -167 c0 -25 -3 -43 -7 -40 -7 8 -12 69
-6 80 9 16 13 5 13 -40z m5722 -78 c-14 -36 -29 -62 -32 -58 -11 12 -33 103
-28 109 3 2 11 -16 17 -41 6 -25 13 -45 15 -45 3 0 12 23 21 50 9 28 20 50 25
50 4 0 -3 -29 -18 -65z m-77 35 c7 -11 -34 -90 -47 -90 -10 0 8 36 22 45 16
10 12 45 -5 45 -8 0 -15 -4 -15 -10 0 -5 -5 -10 -11 -10 -8 0 -8 5 1 15 14 17
46 20 55 5z m-85 -62 c0 -34 -3 -58 -7 -54 -4 4 -6 27 -4 52 2 31 -1 44 -8 40
-12 -8 -15 6 -4 17 17 17 23 2 23 -55z m-5562 27 c-3 -3 -9 2 -12 12 -6 14 -5
15 5 6 7 -7 10 -15 7 -18z m9 -97 c-3 -7 -5 -2 -5 12 0 14 2 19 5 13 2 -7 2
-19 0 -25z m5281 25 c-2 -5 -25 -50 -51 -100 -26 -51 -47 -95 -47 -98 0 -16
32 -1 40 19 11 31 60 42 67 15 3 -11 9 -19 14 -19 5 0 9 -16 9 -35 0 -19 -5
-35 -10 -35 -6 0 -15 -11 -20 -25 -7 -19 -17 -25 -41 -25 -23 0 -30 4 -26 14
9 23 0 24 -63 11 l-60 -13 0 35 c0 24 19 71 58 144 51 96 60 108 87 112 17 2
34 5 38 5 5 1 7 -1 5 -5z m352 3 c0 -2 -13 -6 -30 -8 -16 -3 -30 -1 -30 4 0 4
14 8 30 8 17 0 30 -2 30 -4z m-5571 -33 c-7 -10 -14 -19 -15 -21 -1 -2 -4 4
-8 13 -3 9 -2 13 3 10 5 -3 12 -1 16 5 3 5 9 10 12 10 3 0 -1 -8 -8 -17z m286
7 c-16 -4 -52 -7 -80 -7 l-50 0 45 7 c25 4 61 7 80 7 l35 1 -30 -8z m4775 -29
c0 -17 -23 -87 -52 -156 -52 -128 -66 -145 -115 -145 -19 0 -18 5 40 143 35
81 42 107 31 107 -27 0 -54 -20 -54 -39 0 -17 -25 -31 -57 -31 -15 0 -18 77
-3 100 5 9 44 22 97 31 119 23 113 23 113 -10z m-5098 -9 c-4 -11 -1 -13 8 -7
10 6 12 4 7 -8 -3 -9 0 -29 8 -44 8 -15 15 -35 15 -43 0 -8 -10 5 -21 30 -36
78 -38 87 -24 87 8 0 11 -7 7 -15z m5488 -97 c25 8 39 -20 33 -62 -7 -44 -23
-42 -23 2 0 49 -28 48 -32 -2 -2 -20 -9 -38 -17 -41 -11 -4 -12 8 -6 59 8 70
18 97 23 61 3 -17 8 -21 22 -17z m-74 -40 c17 -52 13 -86 -6 -55 -7 11 -14 12
-34 2 -14 -6 -26 -16 -26 -22 0 -5 -7 -10 -14 -10 -13 0 -13 4 0 35 7 19 21
51 28 70 8 19 19 35 25 35 5 0 18 -25 27 -55z m210 -260 c10 -41 -5 -114 -26
-125 -27 -15 -60 -12 -66 5 -5 12 -10 10 -26 -10 -22 -28 -75 -35 -84 -10 -5
12 -10 10 -26 -10 -22 -28 -59 -33 -78 -10 -15 18 9 86 45 131 27 33 35 13 9
-24 -13 -19 -13 -22 -1 -22 8 0 20 -7 27 -15 19 -23 43 0 29 27 -17 32 14 70
54 66 30 -3 32 -5 32 -45 1 -23 4 -45 8 -49 4 -4 7 10 7 32 0 52 23 84 60 84
23 0 31 -5 36 -25z m-570 -292 c-3 -7 -13 -13 -21 -13 -14 0 -15 12 -9 98 l7
97 -27 -24 c-22 -21 -26 -22 -26 -7 0 19 25 47 55 64 19 10 20 7 23 -96 1 -58
0 -112 -2 -119z m-118 190 c-2 -5 -20 -41 -41 -80 -20 -40 -37 -75 -37 -78 0
-3 11 -5 24 -5 19 0 25 6 28 27 4 38 38 45 38 9 0 -14 5 -26 10 -26 6 0 10 -7
10 -15 0 -8 -4 -15 -9 -15 -5 0 -13 -9 -16 -20 -8 -24 -35 -27 -35 -4 0 14 -7
15 -45 10 -37 -6 -45 -4 -45 9 0 30 90 195 106 195 9 0 14 -3 12 -7z m-98 -25
c0 -28 -85 -220 -102 -229 -26 -14 -23 -1 23 108 22 52 39 96 37 98 -2 1 -18
0 -35 -2 -23 -4 -33 -11 -33 -23 0 -18 -26 -35 -33 -22 -3 4 -4 18 -2 32 1 21
9 27 46 37 59 15 99 16 99 1z m-182 -40 c7 -7 12 -24 12 -38 0 -14 -5 -31 -12
-38 -9 -9 -9 -15 0 -24 13 -13 16 -47 6 -73 -9 -23 -53 -43 -113 -51 l-52 -7
2 92 c3 126 6 139 38 144 56 9 108 6 119 -5z m-3901 -14 c-3 -3 -12 -4 -19 -1
-8 3 -5 6 6 6 11 1 17 -2 13 -5z m3733 -9 c0 -8 -14 -17 -35 -21 l-35 -6 0
-99 c0 -55 -2 -99 -4 -99 -2 0 -11 -3 -20 -6 -14 -5 -16 7 -16 96 l0 102 -30
-7 c-23 -5 -30 -3 -30 9 0 9 10 18 23 20 132 29 147 30 147 11z m1130 -34 c0
-28 -4 -52 -8 -55 -4 -2 -8 20 -8 50 1 30 4 54 9 54 4 0 7 -22 7 -49z m-4935
29 c-3 -5 -12 -10 -18 -10 -7 0 -6 4 3 10 19 12 23 12 15 0z m4903 -36 c-3
-45 -14 -52 -38 -22 l-19 23 -1 -27 c0 -16 -5 -28 -11 -28 -8 0 -9 12 -4 38 9
49 13 51 35 22 l20 -25 0 28 c0 15 5 27 10 27 6 0 10 -16 8 -36z m-163 -29 c0
-30 -3 -55 -7 -55 -10 0 -11 94 -1 103 3 4 7 7 7 7 1 0 1 -25 1 -55z m58 43
c-27 -13 -30 -28 -5 -28 16 -1 16 -1 0 -11 -26 -15 -23 -38 5 -33 20 4 21 4 2
-5 -37 -18 -45 -13 -45 27 0 43 14 62 45 61 19 0 19 -1 -2 -11z m-118 -54 c19
-46 19 -47 -6 -39 -13 4 -27 0 -40 -11 -10 -9 -19 -15 -19 -11 0 11 39 97 45
97 2 0 12 -16 20 -36z m280 -321 c-6 -100 -13 -185 -16 -188 -7 -6 -393 -85
-397 -81 -4 5 16 378 21 383 9 8 392 80 398 74 3 -3 0 -88 -6 -188z m-458 41
c2 -5 -12 -9 -29 -9 -31 0 -33 -2 -36 -37 -3 -33 0 -38 18 -38 12 0 18 -4 15
-10 -3 -5 -15 -10 -26 -10 -18 0 -20 6 -17 52 3 46 6 53 28 59 30 8 43 6 47
-7z m-107 -25 c0 -11 -4 -17 -10 -14 -5 3 -10 13 -10 21 0 8 5 14 10 14 6 0
10 -9 10 -21z m-66 2 c3 -4 0 -16 -7 -25 -11 -14 -12 -13 -13 9 -2 24 10 34
20 16z m36 -22 c0 -5 -7 -9 -15 -9 -15 0 -20 12 -9 23 8 8 24 -1 24 -14z
m-135 -18 c-7 -23 -34 -28 -53 -9 -9 9 -12 8 -12 -5 0 -20 -15 -23 -26 -5 -5
8 -10 6 -15 -8 -6 -16 -8 -16 -8 -2 -1 21 4 24 53 33 28 6 37 5 32 -4 -4 -6
-2 -11 4 -11 7 0 14 9 17 20 3 12 8 19 10 16 3 -2 2 -14 -2 -25z m22 -3 c-3
-7 -5 -2 -5 12 0 14 2 19 5 13 2 -7 2 -19 0 -25z m41 15 c-5 -25 -28 -28 -28
-4 0 12 6 21 16 21 9 0 14 -7 12 -17z m218 3 c8 -8 14 -22 14 -31 0 -24 -29
-30 -45 -9 -7 11 -9 21 -4 22 5 2 9 10 9 18 0 18 8 18 26 0z m-429 -47 c2 -21
1 -21 -13 -3 -14 17 -15 17 -10 2 3 -10 1 -18 -4 -18 -6 0 -10 9 -10 20 0 28
35 27 37 -1z m-82 1 c3 -5 11 -10 16 -10 6 0 7 5 4 10 -3 6 -1 10 4 10 6 0 11
-8 11 -18 0 -10 -7 -19 -15 -19 -8 0 -15 4 -15 9 0 4 -5 8 -11 8 -5 0 -7 -4
-4 -10 3 -5 1 -10 -4 -10 -6 0 -11 5 -11 12 0 6 -9 3 -20 -7 -15 -14 -20 -15
-21 -4 0 8 -4 6 -9 -6 -9 -20 -9 -20 -9 0 -1 15 8 24 32 32 44 14 45 14 52 3z
m-95 -25 c0 -16 -6 -25 -15 -25 -18 0 -19 16 -2 35 16 19 17 19 17 -10z
m-2763 -1 c7 -19 -13 -34 -44 -34 -28 0 -32 36 -5 43 33 9 43 7 49 -9z m327
-16 c11 -15 16 -45 16 -85 0 -58 -2 -63 -22 -64 -28 -2 -36 -3 -70 -13 -50
-15 -92 30 -68 73 6 12 31 26 57 34 47 14 45 35 -2 23 -26 -7 -55 1 -55 15 0
15 54 38 92 39 27 0 41 -6 52 -22z m2389 15 c3 6 6 2 6 -10 1 -14 -5 -23 -14
-23 -8 0 -15 6 -15 13 0 8 -4 7 -10 -3 -8 -12 -10 -11 -10 8 0 19 3 21 19 12
14 -7 21 -6 24 3z m-2567 -23 c26 -10 26 -11 9 -30 -10 -11 -28 -20 -41 -20
-26 0 -39 -28 -29 -61 5 -16 12 -19 32 -14 23 5 53 -8 53 -25 0 -12 -50 -30
-84 -30 -25 0 -38 7 -50 25 -21 31 -21 84 0 114 13 17 57 46 81 51 1 0 14 -5
29 -10z m2504 -6 c0 -10 -8 -15 -22 -14 -13 1 -26 2 -30 1 -5 -1 -11 -1 -14 0
-4 0 -11 -5 -15 -13 -7 -10 -9 -10 -9 0 0 10 -4 10 -20 0 -20 -13 -40 -4 -24
12 5 5 25 12 44 15 19 3 35 7 37 8 1 2 13 3 27 5 18 1 26 -3 26 -14z m-3046
-57 c-1 -25 1 -26 40 -21 55 8 67 -7 74 -92 4 -50 2 -68 -9 -75 -21 -13 -57
-11 -56 4 0 6 -1 33 -1 60 -2 41 -5 47 -23 47 -21 0 -21 -4 -17 -64 l6 -65
-30 -6 c-16 -4 -31 -5 -33 -3 -2 1 -7 55 -10 120 l-8 116 24 5 c37 7 44 2 43
-26z m396 -51 c0 -82 -1 -84 -26 -90 -15 -4 -28 -6 -29 -4 -3 3 -7 135 -6 166
1 7 14 12 31 12 l30 0 0 -84z m-108 57 c16 -19 33 -149 20 -156 -4 -2 -19 -7
-34 -11 l-28 -6 0 60 c0 45 -4 62 -15 67 -25 9 -30 -4 -30 -70 0 -62 0 -62
-30 -65 l-30 -3 -3 91 -4 90 34 0 c18 0 40 5 48 10 23 15 55 12 72 -7z m3421
-48 c-3 -9 -8 -13 -11 -10 -3 3 -14 -2 -24 -12 -12 -10 -18 -12 -18 -4 0 7 -7
10 -19 6 -10 -3 -27 -2 -37 2 -17 6 -16 8 6 13 14 4 33 3 43 -2 10 -5 17 -5
17 1 0 8 16 16 42 20 4 0 5 -6 1 -14z m37 11 c0 -3 -4 -8 -10 -11 -5 -3 -10
-1 -10 4 0 6 5 11 10 11 6 0 10 -2 10 -4z m-4140 -40 c0 -18 -7 -25 -31 -30
l-32 -6 6 -94 5 -94 -29 -4 c-17 -3 -32 -1 -35 4 -3 5 -8 45 -11 89 l-6 79
-33 0 c-30 0 -34 3 -34 25 0 17 7 26 23 30 84 18 163 32 170 28 4 -2 7 -15 7
-27z m308 16 c18 -12 -16 -49 -48 -54 -17 -2 -26 -10 -28 -26 -5 -31 15 -54
36 -43 19 11 52 -4 52 -23 0 -7 -11 -18 -25 -24 -68 -31 -125 1 -125 69 0 22
5 49 10 59 21 38 95 62 128 42z m3680 -17 c4 -5 -1 -5 -12 -1 -10 3 -24 2 -30
-3 -7 -6 -16 -4 -24 5 -11 13 -8 14 23 11 19 -3 39 -8 43 -12z m-91 -10 c0 -6
-9 -11 -19 -11 -18 0 -23 8 -13 18 9 9 32 5 32 -7z m-3757 -32 c34 -43 24 -66
-35 -76 -59 -10 -84 -27 -39 -27 17 0 34 4 40 9 5 6 17 4 29 -5 20 -15 20 -15
0 -30 -30 -22 -84 -34 -110 -24 -31 12 -45 40 -45 87 1 60 36 92 102 93 28 0
41 -6 58 -27z m3674 15 c-3 -5 -15 -6 -26 -2 -14 4 -18 2 -14 -5 4 -6 0 -11
-8 -11 -19 0 -21 16 -3 23 22 8 57 5 51 -5z m292 0 c5 -7 3 -8 -6 -3 -10 6
-12 4 -7 -8 3 -10 2 -17 -3 -17 -6 0 -10 5 -10 11 0 7 -8 6 -23 -4 -20 -13
-26 -13 -42 -1 -17 12 -17 14 -2 14 9 0 17 -6 17 -12 0 -10 2 -10 8 -1 6 9 31
23 59 32 1 1 5 -4 9 -11z m-409 -30 c-3 -7 -5 -2 -5 12 0 14 2 19 5 13 2 -7 2
-19 0 -25z m-27 0 c0 -6 -6 -8 -14 -5 -8 3 -17 1 -20 -6 -2 -7 -5 -2 -5 10 -1
16 3 20 19 16 11 -3 20 -10 20 -15z m267 -10 c-3 -8 -6 -5 -6 6 -1 11 2 17 5
13 3 -3 4 -12 1 -19z m38 16 c13 -5 14 -8 3 -15 -19 -13 -28 -11 -28 6 0 17 2
18 25 9z m-375 -14 c0 -5 -3 -10 -7 -10 -5 0 -18 -3 -30 -6 -14 -4 -23 -2 -23
5 0 7 4 10 9 6 5 -3 12 -1 16 5 8 13 35 13 35 0z m297 -12 c-3 -8 -6 -5 -6 6
-1 11 2 17 5 13 3 -3 4 -12 1 -19z m20 0 c-3 -8 -6 -5 -6 6 -1 11 2 17 5 13 3
-3 4 -12 1 -19z m-111 3 c10 8 14 8 14 1 0 -6 -9 -16 -20 -22 -17 -9 -20 -8
-19 12 0 13 3 17 6 10 4 -10 8 -10 19 -1z m60 -6 c-16 -17 -36 -20 -36 -6 0 8
17 16 43 20 5 0 2 -6 -7 -14z m-356 -7 c0 -4 -9 -8 -20 -8 -11 0 -20 4 -20 8
0 4 9 8 20 8 11 0 20 -4 20 -8z m-96 -13 c-6 -16 -24 -21 -24 -7 0 11 11 22
21 22 5 0 6 -7 3 -15z m333 0 c-9 -9 -14 -10 -19 -1 -5 7 -8 7 -8 -3 0 -8 -3
-12 -6 -8 -10 10 3 23 25 24 17 1 18 -1 8 -12z m-384 -5 c3 6 5 6 3 -1 -3 -18
-36 -20 -36 -2 0 12 3 13 14 4 10 -8 16 -9 19 -1z m337 -5 c0 -8 -9 -15 -20
-15 -25 0 -26 17 -2 23 9 3 18 5 20 6 1 0 2 -6 2 -14z m-398 -4 c16 9 19 8 16
-3 -3 -7 -16 -13 -30 -14 -14 -1 -30 -4 -37 -8 -6 -4 -11 -1 -11 8 0 15 33 27
38 14 2 -4 13 -3 24 3z m348 -2 c0 -5 -4 -8 -9 -5 -5 4 -11 0 -14 -6 -2 -7 -8
-9 -13 -5 -5 4 -2 12 6 17 20 13 30 12 30 -1z m-4790 -44 c0 -17 -2 -17 -10
-5 -5 8 -10 24 -10 35 0 17 2 17 10 5 5 -8 10 -24 10 -35z m4743 30 c4 -8 2
-17 -3 -20 -6 -4 -10 3 -10 14 0 25 6 27 13 6z m-117 -20 c1 -8 -2 -15 -7 -15
-5 0 -9 10 -9 22 0 23 12 17 16 -7z m44 4 c0 -23 -21 -22 -28 2 -3 11 -2 11 7
-1 9 -13 11 -13 11 3 0 9 2 17 5 17 3 0 5 -9 5 -21z m32 12 c8 12 9 12 6 0 -6
-22 -28 -25 -27 -4 0 12 2 14 6 4 5 -11 7 -11 15 0z m-119 -25 c3 -8 -2 -16
-14 -19 -14 -4 -19 0 -19 14 0 22 25 26 33 5z m-43 -13 c0 -14 -2 -15 -9 -4
-7 11 -9 11 -14 0 -4 -10 -6 -9 -6 4 -1 9 6 17 14 17 8 0 15 -8 15 -17z m-119
-1 c14 -6 15 -9 3 -20 -12 -11 -14 -10 -14 3 0 8 -5 15 -11 15 -7 0 -9 -9 -6
-21 4 -16 3 -19 -5 -11 -11 11 -4 43 9 41 4 0 15 -3 24 -7z m73 -1 c3 -4 -2
-17 -10 -27 -9 -10 -13 -13 -9 -6 3 6 1 12 -4 12 -6 0 -11 7 -11 15 0 16 25
21 34 6z m-2257 -63 c6 -7 13 -66 16 -130 7 -135 5 -140 -70 -156 -197 -42
-224 -45 -237 -31 -9 9 -16 57 -20 136 -7 145 -9 142 114 162 41 7 91 16 110
21 53 12 76 11 87 -2z m-459 -91 c6 -6 12 -65 13 -130 2 -93 -1 -121 -12 -133
-16 -16 -286 -71 -296 -60 -10 10 -21 110 -22 199 -1 90 -13 81 139 113 124
26 164 29 178 11z m-1745 -22 c-3 -8 -9 -15 -14 -15 -10 0 -12 24 -3 33 11 11
24 -3 17 -18z m1278 -90 c4 -16 9 -74 12 -128 4 -74 2 -100 -8 -111 -15 -15
-279 -68 -300 -60 -12 5 -16 34 -30 212 -3 46 -1 54 19 67 29 19 207 54 260
52 35 -2 41 -5 47 -32z m907 -127 c-3 -7 -13 -13 -24 -14 -11 -1 -35 -6 -54
-12 -67 -20 -100 -23 -100 -8 0 15 46 30 93 30 15 0 27 4 27 8 0 4 14 8 31 8
20 0 29 -4 27 -12z m-188 -34 c0 -8 -4 -13 -9 -10 -5 4 -11 1 -13 -6 -4 -12
-28 -3 -28 12 0 7 17 15 43 19 4 0 7 -6 7 -15z m194 -9 c-4 -8 -10 -12 -15 -9
-5 3 -9 0 -9 -5 0 -6 -7 -11 -15 -11 -24 0 -17 28 8 33 12 2 25 5 29 6 4 0 5
-6 2 -14z m-64 -14 c0 -14 -10 -20 -47 -25 -60 -8 -81 -12 -115 -21 -22 -6
-28 -4 -28 8 0 9 5 19 10 22 6 3 10 -2 10 -11 0 -16 1 -16 14 1 8 11 19 16 30
12 9 -4 16 -3 16 1 0 4 13 9 29 10 17 1 40 6 53 11 13 6 24 10 26 10 1 1 2 -7
2 -18z m-430 -35 c0 -18 -168 -52 -183 -37 -13 13 23 28 82 35 28 3 41 1 41
-7 0 -7 5 -4 11 6 12 20 49 23 49 3z m-41 -53 c1 20 31 23 31 2 0 -15 -36 -25
-102 -28 -21 -1 -38 -5 -38 -9 0 -5 -5 -8 -11 -8 -6 0 -9 8 -7 17 2 11 15 18
36 21 19 2 44 7 55 11 16 6 24 4 29 -8 6 -14 7 -14 7 2z m-419 -38 c0 -8 -9
-15 -20 -15 -26 0 -31 -1 -57 -11 -19 -7 -23 -5 -23 11 0 13 9 20 28 23 57 9
72 7 72 -8z m-120 -21 c0 -8 -8 -15 -17 -16 -33 -2 -38 -4 -50 -11 -9 -6 -13
-2 -13 12 0 19 11 25 57 27 14 1 23 -4 23 -12z m166 -21 c-6 -15 -8 -15 -16
-3 -8 13 -10 12 -10 -2 0 -9 -8 -17 -17 -17 -10 1 -42 -3 -70 -9 -42 -7 -53
-6 -53 4 0 14 36 27 61 23 8 -1 25 2 39 8 29 12 63 20 69 17 2 -2 0 -11 -3
-21z m-206 -27 c0 6 7 11 15 11 26 0 16 -25 -12 -31 -79 -18 -83 -17 -83 5 0
17 5 20 25 17 14 -3 28 -1 31 4 4 6 10 5 15 -3 5 -8 9 -9 9 -3z m-880 -41 c0
-8 -4 -15 -10 -15 -5 0 -10 7 -10 15 0 8 5 15 10 15 6 0 10 -7 10 -15z m2290
-515 c0 -5 -5 -10 -11 -10 -5 0 -7 5 -4 10 3 6 8 10 11 10 2 0 4 -4 4 -10z
m-2070 -30 c0 -11 -7 -20 -15 -20 -18 0 -19 12 -3 28 16 16 18 15 18 -8z m280
-514 c0 -11 -19 -15 -25 -6 -3 5 1 10 9 10 9 0 16 -2 16 -4z"/>
<path d="M5028 5713 c7 -3 16 -2 19 1 4 3 -2 6 -13 5 -11 0 -14 -3 -6 -6z"/>
<path d="M4730 5743 c-31 -12 -41 -25 -29 -39 6 -8 19 -14 28 -14 14 1 14 2
-1 11 -28 16 -21 27 23 34 33 6 44 4 51 -9 5 -9 14 -16 20 -16 6 0 3 9 -7 20
-17 19 -53 25 -85 13z"/>
<path d="M4840 5725 c7 -8 17 -15 22 -15 6 0 5 7 -2 15 -7 8 -17 15 -22 15 -6
0 -5 -7 2 -15z"/>
<path d="M4880 5725 c16 -20 13 -22 -32 -26 -25 -2 -43 2 -57 15 -13 12 -27
15 -41 11 -20 -7 -20 -7 4 -26 27 -21 77 -25 125 -8 33 12 41 33 15 43 -24 9
-28 7 -14 -9z m-83 -31 c-3 -3 -12 -4 -19 -1 -8 3 -5 6 6 6 11 1 17 -2 13 -5z"/>
<path d="M4960 5644 c14 -10 27 -19 29 -20 2 -2 -2 -10 -9 -19 -15 -18 -11
-19 24 -5 44 16 28 39 -39 54 l-30 7 25 -17z"/>
<path d="M4828 5639 c-26 -15 -22 -26 13 -38 47 -16 60 -13 19 5 -33 15 -34
16 -16 30 23 16 10 19 -16 3z"/>
<path d="M4910 5620 c11 -11 28 -20 38 -19 12 0 10 3 -8 10 -20 8 -22 12 -10
19 11 7 8 10 -12 10 l-28 0 20 -20z"/>
<path d="M5324 5581 c21 -23 26 -26 26 -11 0 5 -10 15 -22 21 -23 12 -23 12
-4 -10z"/>
<path d="M5030 5566 c0 -2 18 -23 40 -46 22 -23 40 -36 40 -30 0 10 4 10 18 0
9 -7 -5 8 -33 34 -45 41 -65 54 -65 42z"/>
<path d="M5360 5561 c0 -10 39 -36 45 -29 2 2 -8 11 -21 21 -13 10 -24 13 -24
8z"/>
<path d="M4925 5551 c-3 -6 4 -15 15 -21 11 -6 20 -8 20 -4 0 4 9 -1 20 -11
11 -10 17 -21 15 -26 -3 -4 4 -7 15 -6 29 2 25 11 -19 46 -41 32 -56 37 -66
22z"/>
<path d="M4917 5518 c21 -18 40 -36 41 -40 6 -13 19 -9 25 6 3 8 -2 20 -11 28
-11 9 -14 10 -8 1 13 -22 -10 -14 -34 12 -13 14 -30 25 -37 25 -8 0 3 -15 24
-32z"/>
<path d="M4791 5531 c0 -3 19 -21 41 -39 27 -21 47 -30 57 -26 9 4 25 6 36 6
16 0 12 6 -18 31 -27 23 -49 32 -78 33 -21 1 -39 -2 -38 -5z m115 -48 c-2 -3
-11 -1 -18 3 -7 5 -17 9 -22 9 -5 0 -10 8 -12 18 -2 15 1 15 27 -4 17 -12 28
-23 25 -26z"/>
<path d="M4780 5490 c45 -40 60 -48 60 -32 0 13 -77 72 -92 72 -7 -1 7 -19 32
-40z"/>
<path d="M4715 5514 c6 -5 23 -20 40 -34 29 -24 29 -24 10 -2 -11 13 -29 28
-40 34 -11 6 -15 6 -10 2z"/>
<path d="M4590 5581 c0 -5 10 -11 23 -15 33 -9 37 -7 31 9 -6 16 -54 21 -54 6z"/>
<path d="M4660 5579 c0 -5 5 -7 10 -4 6 3 10 8 10 11 0 2 -4 4 -10 4 -5 0 -10
-5 -10 -11z"/>
<path d="M3940 5530 c0 -6 7 -10 15 -10 8 0 15 2 15 4 0 2 -7 6 -15 10 -8 3
-15 1 -15 -4z"/>
<path d="M4260 5452 c0 -16 24 -32 49 -32 23 0 24 1 6 20 -18 20 -55 28 -55
12z"/>
<path d="M4168 5433 c7 -3 16 -2 19 1 4 3 -2 6 -13 5 -11 0 -14 -3 -6 -6z"/>
<path d="M4180 5410 c0 -5 9 -10 20 -10 11 0 20 5 20 10 0 6 -9 10 -20 10 -11
0 -20 -4 -20 -10z"/>
<path d="M4080 5400 c-12 -8 -9 -10 13 -10 16 0 26 4 22 10 -8 12 -16 12 -35
0z"/>
<path d="M3311 5311 c-21 -14 4 -23 44 -15 19 3 35 10 35 15 0 11 -61 11 -79
0z"/>
<path d="M3372 5283 c-44 -6 -36 -29 9 -25 19 1 41 5 49 8 13 4 13 6 0 14 -8
6 -17 9 -20 8 -3 -1 -20 -3 -38 -5z"/>
<path d="M4485 5259 c4 -19 3 -29 -2 -26 -13 8 -55 -22 -48 -34 4 -5 1 -9 -4
-9 -6 0 -11 5 -11 10 0 6 0 13 0 18 0 4 3 7 8 8 24 3 42 19 41 38 0 11 -3 15
-6 9 -6 -16 -33 -17 -33 -2 0 5 -4 8 -10 4 -5 -3 -7 -13 -4 -23 5 -16 5 -16
-5 0 -14 20 -76 15 -102 -8 -11 -10 -19 -12 -24 -5 -8 15 -52 14 -61 -1 -5 -8
2 -9 24 -5 24 5 32 3 32 -8 0 -8 -5 -15 -11 -15 -6 0 6 -18 27 -40 41 -43 69
-45 105 -9 11 11 24 19 31 19 6 0 3 -7 -8 -16 -18 -14 -17 -15 16 -9 19 3 46
6 60 6 l25 0 -24 13 c-14 8 -31 11 -39 8 -9 -3 -13 0 -10 8 5 15 29 22 72 23
l30 0 -27 19 c-15 11 -27 26 -27 34 0 21 10 17 32 -12 11 -14 22 -23 25 -20 9
9 -41 56 -60 56 -16 0 -18 -5 -12 -31z m-111 -41 c-1 -10 2 -18 7 -18 5 0 9 5
9 12 0 9 3 9 11 1 20 -20 0 -31 -44 -27 l-42 4 35 -14 c19 -8 33 -15 30 -16
-35 -11 -57 -8 -68 10 -11 19 -10 21 18 26 16 4 30 12 30 19 0 15 -35 9 -60
-9 -8 -6 -6 0 4 12 24 28 72 27 70 0z"/>
<path d="M4564 5208 c6 -20 -14 -24 -30 -8 -7 7 -18 7 -35 0 -22 -10 -23 -10
-1 -6 12 2 22 0 22 -6 0 -5 5 -6 10 -3 6 3 10 1 10 -5 0 -7 12 -9 31 -6 32 5
52 16 29 16 -7 0 -19 8 -27 18 -14 16 -14 16 -9 0z"/>
<path d="M1968 5083 c7 -3 16 -2 19 1 4 3 -2 6 -13 5 -11 0 -14 -3 -6 -6z"/>
<path d="M1998 5063 c7 -3 16 -2 19 1 4 3 -2 6 -13 5 -11 0 -14 -3 -6 -6z"/>
<path d="M1030 4950 c-9 -6 -10 -10 -3 -10 6 0 15 5 18 10 8 12 4 12 -15 0z"/>
<path d="M1053 4923 c9 -2 23 -2 30 0 6 3 -1 5 -18 5 -16 0 -22 -2 -12 -5z"/>
<path d="M425 3320 c12 -40 34 -78 35 -58 0 10 -9 32 -21 50 -17 28 -19 29
-14 8z"/>
<path d="M479 3193 c74 -182 332 -743 343 -743 7 0 -49 130 -116 271 -20 42
-36 79 -36 83 0 3 -35 81 -79 173 -43 93 -88 189 -100 216 -11 26 -23 47 -26
47 -3 0 4 -21 14 -47z"/>
<path d="M871 1754 c0 -11 3 -14 6 -6 3 7 2 16 -1 19 -3 4 -6 -2 -5 -13z"/>
<path d="M881 1709 c-1 -8 6 -24 15 -35 15 -19 15 -19 6 1 -5 11 -12 27 -15
35 -5 13 -6 13 -6 -1z"/>
<path d="M5977 3219 c-7 -28 -6 -31 12 -20 9 6 10 14 4 26 -9 15 -11 15 -16
-6z"/>
<path d="M6174 2962 c-6 -4 -13 -29 -16 -55 -4 -37 -2 -50 9 -54 22 -8 33 15
33 70 0 47 -5 54 -26 39z"/>
<path d="M6060 2935 c-10 -12 -10 -19 -2 -27 15 -15 48 14 38 31 -10 15 -21
14 -36 -4z"/>
<path d="M6050 2865 c-10 -12 -10 -19 -1 -28 14 -14 46 2 46 24 0 20 -30 23
-45 4z"/>
<path d="M5947 2853 c-13 -12 -7 -43 8 -43 16 0 38 34 28 44 -8 8 -28 8 -36
-1z"/>
<path d="M5163 2773 c-18 -3 -23 -11 -23 -34 0 -25 4 -29 29 -29 38 0 74 29
66 53 -7 17 -25 19 -72 10z"/>
<path d="M5147 2674 c-4 -4 -7 -22 -7 -41 0 -31 2 -33 28 -27 78 18 96 67 27
72 -23 2 -44 0 -48 -4z"/>
<path d="M5936 2685 c-3 -8 -1 -15 4 -15 6 0 10 7 10 15 0 8 -2 15 -4 15 -2 0
-6 -7 -10 -15z"/>
<path d="M6168 2502 c-27 -3 -28 -6 -28 -56 0 -52 -17 -85 -35 -68 -4 4 -4 -4
0 -18 7 -21 6 -23 -7 -12 -12 10 -18 9 -28 -3 -17 -21 -29 -19 -23 4 3 11 11
17 18 15 7 -3 15 2 18 10 4 9 13 16 22 16 8 0 15 9 15 20 0 11 0 23 1 27 0 4
-5 9 -12 12 -8 2 -9 -1 -3 -10 6 -12 5 -12 -8 -1 -14 11 -16 10 -14 -12 3 -23
-4 -31 -26 -27 -5 0 -8 -5 -8 -11 0 -9 -4 -8 -10 2 -13 20 -12 33 1 24 7 -4
10 -1 7 7 -3 8 -11 13 -17 12 -6 -2 -11 2 -11 7 0 20 -21 9 -38 -20 -9 -16
-22 -30 -27 -30 -6 0 -16 -9 -23 -20 -7 -11 -20 -20 -30 -20 -14 0 -15 -2 -2
-10 11 -7 11 -10 2 -10 -7 0 -10 -5 -6 -12 5 -8 11 -5 20 7 8 10 16 16 19 13
4 -3 -5 -15 -20 -26 -28 -22 -25 -52 6 -52 10 0 24 -9 32 -21 9 -12 18 -16 21
-10 6 9 -9 22 -59 49 -18 10 -18 11 -2 12 10 0 20 7 24 16 3 8 17 20 30 25 21
8 23 12 13 24 -10 12 -10 21 -2 40 10 22 14 24 32 13 22 -14 26 -28 9 -28 -6
0 -3 -7 6 -16 9 -9 13 -19 9 -23 -4 -3 -9 0 -11 7 -3 6 -9 10 -14 6 -16 -9
-10 -24 10 -24 11 0 23 -4 26 -10 8 -12 -27 -13 -40 -2 -6 5 -21 6 -35 1 -21
-6 -22 -7 -5 -9 11 -1 26 -2 33 -1 6 1 12 -5 12 -14 0 -10 -5 -13 -12 -9 -7 5
-8 3 -4 -5 6 -9 13 -8 27 5 11 9 27 14 39 11 14 -4 25 1 33 14 6 10 17 19 24
19 18 0 16 -17 -3 -24 -9 -4 -14 -13 -10 -21 5 -15 -6 -16 -49 -4 -18 4 -44
-12 -39 -26 3 -7 0 -16 -7 -21 -8 -5 -11 -2 -7 7 7 20 -44 60 -62 49 -11 -7
-8 -11 11 -19 30 -11 45 -39 29 -55 -19 -19 -11 -37 15 -31 14 3 36 7 50 10
16 4 22 10 19 20 -8 20 10 19 26 0 9 -11 16 -13 24 -5 5 5 20 10 33 10 24 0
31 14 12 26 -8 4 -7 9 2 15 20 13 -6 28 -35 22 -21 -4 -21 -4 -2 11 11 9 28
14 38 10 27 -8 21 9 -9 28 l-28 17 33 7 c26 5 32 11 31 33 0 26 0 26 -11 4 -6
-13 -17 -23 -25 -23 -15 0 -18 16 -3 25 5 3 6 20 3 38 -6 29 -5 31 11 18 21
-18 39 -3 34 30 -2 20 -8 23 -30 21z m22 -16 c0 -2 -9 -6 -20 -9 -11 -3 -20
-1 -20 4 0 5 9 9 20 9 11 0 20 -2 20 -4z m-106 -161 c-4 -8 -11 -15 -16 -15
-6 0 -5 6 2 15 7 8 14 15 16 15 2 0 1 -7 -2 -15z m14 -65 c6 0 12 -8 11 -17 0
-13 -2 -14 -6 -4 -5 11 -7 11 -14 0 -7 -11 -9 -11 -9 -1 0 7 -4 10 -10 7 -5
-3 -10 -1 -10 5 0 6 -4 8 -10 5 -5 -3 -10 -1 -10 6 0 7 9 9 23 5 12 -3 28 -6
35 -6z m42 6 c0 -3 -4 -8 -10 -11 -5 -3 -10 -1 -10 4 0 6 5 11 10 11 6 0 10
-2 10 -4z m-92 -61 c-3 -3 -9 2 -12 12 -6 14 -5 15 5 6 7 -7 10 -15 7 -18z"/>
<path d="M6063 2482 c-13 -2 -23 -7 -23 -12 0 -5 -8 -7 -17 -3 -11 4 -6 -5 12
-23 18 -17 33 -25 37 -19 4 6 1 15 -7 21 -23 17 -18 25 11 20 15 -3 32 1 41 9
8 8 10 15 4 15 -5 0 -13 -5 -17 -11 -3 -6 -9 -7 -13 -2 -3 4 -16 7 -28 5z"/>
<path d="M5985 2460 c-3 -5 -1 -10 4 -10 6 0 11 5 11 10 0 6 -2 10 -4 10 -3 0
-8 -4 -11 -10z"/>
<path d="M5919 2453 c-19 -5 -31 -50 -17 -59 5 -4 14 -2 20 4 6 6 17 8 24 5 8
-3 14 0 14 7 0 6 -4 9 -9 6 -5 -3 -11 3 -14 14 -6 22 8 28 16 8 3 -8 6 -6 6 5
1 17 -8 19 -40 10z m-2 -45 c-3 -7 -5 -2 -5 12 0 14 2 19 5 13 2 -7 2 -19 0
-25z"/>
<path d="M5985 2370 c3 -5 8 -10 11 -10 2 0 4 5 4 10 0 6 -5 10 -11 10 -5 0
-7 -4 -4 -10z"/>
<path d="M5890 2215 c-14 -44 -9 -53 30 -47 25 4 30 9 30 33 0 19 -5 29 -15
29 -16 0 -38 -34 -28 -44 3 -3 1 -6 -5 -6 -16 0 -15 5 3 40 9 17 11 30 6 30
-5 0 -15 -16 -21 -35z m50 -15 c0 -11 -4 -20 -9 -20 -5 0 -7 9 -4 20 3 11 7
20 9 20 2 0 4 -9 4 -20z"/>
<path d="M2665 2179 c-4 -6 -5 -13 -2 -16 8 -7 47 7 47 18 0 13 -37 11 -45 -2z"/>
<path d="M1687 2063 c-14 -13 -6 -20 18 -15 14 2 25 8 25 13 0 10 -34 12 -43
2z"/>
<path d="M2592 1874 c-68 -12 -130 -25 -139 -28 -13 -5 -15 -24 -11 -126 2
-66 9 -125 14 -130 10 -10 140 12 247 41 l37 10 0 118 c0 83 -4 122 -12 128
-9 7 -53 3 -136 -13z m48 -38 c0 -30 -3 -32 -63 -41 l-49 -8 4 29 c3 30 25 41
81 43 22 1 27 -3 27 -23z m30 -46 c0 -5 -7 -10 -15 -10 -8 0 -15 5 -15 10 0 6
7 10 15 10 8 0 15 -4 15 -10z m-40 -10 c0 -5 -7 -10 -15 -10 -8 0 -15 5 -15
10 0 6 7 10 15 10 8 0 15 -4 15 -10z m-50 -10 c0 -5 -7 -10 -15 -10 -8 0 -15
5 -15 10 0 6 7 10 15 10 8 0 15 -4 15 -10z m-40 -10 c0 -5 -9 -10 -20 -10 -11
0 -20 5 -20 10 0 6 9 10 20 10 11 0 20 -4 20 -10z m96 -18 c18 -12 35 -52 28
-65 -21 -36 -50 -57 -80 -57 -66 0 -86 60 -33 104 30 26 63 33 85 18z"/>
<path d="M2597 1835 c-8 -18 11 -31 25 -17 11 11 3 32 -12 32 -4 0 -10 -7 -13
-15z"/>
<path d="M2544 1829 c-3 -6 -1 -16 5 -22 9 -9 14 -8 21 3 5 8 10 18 10 23 0
11 -28 8 -36 -4z"/>
<path d="M2556 1711 c-16 -18 -15 -18 31 -13 55 5 57 7 48 21 -10 18 -61 13
-79 -8z"/>
<path d="M2617 1673 c-12 -11 -8 -23 7 -23 8 0 16 7 20 15 5 15 -14 21 -27 8z"/>
<path d="M2550 1645 c7 -8 16 -12 21 -9 13 8 1 24 -18 24 -13 0 -13 -3 -3 -15z"/>
<path d="M2106 1785 c-66 -14 -123 -28 -128 -33 -16 -16 2 -243 19 -249 21 -8
256 37 271 52 11 10 12 37 5 131 -7 109 -10 119 -28 121 -11 1 -74 -9 -139
-22z m122 -67 c7 -7 12 -39 12 -73 l0 -62 -110 -20 c-61 -11 -112 -17 -115
-15 -3 3 -5 33 -5 67 0 66 13 90 39 75 19 -9 92 4 131 25 32 17 34 17 48 3z"/>
<path d="M2075 1622 c-33 -39 -34 -42 -7 -18 34 32 37 32 50 -3 8 -23 9 -22
42 20 19 24 24 36 13 26 -23 -20 -43 -16 -43 9 0 23 -12 15 -55 -34z"/>
<path d="M1645 1698 c-135 -26 -138 -28 -80 -44 90 -25 112 -19 188 43 34 28
31 28 -108 1z"/>
<path d="M1729 1655 c-1 -3 -2 -8 -3 -12 -1 -5 -5 -14 -10 -21 -7 -11 -4 -12
12 -3 13 7 19 17 16 26 -6 15 -13 19 -15 10z"/>
<path d="M1745 1609 c-22 -17 -41 -34 -43 -38 -2 -6 75 -31 98 -31 11 0 14 59
4 84 -8 21 -12 20 -59 -15z"/>
<path d="M1507 1594 c-6 -6 2 -94 9 -102 6 -8 104 52 104 64 0 7 -21 19 -47
28 -52 18 -57 19 -66 10z"/>
<path d="M1612 1475 c-19 -8 -47 -26 -64 -40 -27 -23 -28 -25 -8 -25 34 0 240
42 240 49 0 9 -83 31 -113 31 -12 -1 -37 -7 -55 -15z"/>
<path d="M396 1694 c-4 -15 3 -42 20 -80 22 -46 28 -54 31 -37 2 12 -3 37 -13
55 -9 18 -20 44 -24 58 -7 24 -7 24 -14 4z"/>
</g>
</svg>
