<?xml version="1.0" standalone="no"?>
<!DOCTYPE svg PUBLIC "-//W3C//DTD SVG 20010904//EN"
 "http://www.w3.org/TR/2001/REC-SVG-20010904/DTD/svg10.dtd">
<svg version="1.0" xmlns="http://www.w3.org/2000/svg"
 width="234.000000pt" height="215.000000pt" viewBox="0 0 234.000000 215.000000"
 preserveAspectRatio="xMidYMid meet">

<g transform="translate(0.000000,215.000000) scale(0.100000,-0.100000)"
fill="#000000" stroke="none">
<path d="M1743 2103 c-199 -161 -253 -209 -259 -225 -7 -23 21 -58 46 -58 9 0
87 58 173 130 125 104 157 135 157 155 0 22 -24 45 -49 45 -5 0 -36 -21 -68
-47z"/>
<path d="M1044 1825 c-12 -8 -59 -69 -105 -137 -180 -263 -409 -451 -684 -559
-160 -64 -225 -124 -246 -231 -35 -171 84 -411 222 -448 55 -15 144 -10 206
11 l52 18 17 -77 c20 -92 68 -241 96 -297 64 -128 145 -135 260 -23 85 83 88
141 10 183 -37 20 -37 21 -34 76 3 48 0 60 -22 86 -28 33 -35 90 -14 111 15
15 270 16 354 1 32 -5 116 -26 185 -45 69 -19 143 -34 163 -34 81 0 127 56
146 178 42 269 -174 877 -393 1109 -81 86 -161 115 -213 78z m119 -89 c79 -58
214 -283 296 -495 123 -316 158 -614 80 -692 -10 -10 -23 -19 -27 -19 -33 0
-178 170 -232 272 l-25 47 37 38 c20 21 44 55 53 75 31 75 10 194 -41 240 -35
30 -94 49 -147 47 -60 -4 -59 -5 -88 159 -21 126 -24 224 -8 292 17 76 38 83
102 36z m-148 -441 c52 -232 158 -484 269 -638 31 -43 56 -79 56 -81 0 -1 -32
6 -72 16 -117 30 -243 41 -378 34 -141 -7 -152 -13 -169 -81 -17 -66 -13 -99
14 -139 19 -28 25 -50 25 -92 0 -48 4 -60 29 -85 16 -16 37 -29 45 -29 28 0
17 -22 -35 -72 -59 -57 -82 -59 -115 -10 -27 40 -75 181 -108 319 -14 57 -27
107 -31 113 -9 14 -46 12 -96 -5 -24 -9 -61 -18 -83 -21 -21 -2 -43 -7 -47
-10 -19 -12 -94 20 -134 57 -61 57 -98 143 -102 244 -3 63 0 87 14 114 23 44
88 89 178 125 250 98 478 266 636 467 l64 81 7 -94 c4 -52 19 -148 33 -213z"/>
<path d="M1835 1737 c-124 -72 -161 -98 -163 -115 -4 -29 14 -52 42 -52 11 0
93 42 181 93 119 68 161 97 163 113 4 25 -22 54 -46 53 -9 0 -89 -42 -177 -92z"/>
<path d="M2015 1430 c-152 -53 -195 -76 -195 -102 0 -10 38 -48 48 -48 4 1 86
29 182 63 170 60 175 63 178 92 3 26 -18 56 -37 54 -3 0 -82 -27 -176 -59z"/>
<path d="M2065 1098 c-76 -10 -145 -24 -152 -30 -18 -14 -16 -53 3 -69 13 -10
44 -9 179 9 90 12 170 25 179 28 21 8 29 39 16 64 -13 25 -36 25 -225 -2z"/>
<path d="M2059 763 c-101 -3 -119 -6 -134 -23 -15 -17 -16 -24 -6 -46 l12 -27
191 5 c170 5 193 7 205 24 35 47 2 75 -85 72 -37 -1 -119 -4 -183 -5z"/>
</g>
</svg>
