<?xml version="1.0" standalone="no"?>
<!DOCTYPE svg PUBLIC "-//W3C//DTD SVG 20010904//EN"
 "http://www.w3.org/TR/2001/REC-SVG-20010904/DTD/svg10.dtd">
<svg version="1.0" xmlns="http://www.w3.org/2000/svg"
 width="512.000000pt" height="512.000000pt" viewBox="0 0 512.000000 512.000000"
 preserveAspectRatio="xMidYMid meet">

<g transform="translate(0.000000,512.000000) scale(0.100000,-0.100000)"
fill="#000000" stroke="none">
<path d="M1230 5104 c-266 -57 -470 -311 -470 -584 0 -276 205 -528 475 -585
137 -29 236 -13 402 64 123 57 172 70 261 71 l62 0 0 -289 c0 -284 0 -290 -21
-296 -32 -10 -191 -120 -223 -154 l-30 -31 -405 0 -406 0 -34 65 c-56 109
-174 197 -299 224 -29 6 -136 11 -238 11 -215 0 -248 -9 -284 -80 -20 -38 -20
-57 -20 -970 0 -913 0 -932 20 -970 36 -71 69 -80 284 -80 102 0 209 5 238 11
125 27 243 115 299 224 l34 65 406 0 405 0 29 -30 c85 -89 282 -194 443 -237
85 -23 117 -26 252 -26 135 0 167 3 252 26 161 43 358 148 443 237 l29 30 183
0 c164 0 188 -2 223 -20 70 -36 80 -70 80 -280 0 -210 10 -244 80 -280 37 -19
59 -20 337 -20 287 -1 297 -1 266 -18 -39 -21 -52 -38 -142 -181 -139 -220
-241 -448 -241 -539 0 -226 161 -417 384 -454 266 -44 516 176 516 454 0 91
-102 319 -241 539 -90 143 -103 160 -142 181 -31 17 -21 17 266 18 278 0 300
1 337 20 26 13 47 34 60 60 19 37 20 58 20 392 0 384 -10 498 -54 649 -130
445 -480 795 -925 925 -151 44 -264 54 -652 54 l-355 0 -30 31 c-32 34 -191
144 -223 154 -21 6 -21 12 -21 296 l0 289 63 0 c88 -1 137 -14 260 -71 166
-77 265 -93 402 -64 270 57 475 309 475 585 0 276 -205 528 -475 585 -137 29
-236 13 -402 -64 -59 -27 -128 -55 -153 -60 -61 -14 -1179 -14 -1240 0 -25 5
-94 33 -153 60 -165 77 -270 93 -407 63z m288 -337 c210 -97 211 -97 892 -97
683 0 683 0 895 98 87 41 108 47 165 47 112 -1 215 -69 263 -174 30 -64 30
-178 0 -242 -48 -105 -151 -173 -263 -173 -58 -1 -78 5 -179 53 -154 72 -248
91 -454 91 -185 0 -222 -11 -257 -80 -19 -37 -20 -58 -20 -367 l0 -328 -150 0
-150 0 0 328 c0 309 -1 330 -20 367 -35 68 -72 80 -253 80 -219 0 -293 -15
-472 -98 -87 -41 -108 -47 -165 -47 -80 1 -142 27 -200 85 -157 157 -96 417
115 493 74 26 137 17 253 -36z m-998 -1487 c26 -13 47 -34 60 -60 19 -38 20
-58 20 -670 0 -612 -1 -632 -20 -670 -31 -60 -78 -80 -190 -80 l-90 0 0 750 0
750 90 0 c71 0 99 -4 130 -20z m2095 -10 c126 -40 220 -95 320 -191 33 -32 73
-63 88 -68 18 -7 169 -11 423 -11 231 0 425 -4 467 -11 467 -70 826 -429 896
-896 6 -39 11 -189 11 -332 l0 -261 -450 0 -450 0 0 89 c0 48 -5 112 -10 142
-34 180 -179 325 -359 359 -72 13 -491 13 -528 -1 -15 -5 -55 -36 -88 -68
-101 -97 -194 -151 -325 -192 -108 -34 -292 -34 -400 0 -131 41 -224 95 -325
192 -33 32 -73 63 -88 68 -19 7 -180 11 -463 11 l-434 0 0 450 0 450 434 0
c283 0 444 4 463 11 15 5 55 36 88 68 119 114 253 184 403 211 78 15 248 4
327 -20z m1832 -2640 c74 -146 84 -190 54 -248 -24 -47 -80 -82 -131 -82 -83
0 -158 83 -146 160 11 71 129 304 150 297 6 -2 39 -59 73 -127z"/>
</g>
</svg>
