<?xml version="1.0" standalone="no"?>
<!DOCTYPE svg PUBLIC "-//W3C//DTD SVG 20010904//EN"
 "http://www.w3.org/TR/2001/REC-SVG-20010904/DTD/svg10.dtd">
<svg version="1.0" xmlns="http://www.w3.org/2000/svg"
 width="512.000000pt" height="512.000000pt" viewBox="0 0 512.000000 512.000000"
 preserveAspectRatio="xMidYMid meet">

<g transform="translate(0.000000,512.000000) scale(0.100000,-0.100000)"
fill="#000000" stroke="none">
<path d="M2380 4860 c-715 -99 -1246 -676 -1277 -1385 -17 -421 120 -775 442
-1135 182 -204 286 -417 325 -665 20 -127 67 -201 149 -234 30 -13 31 -16 31
-70 0 -52 -2 -57 -30 -73 -17 -10 -34 -28 -39 -40 -12 -34 7 -79 40 -92 27
-10 29 -15 29 -61 0 -46 -2 -51 -29 -61 -33 -13 -52 -58 -40 -92 5 -12 22 -30
39 -40 29 -16 30 -20 30 -86 0 -87 31 -150 94 -190 39 -25 44 -32 49 -76 11
-93 77 -193 165 -248 184 -118 429 -55 531 137 17 33 35 83 38 111 5 42 11 54
32 65 71 37 111 109 111 202 0 65 1 69 30 85 17 10 34 28 39 40 12 34 -7 79
-40 92 -27 10 -29 15 -29 61 0 46 2 51 29 61 33 13 52 58 40 92 -5 12 -22 30
-39 40 -28 16 -30 21 -30 74 0 52 2 57 28 66 78 27 132 111 152 237 19 122 56
240 110 350 58 120 107 192 220 320 302 344 440 678 440 1065 0 110 -17 266
-33 295 -26 50 -80 59 -117 20 -22 -23 -22 -28 -14 -102 13 -117 11 -368 -5
-448 -50 -259 -175 -495 -390 -738 -46 -53 -106 -127 -132 -165 -106 -152
-191 -362 -224 -553 -19 -111 -32 -134 -82 -148 -51 -15 -875 -15 -926 0 -50
14 -63 37 -82 149 -42 244 -157 486 -318 672 -127 146 -150 175 -209 263 -155
233 -225 445 -235 710 -23 630 400 1177 1021 1323 96 22 134 26 281 26 234 1
378 -32 582 -131 239 -116 471 -341 586 -569 29 -57 41 -70 77 -79 18 -4 34 0
53 15 44 35 37 77 -32 195 -216 366 -574 618 -991 700 -99 19 -356 28 -450 15z
m540 -3500 l0 -50 -139 0 c-125 0 -141 -2 -165 -21 -33 -26 -36 -79 -6 -109
18 -18 33 -20 165 -20 l145 0 0 -55 0 -55 -360 0 -360 0 0 55 0 55 70 0 c83 0
110 18 110 74 0 53 -36 76 -116 76 l-64 0 0 50 0 50 360 0 360 0 0 -50z m0
-517 c0 -98 18 -93 -358 -93 -379 0 -362 -4 -362 92 l0 58 360 0 360 0 0 -57z
m-144 -275 c-17 -87 -121 -168 -216 -168 -95 0 -199 81 -216 168 l-6 32 222 0
223 0 -7 -32z"/>
<path d="M396 4815 c-153 -54 -194 -260 -75 -371 37 -34 464 -283 518 -302 88
-31 201 7 256 86 24 35 30 55 33 112 4 60 1 75 -23 119 -15 27 -44 61 -64 75
-65 45 -465 272 -500 284 -44 16 -96 15 -145 -3z m318 -262 c122 -69 231 -135
244 -146 46 -42 16 -127 -45 -127 -29 0 -452 239 -490 277 -13 12 -23 34 -23
48 0 32 41 75 71 75 12 0 122 -57 243 -127z"/>
<path d="M4576 4818 c-32 -12 -439 -244 -497 -284 -20 -14 -49 -48 -64 -75
-24 -44 -27 -59 -23 -119 3 -57 9 -77 33 -112 55 -79 168 -117 256 -86 54 19
481 268 518 302 45 42 71 100 71 161 0 150 -156 263 -294 213z m119 -163 c31
-30 32 -69 3 -98 -39 -38 -462 -277 -491 -277 -59 0 -91 85 -47 125 37 33 465
275 488 275 13 0 34 -11 47 -25z"/>
<path d="M2168 4555 c-247 -86 -469 -258 -612 -474 -74 -110 -137 -244 -144
-307 -5 -49 21 -84 64 -84 42 0 60 16 84 77 64 161 130 263 244 381 121 125
261 213 425 267 72 24 85 32 96 58 15 36 3 82 -25 97 -27 15 -57 11 -132 -15z"/>
<path d="M2383 4070 c-18 -10 -39 -33 -48 -50 -25 -49 -115 -310 -115 -334 0
-30 40 -66 72 -66 46 0 66 30 118 175 27 76 50 140 50 142 0 2 81 3 181 3 141
0 180 -3 176 -12 -2 -7 -46 -130 -96 -272 -105 -295 -106 -303 -41 -368 l38
-38 126 0 c69 0 126 -3 126 -7 0 -5 -128 -208 -284 -453 -283 -445 -283 -445
-320 -448 -25 -2 -36 1 -36 10 0 7 45 139 100 292 55 154 100 292 100 308 0
19 -10 40 -29 59 l-29 29 -166 0 -165 0 54 155 c57 161 59 183 21 215 -24 19
-74 17 -95 -6 -24 -26 -135 -340 -134 -380 1 -41 27 -90 60 -111 21 -14 56
-19 169 -23 l141 -5 -98 -275 c-55 -151 -99 -286 -99 -300 0 -39 37 -90 78
-107 48 -20 208 -15 243 9 28 18 625 950 644 1005 24 71 -20 152 -94 173 -20
5 -83 10 -140 10 -78 0 -102 3 -98 13 46 122 180 508 183 531 6 41 -22 94 -65
123 -33 22 -41 23 -265 23 -211 0 -234 -2 -263 -20z"/>
<path d="M150 3627 c-76 -24 -150 -129 -150 -213 0 -89 74 -190 155 -213 25
-7 148 -11 330 -11 260 0 294 2 330 19 113 52 166 187 116 296 -23 51 -89 111
-138 124 -52 15 -596 13 -643 -2z m624 -158 c36 -28 36 -80 0 -108 -26 -20
-39 -21 -301 -21 l-274 0 -24 25 c-14 13 -25 36 -25 50 0 14 11 37 25 50 l24
25 274 0 c262 0 275 -1 301 -21z"/>
<path d="M4316 3625 c-21 -7 -54 -28 -73 -47 -125 -118 -82 -317 80 -377 39
-15 589 -14 642 0 81 23 155 124 155 213 0 87 -74 189 -156 214 -61 18 -595
16 -648 -3z m629 -160 c14 -13 25 -36 25 -50 0 -14 -11 -37 -25 -50 l-24 -25
-274 0 c-262 0 -275 1 -301 21 -36 28 -36 80 0 108 26 20 39 21 301 21 l274 0
24 -25z"/>
<path d="M824 2681 c-83 -38 -470 -265 -503 -295 -68 -63 -90 -168 -52 -251
24 -53 90 -111 143 -126 85 -23 123 -10 351 122 293 169 309 180 341 240 25
44 28 59 24 119 -5 88 -39 141 -117 182 -64 33 -127 36 -187 9z m134 -151 c28
-27 29 -80 2 -105 -38 -34 -465 -275 -488 -275 -30 0 -72 43 -72 73 0 14 8 34
18 45 26 32 463 281 493 282 14 0 35 -9 47 -20z"/>
<path d="M4109 2672 c-78 -41 -112 -94 -117 -182 -4 -60 -1 -74 24 -121 33
-60 36 -63 341 -238 228 -132 266 -145 351 -122 53 15 119 73 143 126 35 76
20 172 -36 234 -32 35 -408 262 -515 310 -64 29 -126 27 -191 -7z m350 -252
c124 -72 234 -140 244 -151 9 -12 17 -32 17 -46 0 -30 -42 -73 -72 -73 -23 0
-451 242 -489 276 -43 39 -9 124 49 124 14 0 126 -59 251 -130z"/>
</g>
</svg>
