<?xml version="1.0" standalone="no"?>
<!DOCTYPE svg PUBLIC "-//W3C//DTD SVG 20010904//EN"
 "http://www.w3.org/TR/2001/REC-SVG-20010904/DTD/svg10.dtd">
<svg version="1.0" xmlns="http://www.w3.org/2000/svg"
 width="318.000000pt" height="159.000000pt" viewBox="0 0 318.000000 159.000000"
 preserveAspectRatio="xMidYMid meet">

<g transform="translate(0.000000,159.000000) scale(0.100000,-0.100000)"
fill="#000000" stroke="none">
<path d="M878 1323 c-10 -2 -18 -13 -18 -23 0 -24 -7 -28 -192 -98 -84 -33
-187 -75 -229 -94 -74 -34 -111 -42 -321 -63 -32 -4 -58 -7 -59 -8 0 -1 -3
-42 -5 -91 -4 -70 -10 -95 -27 -118 -19 -26 -22 -42 -21 -123 1 -91 2 -95 34
-132 18 -21 43 -43 55 -50 27 -15 121 -30 243 -39 l92 -7 0 45 c0 233 286 357
453 195 65 -64 82 -107 82 -206 l0 -84 539 6 c297 4 630 7 741 7 l203 0 -6 65
c-4 59 -2 71 27 129 19 40 47 77 70 96 186 146 454 8 439 -227 l-3 -56 74 6
c106 8 120 23 122 136 6 211 5 218 -20 245 -31 33 -100 61 -223 91 -181 43
-339 66 -513 74 l-170 7 -65 41 c-106 66 -330 184 -395 208 -121 46 -235 57
-545 54 -200 -2 -293 1 -313 9 -16 7 -29 11 -30 11 -1 -1 -10 -3 -19 -6z m477
-85 c9 -39 35 -212 35 -232 0 -19 -8 -19 -262 -12 -315 9 -354 14 -385 50 -32
38 -31 88 3 115 67 52 293 97 511 100 88 1 93 0 98 -21z m235 7 c52 -8 122
-21 155 -30 56 -15 189 -83 244 -124 l24 -18 -23 -23 c-13 -13 -20 -29 -17
-41 5 -18 -3 -19 -222 -19 l-227 0 -42 125 c-23 69 -42 130 -42 135 0 14 38
12 150 -5z"/>
<path d="M611 763 c-65 -23 -136 -98 -155 -164 -20 -65 -20 -92 -1 -155 64
-216 369 -242 472 -41 73 142 -1 318 -151 362 -62 19 -108 18 -165 -2z m193
-91 c52 -36 76 -84 76 -150 0 -70 -31 -126 -86 -158 -77 -45 -194 -24 -243 44
-32 45 -45 111 -31 161 13 50 75 116 122 130 51 16 118 4 162 -27z"/>
<path d="M627 659 c-15 -9 -16 -13 -6 -25 7 -8 21 -20 31 -25 16 -9 18 -6 18
26 0 37 -11 43 -43 24z"/>
<path d="M730 633 l0 -38 28 28 c23 23 25 29 12 37 -29 19 -40 11 -40 -27z"/>
<path d="M561 592 c-18 -34 -13 -42 24 -42 41 0 44 8 11 39 -24 23 -24 23 -35
3z"/>
<path d="M790 575 l-23 -25 41 0 c42 0 47 5 36 34 -9 23 -27 20 -54 -9z"/>
<path d="M680 519 c0 -25 33 -22 38 4 2 12 -3 17 -17 17 -15 0 -21 -6 -21 -21z"/>
<path d="M550 478 c0 -7 5 -20 10 -28 8 -13 14 -11 37 13 l28 27 -38 0 c-23 0
-37 -5 -37 -12z"/>
<path d="M789 472 c5 -10 17 -24 25 -31 12 -10 17 -9 25 8 18 33 13 41 -24 41
-32 0 -35 -2 -26 -18z"/>
<path d="M636 421 l-29 -30 27 -12 c33 -15 38 -10 34 36 l-3 37 -29 -31z"/>
<path d="M730 412 c0 -45 12 -53 44 -29 16 11 15 15 -14 42 l-30 29 0 -42z"/>
<path d="M2630 765 c-104 -32 -172 -130 -173 -245 -1 -99 45 -176 134 -225
169 -92 379 37 379 231 0 101 -82 209 -181 238 -63 19 -99 19 -159 1z m135
-66 c53 -15 110 -73 125 -128 32 -119 -57 -233 -181 -233 -208 0 -249 303 -49
360 47 14 58 14 105 1z"/>
<path d="M2640 660 c-13 -8 -11 -14 13 -37 l27 -28 0 38 c0 38 -11 46 -40 27z"/>
<path d="M2740 635 c0 -41 8 -44 39 -11 23 24 23 24 3 35 -34 18 -42 13 -42
-24z"/>
<path d="M2569 586 c-15 -33 -10 -38 36 -34 l37 3 -31 29 -30 29 -12 -27z"/>
<path d="M2812 587 c-30 -32 -28 -37 18 -37 l41 0 -16 30 c-9 17 -17 30 -19
30 -1 0 -12 -10 -24 -23z"/>
<path d="M2692 523 c5 -26 38 -29 38 -4 0 15 -6 21 -21 21 -14 0 -19 -5 -17
-17z"/>
<path d="M2560 479 c0 -6 5 -19 11 -31 11 -20 11 -20 35 3 33 31 30 39 -11 39
-19 0 -35 -5 -35 -11z"/>
<path d="M2813 463 c23 -24 29 -26 37 -13 19 29 11 40 -27 40 l-38 0 28 -27z"/>
<path d="M2646 421 l-29 -30 27 -12 c33 -15 38 -10 34 36 l-3 37 -29 -31z"/>
<path d="M2740 405 c0 -37 8 -42 42 -24 20 11 20 11 -3 35 -31 33 -39 30 -39
-11z"/>
</g>
</svg>
