<?xml version="1.0" standalone="no"?>
<!DOCTYPE svg PUBLIC "-//W3C//DTD SVG 20010904//EN"
 "http://www.w3.org/TR/2001/REC-SVG-20010904/DTD/svg10.dtd">
<svg version="1.0" xmlns="http://www.w3.org/2000/svg"
 width="640.000000pt" height="473.000000pt" viewBox="0 0 640.000000 473.000000"
 preserveAspectRatio="xMidYMid meet">

<g transform="translate(0.000000,473.000000) scale(0.100000,-0.100000)"
fill="#000000" stroke="none">
<path d="M5335 4570 c-143 -82 -259 -154 -257 -161 2 -6 11 -27 20 -45 l18
-34 246 139 247 138 158 -89 c87 -50 198 -112 246 -138 l88 -49 21 44 c12 25
20 46 17 48 -15 14 -527 297 -535 296 -5 0 -126 -68 -269 -149z"/>
<path d="M4095 4636 c-39 -14 -193 -93 -225 -116 -14 -9 -58 -34 -98 -55 -69
-35 -99 -65 -87 -84 9 -16 47 1 233 106 100 57 193 108 205 114 20 9 49 -5
212 -97 104 -58 197 -109 205 -112 37 -13 -53 66 -141 123 -169 111 -247 142
-304 121z"/>
<path d="M2495 4138 c-192 -60 -354 -115 -360 -120 -7 -6 -5 -8 5 -6 13 2 16
-21 21 -149 3 -84 8 -156 12 -159 16 -16 37 7 37 41 0 27 5 38 23 46 17 7 12
8 -23 5 -37 -4 -40 -3 -21 5 14 5 43 7 65 4 l41 -6 0 -46 0 -46 40 -4 c82 -7
319 -44 324 -49 3 -3 -16 -3 -44 0 -37 4 -43 3 -25 -4 32 -12 -37 -4 -180 20
-63 11 -109 15 -114 9 -18 -17 9 -29 110 -48 54 -11 92 -20 84 -21 -8 -1 -21
-2 -29 -1 -8 2 -10 -2 -5 -10 5 -9 1 -10 -16 -6 -17 4 -20 3 -11 -6 9 -9 23
-7 60 6 72 25 81 23 81 -18 0 -35 12 -43 37 -27 6 4 13 25 15 46 3 35 7 40 40
52 20 7 39 10 42 7 3 -4 6 -65 6 -138 l0 -131 60 -10 60 -10 0 428 c0 276 4
428 10 428 6 0 11 -154 13 -427 l2 -428 3 443 c1 243 -1 442 -5 442 -5 -1
-165 -51 -358 -112z"/>
<path d="M4930 4085 l0 -35 -135 0 -135 0 0 -90 0 -90 134 0 135 0 3 -36 3
-37 95 77 c52 43 96 81 98 84 2 7 -182 162 -193 162 -3 0 -5 -16 -5 -35z"/>
<path d="M342 4041 c-19 -12 -124 -263 -115 -272 12 -12 271 -52 289 -45 12 5
14 31 12 153 l-3 147 -40 7 c-98 16 -131 18 -143 10z m154 -52 c10 -8 11 -39
7 -117 -3 -59 -8 -110 -12 -114 -8 -9 -202 21 -218 34 -8 7 -1 35 29 106 22
53 46 102 54 108 16 13 120 0 140 -17z"/>
<path d="M131 3941 c-16 -28 0 -142 22 -155 32 -20 52 4 55 70 5 85 -2 104
-38 104 -18 0 -33 -7 -39 -19z"/>
<path d="M364 3666 c-10 -25 8 -38 59 -43 81 -9 70 43 -11 54 -33 4 -43 2 -48
-11z"/>
<path d="M2301 3623 c-1 -19 4 -23 27 -22 22 1 23 2 5 6 -12 2 -24 12 -26 21
-3 12 -5 10 -6 -5z"/>
<path d="M2378 3593 c6 -2 18 -2 25 0 6 3 1 5 -13 5 -14 0 -19 -2 -12 -5z"/>
<path d="M5617 3519 c-72 -17 -130 -61 -194 -146 -15 -21 -31 -40 -34 -43 -15
-12 -29 -91 -29 -165 l1 -80 25 30 c13 17 41 62 61 102 l36 72 43 -38 c62 -54
228 -110 329 -111 17 0 59 -9 95 -20 36 -11 76 -20 89 -20 l24 0 -5 100 c-4
88 -9 107 -38 162 -60 116 -150 168 -290 167 -41 -1 -92 -5 -113 -10z m108
-327 c-6 -6 -149 58 -175 78 -14 11 21 -1 77 -27 56 -26 100 -49 98 -51z"/>
<path d="M2248 3491 c-55 -19 -70 -31 -40 -31 19 0 22 -6 22 -36 0 -29 3 -35
16 -30 9 3 18 6 20 6 2 0 4 20 4 45 0 42 2 45 33 54 17 5 23 9 12 9 -11 0 -41
-8 -67 -17z"/>
<path d="M420 3379 c-25 -11 -55 -30 -67 -41 l-22 -21 -105 27 c-58 14 -110
26 -116 26 -14 0 -13 -93 3 -112 6 -9 45 -23 85 -33 40 -9 75 -21 78 -26 3 -5
13 -9 23 -9 14 0 20 -10 25 -38 7 -47 41 -100 82 -127 65 -44 189 -4 220 71
10 23 21 34 35 34 12 0 36 7 55 16 32 15 45 14 381 -55 326 -67 349 -73 368
-98 11 -15 30 -37 43 -49 12 -12 22 -29 22 -38 0 -41 50 -112 90 -129 52 -21
167 8 200 50 22 28 19 43 -4 23 -14 -10 -16 4 -18 121 l-3 132 -545 112 c-300
62 -571 118 -602 124 -46 10 -57 16 -60 34 -3 20 -10 22 -63 25 -44 1 -72 -4
-105 -19z m85 -120 c66 -80 52 -217 -24 -234 -48 -10 -89 18 -118 82 -66 145
46 265 142 152z m1189 -224 c37 -34 56 -84 56 -145 0 -44 -5 -56 -29 -81 -17
-17 -40 -29 -55 -29 -34 0 -92 53 -107 97 -16 48 -7 138 16 163 26 29 85 27
119 -5z"/>
<path d="M396 3251 c-9 -13 31 -44 49 -38 8 4 15 16 15 27 0 15 -7 20 -29 20
-17 0 -32 -4 -35 -9z"/>
<path d="M480 3210 c0 -34 1 -35 18 -32 24 5 25 8 12 31 -14 27 -30 27 -30 1z"/>
<path d="M368 3196 c-7 -33 3 -46 30 -39 27 7 27 11 3 41 -24 28 -28 28 -33
-2z"/>
<path d="M503 3153 c-18 -6 -16 -38 2 -53 12 -10 15 -7 21 15 7 28 -3 45 -23
38z"/>
<path d="M380 3118 c1 -15 28 -54 33 -47 3 2 7 16 11 32 6 24 4 27 -19 27 -14
0 -25 -6 -25 -12z"/>
<path d="M458 3093 c-10 -3 -18 -13 -18 -24 0 -21 25 -25 50 -9 13 8 13 11 0
23 -8 7 -23 12 -32 10z"/>
<path d="M1605 3010 c-4 -6 -1 -17 5 -25 14 -16 50 -20 50 -6 0 5 3 16 6 25 5
12 -1 16 -24 16 -17 0 -34 -5 -37 -10z"/>
<path d="M1685 2967 c-9 -33 -4 -40 19 -31 20 8 20 15 2 40 -14 18 -15 18 -21
-9z"/>
<path d="M1577 2973 c-4 -3 -7 -19 -7 -35 0 -28 13 -35 39 -19 11 7 10 13 -4
35 -19 29 -19 29 -28 19z"/>
<path d="M1708 2912 c-22 -4 -23 -21 -4 -48 18 -24 28 -14 24 23 -2 21 -8 28
-20 25z"/>
<path d="M1580 2882 c0 -4 7 -18 16 -31 13 -18 18 -20 25 -10 17 27 10 49 -16
49 -14 0 -25 -3 -25 -8z"/>
<path d="M1656 2844 c-23 -22 -20 -34 8 -34 29 0 39 12 30 34 -8 20 -18 20
-38 0z"/>
<path d="M2495 3193 c-232 -102 -361 -154 -384 -154 -26 0 -57 -17 -147 -81
-63 -45 -114 -84 -114 -87 0 -4 63 -19 140 -35 l139 -28 353 171 c194 95 359
179 366 188 13 18 18 184 5 182 -5 0 -165 -70 -358 -156z m335 27 c0 -26 -7
-33 -60 -60 -33 -16 -62 -30 -65 -30 -3 0 -5 13 -5 29 0 26 7 33 63 59 34 17
63 31 65 31 1 1 2 -12 2 -29z m-540 -283 c0 -30 -5 -35 -55 -60 -31 -15 -58
-27 -60 -27 -3 0 -5 13 -5 30 0 26 7 33 58 59 31 17 58 30 60 31 1 0 2 -15 2
-33z"/>
<path d="M3850 3130 c0 -3 -16 -12 -35 -19 -19 -7 -58 -36 -86 -64 -83 -84
-84 -82 50 -84 120 -1 260 -25 376 -63 l60 -19 -57 6 c-32 3 -58 3 -58 -1 0
-4 12 -30 27 -59 l26 -52 12 35 12 35 45 -45 c57 -56 74 -55 70 5 -2 25 -7 45
-11 45 -3 0 -7 18 -7 39 -3 79 -84 201 -132 201 -7 0 -12 5 -12 12 0 6 -3 9
-6 6 -3 -4 -20 -2 -37 4 -37 11 -237 26 -237 18z"/>
<path d="M5777 3039 c-9 -6 -21 -8 -26 -4 -5 3 0 -13 10 -36 24 -49 52 -50 57
-3 4 37 -15 57 -41 43z"/>
<path d="M5492 3026 c8 -6 18 -24 22 -39 5 -22 12 -28 29 -25 18 2 22 9 22 38
0 35 -1 35 -44 36 -33 0 -40 -2 -29 -10z"/>
<path d="M6043 2976 c-17 -12 -34 -31 -37 -42 -9 -33 -95 -124 -154 -161 l-53
-34 2 -93 1 -93 -53 -69 c-29 -38 -56 -73 -59 -77 -4 -4 -27 24 -53 62 l-46
69 6 90 6 90 -42 22 c-62 31 -119 87 -149 144 l-26 51 -7 -35 c-12 -54 -43
-121 -78 -164 -33 -41 -38 -52 -20 -40 8 4 9 -1 3 -17 -20 -54 -10 -95 36
-154 82 -104 80 -78 20 -291 -29 -104 -55 -194 -57 -200 -6 -16 67 -34 141
-34 36 0 66 -4 66 -9 0 -5 26 -36 58 -68 40 -41 67 -80 87 -126 15 -37 34 -72
42 -78 24 -21 13 -48 -34 -84 -25 -19 -61 -57 -79 -83 -17 -26 -61 -71 -97
-99 -55 -44 -73 -53 -106 -53 -41 0 -49 -6 -56 -41 -2 -11 -15 -40 -29 -63
l-24 -42 -234 2 c-277 2 -353 -4 -353 -28 0 -9 34 -66 75 -127 l75 -110 465
-1 465 0 115 115 116 116 145 43 144 43 21 44 c12 24 20 48 17 52 -12 21 -71
28 -286 33 -128 4 -234 8 -236 10 -2 2 57 4 131 4 l136 0 5 33 c2 17 2 109 -1
202 -4 147 -2 183 16 265 33 150 46 307 33 404 -11 80 -10 85 15 140 24 52 26
67 22 151 -2 52 0 91 4 89 11 -7 11 -8 -16 82 -13 43 -26 100 -30 126 -4 26
-10 49 -14 51 -4 2 -21 -6 -39 -17z m37 -465 c-6 -23 -16 -41 -21 -41 -7 0 -8
8 -4 18 3 9 12 40 18 67 10 40 13 44 15 23 2 -14 -2 -45 -8 -67z m-340 -1122
c0 -11 -24 -44 -54 -73 -52 -52 -56 -54 -111 -55 -48 0 -58 3 -62 19 -5 19 -6
19 -23 -3 -27 -33 -34 -15 -16 40 25 74 58 124 94 144 l34 17 69 -34 c51 -26
69 -40 69 -55z m217 34 c-20 -2 -52 -2 -70 0 -17 2 0 4 38 4 39 0 53 -2 32 -4z"/>
<path d="M3775 2930 c-26 -7 -23 -8 20 -9 34 -1 45 -4 35 -10 -8 -5 -33 -6
-55 -2 -38 7 -40 6 -41 -19 l-1 -27 68 21 c37 12 65 24 63 27 -1 3 22 2 52 -2
30 -4 70 -6 89 -5 19 2 32 -1 29 -5 -3 -5 10 -9 28 -9 31 0 32 0 11 15 -30 21
-240 39 -298 25z"/>
<path d="M3631 2896 c-10 -12 -8 -13 8 -9 24 6 25 4 11 -32 -10 -26 -10 -26
30 7 22 18 40 36 40 41 0 13 -77 7 -89 -7z"/>
<path d="M3870 2874 c-15 -37 -13 -38 28 -13 57 34 59 39 19 39 -31 0 -39 -4
-47 -26z"/>
<path d="M3984 2874 c-9 -35 -1 -38 25 -10 22 23 22 23 1 29 -15 4 -22 -1 -26
-19z"/>
<path d="M5580 2862 c0 -26 113 -42 151 -22 33 18 20 30 -16 14 -35 -14 -62
-12 -117 11 -10 4 -18 3 -18 -3z"/>
<path d="M6151 2704 c0 -11 3 -14 6 -6 3 7 2 16 -1 19 -3 4 -6 -2 -5 -13z"/>
<path d="M3776 2695 c-19 -20 -20 -35 -3 -59 18 -25 47 -11 47 24 0 38 -23 56
-44 35z"/>
<path d="M4014 2696 c-3 -8 -4 -25 -2 -38 4 -31 44 -37 53 -9 12 40 -36 85
-51 47z"/>
<path d="M6162 2660 c0 -14 2 -19 5 -12 2 6 2 18 0 25 -3 6 -5 1 -5 -13z"/>
<path d="M5252 2635 c0 -16 2 -22 5 -12 2 9 2 23 0 30 -3 6 -5 -1 -5 -18z"/>
<path d="M5261 2590 c0 -14 28 -72 29 -59 0 4 -7 22 -15 40 -8 19 -14 27 -14
19z"/>
<path d="M6162 2545 c0 -16 2 -22 5 -12 2 9 2 23 0 30 -3 6 -5 -1 -5 -18z"/>
<path d="M3850 2501 c0 -5 17 -15 38 -22 31 -9 45 -8 77 5 21 9 35 19 32 22
-4 4 -20 1 -37 -6 -29 -12 -56 -11 -92 5 -11 4 -18 3 -18 -4z"/>
<path d="M6122 2430 c-7 -11 -8 -20 -3 -20 9 0 24 30 18 36 -1 2 -8 -6 -15
-16z"/>
<path d="M3990 2185 c-30 -30 -59 -55 -65 -55 -5 0 -23 21 -40 47 -28 45 -30
46 -35 22 -9 -33 9 -68 37 -75 l23 -6 -27 -33 c-16 -19 -31 -34 -34 -34 -4 -1
-10 23 -13 52 -11 82 -11 82 -110 33 -100 -50 -130 -75 -158 -131 -11 -22 -36
-61 -55 -87 -21 -29 -30 -49 -23 -53 6 -4 179 -3 384 1 l373 7 6 -24 c4 -13 7
-50 7 -81 0 -39 9 -78 27 -124 l27 -65 -134 -128 -134 -127 37 -28 c20 -16 37
-32 37 -37 0 -4 -14 -24 -31 -44 l-32 -36 109 3 109 3 0 79 0 79 73 48 c40 27
76 49 78 49 3 0 10 5 17 10 7 6 22 18 35 28 26 20 31 72 11 107 -7 11 -49 137
-53 158 -2 7 -9 26 -15 42 -7 17 -14 35 -15 40 -1 6 -4 15 -8 20 -13 21 -57
145 -51 145 3 0 -1 7 -8 17 -8 9 -13 19 -13 22 4 17 -18 51 -43 69 -25 17
-110 64 -123 67 -3 1 -13 5 -22 9 -24 11 -26 9 -96 -66 l-62 -67 -17 27 c-9
15 -22 34 -27 42 -9 12 -8 13 4 4 22 -16 70 1 97 36 15 20 28 90 16 90 -5 0
-33 -25 -63 -55z"/>
<path d="M532 2208 c-4 -3 -29 -9 -57 -11 -27 -3 -51 -6 -52 -7 -2 -2 -7 -3
-11 -4 -5 0 -31 -15 -59 -32 -40 -25 -56 -44 -78 -90 -16 -33 -30 -77 -32 -99
-3 -22 -8 -42 -12 -45 -5 -3 -10 -24 -13 -47 -5 -37 -4 -42 16 -45 18 -3 22
-12 29 -65 8 -54 12 -63 29 -63 15 0 18 4 13 18 -3 9 -9 47 -12 83 -5 56 -2
73 17 113 23 46 24 46 74 46 89 1 466 27 471 32 3 3 -10 13 -29 22 -46 22
-201 15 -323 -14 -47 -11 -88 -18 -90 -16 -13 13 197 49 319 55 l137 6 -47 52
c-53 58 -115 103 -143 103 -11 0 -19 3 -19 8 0 9 -118 10 -128 0z m-135 -234
c-3 -3 -12 -4 -19 -1 -8 3 -5 6 6 6 11 1 17 -2 13 -5z"/>
<path d="M2490 2210 c-84 -8 -131 -34 -203 -109 l-59 -61 100 0 c129 0 229
-14 354 -50 55 -16 102 -31 104 -33 3 -2 -19 -2 -48 1 -29 3 -58 11 -65 18
-22 22 -249 40 -318 25 l-40 -9 55 -3 c30 -2 87 -3 125 -2 67 0 60 -14 -8 -16
-20 -1 -30 -8 -37 -27 -15 -37 -14 -38 33 -5 46 31 130 51 141 32 4 -6 18 -11
30 -11 18 0 30 -12 52 -55 33 -62 44 -69 44 -25 0 17 4 30 10 30 5 0 28 -18
51 -40 58 -55 71 -53 68 13 -1 28 -6 58 -12 64 -5 7 -7 19 -4 28 4 8 2 17 -4
20 -5 4 -7 10 -4 15 3 5 1 11 -5 15 -6 4 -8 11 -5 16 4 5 1 9 -4 9 -6 0 -11 7
-11 15 0 27 -74 92 -125 110 -27 9 -57 20 -65 23 -8 3 -25 4 -38 3 -13 -2 -28
1 -35 6 -7 5 -41 6 -77 3z"/>
<path d="M2210 1975 c-10 -13 -9 -15 9 -15 18 0 19 -3 10 -26 -5 -15 -8 -28
-6 -30 2 -2 22 16 46 40 l42 43 -44 1 c-29 1 -49 -3 -57 -13z"/>
<path d="M2316 1964 c-4 -9 -4 -19 -2 -21 5 -6 106 26 106 33 0 2 -22 4 -49 4
-36 0 -51 -4 -55 -16z"/>
<path d="M2566 1944 c-10 -37 -4 -38 29 -4 l29 30 -26 0 c-20 0 -27 -6 -32
-26z"/>
<path d="M3376 1806 l-29 -13 28 -7 c15 -4 183 -6 373 -4 l347 2 3 -87 c1 -48
7 -87 12 -87 4 0 22 8 39 18 31 17 31 17 31 105 l0 87 -387 -1 c-291 0 -395
-4 -417 -13z"/>
<path d="M460 1760 c-13 -24 2 -60 25 -60 23 0 38 36 25 60 -6 11 -17 20 -25
20 -8 0 -19 -9 -25 -20z"/>
<path d="M712 1768 c-30 -30 1 -94 33 -68 25 20 13 80 -15 80 -3 0 -11 -5 -18
-12z"/>
<path d="M2350 1761 c-13 -26 -13 -33 4 -56 12 -16 16 -17 30 -6 19 16 21 52
4 69 -17 17 -26 15 -38 -7z"/>
<path d="M2594 1766 c-11 -29 1 -61 23 -64 17 -3 24 3 29 22 10 42 -38 80 -52
42z"/>
<path d="M524 1572 c14 -23 77 -35 118 -23 21 7 36 16 33 22 -4 5 -14 5 -27
-2 -20 -11 -60 -8 -107 7 -16 5 -22 4 -17 -4z"/>
<path d="M2430 1570 c0 -33 109 -36 139 -4 15 15 14 16 -4 9 -39 -14 -92 -17
-114 -6 -14 8 -21 8 -21 1z"/>
<path d="M465 1288 c-8 -32 14 -77 55 -112 33 -27 44 -27 59 3 8 14 -1 29 -49
76 -58 57 -59 58 -65 33z"/>
<path d="M2574 1254 c-67 -61 -96 -82 -89 -62 3 7 -8 33 -24 56 -32 49 -45 45
-50 -15 -1 -14 -3 -15 -10 -4 -7 11 -15 11 -45 0 -47 -17 -36 -27 56 -49 40
-10 84 -22 97 -26 19 -6 22 -4 16 7 -5 8 0 7 12 -3 11 -10 26 -18 35 -18 17 0
78 72 78 92 0 8 4 18 9 24 6 5 3 17 -8 30 l-17 22 -60 -54z"/>
<path d="M636 1239 l-28 -42 26 -25 c33 -33 43 -23 48 47 4 68 -10 74 -46 20z"/>
<path d="M307 1203 c-62 -32 -92 -53 -100 -71 -6 -15 -16 -30 -22 -34 -5 -4
-7 -8 -3 -8 10 0 -53 -173 -66 -182 -6 -4 -8 -8 -4 -8 5 0 -81 -264 -95 -287
-10 -17 -18 -73 -10 -71 9 3 138 -71 202 -114 32 -23 33 -26 37 -102 2 -44 6
-81 9 -84 3 -3 52 -7 110 -10 l106 -5 -36 36 c-19 19 -35 40 -35 45 0 6 17 24
38 41 l39 30 36 -25 c20 -13 50 -27 66 -30 l30 -6 -5 113 c-12 285 -23 693
-18 700 3 5 16 9 30 9 29 0 31 11 3 36 -22 20 -23 19 -55 -38 -8 -16 -17 -28
-20 -28 -4 0 -35 32 -71 70 -36 39 -68 70 -71 69 -4 -1 -47 -21 -95 -46z m-57
-543 c0 -64 -3 -69 -31 -44 -16 15 -16 18 -1 60 9 24 20 44 24 44 4 0 8 -27 8
-60z"/>
<path d="M2641 1191 l-51 -59 26 -9 26 -9 -1 -314 c-1 -173 -4 -340 -7 -371
-6 -52 -4 -61 24 -101 l31 -45 -27 -27 -27 -28 107 4 c59 2 110 7 114 11 4 4
8 42 8 84 l1 78 65 43 c36 24 72 47 80 50 48 23 79 49 83 70 2 12 0 25 -5 28
-5 3 -7 12 -4 19 2 7 -1 18 -7 24 -6 6 -8 11 -4 11 4 0 3 8 -2 18 -6 11 -12
30 -15 43 -2 13 -10 38 -17 54 -6 17 -13 36 -15 44 -1 7 -29 84 -61 170 -38
101 -67 164 -83 179 -23 22 -161 92 -180 92 -4 0 -31 -27 -59 -59z m242 -513
c16 -39 16 -43 0 -60 -9 -10 -19 -18 -22 -18 -4 0 -7 27 -8 60 0 33 2 60 6 60
5 0 15 -19 24 -42z"/>
<path d="M693 1194 l-11 -45 77 7 c122 11 125 16 35 52 -43 18 -82 32 -85 32
-3 0 -10 -21 -16 -46z"/>
<path d="M1840 1210 c-129 -16 -404 -50 -610 -75 -206 -25 -390 -48 -407 -51
l-33 -5 0 -166 c0 -145 2 -164 15 -159 9 3 23 2 33 -2 9 -5 31 -16 49 -24 22
-11 34 -13 42 -5 7 7 15 6 26 -3 14 -12 16 2 14 151 l-1 164 654 82 c359 45
661 82 671 83 31 0 18 17 -20 24 -96 18 -206 14 -433 -14z"/>
<path d="M5734 655 c0 -171 2 -242 3 -158 2 83 2 223 0 310 -1 87 -3 19 -3
-152z"/>
<path d="M1344 230 c0 -96 2 -136 3 -87 2 48 2 126 0 175 -1 48 -3 8 -3 -88z"/>
<path d="M4514 307 c-8 -4 -22 -7 -32 -6 -21 3 -68 -16 -77 -31 -10 -17 54
-38 136 -45 84 -8 196 7 217 29 12 12 11 16 -11 31 -38 25 -200 40 -233 22z"/>
</g>
</svg>
