<?xml version="1.0" standalone="no"?>
<!DOCTYPE svg PUBLIC "-//W3C//DTD SVG 20010904//EN"
 "http://www.w3.org/TR/2001/REC-SVG-20010904/DTD/svg10.dtd">
<svg version="1.0" xmlns="http://www.w3.org/2000/svg"
 width="1600.000000pt" height="1586.000000pt" viewBox="0 0 1600.000000 1586.000000"
 preserveAspectRatio="xMidYMid meet">

<g transform="translate(0.000000,1586.000000) scale(0.100000,-0.100000)"
fill="#000000" stroke="none">
<path d="M12730 9604 c-111 -24 -205 -77 -296 -168 -127 -126 -179 -255 -178
-436 1 -267 165 -484 434 -576 86 -29 262 -27 359 5 195 64 351 229 401 426
113 442 -274 845 -720 749z"/>
<path d="M10415 9010 c-7 -11 -5 -927 2 -987 l5 -43 259 0 259 0 0 520 0 520
-259 0 c-155 0 -262 -4 -266 -10z"/>
<path d="M9720 8779 c-74 -4 -178 -10 -230 -13 -52 -3 -228 -13 -390 -21 -162
-8 -331 -17 -375 -20 -44 -3 -208 -12 -365 -20 -545 -29 -507 -24 -516 -62
-12 -46 15 -55 136 -48 58 3 278 15 490 26 370 19 602 31 1200 64 151 8 287
15 302 15 35 0 55 32 39 66 -12 27 -30 28 -291 13z"/>
<path d="M9510 8264 c-250 -79 -635 -201 -855 -270 -803 -252 -804 -252 -811
-280 -7 -28 10 -54 36 -54 19 0 88 21 410 123 113 36 356 113 540 170 809 254
1164 368 1177 378 20 17 16 46 -9 63 -12 9 -25 16 -28 15 -3 0 -210 -66 -460
-145z"/>
<path d="M12520 8199 c-96 -10 -184 -36 -278 -80 -104 -48 -183 -104 -301
-213 -182 -168 -381 -278 -621 -345 -155 -42 -248 -53 -512 -60 l-256 -6 -44
-30 c-109 -77 -124 -224 -34 -323 32 -36 67 -51 173 -73 473 -97 992 -49 1493
138 85 32 258 108 268 117 2 2 -4 39 -13 82 -21 102 -21 276 0 378 27 130 84
259 163 369 19 26 33 49 31 50 -2 2 -33 0 -69 -4z"/>
<path d="M12662 8149 c-173 -222 -241 -507 -177 -754 9 -33 110 -348 226 -700
116 -352 225 -684 242 -739 18 -54 37 -100 42 -102 13 -5 934 141 942 150 4 3
-26 142 -65 308 -221 934 -305 1279 -323 1326 -123 308 -434 535 -777 566
l-62 6 -48 -61z"/>
<path d="M9725 7887 c-308 -179 -846 -489 -1135 -655 -263 -150 -300 -175
-300 -201 0 -23 19 -41 44 -41 12 0 158 79 326 176 404 233 649 374 975 562
149 86 294 169 322 186 29 17 55 38 59 48 8 26 -14 58 -39 58 -12 0 -125 -60
-252 -133z"/>
<path d="M3486 7934 c-113 -21 -277 -78 -373 -130 -161 -87 -225 -143 -518
-454 -54 -58 -137 -146 -184 -195 -48 -50 -120 -126 -161 -170 -41 -44 -115
-123 -165 -175 -49 -53 -160 -170 -245 -260 -85 -91 -178 -190 -207 -220 l-52
-55 -358 -5 -358 -5 -63 -34 c-75 -41 -125 -94 -161 -170 -22 -48 -26 -69 -26
-151 0 -83 4 -102 27 -150 37 -75 100 -137 178 -174 60 -28 74 -31 198 -34
125 -4 134 -6 143 -26 8 -17 -15 -90 -116 -365 l-125 -344 0 -994 0 -993 888
2 887 3 2 314 c2 219 6 317 14 327 17 20 4681 21 4698 1 7 -9 12 -116 13 -328
l3 -314 888 -2 887 -3 0 993 0 993 -125 345 c-101 276 -124 348 -116 366 9 20
18 21 143 25 121 3 139 6 195 32 73 33 153 112 186 183 18 39 22 66 22 144 0
90 -2 100 -35 164 -41 81 -109 142 -194 174 -54 20 -76 21 -392 21 l-335 0
-43 43 c-24 23 -124 128 -222 232 -196 208 -289 307 -434 460 -52 55 -165 174
-250 265 -85 91 -202 214 -260 273 -193 199 -375 308 -625 375 l-100 27 -1525
2 c-1292 1 -1537 -1 -1604 -13z m3127 -537 c12 -12 108 -123 212 -247 105
-123 263 -309 352 -414 90 -105 173 -211 185 -236 16 -33 22 -64 22 -115 1
-89 -34 -166 -100 -224 -88 -77 104 -71 -2224 -71 -2340 0 -2137 -7 -2229 76
-65 59 -95 127 -95 219 0 97 19 131 180 320 368 432 581 681 597 697 16 17 98
18 1547 18 l1531 0 22 -23z m-4000 -2339 c273 -92 437 -381 372 -656 -48 -205
-208 -366 -415 -418 -91 -23 -232 -15 -321 18 -85 31 -188 105 -241 171 -187
236 -163 558 57 766 63 60 192 125 276 140 76 14 199 4 272 -21z m3939 5 c63
-29 134 -96 166 -158 27 -50 27 -51 30 -300 3 -236 2 -254 -18 -308 -26 -69
-94 -143 -165 -177 l-50 -25 -1455 0 -1455 0 -50 25 c-71 35 -139 108 -165
177 -20 54 -21 72 -18 308 3 239 4 252 26 293 49 93 131 160 219 181 22 5 650
9 1463 8 l1425 -2 47 -22z m1223 17 c101 -17 218 -80 299 -163 210 -213 220
-532 26 -759 -48 -55 -153 -128 -230 -158 -70 -28 -214 -38 -302 -21 -145 28
-303 142 -376 273 -140 246 -62 578 171 737 118 80 271 114 412 91z"/>
<path d="M3423 7168 c-76 -90 -188 -221 -248 -292 -61 -72 -150 -176 -200
-233 -149 -172 -172 -223 -145 -323 16 -60 81 -123 143 -138 63 -16 4108 -17
4171 -1 122 30 189 170 137 284 -10 22 -103 139 -207 261 -104 121 -262 307
-352 412 l-164 192 -1498 0 -1498 0 -139 -162z"/>
<path d="M2323 4985 c-316 -85 -454 -451 -273 -723 90 -134 221 -202 389 -202
108 0 185 22 265 75 75 49 121 104 165 195 35 73 36 78 36 195 0 118 -1 121
-37 198 -22 45 -58 100 -88 131 -114 120 -299 173 -457 131z"/>
<path d="M3605 4984 c-53 -19 -111 -77 -132 -133 -15 -39 -18 -80 -18 -271 l0
-225 31 -55 c22 -38 46 -64 79 -85 l48 -30 1447 0 1447 0 48 30 c33 21 57 47
79 85 l31 55 0 225 c0 256 -7 289 -73 352 -77 73 38 68 -1535 67 -1205 -1
-1418 -3 -1452 -15z"/>
<path d="M7549 4980 c-154 -48 -268 -158 -318 -308 -23 -68 -28 -186 -10 -261
35 -153 166 -289 323 -336 59 -19 198 -21 259 -4 108 29 217 110 277 204 52
84 73 172 68 280 -4 81 -10 104 -40 167 -61 127 -166 219 -290 255 -78 22
-203 24 -269 3z"/>
<path d="M10680 7741 l0 -148 31 -7 c62 -12 59 -19 59 149 l0 155 -45 0 -45 0
0 -149z"/>
<path d="M10683 6489 c4 -371 9 -512 21 -602 88 -640 358 -1210 791 -1675 43
-46 81 -80 85 -75 5 4 13 25 19 47 l10 38 -82 92 c-350 389 -591 860 -692
1352 -52 253 -57 320 -62 822 -4 372 -8 472 -18 472 -7 0 -27 3 -45 6 l-32 7
5 -484z"/>
<path d="M13830 5895 c-41 -8 -248 -41 -460 -75 -212 -34 -392 -67 -402 -73
-9 -7 -121 -101 -250 -209 -322 -272 -498 -420 -685 -578 l-160 -134 -223
-771 c-123 -423 -225 -780 -228 -792 l-4 -22 385 -1 385 0 10 27 c5 16 53 147
105 293 53 146 132 366 177 490 45 124 106 295 137 380 30 85 63 162 72 171
14 14 300 188 636 387 195 116 269 164 327 216 176 159 281 375 295 609 l6 97
-24 -1 c-13 -1 -58 -7 -99 -14z"/>
<path d="M13635 5079 c-53 -39 -194 -127 -385 -238 -63 -37 -130 -76 -148 -87
-26 -15 -31 -24 -27 -44 2 -14 19 -131 36 -260 l31 -235 145 -495 c80 -272
147 -497 150 -500 2 -2 8 1 12 8 6 10 71 13 279 13 242 0 272 1 272 15 0 17
-135 550 -242 954 l-62 235 -6 336 -5 336 -50 -38z"/>
<path d="M12407 3596 l-15 -45 119 -50 c140 -59 295 -112 430 -146 105 -27
372 -76 378 -69 2 2 -2 23 -8 46 l-12 43 -162 32 c-240 47 -449 112 -626 194
-46 21 -85 39 -86 39 -2 0 -10 -20 -18 -44z"/>
<path d="M14074 3333 c3 -10 8 -30 12 -45 l6 -28 562 0 c592 0 586 0 586 45 0
45 7 45 -598 45 -541 0 -573 -1 -568 -17z"/>
<path d="M13450 3163 c0 -2 14 -45 30 -97 50 -155 138 -229 275 -229 151 -1
267 109 269 253 l1 65 -288 5 c-158 3 -287 4 -287 3z"/>
<path d="M11390 3111 c0 -104 55 -193 151 -246 53 -29 57 -30 199 -30 185 0
226 11 296 79 41 41 58 68 83 134 17 46 31 90 31 98 0 12 -57 14 -380 14
l-380 -1 0 -48z"/>
</g>
</svg>
