<?xml version="1.0" standalone="no"?>
<!DOCTYPE svg PUBLIC "-//W3C//DTD SVG 20010904//EN"
 "http://www.w3.org/TR/2001/REC-SVG-20010904/DTD/svg10.dtd">
<svg version="1.0" xmlns="http://www.w3.org/2000/svg"
 width="900.000000pt" height="720.000000pt" viewBox="0 0 900.000000 720.000000"
 preserveAspectRatio="xMidYMid meet">

<g transform="translate(0.000000,720.000000) scale(0.100000,-0.100000)"
fill="#000000" stroke="none">
<path d="M5549 7191 c-83 -12 -183 -101 -213 -189 -9 -25 -16 -69 -16 -99 0
-48 -2 -54 -30 -68 -41 -21 -54 -50 -53 -123 0 -50 7 -76 33 -128 l32 -66 -28
-29 c-19 -20 -28 -38 -26 -55 2 -13 -1 -24 -7 -24 -6 0 -11 7 -11 15 0 13 -4
13 -27 -2 -16 -10 -35 -26 -43 -35 -8 -10 -40 -22 -70 -28 -30 -5 -81 -22
-112 -37 -32 -14 -60 -25 -62 -22 -3 2 6 58 20 124 30 150 31 210 5 225 -26
13 -68 13 -77 -1 -13 -22 -37 -148 -61 -317 -6 -49 -46 -87 -101 -98 -19 -4
-47 -23 -71 -49 -22 -24 -41 -39 -43 -33 -4 12 -188 -167 -188 -182 0 -6 -4
-10 -9 -10 -24 0 -321 -313 -321 -339 0 -5 -7 -11 -15 -15 -24 -9 -18 -27 39
-103 l55 -72 -31 -57 c-23 -41 -31 -68 -29 -98 4 -70 4 -149 1 -193 -2 -30 5
-56 26 -94 53 -98 106 -94 256 21 56 43 114 95 127 114 13 20 28 36 34 36 6 0
19 7 29 17 24 22 28 15 18 -32 -11 -47 -46 -251 -65 -378 -8 -49 -16 -96 -20
-105 -8 -21 -22 -101 -85 -472 -28 -162 -55 -311 -60 -330 -5 -19 -18 -93 -29
-165 -11 -71 -25 -146 -31 -165 -6 -19 -17 -84 -26 -145 -8 -60 -25 -162 -39
-225 -13 -63 -26 -137 -30 -165 -3 -27 -10 -63 -15 -80 -5 -16 -16 -77 -25
-135 -9 -58 -19 -116 -21 -130 -14 -69 -25 -131 -33 -185 -5 -33 -24 -141 -44
-240 -19 -99 -43 -225 -52 -280 -9 -55 -21 -120 -26 -145 -5 -25 -11 -58 -14
-75 -14 -100 -26 -150 -42 -167 -10 -11 -18 -38 -19 -66 -2 -45 -21 -169 -43
-279 -20 -100 -54 -144 -192 -248 -138 -104 -140 -107 -169 -260 -13 -68 -20
-89 -31 -85 -59 19 -113 -5 -235 -103 -25 -21 -61 -38 -97 -46 -46 -10 -69
-23 -115 -65 -31 -29 -78 -60 -104 -70 -25 -9 -52 -24 -59 -32 -7 -8 -42 -31
-78 -51 -36 -20 -68 -40 -71 -43 -3 -4 -30 -15 -60 -25 -55 -18 -202 -74 -208
-80 -10 -10 26 -56 58 -74 36 -20 52 -21 352 -24 l313 -2 184 33 c181 32 462
107 523 138 17 9 48 28 69 43 21 15 64 37 96 49 37 14 73 36 98 62 21 22 45
40 52 40 24 0 25 28 3 58 -21 28 -21 33 -10 118 25 178 26 165 -18 241 -22 37
-56 93 -75 123 -80 126 -93 192 -65 350 20 116 32 171 48 224 6 20 6 34 -1 43
-7 7 -9 27 -5 45 3 18 13 76 21 128 8 52 19 115 25 140 5 25 17 88 25 140 8
52 24 136 34 185 11 50 25 124 31 165 6 41 20 120 31 175 37 189 71 380 80
454 6 41 13 79 17 85 7 12 16 66 32 189 6 44 15 87 20 96 5 10 16 73 25 140 9
67 20 132 24 144 5 12 14 56 20 97 6 41 18 116 27 165 9 50 20 113 24 140 8
45 36 193 60 320 5 28 19 111 31 185 12 74 41 239 64 365 24 127 46 253 50
280 9 70 16 88 26 78 5 -5 2 -59 -6 -128 -9 -71 -13 -162 -10 -224 4 -90 7
-107 26 -127 12 -13 29 -26 38 -29 13 -4 17 -23 19 -98 l2 -93 -41 -58 c-74
-103 -80 -140 -85 -471 -2 -159 -7 -315 -12 -345 -4 -30 -3 -89 2 -130 5 -41
8 -84 7 -95 0 -11 -3 -56 -6 -100 -3 -44 -7 -172 -8 -285 -3 -197 -4 -208 -31
-280 -15 -41 -32 -91 -36 -110 -5 -19 -22 -87 -38 -150 -16 -63 -33 -135 -37
-160 -4 -25 -15 -88 -25 -140 -28 -151 -39 -220 -46 -290 -6 -66 -34 -231 -60
-352 -8 -37 -14 -82 -14 -100 0 -19 -7 -59 -15 -90 -8 -31 -15 -83 -17 -116
-2 -51 2 -65 29 -108 30 -47 31 -53 27 -129 -3 -44 -7 -128 -10 -186 l-5 -106
134 -18 134 -17 64 23 c35 12 69 29 76 37 13 16 9 50 -12 122 -21 68 -30 207
-16 224 14 17 45 132 70 256 5 25 23 99 41 165 18 66 36 136 40 155 5 19 14
53 20 75 11 38 28 107 51 205 5 25 14 63 20 85 10 44 35 205 49 326 4 41 14
95 20 119 6 23 18 113 26 199 19 208 32 284 68 406 24 79 86 293 108 373 12
39 25 72 30 72 10 0 1 -39 -19 -89 -19 -44 -8 -383 14 -449 10 -32 15 -117 18
-340 2 -163 8 -324 14 -357 27 -147 40 -405 37 -710 -3 -259 -1 -315 12 -339
14 -29 14 -58 -4 -177 l-6 -47 58 -39 c44 -30 73 -42 114 -46 46 -6 59 -12 85
-42 46 -53 109 -75 218 -75 77 0 98 4 132 23 39 23 40 24 38 75 -3 69 -23 103
-106 187 l-70 70 -3 100 c-3 104 -16 252 -34 390 -6 44 -11 85 -11 90 2 64 24
303 31 344 6 30 10 120 10 200 0 80 6 187 14 236 8 50 14 104 14 120 0 31 17
206 26 260 2 17 7 62 11 100 6 66 21 159 31 197 3 9 27 24 54 33 51 17 70 44
57 80 -9 23 11 28 23 5 12 -23 30 -27 30 -5 0 25 38 51 98 68 63 18 149 68
159 93 6 15 -33 111 -120 296 -38 80 -43 99 -32 108 8 6 24 32 35 56 12 24 28
44 35 44 26 0 50 101 47 202 -2 47 5 89 22 145 14 43 30 97 36 121 6 23 36 99
66 169 68 156 85 225 94 383 3 69 12 139 20 156 12 28 11 38 -5 80 -10 27 -29
65 -42 84 -12 19 -23 40 -23 47 0 8 -4 21 -10 31 -5 9 -20 49 -34 87 -13 39
-34 99 -46 135 -13 36 -38 97 -56 135 -18 39 -45 99 -60 134 l-28 63 -200 132
c-178 117 -205 139 -238 189 l-38 56 27 33 c15 18 48 56 74 83 77 80 97 149
58 199 -20 25 -20 28 -5 45 19 21 41 125 40 191 -1 90 -75 195 -178 254 -46
27 -156 39 -237 27z m536 -1918 c15 -21 52 -57 81 -81 l53 -43 1 -235 c0 -229
0 -237 -26 -312 -15 -42 -34 -88 -44 -102 -10 -14 -29 -48 -43 -76 -27 -53
-73 -114 -86 -114 -10 0 -31 70 -31 102 0 13 -5 29 -10 34 -20 20 -12 241 9
253 18 11 58 103 77 174 18 71 15 114 -23 290 -20 93 -22 121 -13 132 18 21
23 19 55 -22z m-2270 -4413 c-3 -6 1 -7 9 -4 19 7 19 3 7 -45 -5 -20 -15 -68
-22 -107 l-12 -72 -74 -11 c-41 -6 -92 -11 -113 -11 -37 0 -40 2 -39 28 2 61
26 166 39 172 8 4 38 19 65 33 50 26 153 38 140 17z"/>
</g>
</svg>
