<?xml version="1.0" standalone="no"?>
<!DOCTYPE svg PUBLIC "-//W3C//DTD SVG 20010904//EN"
 "http://www.w3.org/TR/2001/REC-SVG-20010904/DTD/svg10.dtd">
<svg version="1.0" xmlns="http://www.w3.org/2000/svg"
 width="512.000000pt" height="512.000000pt" viewBox="0 0 512.000000 512.000000"
 preserveAspectRatio="xMidYMid meet">

<g transform="translate(0.000000,512.000000) scale(0.100000,-0.100000)"
fill="#000000" stroke="none">
<path d="M3534 3879 c-12 -6 -27 -22 -33 -35 -8 -18 -11 -214 -11 -659 l0
-635 -390 0 c-369 0 -390 1 -380 18 5 9 14 29 20 45 l10 27 163 0 c213 0 222
4 327 149 l75 105 0 66 c0 46 -5 74 -17 92 -23 35 -378 308 -445 341 -28 15
-73 31 -99 37 -38 9 -71 31 -173 118 -235 201 -276 226 -418 263 -66 17 -112
20 -293 20 -302 2 -494 -31 -736 -126 -133 -52 -188 -79 -316 -156 -77 -47
-131 -69 -253 -108 -160 -50 -192 -68 -222 -125 -26 -50 -17 -103 46 -277 82
-227 84 -232 136 -287 63 -69 145 -104 251 -110 l81 -4 16 -44 16 -43 -402 -3
c-380 -3 -404 -4 -431 -23 -46 -31 -56 -69 -56 -216 0 -204 14 -221 185 -229
l110 -5 5 -80 c4 -59 12 -91 28 -119 26 -44 169 -222 203 -252 33 -29 82 -44
144 -44 l52 0 7 -41 c16 -100 111 -219 210 -265 154 -70 319 -46 440 67 48 43
101 136 114 195 l8 39 59 0 59 0 8 -38 c21 -101 105 -209 199 -256 157 -79
319 -58 450 57 52 46 105 138 115 200 l7 42 237 0 c225 0 239 1 264 21 33 26
36 79 6 109 -19 19 -33 20 -269 20 l-249 0 -7 27 c-21 84 -128 197 -223 234
-82 33 -213 32 -297 -1 -81 -32 -185 -134 -211 -208 l-19 -52 -70 0 -70 0 -19
52 c-26 74 -130 176 -211 208 -85 34 -215 34 -300 0 -79 -31 -171 -122 -205
-202 l-25 -58 -52 0 -52 0 -91 112 -90 113 0 62 0 63 1520 0 1520 0 0 -175 0
-175 -155 0 c-142 0 -157 -2 -175 -20 -30 -30 -27 -83 6 -109 26 -20 39 -21
309 -21 l282 0 6 -37 c10 -59 55 -140 108 -193 151 -151 386 -155 546 -7 54
49 86 103 108 179 l16 57 228 3 c222 3 228 4 263 27 19 13 46 40 59 59 l24 36
3 447 3 448 -223 466 c-135 284 -235 481 -256 505 -73 86 -171 120 -345 120
-107 0 -109 0 -138 -29 -34 -35 -36 -59 -9 -94 19 -24 25 -25 152 -29 153 -4
198 -20 243 -86 l25 -37 -303 -5 c-329 -5 -335 -6 -373 -64 -38 -59 -26 -206
26 -312 50 -103 99 -139 372 -275 276 -137 283 -138 514 -139 l141 0 11 -25
c7 -14 12 -57 12 -95 l0 -70 -101 0 c-123 0 -167 -19 -199 -85 -19 -38 -20
-62 -20 -328 l0 -287 -59 0 -58 0 -32 65 c-126 256 -462 302 -650 88 -22 -24
-50 -69 -62 -99 l-23 -54 -63 0 -63 0 0 905 0 905 125 0 c112 0 127 2 145 20
25 25 26 71 1 101 -18 23 -27 24 -145 27 l-126 4 0 73 c0 55 -4 78 -17 93 -22
26 -61 35 -89 21z m-1406 -215 c34 -8 84 -25 110 -38 43 -22 247 -184 240
-191 -2 -2 -100 -8 -218 -15 l-215 -12 -290 70 c-290 71 -401 91 -498 93 l-52
0 70 25 c98 35 292 74 410 83 134 10 365 2 443 -15z m-748 -254 c36 -6 198
-43 360 -82 l295 -71 290 17 c160 9 311 16 336 16 58 0 116 -20 175 -60 l45
-32 -45 -33 c-78 -61 -104 -149 -67 -230 23 -49 50 -75 121 -114 l55 -31 -98
0 -98 0 -19 45 c-28 66 -91 128 -161 160 -55 24 -70 27 -143 23 -126 -7 -217
-67 -268 -177 l-23 -51 -333 0 -333 0 -19 45 c-25 59 -88 125 -147 155 -41 21
-62 25 -143 25 -79 0 -102 -4 -138 -23 -60 -32 -116 -91 -144 -151 l-23 -51
-50 0 c-95 0 -167 36 -199 99 -21 40 -126 337 -126 354 0 11 23 23 73 38 39
12 127 38 195 60 106 33 204 56 302 72 53 9 268 6 330 -3z m2810 -290 c0 -77
-3 -140 -7 -140 -20 1 -90 60 -115 95 -29 41 -55 142 -45 169 5 13 23 16 87
16 l80 0 0 -140z m566 -104 c63 -131 114 -241 114 -244 0 -2 -62 -3 -137 0
l-138 3 -127 62 -128 62 0 181 0 181 151 -3 150 -3 115 -239z m-1658 14 c72
-55 85 -77 57 -100 -22 -18 -132 -6 -189 21 -49 23 -70 48 -60 73 6 15 103 69
114 64 3 -2 38 -28 78 -58z m-1848 -183 c135 -90 75 -297 -85 -297 -90 0 -155
61 -163 152 -4 61 19 106 77 145 47 32 125 32 171 0z m1280 0 c95 -63 99 -203
8 -268 -48 -35 -132 -38 -178 -7 -98 67 -108 181 -23 259 36 33 46 37 109 38
37 1 60 -5 84 -22z m-379 -252 l17 -45 -365 0 -364 0 7 23 c4 12 10 32 15 45
l9 22 332 0 333 0 16 -45z m1339 -280 l0 -85 -1670 0 -1670 0 0 85 0 85 1670
0 1670 0 0 -85z m1480 -120 l0 -85 -85 0 -85 0 0 85 0 85 85 0 85 0 0 -85z m0
-338 c0 -67 -4 -107 -12 -115 -7 -7 -42 -12 -85 -12 l-73 0 0 115 0 115 85 0
85 0 0 -103z m-3760 -8 c97 -44 144 -117 145 -224 0 -59 -4 -77 -28 -118 -55
-92 -165 -142 -262 -118 -228 57 -262 359 -50 457 63 30 134 31 195 3z m900 0
c95 -43 144 -117 145 -219 0 -83 -30 -148 -91 -194 -164 -125 -390 -12 -389
194 1 135 106 240 240 240 29 0 69 -9 95 -21z m2114 9 c55 -16 138 -99 154
-154 40 -137 -32 -271 -166 -310 -153 -45 -305 71 -306 232 0 167 155 280 318
232z"/>
</g>
</svg>
