<?xml version="1.0" standalone="no"?>
<!DOCTYPE svg PUBLIC "-//W3C//DTD SVG 20010904//EN"
 "http://www.w3.org/TR/2001/REC-SVG-20010904/DTD/svg10.dtd">
<svg version="1.0" xmlns="http://www.w3.org/2000/svg"
 width="600.000000pt" height="542.000000pt" viewBox="0 0 600.000000 542.000000"
 preserveAspectRatio="xMidYMid meet">

<g transform="translate(0.000000,542.000000) scale(0.100000,-0.100000)"
fill="#000000" stroke="none">
<path d="M2668 5253 c7 -3 16 -2 19 1 4 3 -2 6 -13 5 -11 0 -14 -3 -6 -6z"/>
<path d="M2922 5247 c-14 -17 -18 -135 -5 -148 6 -6 51 -22 99 -35 125 -35
193 -54 239 -69 22 -8 81 -25 130 -40 96 -28 135 -40 255 -78 41 -13 104 -32
140 -42 104 -28 392 -115 500 -152 41 -13 96 -37 122 -53 79 -48 82 -47 101
12 8 29 13 65 10 81 -9 46 -35 58 -263 128 -58 17 -109 35 -115 39 -5 4 -23
10 -40 13 -26 5 -151 44 -210 67 -40 15 -91 32 -155 51 -36 11 -74 24 -85 28
-11 5 -65 22 -120 40 -55 17 -155 49 -222 71 -68 22 -128 40 -134 40 -6 0 -25
6 -42 14 -97 42 -186 56 -205 33z"/>
<path d="M2588 5223 c7 -3 16 -2 19 1 4 3 -2 6 -13 5 -11 0 -14 -3 -6 -6z"/>
<path d="M2910 4703 c-5 -221 -2 -315 11 -328 8 -7 46 -18 84 -23 39 -6 106
-18 150 -27 44 -10 98 -19 120 -22 22 -3 46 -10 53 -16 11 -8 13 -74 11 -322
-2 -171 1 -317 5 -324 4 -7 7 -114 6 -239 -2 -280 -3 -287 -15 -286 -5 1 -27
5 -48 8 -29 5 -37 4 -32 -4 5 -9 1 -9 -16 0 -19 11 -24 10 -36 -6 -7 -10 -13
-27 -13 -37 0 -17 5 -19 33 -14 27 4 33 2 35 -14 4 -45 5 -47 30 -43 19 4 23
1 19 -10 -4 -11 3 -16 26 -18 l32 -3 3 -249 c2 -152 -1 -253 -7 -259 -6 -6
-21 3 -41 27 -18 20 -36 36 -41 36 -10 0 -124 87 -168 128 -28 25 -38 27 -54
9 -30 -32 -38 -56 -25 -77 7 -11 16 -20 20 -20 22 0 178 -133 178 -151 0 -5 7
-9 15 -9 18 0 20 -26 3 -33 -7 -3 1 -3 17 -1 22 4 36 -1 53 -16 12 -12 20 -25
17 -30 -3 -5 4 -14 15 -20 13 -7 20 -7 20 0 0 20 32 10 70 -22 50 -41 52 -61
8 -53 -53 8 -160 26 -200 32 -28 4 -38 10 -38 24 0 17 -11 31 -79 93 -21 18
-30 34 -26 46 3 9 3 24 -1 33 -5 13 -10 14 -29 5 -25 -11 -39 -2 -120 71 -11
10 -38 28 -60 40 -22 13 -46 32 -53 42 -7 11 -27 26 -45 35 -30 16 -32 16 -49
-6 -25 -31 -23 -45 10 -65 15 -10 36 -28 47 -40 11 -12 39 -34 62 -48 45 -28
68 -59 68 -92 0 -16 7 -20 33 -21 38 -1 52 -12 32 -24 -22 -13 -4 -24 38 -23
41 1 112 -33 112 -54 0 -7 1 -16 3 -20 1 -5 -81 -13 -183 -19 -148 -9 -232 -9
-420 3 -129 8 -302 18 -385 23 -169 9 -423 26 -630 40 -227 17 -564 34 -650
35 l-80 0 3 -70 c2 -38 8 -74 13 -79 5 -6 9 0 9 15 0 13 10 37 23 52 l22 28
63 -16 c35 -9 89 -18 120 -19 31 -2 64 -6 72 -9 8 -3 60 -8 115 -12 55 -3 125
-8 155 -10 30 -2 109 -9 175 -16 66 -6 138 -12 160 -13 34 -1 41 -5 43 -24 4
-28 -14 -53 -33 -46 -20 8 -23 -3 -36 -127 -7 -63 -16 -117 -21 -120 -5 -3
-28 -2 -51 2 -23 4 -74 8 -113 9 -92 0 -104 12 -105 106 -1 38 2 96 5 129 l6
60 -15 -45 c-8 -25 -15 -72 -15 -105 0 -33 -5 -76 -10 -96 l-10 -35 -57 7
c-32 4 -83 8 -114 8 -87 1 -93 12 -87 168 l5 128 -18 -65 c-11 -36 -19 -94
-19 -130 0 -37 -4 -70 -10 -76 -14 -14 -220 5 -237 21 -7 8 -13 24 -13 37 -1
21 -1 22 -11 4 -6 -10 -9 -43 -7 -75 3 -31 1 -71 -4 -88 l-9 -33 -81 0 c-70 0
-83 3 -99 22 -11 11 -19 29 -19 40 0 10 -6 18 -14 18 -8 0 -16 6 -19 14 -7 17
-47 10 -47 -8 0 -8 -11 -11 -29 -8 -31 4 -44 -7 -35 -32 5 -12 11 -13 24 -6
30 16 42 12 38 -13 -2 -16 -8 -21 -23 -18 -11 2 -37 4 -58 5 -24 0 -43 8 -51
18 -16 22 -32 23 -40 3 -5 -14 13 -40 35 -47 7 -2 9 -12 5 -26 -9 -27 -52 -31
-59 -4 -3 9 -2 -5 0 -33 6 -57 43 -115 74 -115 11 0 31 7 44 16 21 14 25 14
25 2 0 -22 -46 -68 -69 -68 -44 0 -110 87 -126 167 -9 44 -25 52 -25 13 0 -34
25 -134 40 -162 6 -10 10 -22 10 -28 0 -22 76 -110 108 -126 58 -27 311 -1
361 38 19 15 41 44 60 78 21 39 51 151 51 191 0 20 6 41 13 47 16 13 182 -5
219 -24 15 -8 75 -19 135 -24 118 -12 132 -14 182 -37 18 -8 65 -16 105 -18
83 -3 146 -14 163 -27 16 -13 19 -2 27 73 11 105 65 280 101 328 42 54 114
124 148 142 56 30 170 32 242 5 42 -16 133 -66 195 -106 8 -6 22 -13 30 -17
16 -7 41 -28 103 -87 76 -70 124 -106 141 -106 16 0 16 -2 2 -15 -8 -8 -26
-15 -39 -15 -42 0 -63 -29 -76 -102 -14 -81 -5 -107 49 -137 42 -23 109 -28
143 -9 27 15 245 12 264 -4 7 -6 13 -30 13 -53 0 -57 16 -70 69 -55 23 6 41
15 41 20 0 6 7 10 15 10 9 0 15 -10 15 -26 0 -14 4 -33 9 -43 8 -14 -4 -36
-60 -107 -39 -49 -78 -98 -87 -109 -122 -144 -144 -185 -144 -267 1 -52 -7
-62 -58 -73 -81 -18 -165 -99 -193 -188 -21 -66 -21 -66 -1 -135 21 -72 101
-155 166 -173 63 -17 152 -5 192 26 18 14 35 22 38 20 3 -3 -1 -33 -9 -66 -14
-54 -14 -65 2 -122 27 -98 78 -159 170 -203 114 -54 276 -4 334 104 13 24 47
30 54 10 5 -17 153 -17 272 0 184 26 301 41 350 46 168 18 225 35 225 67 0 15
-9 16 -62 13 -100 -7 -156 -13 -268 -29 -58 -8 -148 -19 -200 -25 -52 -6 -117
-15 -143 -21 -26 -6 -51 -9 -54 -6 -8 9 -10 66 -12 311 -2 177 -5 236 -17 257
-8 15 -14 39 -14 52 0 12 -4 27 -10 33 -5 5 -12 37 -15 69 -3 33 -11 62 -16
66 -7 4 -5 12 5 22 19 19 21 38 4 34 -8 -1 -12 7 -11 18 1 11 -3 52 -8 90 -10
75 -15 232 -8 239 3 3 47 8 99 11 106 7 231 22 234 27 1 2 14 20 29 40 26 35
32 38 80 38 30 1 60 7 71 15 19 14 17 15 -18 15 -20 0 -46 -5 -57 -11 -11 -6
-55 -15 -97 -20 -42 -5 -115 -16 -162 -24 -141 -26 -193 -30 -188 -14 5 15 95
38 158 39 25 0 63 7 85 15 22 8 52 15 66 15 14 0 34 9 44 20 15 17 16 25 6 64
-6 25 -11 65 -11 90 l0 46 65 0 c58 0 69 3 92 26 20 20 28 23 34 12 13 -21 96
-15 114 8 17 22 20 54 5 54 -5 0 -10 -5 -10 -11 0 -6 -7 -3 -16 5 -20 21 -25
20 -17 -1 6 -15 4 -16 -9 -6 -8 7 -18 10 -21 6 -4 -3 -13 0 -21 6 -9 7 -21 9
-28 5 -7 -5 -41 -9 -74 -10 l-62 -2 -4 40 c-3 29 3 50 20 79 21 36 22 39 5 39
-49 0 -119 -99 -110 -156 4 -21 1 -37 -7 -44 -12 -9 -154 -27 -266 -33 l-35
-2 -5 63 c-3 34 -4 66 -2 72 2 5 20 12 40 15 20 4 44 9 52 13 8 3 48 6 88 6
78 1 92 10 84 51 -3 17 2 27 20 36 41 22 117 91 124 112 4 12 13 27 20 35 20
20 -39 92 -75 92 -100 -1 -366 -22 -376 -30 -8 -7 -15 -3 -24 13 -7 12 -32 38
-57 57 -48 38 -52 45 -29 54 8 3 15 1 15 -4 0 -6 7 -10 15 -10 13 0 14 3 3 23
-21 36 -17 57 12 72 24 12 31 12 69 -7 46 -23 81 -61 81 -89 0 -18 10 -19 146
-19 81 0 164 5 184 11 l38 11 -22 44 c-11 24 -28 46 -36 48 -8 3 1 3 21 0 53
-7 94 -30 128 -72 l30 -36 114 12 c63 7 132 12 155 12 23 0 42 5 44 12 3 7 15
13 29 13 22 0 24 5 31 70 8 75 3 248 -7 266 -4 5 -15 7 -25 4 -10 -3 -21 -1
-25 5 -3 5 -34 10 -68 10 -34 0 -102 6 -152 14 -49 8 -156 17 -238 21 -140 6
-206 19 -222 45 -3 5 -24 10 -46 10 -44 0 -54 17 -12 22 26 3 26 4 9 21 -14
14 -16 21 -7 30 9 9 13 6 17 -11 11 -38 58 -21 52 19 -2 17 -8 23 -21 21 -11
-2 -26 3 -35 11 -10 8 -26 17 -37 19 -11 3 -28 9 -38 13 -17 7 -18 3 -16 -31
2 -22 0 -45 -5 -52 -5 -8 0 -12 13 -12 12 0 21 -4 21 -8 0 -11 -48 -13 -55 -2
-3 6 -16 10 -28 10 l-21 0 22 16 c12 8 22 26 22 40 0 13 5 24 11 24 7 0 10 12
7 30 -3 20 0 30 9 30 7 0 13 6 13 13 0 8 9 22 20 32 11 10 20 26 20 35 0 9 7
25 15 36 21 28 19 54 -6 54 -11 0 -35 11 -53 25 -39 30 -56 33 -31 5 10 -11
22 -20 27 -20 14 0 35 -23 42 -48 7 -19 4 -22 -23 -22 -17 0 -31 3 -31 8 -1 4
-21 29 -45 56 -25 28 -45 53 -45 58 0 4 -8 16 -18 26 -42 42 -91 115 -112 167
l-22 55 25 39 c30 46 101 119 139 144 16 10 46 17 74 17 45 0 192 -25 224 -37
51 -21 133 -6 145 26 3 8 4 15 3 15 -33 18 -115 56 -120 56 -14 0 -94 87 -90
98 2 7 -1 12 -7 12 -6 0 -11 10 -11 23 -1 12 -7 35 -14 52 -9 21 -10 42 -4 70
5 22 12 52 15 68 3 15 9 27 14 27 5 0 9 4 9 10 0 27 90 113 147 141 61 29 146
31 199 4 38 -20 124 -96 124 -111 0 -4 6 -15 13 -23 25 -30 40 -98 35 -163 -4
-73 -42 -158 -94 -214 -32 -33 -109 -74 -142 -74 -8 0 -31 -5 -49 -12 -51 -18
-44 -47 22 -94 30 -21 55 -45 55 -51 0 -7 4 -13 9 -13 5 0 12 -12 16 -27 11
-44 24 -53 77 -53 69 0 90 -13 77 -47 -11 -30 -4 -59 15 -66 18 -7 41 20 50
56 5 23 2 29 -19 39 -25 11 -34 41 -15 53 6 3 10 15 10 26 0 10 5 19 10 19 6
0 10 7 10 15 0 8 7 15 16 15 11 0 14 4 8 13 -5 6 -9 58 -9 114 0 57 -3 103 -7
103 -5 0 -8 7 -8 16 0 8 5 12 10 9 6 -3 10 1 10 9 0 9 -4 16 -10 16 -5 0 -10
11 -10 25 0 14 5 25 11 25 8 0 8 4 1 13 -9 11 -7 38 13 147 3 19 13 42 21 51
7 8 14 25 14 36 0 12 4 23 8 25 9 3 41 88 49 130 3 19 1 29 -8 32 -8 2 -34 9
-59 15 -25 7 -67 19 -95 26 -27 8 -66 16 -85 19 -19 2 -60 11 -90 20 -76 21
-168 45 -210 56 -19 5 -89 23 -155 40 -66 17 -145 37 -175 44 -30 7 -93 23
-140 35 -47 12 -114 29 -150 37 -91 21 -127 30 -187 48 -28 9 -60 16 -71 16
-11 0 -36 7 -55 15 -39 16 -77 20 -77 8z m440 -1619 c0 -8 -5 -12 -10 -9 -6 4
-8 11 -5 16 9 14 15 11 15 -7z m-14 -91 c-11 -11 -19 6 -11 24 8 17 8 17 12 0
3 -10 2 -21 -1 -24z m505 -406 c-8 -8 -11 -3 -11 19 1 25 2 27 11 11 8 -14 8
-22 0 -30z m-181 -523 c15 -38 12 -74 -5 -74 -22 0 -42 52 -36 93 3 18 32 5
41 -19z m-252 -6 c20 -41 24 -85 9 -91 -25 -10 -40 10 -45 62 -4 40 -1 51 10
51 8 0 20 -10 26 -22z m120 -124 c7 -2 12 -23 12 -56 0 -93 0 -92 -103 -106
-127 -17 -138 -16 -164 15 -13 14 -23 29 -24 32 -12 88 -12 88 89 96 48 4 96
13 106 21 17 12 41 12 84 -2z m-336 -29 c-5 -37 -19 -75 -29 -75 -14 0 -14 80
-1 95 19 21 33 12 30 -20z m-133 -21 c23 -20 31 -36 31 -61 0 -49 -25 -69 -97
-79 -25 -3 -31 -1 -27 11 4 9 -3 16 -20 21 -14 3 -26 10 -26 14 0 21 13 38 26
33 17 -6 19 18 2 35 -9 9 -9 18 1 38 10 23 16 26 46 21 18 -3 47 -18 64 -33z
m-149 -42 c0 -24 -4 -28 -30 -30 -26 -2 -30 1 -30 22 0 25 11 34 43 35 12 1
17 -7 17 -27z m377 -176 c21 -8 56 -17 78 -21 22 -4 45 -10 50 -15 6 -4 29
-13 53 -20 38 -10 63 -32 50 -45 -2 -3 -49 12 -104 33 -54 21 -118 44 -141 51
-24 8 -43 18 -43 23 0 12 14 10 57 -6z m235 -198 c-12 -12 -71 -23 -194 -34
-48 -5 -68 -11 -68 -20 0 -18 156 -20 162 -3 3 9 18 9 53 3 48 -9 50 -11 52
-44 1 -19 5 -46 8 -60 5 -19 -1 -33 -24 -58 -17 -18 -31 -37 -31 -43 0 -5 -3
-9 -7 -9 -5 0 -19 -17 -33 -38 -14 -20 -29 -42 -35 -48 -5 -6 -35 -43 -65 -82
-62 -81 -80 -93 -80 -56 0 13 -7 27 -15 30 -22 9 -7 26 16 19 13 -4 21 -1 26
12 3 10 17 29 30 42 13 13 23 34 23 47 0 13 5 24 11 24 6 0 7 5 2 13 -4 6 -6
43 -4 80 2 65 -8 97 -30 97 -11 0 -6 -160 5 -178 5 -8 0 -12 -13 -12 -20 0
-25 10 -22 38 1 8 -3 20 -10 28 -6 8 -7 14 -2 14 6 0 10 13 9 30 -1 16 -4 30
-9 30 -4 0 -5 11 -1 25 3 14 2 25 -4 25 -11 0 -23 32 -28 78 -3 30 -1 32 30
32 19 0 49 7 67 15 43 18 199 21 181 3z m-342 -463 l0 -345 -25 0 c-17 0 -25
5 -25 18 0 67 -65 159 -148 207 l-32 19 5 79 c6 83 23 129 54 149 11 6 17 17
14 24 -2 7 4 22 14 34 19 24 83 100 114 138 10 12 21 22 24 22 3 0 5 -155 5
-345z m334 63 c-1 -62 -2 -119 -3 -125 -1 -7 -11 -14 -23 -14 -18 -1 -19 -2
-5 -6 21 -5 42 -52 29 -65 -5 -5 -29 9 -54 32 -25 22 -55 40 -65 40 -11 0 -27
6 -37 13 -17 13 -17 15 10 44 42 45 54 61 54 73 0 10 12 14 41 11 13 -1 16 7
16 38 0 34 17 70 34 71 3 0 5 -51 3 -112z m-212 55 c-10 -4 -10 -8 -1 -19 7
-8 7 -14 1 -14 -12 0 -23 26 -15 34 4 3 11 6 17 5 6 0 5 -3 -2 -6z m-452 -273
c0 -5 -7 -10 -15 -10 -8 0 -15 -4 -15 -8 0 -8 -53 -42 -66 -42 -14 0 54 58 73
63 10 3 19 5 21 6 1 0 2 -3 2 -9z m647 -67 c11 -146 10 -203 -3 -203 -8 0 -14
5 -14 10 0 6 -7 10 -15 10 -15 0 -18 9 -16 40 0 10 -1 11 -5 3 -3 -7 -14 -13
-25 -13 -21 0 -25 10 -10 26 6 5 12 25 14 44 6 51 17 70 38 70 10 0 19 7 19
15 0 21 15 19 17 -2z m193 -84 c0 -5 -4 -9 -10 -9 -5 0 -10 7 -10 16 0 8 5 12
10 9 6 -3 10 -10 10 -16z m0 -59 c0 -5 -4 -10 -10 -10 -5 0 -10 5 -10 10 0 6
5 10 10 10 6 0 10 -4 10 -10z m-510 -32 c0 -14 -51 -58 -67 -58 -11 0 -11 4
-2 23 19 37 40 56 55 50 8 -3 14 -9 14 -15z m-119 -45 c31 -19 39 -50 14 -59
-18 -7 -85 41 -85 62 0 19 35 18 71 -3z m219 -3 c0 -5 -5 -10 -10 -10 -6 0
-29 -14 -52 -30 -46 -34 -65 -32 -26 2 48 43 88 61 88 38z m50 -201 c0 -5 -4
-9 -10 -9 -5 0 -10 7 -10 16 0 8 5 12 10 9 6 -3 10 -10 10 -16z"/>
<path d="M2945 1800 c3 -5 8 -10 11 -10 2 0 4 5 4 10 0 6 -5 10 -11 10 -5 0
-7 -4 -4 -10z"/>
<path d="M3450 1311 c-20 -6 -25 -14 -27 -44 -2 -37 17 -52 33 -26 6 10 25 81
20 78 0 -1 -12 -4 -26 -8z"/>
<path d="M3408 960 c12 -5 22 -14 22 -20 0 -5 5 -10 10 -10 20 0 9 28 -12 34
-34 9 -46 6 -20 -4z"/>
<path d="M3444 747 c-8 -9 -7 -17 4 -27 14 -13 15 -12 9 3 -4 11 -1 17 8 17 8
0 15 5 15 10 0 14 -23 12 -36 -3z"/>
<path d="M3450 670 c0 -5 5 -10 11 -10 5 0 7 5 4 10 -3 6 -8 10 -11 10 -2 0
-4 -4 -4 -10z"/>
<path d="M4491 4330 l1 -45 11 33 c7 24 7 36 -1 44 -9 9 -12 1 -11 -32z"/>
<path d="M680 4159 c-68 -16 -125 -35 -145 -47 -17 -12 -14 -12 25 -7 25 3 49
10 55 16 5 5 19 9 30 9 12 0 39 9 61 20 41 20 33 23 -26 9z"/>
<path d="M3180 3832 c0 -12 22 -32 36 -32 6 0 14 7 17 14 4 10 1 13 -7 10 -8
-3 -17 -1 -21 5 -7 13 -25 15 -25 3z"/>
<path d="M2970 3802 c0 -5 9 -17 20 -27 11 -10 21 -28 21 -39 1 -20 2 -20 6
-1 3 11 14 27 24 36 14 12 15 19 7 27 -14 14 -78 16 -78 4z"/>
<path d="M2910 3790 c0 -5 5 -10 10 -10 6 0 10 5 10 10 0 6 -4 10 -10 10 -5 0
-10 -4 -10 -10z"/>
<path d="M3260 3773 c0 -26 1 -26 15 -7 19 25 19 34 0 34 -10 0 -15 -10 -15
-27z"/>
<path d="M3102 3663 c4 -22 38 -30 38 -10 0 8 -7 18 -16 21 -23 9 -26 8 -22
-11z"/>
<path d="M386 3594 c-9 -8 -19 -27 -22 -42 -10 -49 -23 -72 -41 -73 -11 0 -13
-3 -5 -6 16 -6 15 -65 -2 -127 -41 -143 -46 -176 -46 -309 0 -136 0 -138 24
-149 49 -22 87 21 47 53 -21 17 -21 22 -15 126 4 59 16 142 26 183 11 41 27
100 35 130 8 30 18 73 23 95 5 22 13 53 19 68 17 43 14 67 -8 67 -11 0 -27 -7
-35 -16z"/>
<path d="M3608 3548 c-21 -20 -50 -38 -65 -40 -17 -2 -28 -9 -28 -18 0 -21 33
-25 55 -5 12 11 19 12 22 5 2 -8 15 -6 41 6 31 15 37 23 37 50 0 45 -19 45
-62 2z"/>
<path d="M5230 3576 c0 -7 -8 -16 -17 -19 -10 -3 -40 -20 -68 -36 -27 -17 -60
-35 -71 -40 -32 -14 -83 -81 -96 -126 -6 -22 -12 -63 -14 -92 -3 -67 -13 -113
-25 -113 -5 0 -9 -5 -9 -12 0 -6 -8 -20 -17 -30 -26 -29 -4 -43 39 -25 l34 14
-4 -33 c-2 -19 2 -42 12 -56 9 -12 16 -35 16 -50 0 -16 5 -28 10 -28 6 0 10
-9 10 -20 0 -11 7 -23 15 -26 8 -4 13 -9 10 -14 -8 -13 49 -59 116 -93 88 -46
109 -60 109 -74 0 -19 22 -27 34 -12 6 8 24 16 40 17 17 1 33 8 37 14 11 17
-11 40 -33 35 -10 -3 -18 -2 -18 3 0 4 -12 8 -27 8 -15 0 -29 5 -31 11 -2 6
-12 11 -23 11 -11 0 -19 7 -19 18 0 14 -2 14 -9 3 -8 -12 -14 -13 -36 -3 -14
7 -35 12 -45 12 -11 0 -20 5 -20 10 0 6 -11 15 -25 20 -14 5 -28 18 -32 27 -4
10 -10 21 -15 24 -5 3 -4 16 1 30 7 17 10 19 10 7 1 -17 21 -27 21 -10 0 4 34
7 75 6 42 0 78 3 81 7 2 4 25 11 49 15 25 3 45 10 45 15 0 5 7 9 16 9 10 0 14
6 10 15 -3 9 0 15 9 15 8 0 15 7 15 15 0 8 5 15 10 15 6 0 26 24 45 53 19 28
51 74 72 102 21 27 34 47 28 44 -5 -3 -28 -14 -50 -25 -22 -10 -42 -22 -45
-26 -5 -7 -89 -38 -102 -38 -10 0 23 32 48 46 10 6 20 23 22 38 2 15 10 26 19
26 13 0 13 -3 3 -15 -8 -9 -8 -15 -2 -15 16 0 20 23 9 45 -6 11 -11 29 -11 40
-1 26 -56 33 -196 22 -150 -11 -188 -19 -202 -41 -6 -8 -11 -6 -18 4 -6 10 -6
16 0 18 6 2 10 10 10 18 0 8 8 14 18 14 14 0 15 2 2 10 -10 6 -11 10 -2 10 6
0 12 7 12 15 0 8 3 14 8 14 24 -4 42 3 42 17 0 11 6 15 19 11 14 -3 18 -1 14
11 -5 12 -1 14 20 10 20 -4 30 1 43 20 13 20 18 22 25 11 8 -12 11 -11 22 2
20 26 64 32 94 12 25 -17 27 -17 21 -1 -5 12 -3 15 8 11 8 -3 23 2 32 10 11
10 23 13 31 7 8 -5 19 -3 26 3 23 22 -16 36 -96 37 -56 0 -80 4 -89 15 -16 19
-50 20 -50 1z m80 -420 c0 -3 -4 -8 -10 -11 -5 -3 -10 -1 -10 4 0 6 5 11 10
11 6 0 10 -2 10 -4z"/>
<path d="M106 3394 c-26 -28 -26 -30 -26 -182 0 -119 3 -153 13 -150 7 3 14
28 17 58 5 52 5 53 19 27 8 -14 20 -28 28 -31 22 -9 14 267 -8 290 -15 15 -19
14 -43 -12z"/>
<path d="M3622 3404 c5 -26 34 -41 56 -28 30 19 20 39 -21 42 -32 3 -38 0 -35
-14z"/>
<path d="M5500 3322 c0 -12 19 -26 26 -19 2 2 -2 10 -11 17 -9 8 -15 8 -15 2z"/>
<path d="M3635 3306 c11 -7 37 -21 57 -29 30 -13 39 -13 48 -2 8 10 0 16 -39
29 -27 9 -58 16 -68 16 -16 0 -16 -1 2 -14z"/>
<path d="M2930 3230 c0 -5 7 -10 16 -10 8 0 12 5 9 10 -3 6 -10 10 -16 10 -5
0 -9 -4 -9 -10z"/>
<path d="M2948 3203 c-21 -6 -32 -33 -13 -33 9 0 24 -5 35 -12 24 -15 30 -10
23 25 -5 26 -11 29 -45 20z"/>
<path d="M2921 3134 c0 -11 3 -14 6 -6 3 7 2 16 -1 19 -3 4 -6 -2 -5 -13z"/>
<path d="M3107 3134 c-12 -13 -8 -42 8 -48 8 -3 15 -15 15 -26 0 -11 5 -20 10
-20 6 0 10 9 10 21 0 11 7 27 15 36 9 8 14 20 12 27 -4 13 -59 21 -70 10z"/>
<path d="M2937 3106 c-3 -8 1 -20 8 -26 11 -9 21 -7 45 10 16 12 30 23 30 26
0 2 -18 4 -39 4 -24 0 -41 -5 -44 -14z"/>
<path d="M3216 3025 c-3 -8 -2 -15 3 -15 5 0 14 7 21 15 10 12 10 15 -3 15 -8
0 -17 -7 -21 -15z"/>
<path d="M2927 3018 c-21 -14 8 -24 65 -21 29 1 71 3 93 3 31 1 35 3 20 9 -28
12 -163 18 -178 9z"/>
<path d="M3178 3003 c7 -3 16 -2 19 1 4 3 -2 6 -13 5 -11 0 -14 -3 -6 -6z"/>
<path d="M4019 2971 c6 -10 7 -21 4 -25 -10 -10 -43 -7 -43 4 0 6 -8 5 -20 -2
-11 -7 -20 -17 -20 -22 0 -4 9 -6 20 -3 15 4 20 0 20 -15 0 -11 -8 -22 -20
-25 -11 -3 -20 -12 -20 -20 0 -8 6 -12 13 -9 6 3 20 9 30 12 10 4 17 17 17 30
0 29 23 40 52 27 16 -7 27 -5 40 6 24 20 23 34 -1 20 -21 -14 -56 -5 -45 12 3
6 0 15 -7 20 -23 14 -30 10 -20 -10z"/>
<path d="M3810 2930 c0 -20 -5 -41 -11 -47 -15 -15 18 -45 45 -41 17 2 22 11
24 46 3 37 -4 49 -23 40 -2 -2 -11 6 -19 17 -15 19 -15 18 -16 -15z"/>
<path d="M5170 2920 c0 -5 7 -7 15 -4 8 4 15 8 15 10 0 2 -7 4 -15 4 -8 0 -15
-4 -15 -10z"/>
<path d="M4050 2892 c0 -5 -12 -14 -26 -21 -26 -11 -26 -12 -9 -31 10 -11 25
-20 34 -20 14 1 13 2 -1 11 -27 15 -22 39 7 39 14 0 25 -5 25 -11 0 -5 5 -7
11 -4 7 5 4 14 -7 26 -18 20 -34 25 -34 11z"/>
<path d="M4227 2887 c-5 -14 26 -57 42 -57 5 0 16 8 23 18 7 11 20 21 28 25
12 4 11 6 -2 6 -10 1 -18 6 -18 11 0 15 -67 12 -73 -3z"/>
<path d="M4360 2849 c0 -14 5 -19 17 -17 26 5 29 38 4 38 -15 0 -21 -6 -21
-21z"/>
<path d="M4460 2840 c0 -11 -5 -20 -11 -20 -8 0 -8 -5 1 -15 7 -8 25 -15 41
-15 25 0 29 4 29 29 0 28 -14 41 -46 41 -8 0 -14 -9 -14 -20z"/>
<path d="M310 2755 c0 -9 5 -15 11 -13 6 2 11 8 11 13 0 5 -5 11 -11 13 -6 2
-11 -4 -11 -13z"/>
<path d="M4773 2339 c-36 -10 -40 -24 -18 -53 8 -11 15 -34 15 -52 0 -18 5
-45 12 -61 6 -15 10 -32 9 -37 -1 -5 11 -5 26 -2 15 4 35 7 44 7 14 0 16 9 13
47 -8 99 -14 144 -20 153 -6 11 -38 10 -81 -2z m74 -171 c-3 -8 -6 -5 -6 6 -1
11 2 17 5 13 3 -3 4 -12 1 -19z m-19 -23 c-3 -3 -9 2 -12 12 -6 14 -5 15 5 6
7 -7 10 -15 7 -18z"/>
<path d="M335 2301 c-29 -12 -50 -39 -85 -106 -27 -54 -30 -70 -30 -152 0 -52
-5 -104 -12 -119 -10 -22 -10 -28 0 -32 7 -2 19 -10 27 -19 13 -13 15 -7 15
53 0 37 5 84 12 103 40 123 55 157 84 188 30 32 38 35 79 31 52 -4 59 10 19
41 -27 21 -73 26 -109 12z"/>
<path d="M5560 2265 c0 -26 29 -75 45 -75 14 0 35 29 35 48 0 9 -59 42 -74 42
-3 0 -6 -7 -6 -15z"/>
<path d="M85 2230 c-4 -6 0 -21 8 -33 15 -24 13 -77 -5 -114 -16 -32 -3 -56
24 -47 13 3 29 11 36 16 18 15 14 107 -6 148 -17 35 -45 50 -57 30z"/>
<path d="M1994 2170 c-66 -31 -130 -100 -169 -185 -60 -128 -95 -345 -61 -384
7 -9 18 -50 24 -91 22 -141 29 -170 71 -272 8 -21 18 -38 22 -38 4 0 10 -10
13 -22 13 -52 105 -149 172 -183 78 -39 149 -43 289 -15 97 20 173 34 310 58
45 8 105 38 105 52 0 13 -9 13 -91 -6 -49 -11 -74 -13 -82 -5 -31 25 -64 195
-77 401 -14 231 -54 375 -143 515 -101 160 -261 232 -383 175z m207 -77 c24
-14 79 -112 79 -140 0 -15 -16 -17 -24 -4 -8 13 -116 67 -149 75 -51 12 -128
-18 -175 -68 -23 -25 -42 -50 -42 -55 0 -6 -4 -11 -9 -11 -5 0 -11 -9 -14 -20
-3 -11 -10 -20 -16 -20 -13 0 -15 22 -3 36 5 5 16 29 25 54 17 46 83 123 128
149 55 33 147 34 200 4z m-58 -120 c9 -2 17 -9 17 -14 0 -5 5 -9 10 -9 14 0
48 -36 51 -52 4 -33 -1 -40 -17 -24 -8 9 -22 16 -30 16 -8 0 -14 4 -14 9 0 12
-56 31 -93 31 -31 0 -117 -36 -117 -48 0 -13 -60 -75 -60 -63 0 24 40 90 75
122 48 46 97 55 178 32z m-28 -103 c3 -5 13 -10 22 -10 17 0 53 -28 53 -41 0
-4 -10 -9 -22 -11 -13 -2 -24 -11 -27 -23 -2 -11 -8 -23 -13 -26 -13 -8 -1
-29 15 -29 7 0 21 15 31 34 22 41 42 52 49 27 3 -12 -6 -29 -24 -46 -16 -15
-31 -36 -34 -48 -2 -12 -9 -48 -15 -79 -7 -37 -16 -58 -25 -58 -7 0 -15 5 -17
12 -3 9 -13 8 -39 -4 l-34 -17 -3 26 c-4 28 11 43 46 43 26 0 28 7 5 32 -24
27 -49 22 -79 -17 l-27 -36 -28 28 c-36 36 -38 56 -4 47 31 -8 34 15 5 41 -11
10 -20 24 -20 32 0 7 9 13 20 13 13 0 20 -7 20 -20 0 -26 20 -26 27 0 6 24 41
35 89 27 18 -3 34 -2 34 2 0 5 3 23 6 40 6 27 4 31 -15 31 -15 0 -21 -7 -22
-22 -2 -23 -2 -23 -6 -1 -5 28 -33 53 -33 30 0 -20 -14 -29 -34 -21 -26 10
-18 30 17 42 43 13 74 14 82 2z m-278 -77 c-3 -10 -5 -4 -5 12 0 17 2 24 5 18
2 -7 2 -21 0 -30z m163 12 c0 -18 -5 -25 -20 -25 -21 0 -24 8 -14 34 10 25 34
19 34 -9z m270 -101 c0 -12 -29 -34 -44 -34 -12 0 -6 48 7 53 18 6 37 -3 37
-19z m20 -78 c0 -21 -20 -30 -33 -17 -9 9 -8 14 3 21 21 14 30 12 30 -4z
m-245 -137 c4 -6 21 -9 38 -7 23 2 33 -2 35 -13 4 -24 -25 -49 -58 -49 -35 0
-68 43 -49 66 14 17 25 18 34 3z m-121 -94 c4 -14 11 -25 16 -25 6 0 10 -5 10
-11 0 -6 7 -17 15 -25 8 -8 20 -23 27 -32 34 -46 80 -72 125 -72 42 0 103 25
103 42 0 11 38 48 49 48 18 0 -11 -60 -46 -95 -96 -96 -221 -54 -296 99 -27
55 -35 96 -18 96 5 0 12 -11 15 -25z"/>
<path d="M330 2096 c0 -8 -7 -16 -15 -20 -8 -3 -15 -14 -15 -25 0 -11 -4 -23
-10 -26 -5 -3 -10 -24 -10 -46 0 -59 23 -49 39 18 14 62 20 70 71 95 l35 17
-47 0 c-35 1 -48 -3 -48 -13z"/>
<path d="M5510 2095 c0 -11 12 -15 44 -15 26 0 48 6 56 15 11 13 5 15 -44 15
-43 0 -56 -3 -56 -15z"/>
<path d="M367 2043 c-14 -13 -6 -23 18 -23 14 0 25 -4 25 -10 0 -5 5 -10 10
-10 15 0 12 19 -4 36 -15 15 -38 18 -49 7z"/>
<path d="M4141 2019 c-19 -20 -17 -41 4 -67 3 -3 45 75 45 83 0 13 -32 2 -49
-16z"/>
<path d="M5515 1977 c4 -12 9 -37 12 -54 4 -26 10 -33 27 -33 20 1 20 1 2 15
-21 16 -16 28 30 70 l21 20 -49 2 c-48 2 -50 1 -43 -20z"/>
<path d="M430 1975 c0 -8 7 -15 15 -15 8 0 15 7 15 15 0 8 -7 15 -15 15 -8 0
-15 -7 -15 -15z"/>
<path d="M440 1925 c0 -9 9 -15 25 -15 16 0 25 6 25 15 0 9 -9 15 -25 15 -16
0 -25 -6 -25 -15z"/>
<path d="M326 1909 c-25 -29 -6 -45 22 -18 12 11 20 24 17 30 -9 14 -19 11
-39 -12z"/>
<path d="M5593 1744 c-3 -8 1 -22 9 -30 13 -13 16 -13 27 0 7 9 11 23 7 31 -7
20 -35 19 -43 -1z"/>
<path d="M4522 1709 c-9 -12 -27 -33 -40 -47 -21 -23 -22 -56 -3 -72 3 -3 11
-14 17 -25 16 -28 44 -32 44 -6 0 14 6 21 20 21 13 0 20 -7 20 -20 0 -13 9
-22 25 -26 14 -3 25 -10 25 -15 0 -5 7 -9 15 -9 8 0 15 5 15 10 0 6 5 10 10
10 15 0 43 30 59 62 12 23 12 29 -2 42 -9 9 -21 16 -27 16 -6 0 -4 -7 6 -17
15 -16 15 -17 -2 -24 -41 -14 -59 18 -28 52 12 14 13 22 4 38 -16 31 -42 28
-34 -4 4 -15 2 -25 -5 -25 -6 0 -11 -11 -11 -24 0 -37 -10 -56 -31 -56 -12 0
-21 9 -25 25 -3 14 -10 25 -16 25 -5 0 -6 5 -2 11 3 6 17 8 29 5 31 -8 35 2
19 42 -17 39 -55 44 -82 11z m46 -22 c2 -12 -3 -17 -17 -17 -12 0 -21 6 -21
13 0 31 32 34 38 4z m-36 -59 c5 -14 -15 -38 -31 -38 -12 0 -15 33 -4 43 11
11 31 8 35 -5z m146 -51 c16 -19 -2 -40 -27 -32 -23 7 -28 30 -8 38 20 8 24 8
35 -6z"/>
<path d="M5550 1685 c0 -8 5 -15 10 -15 6 0 10 7 10 15 0 8 -4 15 -10 15 -5 0
-10 -7 -10 -15z"/>
<path d="M5370 1664 c0 -8 5 -12 10 -9 6 4 8 11 5 16 -9 14 -15 11 -15 -7z"/>
<path d="M5200 1643 c0 -26 1 -26 15 -7 19 25 19 34 0 34 -10 0 -15 -10 -15
-27z"/>
<path d="M5260 1615 c0 -54 -11 -72 -25 -37 -6 16 -7 16 -20 -2 -8 -10 -12
-22 -10 -26 4 -6 93 -7 174 -2 23 2 23 2 5 29 -9 15 -20 41 -24 58 -3 17 -13
31 -23 33 -14 3 -17 -4 -17 -39 0 -23 -3 -39 -7 -35 -5 4 -8 11 -9 14 -4 31
-19 62 -30 62 -10 0 -14 -15 -14 -55z"/>
<path d="M5482 1628 c0 -39 3 -45 19 -41 23 6 23 5 -1 50 l-19 36 1 -45z"/>
<path d="M4880 1634 c0 -7 14 -20 30 -29 30 -15 34 -23 31 -57 -2 -14 5 -18
28 -18 29 0 30 2 21 26 -14 37 11 75 44 66 13 -4 17 -1 14 9 -7 20 -168 23
-168 3z"/>
<path d="M5097 1626 c-6 -14 23 -56 38 -56 13 0 43 44 38 57 -7 18 -69 17 -76
-1z"/>
<path d="M5036 1586 c3 -15 -1 -29 -11 -40 -15 -15 -15 -16 9 -16 33 0 40 14
24 50 -15 36 -31 40 -22 6z"/>
<path d="M4325 1590 c4 -6 11 -8 16 -5 14 9 11 15 -7 15 -8 0 -12 -5 -9 -10z"/>
<path d="M4195 1570 c-24 -6 -19 -8 29 -9 33 0 57 1 54 4 -10 10 -52 12 -83 5z"/>
<path d="M5540 1545 c-77 -41 -73 -30 -67 -212 3 -90 10 -169 15 -176 6 -7 14
-36 18 -65 4 -29 11 -55 15 -58 5 -3 9 -14 9 -24 0 -10 5 -31 10 -46 10 -25
12 -26 27 -11 15 14 15 20 3 42 -10 19 -11 28 -2 37 7 7 12 23 12 37 0 16 3
21 8 14 5 -8 11 -3 19 17 8 21 8 27 -1 24 -7 -3 -12 14 -13 47 -1 28 -9 64
-17 81 -9 17 -12 36 -8 42 3 6 8 22 9 36 4 57 14 108 30 156 17 53 13 84 -9
84 -7 -1 -33 -12 -58 -25z"/>
<path d="M5224 1503 l-101 -4 -11 -37 c-6 -20 -19 -63 -28 -94 -18 -62 -16
-106 11 -218 32 -134 31 -151 -18 -207 -11 -12 -17 -28 -14 -35 4 -9 6 -8 6 3
1 9 12 20 26 23 14 4 25 11 25 16 0 5 7 6 17 3 10 -4 14 -2 10 5 -5 7 12 15
45 22 29 6 62 17 72 25 17 13 18 18 8 40 -7 15 -12 74 -12 137 0 117 0 118 70
262 17 35 18 69 1 64 -3 -1 -51 -4 -107 -5z"/>
<path d="M3067 1393 c-7 -7 -128 -20 -275 -30 -78 -5 -83 -6 -80 -27 3 -19 8
-21 58 -18 30 2 93 9 139 17 46 8 100 15 120 15 23 0 46 9 66 25 l30 24 -26 1
c-14 0 -29 -3 -32 -7z"/>
<path d="M5215 763 c-11 -3 -26 -10 -34 -17 -8 -6 -30 -16 -50 -22 l-36 -12
37 -1 c20 -1 39 3 43 8 3 5 19 12 35 16 17 4 30 10 30 15 0 5 10 11 23 13 20
4 20 4 -3 4 -14 1 -34 -2 -45 -4z"/>
<path d="M3850 527 c-16 -10 -38 -34 -49 -53 -11 -19 -27 -34 -36 -34 -21 0
-21 -83 0 -104 8 -8 15 -19 15 -25 0 -17 68 -31 100 -19 24 8 33 7 46 -7 15
-14 18 -14 33 0 10 8 22 15 27 15 14 1 74 87 74 106 0 9 -11 32 -25 50 -14 18
-22 39 -19 48 4 10 -2 17 -20 22 -14 3 -26 10 -26 15 0 16 -90 5 -120 -14z
m118 -34 c4 -25 -16 -31 -36 -11 -20 20 -14 40 11 36 14 -2 23 -11 25 -25z
m-91 -17 c-8 -19 -37 -21 -37 -3 0 7 5 18 12 25 15 15 33 -1 25 -22z m63 -51
c0 -9 -9 -25 -20 -37 -16 -17 -22 -19 -35 -8 -18 15 -19 32 -3 48 18 18 58 15
58 -3z m79 6 c14 -9 9 -41 -7 -41 -15 0 -34 28 -27 40 8 12 16 13 34 1z m-189
-28 c-1 -14 -27 -43 -39 -43 -12 0 -14 11 -5 34 6 16 44 23 44 9z m153 -63
c-19 -22 -38 -26 -48 -10 -11 17 5 30 35 30 29 0 29 -1 13 -20z m-110 -3 c7
-20 -28 -40 -42 -23 -7 9 -7 16 1 24 16 16 35 15 41 -1z"/>
<path d="M4514 501 c39 -43 12 -165 -28 -131 -20 16 -21 40 -2 40 18 0 36 23
28 36 -4 6 -16 15 -26 21 -15 9 -24 6 -44 -12 -25 -23 -23 -45 4 -45 8 0 14
-4 14 -10 0 -5 -4 -10 -10 -10 -5 0 -10 -7 -10 -15 0 -8 -6 -15 -13 -15 -24 0
-37 24 -37 66 0 34 4 44 20 49 11 3 20 11 20 17 0 5 -7 7 -16 4 -9 -3 -37 -6
-64 -6 -31 0 -54 -6 -64 -15 -11 -12 -25 -14 -50 -9 l-35 6 12 -31 c6 -17 15
-31 20 -31 11 0 37 -26 37 -37 0 -16 -22 -32 -36 -26 -8 3 -14 17 -14 32 -1
25 -1 25 -15 7 -18 -24 -18 -28 -2 -48 10 -13 25 -14 102 -6 50 5 113 11 140
13 50 3 125 10 221 21 49 6 51 7 47 32 -7 42 -7 65 1 95 6 21 5 27 -7 27 -9 0
-18 -4 -21 -8 -3 -5 -27 -5 -53 -1 -26 4 -68 8 -92 8 -43 1 -44 0 -27 -18z
m65 -63 c-1 -43 -3 -47 -8 -23 -6 28 -3 75 5 75 2 0 3 -24 3 -52z m-224 -54
c-7 -39 -19 -43 -36 -12 -10 19 -9 24 10 36 11 8 22 22 22 31 1 13 2 12 6 -2
3 -11 2 -34 -2 -53z"/>
</g>
</svg>
