<?xml version="1.0" standalone="no"?>
<!DOCTYPE svg PUBLIC "-//W3C//DTD SVG 20010904//EN"
 "http://www.w3.org/TR/2001/REC-SVG-20010904/DTD/svg10.dtd">
<svg version="1.0" xmlns="http://www.w3.org/2000/svg"
 width="267.000000pt" height="189.000000pt" viewBox="0 0 267.000000 189.000000"
 preserveAspectRatio="xMidYMid meet">

<g transform="translate(0.000000,189.000000) scale(0.100000,-0.100000)"
fill="#000000" stroke="none">
<path d="M915 1854 c-109 -7 -228 -25 -254 -39 -36 -18 -119 -107 -171 -185
-56 -83 -148 -262 -156 -305 -6 -32 -7 -33 -35 -23 -21 7 -29 16 -29 35 0 76
-95 116 -184 79 -66 -27 -86 -96 -42 -141 33 -33 99 -49 149 -37 40 11 87 -1
87 -20 0 -5 -25 -45 -56 -90 -95 -140 -113 -184 -125 -311 -12 -120 -6 -366
11 -432 5 -22 10 -113 10 -202 0 -150 1 -163 19 -173 11 -5 78 -10 150 -10
162 0 161 -1 161 116 l0 84 883 -2 882 -3 3 -85 c2 -46 8 -90 14 -97 13 -16
274 -18 298 -3 12 7 16 47 22 202 3 106 11 238 16 293 7 63 7 158 2 258 -11
185 -20 211 -124 361 l-64 93 25 15 c19 11 34 13 66 5 53 -12 120 5 153 38 44
45 24 114 -42 141 -89 37 -184 -3 -184 -79 0 -19 -8 -28 -29 -35 -27 -10 -29
-8 -35 20 -18 91 -157 328 -249 425 -64 68 -84 78 -177 93 -72 11 -860 22
-995 14z m935 -74 c120 -19 148 -35 223 -135 77 -103 163 -264 154 -287 -4
-11 -25 -19 -64 -25 -89 -12 -1652 -10 -1688 3 -26 9 -30 16 -28 43 2 59 167
314 232 360 30 22 106 38 231 51 121 12 848 5 940 -10z m-1395 -809 c73 -32
118 -66 154 -116 32 -45 38 -73 21 -106 -19 -35 -127 -21 -282 37 -109 41
-137 65 -145 122 -5 35 -1 44 22 67 25 26 30 27 103 23 49 -3 95 -13 127 -27z
m1987 12 c25 -29 30 -59 15 -95 -21 -48 -40 -62 -156 -108 -81 -32 -123 -43
-185 -47 -68 -5 -84 -3 -95 11 -20 24 -6 59 49 119 40 43 67 62 126 87 122 50
219 63 246 33z m-572 -126 c20 -10 26 -21 28 -56 2 -27 -3 -52 -13 -68 -34
-52 -46 -53 -555 -53 -447 0 -473 1 -509 20 -73 37 -90 127 -31 157 36 18
1044 18 1080 0z m-1322 -413 c41 -17 94 -63 86 -75 -9 -15 -111 -21 -174 -9
-121 22 -180 62 -132 89 27 16 177 13 220 -5z m1797 4 c30 -13 31 -20 7 -41
-26 -24 -69 -37 -156 -48 -90 -11 -156 -4 -156 16 0 17 55 59 95 73 41 14 178
15 210 0z"/>
</g>
</svg>
