<?xml version="1.0" standalone="no"?>
<!DOCTYPE svg PUBLIC "-//W3C//DTD SVG 20010904//EN"
 "http://www.w3.org/TR/2001/REC-SVG-20010904/DTD/svg10.dtd">
<svg version="1.0" xmlns="http://www.w3.org/2000/svg"
 width="181.000000pt" height="278.000000pt" viewBox="0 0 181.000000 278.000000"
 preserveAspectRatio="xMidYMid meet">

<g transform="translate(0.000000,278.000000) scale(0.100000,-0.100000)"
fill="#000000" stroke="none">
<path d="M1234 2761 c-57 -35 -83 -83 -152 -286 -67 -197 -64 -192 -128 -211
-34 -10 -81 -15 -125 -13 -69 4 -70 3 -89 -27 l-20 -31 256 -132 c141 -72 258
-130 259 -129 1 2 10 17 18 34 15 30 15 33 -5 50 -35 32 -76 98 -93 152 l-17
51 39 58 c22 32 74 108 116 170 117 172 133 265 53 314 -39 24 -73 24 -112 0z
m100 -83 c14 -23 -18 -68 -48 -68 -33 0 -60 33 -52 65 12 48 70 50 100 3z"/>
<path d="M807 2450 c-278 -34 -527 -211 -655 -465 -42 -84 -69 -182 -82 -302
l-12 -103 -29 0 -29 0 0 -90 0 -90 65 0 c59 0 65 -2 70 -22 2 -13 39 -275 80
-583 42 -308 78 -572 81 -588 l6 -27 -151 0 -151 0 0 -90 0 -90 905 0 905 0 0
90 0 90 -148 0 -148 0 86 608 85 607 63 3 62 3 0 89 0 90 -30 0 c-30 0 -30 1
-30 54 0 91 -35 237 -80 333 -73 155 -188 283 -334 372 l-56 33 -20 -23 c-44
-51 -43 -52 34 -92 166 -85 303 -239 375 -419 13 -32 29 -58 36 -58 8 0 12
-29 13 -100 l1 -100 -42 0 c-23 0 -60 5 -82 10 -58 14 -335 40 -427 40 -43 0
-78 2 -78 5 0 3 18 42 41 86 22 45 37 85 32 89 -20 20 -488 260 -497 256 -6
-2 -36 -52 -65 -110 -66 -127 -65 -147 12 -184 59 -28 61 -49 10 -102 l-38
-39 -130 -11 c-72 -6 -174 -18 -227 -27 -99 -16 -131 -14 -124 9 3 7 7 38 10
69 16 172 150 395 309 515 141 107 311 164 486 164 l106 0 17 47 c9 26 16 48
15 49 -9 7 -186 10 -240 4z m-710 -717 c-3 -10 -5 -2 -5 17 0 19 2 27 5 18 2
-10 2 -26 0 -35z m652 -46 c-39 -27 -45 -27 -29 2 6 13 21 21 37 21 26 0 26 0
-8 -23z m102 -27 l24 -19 -45 -1 c-25 0 -55 -3 -67 -6 -17 -5 -23 -2 -23 9 0
38 74 49 111 17z m-1 -84 c0 -7 -7 -19 -16 -27 -25 -20 -44 -66 -37 -86 9 -24
23 -33 56 -33 22 0 30 7 43 38 42 96 66 112 109 72 l22 -21 13 31 c12 29 14
30 80 30 166 0 467 -35 524 -61 30 -14 34 -34 8 -48 -26 -14 -169 -38 -307
-52 -258 -26 -907 -14 -1120 22 -68 11 -145 37 -145 49 0 36 116 60 407 84
l62 6 -6 -34 c-4 -28 0 -39 20 -60 50 -50 125 -22 148 54 11 35 16 39 48 43
77 8 91 7 91 -7z m-262 -40 c-2 -35 -5 -43 -15 -34 -14 11 -18 60 -6 71 16 16
22 4 21 -37z m362 40 c0 -2 -7 -6 -15 -10 -8 -3 -15 -1 -15 4 0 6 7 10 15 10
8 0 15 -2 15 -4z m-109 -64 c-6 -12 -11 -30 -11 -42 0 -12 -4 -18 -10 -15 -15
9 -12 37 6 63 19 28 30 22 15 -6z m49 4 c0 -2 -7 -7 -16 -10 -8 -3 -12 -2 -9
4 6 10 25 14 25 6z m0 -20 c0 -2 -8 -10 -17 -17 -16 -13 -17 -12 -4 4 13 16
21 21 21 13z m740 -126 c0 -59 -16 -97 -44 -107 -29 -9 -51 -5 -118 23 -32 13
-71 24 -88 24 -50 0 -57 -32 -74 -341 -18 -314 -29 -389 -61 -427 -23 -26 -23
-27 -44 -8 -32 29 -41 76 -51 276 -16 317 -24 369 -62 422 -16 24 -27 28 -64
28 -107 0 -177 -83 -230 -274 -31 -111 -63 -156 -112 -156 -16 0 -35 7 -42 15
-7 8 -18 71 -25 140 -20 187 -36 203 -192 187 -116 -12 -140 -7 -163 30 -25
41 -84 197 -78 204 3 3 41 1 84 -5 309 -41 961 -39 1234 3 138 22 130 24 130
-34z m-214 -406 l2 -29 -5 28 c-2 15 -9 25 -14 22 -5 -4 -9 -1 -9 5 0 26 25 1
26 -26z m64 32 c0 -2 -7 -7 -16 -10 -8 -3 -12 -2 -9 4 6 10 25 14 25 6z m47
-32 c1 -25 0 -26 -4 -4 -3 14 -10 29 -17 33 -7 6 -6 7 4 4 8 -2 16 -16 17 -33z
m20 -11 c-3 -10 -5 -2 -5 17 0 19 2 27 5 18 2 -10 2 -26 0 -35z m20 0 c-3 -10
-5 -2 -5 17 0 19 2 27 5 18 2 -10 2 -26 0 -35z m-170 -5 c-3 -8 -6 -5 -6 6 -1
11 2 17 5 13 3 -3 4 -12 1 -19z m111 -503 c-3 -3 -9 2 -12 12 -6 14 -5 15 5 6
7 -7 10 -15 7 -18z m-1348 -313 c0 -4 19 -7 43 -7 64 2 77 -4 78 -34 1 -22 3
-21 9 9 7 34 7 34 9 -12 1 -37 -3 -48 -14 -48 -8 0 -14 4 -13 9 2 5 -1 8 -7 7
-5 0 -13 13 -16 29 l-7 30 -1 -27 c-1 -28 -2 -28 -71 -28 -72 0 -85 9 -57 39
10 11 9 12 -2 6 -9 -5 -12 -3 -9 6 3 8 13 13 22 13 9 -1 16 2 16 7 0 5 5 9 10
9 6 0 10 -3 10 -8z m1450 -62 c0 -3 -18 -7 -41 -9 -22 -1 -38 2 -35 7 6 10 76
12 76 2z m95 -1 c4 -5 -5 -9 -19 -9 -14 0 -26 4 -26 8 0 11 39 12 45 1z"/>
<path d="M687 2125 l-17 -35 93 -46 c50 -26 165 -84 253 -130 l162 -85 22 36
c12 20 21 37 19 39 -13 10 -499 256 -506 256 -5 0 -17 -16 -26 -35z"/>
<path d="M1702 1750 c0 -14 2 -19 5 -12 2 6 2 18 0 25 -3 6 -5 1 -5 -13z"/>
</g>
</svg>
