<?xml version="1.0" standalone="no"?>
<!DOCTYPE svg PUBLIC "-//W3C//DTD SVG 20010904//EN"
 "http://www.w3.org/TR/2001/REC-SVG-20010904/DTD/svg10.dtd">
<svg version="1.0" xmlns="http://www.w3.org/2000/svg"
 width="512.000000pt" height="512.000000pt" viewBox="0 0 512.000000 512.000000"
 preserveAspectRatio="xMidYMid meet">

<g transform="translate(0.000000,512.000000) scale(0.100000,-0.100000)"
fill="#000000" stroke="none">
<path d="M2480 5015 l0 -105 495 0 495 0 0 105 0 105 -495 0 -495 0 0 -105z"/>
<path d="M848 4373 c-199 -247 -470 -581 -602 -743 l-239 -295 124 -3 124 -3
42 48 43 48 2 -765 3 -765 95 -12 c150 -18 150 -18 150 18 0 17 4 39 10 49 9
17 3 19 -73 27 l-82 8 -2 785 -2 785 430 530 c237 292 438 541 448 554 l18 24
496 -613 497 -614 0 -297 0 -297 44 -11 c25 -6 47 -11 50 -11 3 0 6 111 6 246
l0 246 46 -56 c30 -38 52 -56 67 -55 12 0 486 37 1052 82 954 77 1031 82 1037
66 9 -23 8 -1258 -1 -1264 -4 -2 -39 -9 -77 -15 -65 -10 -72 -14 -126 -67 -32
-31 -56 -59 -54 -61 2 -2 84 8 181 22 98 14 179 26 181 26 2 0 5 312 6 693 l3
692 145 12 c80 6 162 12 183 12 21 1 37 5 35 11 -1 5 -289 325 -638 710 l-635
700 -227 0 -228 0 0 -260 0 -260 -405 0 -405 0 0 260 0 260 -680 0 -679 0
-363 -447z"/>
<path d="M3583 2794 c-110 -121 -230 -247 -267 -281 -57 -54 -72 -63 -104 -63
-20 0 -42 -4 -48 -8 -6 -4 -81 -88 -167 -187 l-155 -179 58 -66 c32 -36 89
-95 127 -132 l68 -67 55 15 c94 25 161 0 250 -91 53 -54 114 -95 143 -95 8 0
36 12 63 27 54 29 109 33 254 19 62 -6 81 -4 112 11 37 18 448 432 448 452 0
17 -43 41 -73 41 -54 0 -94 28 -216 156 -142 149 -236 270 -282 363 -27 55
-33 80 -39 165 -10 165 2 170 -227 -80z m21 -268 c39 -16 421 -442 443 -494
42 -99 -74 -220 -182 -191 -36 10 -80 56 -359 374 -102 117 -117 147 -97 208
19 57 89 112 149 116 7 1 28 -5 46 -13z m-494 -365 c16 -30 14 -31 -50 -31
-33 0 -60 3 -60 7 0 3 7 15 17 25 22 25 79 24 93 -1z m10 -61 c0 -5 -11 -17
-25 -26 -30 -20 -70 -12 -85 16 -10 19 -7 20 50 20 33 0 60 -4 60 -10z m433
-212 l22 -23 -59 -3 c-69 -4 -79 3 -47 29 31 25 56 24 84 -3z m10 -62 c1 -5
-10 -18 -24 -29 -24 -17 -30 -18 -55 -6 -16 8 -30 22 -32 32 -3 16 3 18 52 15
31 -2 57 -7 59 -12z"/>
<path d="M1735 2769 c-95 -13 -182 -36 -230 -60 -60 -31 -185 -123 -300 -221
-117 -99 -140 -136 -154 -246 -9 -72 -25 -105 -73 -149 -30 -29 -89 -53 -128
-53 -24 0 -44 -12 -86 -52 -87 -82 -87 -80 62 -229 73 -73 137 -129 147 -129
10 0 48 29 83 64 59 59 64 68 64 108 1 56 28 116 81 173 51 55 86 75 131 75
42 0 128 -40 195 -91 56 -42 101 -51 124 -23 11 13 40 -12 226 -198 l213 -212
-27 -28 c-31 -33 -34 -28 84 -155 l82 -89 -404 -497 c-222 -273 -406 -505
-410 -516 -8 -27 2 -48 61 -128 49 -65 58 -73 108 -87 31 -9 63 -19 72 -23 15
-5 16 -1 11 31 -6 35 -4 38 16 33 12 -2 31 -8 41 -12 17 -8 19 -5 13 28 -7 42
-8 42 40 22 l36 -15 -7 40 -6 40 36 -15 c48 -20 47 -20 41 20 -7 40 -8 40 40
20 l36 -15 -6 36 c-6 33 -4 36 16 31 12 -2 31 -8 41 -12 17 -8 19 -5 13 28 -7
42 -8 42 40 22 l36 -15 -7 40 -6 40 36 -15 c48 -20 47 -20 41 20 -7 40 -8 40
40 20 l36 -15 -7 40 -6 40 36 -15 c48 -20 47 -20 41 20 -6 39 0 42 45 19 l31
-16 -7 41 -6 41 36 -15 c48 -20 47 -20 41 20 -7 40 -8 40 40 20 l36 -15 -7 40
-6 40 36 -15 c48 -20 47 -20 40 20 -8 40 0 43 46 19 l31 -16 -7 41 -6 41 36
-15 c45 -18 44 -18 44 0 0 9 113 -108 250 -260 138 -151 254 -275 258 -275 4
0 88 81 187 181 l180 180 -233 227 c-174 170 -232 233 -232 251 0 17 4 22 16
17 9 -3 26 -9 39 -12 23 -6 24 -4 18 31 l-6 36 38 -15 c21 -9 39 -16 42 -16 2
0 1 16 -3 37 -6 32 -5 35 11 30 9 -4 27 -10 40 -13 23 -6 24 -4 18 31 l-6 36
38 -15 c21 -9 39 -16 42 -16 2 0 1 16 -3 37 -6 32 -5 35 11 30 9 -4 27 -10 40
-13 23 -6 24 -4 18 31 l-6 36 38 -15 c21 -9 39 -16 41 -16 1 0 0 17 -3 37 -5
32 -4 36 11 30 10 -4 28 -10 41 -13 23 -6 24 -4 18 31 l-6 36 38 -15 c21 -9
39 -16 41 -16 1 0 0 17 -3 37 -5 32 -4 36 11 30 57 -22 62 -20 58 18 l-4 36
37 -15 c21 -9 39 -16 41 -16 1 0 0 17 -3 37 -5 32 -4 36 11 30 10 -4 29 -10
42 -13 22 -6 24 -3 24 31 0 28 -10 49 -41 89 -22 28 -50 56 -62 63 -40 22
-117 15 -182 -17 -67 -34 -72 -35 -129 -18 -27 9 -66 36 -116 84 -41 39 -86
77 -99 84 -37 19 -115 15 -153 -8 l-33 -20 -130 129 -130 129 -160 -197 c-88
-108 -163 -201 -167 -207 -5 -7 -40 21 -90 72 -46 45 -88 82 -93 82 -5 0 -19
-10 -32 -22 l-24 -22 -211 211 -211 211 26 32 c42 50 37 66 -54 172 -97 113
-112 163 -61 210 62 58 160 86 332 95 111 5 282 -6 372 -24 27 -5 28 -5 28 40
l0 45 -77 21 c-43 11 -118 28 -168 36 -107 20 -410 28 -510 14z m-93 -2476
c22 -20 23 -70 1 -95 -20 -22 -70 -23 -95 -1 -22 20 -23 70 -1 95 20 22 70 23
95 1z"/>
<path d="M2330 2209 l1 -324 49 -43 50 -44 0 361 c0 346 -1 361 -19 361 -10 0
-33 3 -50 6 l-31 7 0 -324z"/>
<path d="M1240 1858 c-24 -40 -26 -68 -4 -68 21 0 438 -48 479 -55 l30 -5 -45
45 c-41 41 -48 45 -94 45 -34 0 -62 7 -90 24 -29 17 -69 27 -138 35 -53 6
-101 11 -107 11 -6 0 -20 -15 -31 -32z"/>
<path d="M3435 310 c-98 -98 -176 -183 -171 -187 4 -4 49 -33 99 -64 l92 -57
146 145 147 145 -62 99 c-33 55 -63 99 -66 99 -3 0 -86 -81 -185 -180z"/>
</g>
</svg>
