<?xml version="1.0" standalone="no"?>
<!DOCTYPE svg PUBLIC "-//W3C//DTD SVG 20010904//EN"
 "http://www.w3.org/TR/2001/REC-SVG-20010904/DTD/svg10.dtd">
<svg version="1.0" xmlns="http://www.w3.org/2000/svg"
 width="1024.000000pt" height="1024.000000pt" viewBox="0 0 1024.000000 1024.000000"
 preserveAspectRatio="xMidYMid meet">

<g transform="translate(0.000000,1024.000000) scale(0.100000,-0.100000)"
fill="#000000" stroke="none">
<path d="M1023 8776 c-160 -39 -286 -152 -351 -313 l-27 -68 -3 -1577 c-1
-885 1 -1578 6 -1578 5 0 17 9 27 20 13 14 31 20 62 20 l45 0 -33 -27 c-18
-16 -44 -34 -58 -41 -16 -7 -18 -10 -6 -7 17 4 15 1 -7 -19 -23 -21 -36 -68
-18 -63 4 1 26 -15 50 -37 34 -30 40 -40 29 -48 -11 -8 -11 -9 3 -5 9 3 24 -3
34 -14 17 -18 16 -19 -17 -19 -39 0 -83 26 -73 42 4 6 2 8 -4 4 -6 -3 -13 -2
-17 4 -20 33 -24 -16 -25 -300 l0 -310 380 0 379 0 3 668 3 667 33 67 c61 124
193 244 357 324 103 50 164 64 280 64 l82 0 6 113 c8 137 42 276 99 401 24 50
46 93 50 96 17 13 26 58 15 71 -10 11 -9 11 4 1 14 -10 24 -2 71 56 58 72 83
117 51 91 -15 -12 -16 -12 -10 5 6 16 5 17 -7 7 -11 -10 -19 -9 -35 5 -11 10
-17 22 -14 27 3 6 1 7 -6 3 -7 -5 -25 7 -45 30 -18 20 -37 34 -43 31 -5 -3 -8
-31 -6 -62 l2 -56 -34 3 c-20 1 -35 7 -35 15 0 8 7 10 18 6 16 -6 16 -6 -1 11
-16 16 -17 36 -15 189 l3 172 30 0 30 0 3 -88 c2 -60 -1 -87 -8 -82 -6 4 -6
-3 2 -19 6 -14 14 -26 18 -26 3 0 26 20 50 45 39 40 49 45 89 45 l44 0 -31
-30 c-18 -17 -37 -29 -44 -28 -7 2 -12 -3 -13 -10 0 -8 -8 -19 -17 -26 -21
-16 -23 -33 -5 -49 7 -7 36 -34 65 -61 l51 -49 53 48 c136 122 308 210 504
256 84 20 122 22 691 26 332 3 601 9 598 13 -3 5 4 18 16 29 24 22 65 14 63
-13 -1 -9 2 -13 7 -10 5 3 9 -2 9 -10 0 -23 29 -19 65 8 56 43 118 50 188 21
21 -9 22 -28 1 -46 -11 -9 -20 -10 -32 -2 -10 5 -33 8 -52 5 -31 -5 -25 -8 60
-30 83 -21 197 -39 162 -25 -6 2 -12 18 -12 34 0 26 4 29 30 29 27 0 30 -3 31
-35 2 -48 3 -52 13 -62 5 -5 6 -3 2 5 -5 9 4 12 36 12 39 0 44 -3 46 -24 1
-19 -4 -26 -21 -28 -20 -3 -19 -5 11 -21 28 -15 60 -14 61 3 0 17 15 40 27 40
8 0 14 4 14 10 0 5 18 14 41 20 32 9 50 8 88 -5 53 -17 95 -63 84 -91 -4 -12
-3 -15 5 -10 8 5 12 -3 12 -26 0 -39 -22 -84 -38 -81 -6 2 -9 -4 -6 -11 3 -9
-3 -17 -15 -21 -29 -9 -26 -21 12 -65 66 -76 82 -97 102 -133 11 -20 23 -37
27 -37 5 0 7 -3 6 -7 -1 -5 10 -30 24 -58 66 -128 106 -281 115 -442 l6 -103
1362 0 c885 0 1381 -4 1416 -10 30 -6 94 -30 144 -54 164 -80 296 -200 357
-324 l33 -67 3 -667 3 -668 379 0 380 0 0 205 c-1 163 -4 208 -15 219 -13 12
-12 15 0 20 11 4 15 22 15 70 0 52 -4 69 -20 84 l-20 19 21 24 c18 21 20 32
15 94 -4 38 -7 88 -7 110 -1 31 -3 35 -9 20 -5 -11 -9 -14 -9 -7 -1 7 6 26 14
42 14 26 15 204 13 1542 l-3 1513 -23 59 c-63 167 -204 290 -370 325 -29 6
-104 11 -167 11 l-114 0 -3 -307 -3 -308 -27 -52 c-35 -66 -85 -116 -151 -151
l-52 -27 -3565 0 -3565 0 -50 27 c-68 35 -122 92 -154 158 l-26 55 -3 303 -3
302 -122 -1 c-67 0 -145 -6 -174 -13z m7702 -1287 c54 -15 103 -66 111 -116 6
-39 8 -41 49 -45 24 -3 57 -15 74 -27 l31 -23 -22 -18 c-20 -16 -25 -16 -44
-3 -13 8 -35 13 -51 11 -28 -3 -28 -4 -31 -79 -3 -75 -2 -77 23 -83 16 -4 39
0 61 10 33 16 36 16 52 0 16 -16 15 -19 -11 -42 -20 -17 -35 -23 -49 -18 -14
4 -18 2 -14 -5 4 -7 0 -10 -11 -9 -53 4 -53 5 -52 -102 0 -70 4 -100 12 -100
8 0 8 -3 2 -8 -5 -4 -20 -28 -33 -53 -15 -30 -36 -53 -61 -67 -37 -21 -50 -22
-365 -22 -346 0 -369 3 -409 48 -11 11 -25 38 -32 59 -8 21 -18 37 -23 36 -5
-1 -14 10 -21 25 -10 23 -10 25 2 10 21 -27 27 -12 27 69 l0 73 -851 0 -851 0
-29 29 c-17 18 -29 40 -29 56 0 16 12 38 29 56 l29 29 761 0 761 0 0 70 0 70
30 0 c33 0 32 1 30 -82 l-1 -58 60 0 61 0 0 35 c0 25 -8 43 -31 66 -17 18 -28
37 -25 46 4 9 2 11 -5 7 -7 -4 -10 -1 -7 7 3 8 11 13 18 11 10 -2 10 1 0 14
-13 14 -10 20 23 50 37 34 64 45 52 22 -4 -7 0 -6 7 2 17 19 55 41 88 51 40
12 619 10 665 -2z m-7711 -65 c8 -20 -1 -37 -25 -52 -18 -12 -24 -11 -45 9
-29 28 -30 33 -3 58 17 16 26 18 45 9 12 -6 25 -17 28 -24z m220 25 c56 -16
68 -30 46 -56 -13 -16 -20 -19 -28 -11 -12 12 -71 13 -103 3 -11 -4 -19 -15
-19 -26 0 -10 -4 -19 -10 -19 -5 0 -10 -5 -10 -12 0 -6 3 -8 7 -5 9 9 34 -13
27 -24 -3 -5 3 -6 12 -2 13 5 15 3 9 -7 -6 -10 -4 -12 9 -7 20 8 84 -24 117
-59 13 -14 23 -26 21 -27 -2 -1 0 -10 4 -20 9 -23 -23 -84 -56 -108 -14 -10
-40 -21 -59 -24 -35 -6 -112 15 -145 40 -19 14 -19 15 4 35 14 13 27 17 34 11
6 -5 30 -14 54 -21 55 -14 92 5 92 49 0 34 -18 51 -92 84 -32 14 -58 31 -58
37 0 6 -4 9 -9 6 -12 -8 -22 20 -14 41 4 11 3 14 -5 9 -15 -9 -15 -6 2 35 17
41 40 63 81 77 39 14 43 14 89 1z m6571 3 c22 -16 35 -40 29 -56 -8 -22 -21
-20 -29 4 -3 11 -11 20 -16 20 -5 0 -3 -10 6 -23 8 -13 12 -27 8 -30 -13 -13
-23 -7 -24 16 -1 18 -2 18 -6 4 -5 -18 -5 -18 -19 0 -16 21 -18 37 -4 28 5 -3
7 0 4 8 -3 8 -1 18 5 22 6 3 11 1 11 -5 0 -6 5 -8 10 -5 6 4 8 11 5 16 -7 11
6 12 20 1z m-2110 -115 c-1 -59 3 -107 7 -107 4 0 29 20 55 45 40 39 52 45 89
45 l43 0 -22 -22 c-13 -13 -27 -24 -31 -25 -5 -1 -12 -7 -16 -13 -10 -16 -33
-3 -24 13 4 7 4 9 0 5 -4 -3 -8 -10 -8 -15 1 -4 -7 -17 -16 -28 -16 -19 -16
-19 1 -6 19 15 24 2 5 -17 -9 -9 -4 -20 25 -50 30 -31 35 -40 25 -52 -11 -12
-10 -12 3 -2 13 10 20 7 42 -18 15 -16 27 -32 27 -34 0 -3 -18 -4 -40 -3 -43
2 -47 5 -27 27 10 11 8 11 -7 0 -17 -13 -23 -10 -65 38 -25 28 -51 52 -58 52
-6 0 -13 3 -16 8 -2 4 -1 0 1 -8 3 -8 7 -38 10 -66 l4 -51 -34 1 -33 1 -3 185
c-1 101 0 190 2 197 3 6 18 11 33 10 l28 -3 0 -107z m3412 5 c0 -57 3 -106 6
-108 2 -3 18 7 35 21 17 14 32 22 34 18 3 -5 4 -3 2 4 -5 22 31 42 74 41 l42
0 -47 -43 c-26 -24 -51 -41 -56 -38 -4 2 -7 1 -6 -4 1 -4 -1 -15 -5 -24 -5
-12 8 -31 48 -69 31 -29 53 -57 49 -63 -3 -5 -1 -7 4 -4 6 4 15 1 21 -6 8 -9
0 -13 -34 -15 -42 -3 -59 9 -31 22 6 3 2 3 -10 0 -17 -4 -23 -1 -23 10 0 9 -5
16 -11 16 -5 0 -7 5 -3 12 4 6 3 8 -4 4 -6 -3 -25 9 -43 26 l-33 33 -6 -30
c-4 -16 -5 -45 -4 -62 3 -31 1 -33 -31 -33 l-34 0 -1 193 c0 106 2 196 6 199
3 4 18 6 32 5 l27 -2 2 -103z m-7657 48 c-13 -8 -13 -10 2 -10 16 0 19 -15 6
-35 -10 -17 15 -30 57 -30 34 0 40 -3 43 -22 3 -19 -1 -23 -23 -23 -18 0 -24
4 -19 13 6 8 3 8 -9 -1 -9 -8 -20 -11 -26 -8 -12 8 -19 -15 -22 -69 -4 -58 8
-88 42 -107 16 -10 27 -13 24 -8 -3 6 1 10 9 10 11 0 16 -9 16 -29 0 -27 -3
-30 -32 -29 -18 0 -44 6 -58 14 -27 13 -61 49 -59 62 1 4 1 40 0 80 l-1 72
-31 0 c-21 0 -28 4 -23 13 5 8 2 8 -9 -2 -15 -12 -17 -11 -17 13 0 22 4 26 29
26 49 0 57 7 53 45 -4 34 -3 35 29 35 26 0 30 -3 19 -10z m347 -80 c38 -23 85
-90 83 -117 -4 -36 0 -51 18 -55 27 -7 42 2 41 25 -1 17 -2 18 -6 5 -8 -31
-21 -20 -21 17 0 19 4 32 9 29 5 -3 6 -10 3 -16 -4 -7 -2 -8 4 -4 9 5 9 13 1
27 -11 22 -3 38 38 73 35 30 108 41 153 24 24 -9 24 -10 6 -24 -12 -8 -15 -14
-7 -14 11 0 11 -3 1 -15 -9 -11 -16 -13 -24 -5 -24 24 -116 -6 -116 -38 0 -10
-4 -10 -16 3 -13 12 -14 19 -4 30 7 9 8 15 2 15 -21 0 -22 -33 -2 -55 12 -13
18 -29 14 -38 -8 -21 47 -77 76 -77 11 0 35 7 51 16 28 14 33 14 55 -1 22 -14
23 -18 10 -31 -26 -25 -87 -47 -99 -35 -6 6 -16 11 -21 11 -6 0 -4 -5 4 -10
23 -15 -5 -12 -44 4 -19 8 -39 22 -45 33 -9 15 -10 12 -11 -20 0 -27 -7 -45
-25 -62 -23 -24 -29 -25 -155 -25 -126 0 -132 1 -156 25 -20 20 -24 34 -24 77
1 29 -1 68 -3 87 -6 46 2 73 19 67 8 -3 14 -1 14 4 0 6 -5 10 -11 10 -5 0 -7
5 -4 11 4 6 10 8 13 5 3 -3 10 4 16 16 12 23 64 46 106 47 14 1 39 -8 57 -19z
m3714 9 c19 -7 42 -19 52 -27 17 -15 17 -17 -4 -33 -18 -13 -28 -15 -46 -6
-13 6 -19 13 -13 17 5 3 -6 6 -24 6 -20 0 -32 -4 -29 -10 3 -5 2 -7 -3 -3 -12
7 -38 -12 -53 -41 -7 -12 -17 -20 -23 -16 -7 4 -8 3 -4 -5 4 -6 12 -9 17 -6
12 8 12 -18 -1 -33 -6 -6 -7 -10 -4 -7 3 2 18 -10 32 -26 18 -22 32 -29 51
-27 14 1 32 -1 38 -5 14 -9 57 16 46 26 -3 4 -2 7 4 7 6 0 16 -7 23 -15 28
-33 -59 -83 -126 -72 -41 7 -96 47 -89 65 2 7 1 10 -5 7 -16 -10 -29 29 -26
77 4 53 31 94 79 120 38 20 62 22 108 7z m-4510 -16 c0 -10 0 -60 -1 -112 -1
-76 -5 -97 -18 -108 -16 -11 -16 -12 2 -13 28 0 9 -15 -20 -15 -24 -1 -24 -1
-24 112 0 101 2 113 18 114 11 1 9 4 -8 9 -21 7 -22 8 -5 9 17 1 17 3 5 11
-11 7 -7 10 18 10 24 0 32 -5 33 -17z m1162 -20 c4 -3 -1 -12 -11 -19 -22 -17
-38 -18 -23 -1 6 8 8 17 4 20 -3 4 0 7 9 7 8 0 18 -3 21 -7z m3362 -173 c-3
-5 -11 -10 -16 -10 -6 0 -7 5 -4 10 3 6 11 10 16 10 6 0 7 -4 4 -10z m-4192
-166 c-3 -9 -12 -9 -33 -1 -51 19 -86 -31 -59 -86 10 -21 10 -21 -5 -3 -38 47
-1 107 63 103 24 -1 37 -6 34 -13z m460 9 c-7 -2 -19 -2 -25 0 -7 3 -2 5 12 5
14 0 19 -2 13 -5z m5985 -24 c-3 -8 -7 -3 -11 10 -4 17 -3 21 5 13 5 -5 8 -16
6 -23z m-6221 -26 c-3 -10 -5 -2 -5 17 0 19 2 27 5 18 2 -10 2 -26 0 -35z
m-600 -15 c-2 -13 -4 -5 -4 17 -1 22 1 32 4 23 2 -10 2 -28 0 -40z m820 0 c-2
-13 -4 -5 -4 17 -1 22 1 32 4 23 2 -10 2 -28 0 -40z m-267 32 c0 -5 -5 -10
-11 -10 -5 0 -7 5 -4 10 3 6 8 10 11 10 2 0 4 -4 4 -10z m399 -39 c0 -14 -1
-14 -6 -1 -3 8 -13 24 -22 35 -16 20 -16 20 7 1 12 -11 22 -26 21 -35z m131
45 c0 -2 -8 -10 -17 -17 -16 -13 -17 -12 -4 4 13 16 21 21 21 13z m3534 -10
c-10 -8 -21 -12 -24 -10 -5 6 21 24 34 24 6 0 1 -6 -10 -14z m3413 3 c-10 -6
-22 -20 -27 -32 l-9 -22 0 22 c-1 21 22 42 44 42 6 0 2 -4 -8 -10z m128 1 c-3
-5 -12 -10 -18 -10 -7 0 -6 4 3 10 19 12 23 12 15 0z m91 -14 c0 -14 -5 -21
-9 -17 -4 4 -5 15 -1 24 9 24 12 21 10 -7z m-7589 -8 c-3 -8 -6 -5 -6 6 -1 11
2 17 5 13 3 -3 4 -12 1 -19z m73 18 c0 -3 -4 -8 -10 -11 -5 -3 -10 -1 -10 4 0
6 5 11 10 11 6 0 10 -2 10 -4z m409 -38 c1 -30 -2 -38 -16 -38 -13 0 -14 3 -5
12 16 16 15 33 -3 52 -14 13 -13 15 3 13 14 -1 19 -10 21 -39z m3408 27 c0 -8
-4 -12 -9 -9 -5 3 -6 10 -3 15 9 13 12 11 12 -6z m2281 -5 c-7 -10 -14 -17
-17 -15 -4 4 18 35 25 35 2 0 -1 -9 -8 -20z m74 -5 c9 -21 8 -28 -7 -45 -10
-11 -28 -19 -39 -19 -20 1 -20 2 -1 6 20 5 45 30 45 44 0 4 -7 15 -16 23 -8 9
-11 16 -4 16 6 0 16 -11 22 -25z m1056 -8 c-1 -18 1 -38 5 -44 5 -7 0 -9 -13
-6 -11 3 -17 10 -13 16 3 6 7 22 9 36 2 31 3 31 9 31 3 0 5 -15 3 -33z m123 1
c-3 -21 -6 -26 -9 -15 -3 17 3 47 11 47 2 0 1 -15 -2 -32z m-3664 0 c-3 -8 -6
-5 -6 6 -1 11 2 17 5 13 3 -3 4 -12 1 -19z m299 -15 c-11 -11 -17 4 -9 23 7
18 8 18 11 1 2 -10 1 -21 -2 -24z m82 12 c-3 -3 -9 2 -12 12 -6 14 -5 15 5 6
7 -7 10 -15 7 -18z m62 -13 c0 -1 -9 2 -20 8 -11 6 -20 15 -20 20 0 6 9 2 20
-7 11 -10 20 -19 20 -21z m-4770 4 c0 -20 -37 -48 -57 -43 -15 4 -15 5 3 6 27
1 48 26 40 46 -3 9 -2 13 4 10 6 -3 10 -12 10 -19z m83 9 c-3 -9 -8 -14 -10
-11 -3 3 -2 9 2 15 9 16 15 13 8 -4z m251 0 c3 -8 1 -15 -4 -15 -6 0 -10 7
-10 15 0 8 2 15 4 15 2 0 6 -7 10 -15z m453 -7 c-3 -8 -6 -5 -6 6 -1 11 2 17
5 13 3 -3 4 -12 1 -19z m130 -10 c-3 -7 -5 -2 -5 12 0 14 2 19 5 13 2 -7 2
-19 0 -25z m3660 10 c-3 -8 -6 -5 -6 6 -1 11 2 17 5 13 3 -3 4 -12 1 -19z
m-4287 -4 c0 -17 -27 -43 -45 -44 -5 0 1 7 13 16 29 20 28 32 -5 37 -26 4 -26
4 5 6 24 1 32 -3 32 -15z m672 -9 c3 -13 1 -22 -3 -19 -9 5 -13 44 -5 44 2 0
6 -11 8 -25z m125 3 c-3 -8 -6 -5 -6 6 -1 11 2 17 5 13 3 -3 4 -12 1 -19z
m130 8 c-3 -7 0 -20 6 -27 10 -11 9 -11 -5 0 -20 15 -24 41 -7 41 6 0 9 -6 6
-14z m6898 4 c-3 -5 -12 -10 -18 -10 -7 0 -6 4 3 10 19 12 23 12 15 0z m-7508
-19 c7 7 7 -2 -1 -26 l-11 -36 -6 29 c-3 16 -9 35 -13 43 -4 8 -1 6 7 -3 9
-12 17 -14 24 -7z m3853 -8 c0 -19 -3 -24 -10 -17 -6 6 -8 18 -4 27 9 24 14
21 14 -10z m3574 11 c3 -8 2 -12 -4 -9 -6 3 -10 10 -10 16 0 14 7 11 14 -7z
m-7973 -8 c12 7 11 -7 -1 -26 -6 -9 -10 -10 -10 -3 0 6 -2 17 -3 25 -2 7 -2
10 0 5 3 -4 9 -5 14 -1z m452 -6 c3 -11 1 -20 -4 -20 -5 0 -9 9 -9 20 0 11 2
20 4 20 2 0 6 -9 9 -20z m6209 -12 c-8 -8 -9 -4 -5 13 4 13 8 18 11 10 2 -7
-1 -18 -6 -23z m-6802 13 c0 -6 -4 -13 -10 -16 -5 -3 -10 1 -10 9 0 9 5 16 10
16 6 0 10 -4 10 -9z m480 -6 c-7 -8 -17 -15 -23 -15 -6 0 -2 7 9 15 25 19 30
19 14 0z m333 2 c3 -8 -1 -14 -8 -14 -7 0 -11 6 -8 14 3 7 6 13 8 13 2 0 5 -6
8 -13z m54 -9 c-3 -8 -6 -5 -6 6 -1 11 2 17 5 13 3 -3 4 -12 1 -19z m64 -1
c-10 -9 -11 -8 -5 6 3 10 9 15 12 12 3 -3 0 -11 -7 -18z m316 -14 c-3 -10 -5
-4 -5 12 0 17 2 24 5 18 2 -7 2 -21 0 -30z m3413 28 c0 -5 -7 -12 -16 -15 -14
-5 -15 -4 -4 9 14 17 20 19 20 6z m74 -20 c-2 -3 -12 3 -22 13 -16 17 -16 18
5 5 12 -7 20 -15 17 -18z m3280 0 c-2 -3 -12 3 -22 13 -16 17 -16 18 5 5 12
-7 20 -15 17 -18z m-6819 1 c-3 -3 -11 0 -18 7 -9 10 -8 11 6 5 10 -3 15 -9
12 -12z m3575 8 c0 -5 -5 -10 -11 -10 -5 0 -7 5 -4 10 3 6 8 10 11 10 2 0 4
-4 4 -10z m3475 -8 c-3 -3 -11 0 -18 7 -9 10 -8 11 6 5 10 -3 15 -9 12 -12z
m-3378 2 c-3 -3 -12 -4 -19 -1 -8 3 -5 6 6 6 11 1 17 -2 13 -5z m-221 -30
c-11 -8 -25 -14 -30 -13 -6 0 -1 5 12 11 12 6 22 16 22 21 0 6 3 7 7 3 5 -4
-1 -14 -11 -22z m3410 1 c-11 -8 -24 -15 -30 -15 -5 0 -1 7 10 15 10 8 24 14
29 14 6 0 1 -6 -9 -14z m-7909 -1 c-3 -3 -12 -4 -19 -1 -8 3 -5 6 6 6 11 1 17
-2 13 -5z m8415 -1427 c8 -16 7 -23 -6 -32 -8 -7 -13 -15 -9 -18 3 -4 -7 -7
-23 -7 -31 0 -69 40 -45 48 6 2 11 10 11 19 0 10 6 12 21 8 14 -5 19 -4 15 4
-5 7 -1 9 9 5 8 -4 21 -16 27 -27z m-12 -221 c0 -68 -3 -131 -6 -140 -3 -9
-16 -16 -29 -16 -23 0 -23 1 -24 140 l-2 140 31 0 30 0 0 -124z m-27 -279 c7
4 6 -1 -2 -10 -7 -9 -11 -28 -9 -41 3 -14 0 -27 -6 -29 -7 -3 -10 12 -7 47 2
28 6 45 8 38 3 -6 10 -9 16 -5z m-8817 -16 c0 -11 -4 -17 -8 -15 -4 3 -8 12
-8 20 0 8 4 14 8 14 4 0 8 -9 8 -19z m8889 -40 c-6 -20 -50 -40 -62 -27 -4 3
3 6 14 6 27 0 47 25 39 47 -6 14 -4 15 4 7 7 -7 9 -21 5 -33z m-8890 -21 c3
-5 1 -10 -4 -10 -6 0 -11 5 -11 10 0 6 2 10 4 10 3 0 8 -4 11 -10z"/>
<path d="M7915 7400 c-3 -6 1 -7 9 -4 18 7 21 14 7 14 -6 0 -13 -4 -16 -10z"/>
<path d="M7901 7333 c-1 -17 16 -25 25 -12 4 7 3 9 -4 5 -5 -3 -13 0 -15 6 -4
9 -6 10 -6 1z"/>
<path d="M8112 7266 c1 -36 5 -63 9 -60 15 9 16 -53 3 -87 -9 -22 -14 -61 -12
-100 3 -59 5 -64 26 -63 12 0 22 -5 22 -13 0 -16 -5 -16 -31 -3 -17 10 -19 7
-19 -19 0 -25 5 -30 28 -34 l27 -4 -27 -2 c-18 0 -28 -7 -28 -16 0 -17 21 -20
37 -4 8 8 13 8 17 0 12 -18 26 -12 27 12 0 22 0 22 9 1 8 -19 16 -21 129 -21
72 -1 121 3 121 9 0 5 5 6 11 3 5 -4 15 7 22 24 6 17 15 31 19 31 5 0 2 -13
-7 -30 -8 -16 -15 -32 -15 -35 0 -3 45 -4 100 -3 l100 3 0 123 c0 112 -7 142
-26 111 -8 -14 -71 -41 -104 -45 -43 -5 -102 36 -128 88 -23 47 -24 48 -7 98
12 36 21 50 31 46 8 -3 13 0 11 6 -1 6 9 15 23 19 14 4 18 8 10 9 -11 1 -9 4
5 10 13 5 -23 8 -95 7 -63 0 -94 -2 -67 -4 38 -3 47 -8 47 -23 0 -26 -18 -34
-37 -18 -12 9 -15 9 -9 1 5 -9 -1 -13 -22 -13 -28 0 -30 -2 -34 -51 -8 -82 13
-117 72 -123 8 0 16 -13 18 -27 3 -23 -1 -26 -30 -27 -39 -1 -94 23 -103 46
-4 9 -9 46 -12 82 -5 91 -11 110 -27 104 -8 -3 -17 0 -21 6 -5 8 -11 8 -21 -1
-11 -9 -14 -8 -14 5 0 9 0 19 0 24 -1 4 16 10 37 13 35 6 34 6 -15 8 l-53 1 3
-64z m501 -313 c-7 -2 -19 -2 -25 0 -7 3 -2 5 12 5 14 0 19 -2 13 -5z m-283
-33 c0 -5 -4 -10 -10 -10 -5 0 -10 5 -10 10 0 6 5 10 10 10 6 0 10 -4 10 -10z
m267 -27 c-3 -10 -5 -4 -5 12 0 17 2 24 5 18 2 -7 2 -21 0 -30z m-320 -4 c1
-19 1 -20 -4 -4 -3 11 -10 24 -17 28 -7 6 -6 7 4 4 8 -2 16 -14 17 -28z m166
11 c3 -11 1 -18 -4 -14 -5 3 -9 12 -9 20 0 20 7 17 13 -6z m227 10 c0 -5 -2
-10 -4 -10 -3 0 -8 5 -11 10 -3 6 -1 10 4 10 6 0 11 -4 11 -10z"/>
<path d="M8563 7318 c6 -4 23 -4 36 -1 17 4 22 2 17 -6 -4 -6 -1 -11 9 -11 8
0 18 -6 21 -13 10 -26 34 -15 34 15 l0 29 -65 -3 c-35 -1 -59 -5 -52 -10z"/>
<path d="M8885 7310 c11 -5 27 -9 35 -9 9 0 8 4 -5 9 -11 5 -27 9 -35 9 -9 0
-8 -4 5 -9z"/>
<path d="M8173 7303 c9 -2 23 -2 30 0 6 3 -1 5 -18 5 -16 0 -22 -2 -12 -5z"/>
<path d="M8303 7303 c9 -2 25 -2 35 0 9 3 1 5 -18 5 -19 0 -27 -2 -17 -5z"/>
<path d="M8860 7290 c0 -5 7 -7 15 -4 8 4 15 8 15 10 0 2 -7 4 -15 4 -8 0 -15
-4 -15 -10z"/>
<path d="M8514 7279 c1 -7 -9 -23 -22 -36 -20 -21 -24 -31 -19 -66 9 -65 53
-90 114 -65 15 6 31 11 35 10 4 -1 4 6 1 15 -4 10 -2 14 4 10 8 -5 9 7 6 35
-6 51 -41 88 -83 88 -15 0 -31 5 -33 10 -3 6 -4 5 -3 -1z"/>
<path d="M8915 7280 c-8 -13 5 -13 25 0 13 8 13 10 -2 10 -9 0 -20 -4 -23 -10z"/>
<path d="M8652 7170 c0 -14 2 -19 5 -12 2 6 2 18 0 25 -3 6 -5 1 -5 -13z"/>
<path d="M8462 7095 c15 -16 29 -27 31 -24 3 2 -10 15 -27 28 l-31 24 27 -28z"/>
<path d="M8290 7096 c0 -2 7 -7 16 -10 8 -3 12 -2 9 4 -6 10 -25 14 -25 6z"/>
<path d="M8876 7075 c-11 -8 -16 -15 -10 -15 5 0 18 7 28 15 11 8 16 15 10 15
-5 0 -18 -7 -28 -15z"/>
<path d="M8315 7060 c3 -5 8 -10 11 -10 2 0 4 5 4 10 0 6 -5 10 -11 10 -5 0
-7 -4 -4 -10z"/>
<path d="M8520 7060 c0 -5 5 -10 10 -10 6 0 10 5 10 10 0 6 -4 10 -10 10 -5 0
-10 -4 -10 -10z"/>
<path d="M956 7402 c-2 -4 -1 -14 4 -22 7 -11 9 -9 7 8 -1 24 -3 26 -11 14z"/>
<path d="M1117 7419 c7 -7 15 -10 18 -7 3 3 -2 9 -12 12 -14 6 -15 5 -6 -5z"/>
<path d="M1212 7421 c-11 -7 -10 -10 3 -15 25 -9 32 -7 15 5 -11 8 -8 9 15 5
22 -5 26 -4 15 4 -18 12 -31 12 -48 1z"/>
<path d="M1087 7403 c-14 -13 -6 -25 8 -13 10 8 15 9 15 2 0 -7 7 -9 17 -5 15
6 15 7 -3 14 -25 10 -29 10 -37 2z"/>
<path d="M1093 7353 c-3 -10 -8 -21 -10 -25 -2 -5 0 -8 5 -8 5 0 12 11 14 25
6 29 0 33 -9 8z"/>
<path d="M1110 7281 c0 -6 4 -13 10 -16 6 -3 7 1 4 9 -7 18 -14 21 -14 7z"/>
<path d="M1150 7260 c-8 -5 -10 -10 -5 -10 6 0 17 5 25 10 8 5 11 10 5 10 -5
0 -17 -5 -25 -10z"/>
<path d="M1080 7121 c0 -13 39 -35 48 -27 3 3 0 6 -6 6 -6 0 -18 7 -26 16 -9
8 -16 11 -16 5z"/>
<path d="M1070 7096 c0 -3 9 -10 20 -16 11 -6 20 -8 20 -6 0 3 -9 10 -20 16
-11 6 -20 8 -20 6z"/>
<path d="M1168 7083 c7 -3 16 -2 19 1 4 3 -2 6 -13 5 -11 0 -14 -3 -6 -6z"/>
<path d="M5826 7298 c5 -8 1 -9 -12 -4 -15 6 -17 5 -6 -5 10 -11 15 -10 29 4
16 16 16 17 0 17 -11 0 -15 -4 -11 -12z"/>
<path d="M5770 7116 c0 -2 7 -7 16 -10 8 -3 12 -2 9 4 -6 10 -25 14 -25 6z"/>
<path d="M5658 7103 c7 -3 16 -2 19 1 4 3 -2 6 -13 5 -11 0 -14 -3 -6 -6z"/>
<path d="M5658 7073 c7 -3 16 -2 19 1 4 3 -2 6 -13 5 -11 0 -14 -3 -6 -6z"/>
<path d="M9061 7204 c0 -11 3 -14 6 -6 3 7 2 16 -1 19 -3 4 -6 -2 -5 -13z"/>
<path d="M9156 7203 c-6 -14 -5 -15 5 -6 7 7 10 15 7 18 -3 3 -9 -2 -12 -12z"/>
<path d="M9213 7125 c0 -8 4 -15 9 -15 4 0 8 4 8 9 0 6 -4 12 -8 15 -5 3 -9
-1 -9 -9z"/>
<path d="M1368 7303 c7 -3 16 -2 19 1 4 3 -2 6 -13 5 -11 0 -14 -3 -6 -6z"/>
<path d="M1531 7294 c0 -11 3 -14 6 -6 3 7 2 16 -1 19 -3 4 -6 -2 -5 -13z"/>
<path d="M2097 7309 c7 -7 15 -10 18 -7 3 3 -2 9 -12 12 -14 6 -15 5 -6 -5z"/>
<path d="M1768 7303 c7 -3 16 -2 19 1 4 3 -2 6 -13 5 -11 0 -14 -3 -6 -6z"/>
<path d="M1747 7279 c-10 -6 -27 -9 -38 -6 -12 3 -17 1 -12 -6 4 -6 0 -8 -10
-4 -10 4 -16 2 -14 -6 1 -7 -4 -11 -12 -9 -8 2 -11 -3 -8 -12 4 -9 2 -18 -3
-21 -6 -4 -10 2 -11 12 0 11 -3 13 -6 5 -3 -7 0 -19 7 -27 6 -8 9 -18 7 -23
-14 -21 14 -34 74 -36 84 -3 89 -1 89 43 0 39 -38 89 -55 74 -5 -5 -3 0 4 10
15 20 13 21 -12 6z"/>
<path d="M1821 7214 c0 -11 3 -14 6 -6 3 7 2 16 -1 19 -3 4 -6 -2 -5 -13z"/>
<path d="M1595 7200 c3 -5 8 -10 11 -10 2 0 4 5 4 10 0 6 -5 10 -11 10 -5 0
-7 -4 -4 -10z"/>
<path d="M1612 7171 c-6 -17 -7 -31 -3 -31 8 0 22 52 16 58 -1 2 -7 -11 -13
-27z"/>
<path d="M1985 7110 c10 -11 20 -20 23 -20 3 0 -3 9 -13 20 -10 11 -20 20 -23
20 -3 0 3 -9 13 -20z"/>
<path d="M2048 7083 c6 -2 18 -2 25 0 6 3 1 5 -13 5 -14 0 -19 -2 -12 -5z"/>
<path d="M5405 7300 c-3 -5 -2 -10 4 -10 5 0 13 5 16 10 3 6 2 10 -4 10 -5 0
-13 -4 -16 -10z"/>
<path d="M5341 7188 c0 -9 -4 -25 -7 -35 -5 -17 -5 -17 6 0 6 10 9 25 7 35 -4
15 -5 15 -6 0z"/>
<path d="M5536 7085 c-11 -8 -15 -15 -9 -15 6 0 16 7 23 15 16 19 11 19 -14 0z"/>
<path d="M5435 7060 c-3 -6 1 -7 9 -4 18 7 21 14 7 14 -6 0 -13 -4 -16 -10z"/>
<path d="M5478 7063 c7 -3 16 -2 19 1 4 3 -2 6 -13 5 -11 0 -14 -3 -6 -6z"/>
<path d="M958 7103 c7 -3 16 -2 19 1 4 3 -2 6 -13 5 -11 0 -14 -3 -6 -6z"/>
<path d="M9480 5370 c20 -13 33 -13 25 0 -3 6 -14 10 -23 10 -15 0 -15 -2 -2
-10z"/>
<path d="M1490 8505 c0 -305 1 -316 52 -362 12 -11 41 -26 63 -32 50 -14 6970
-15 7029 -2 56 14 103 63 116 125 7 32 10 145 8 301 l-3 250 -3632 3 -3633 2
0 -285z"/>
<path d="M4381 7414 c0 -11 3 -14 6 -6 3 7 2 16 -1 19 -3 4 -6 -2 -5 -13z"/>
<path d="M4568 7423 c6 -2 18 -2 25 0 6 3 1 5 -13 5 -14 0 -19 -2 -12 -5z"/>
<path d="M4630 7410 c8 -5 22 -9 30 -9 10 0 8 3 -5 9 -27 12 -43 12 -25 0z"/>
<path d="M5200 7296 c0 -2 7 -9 15 -16 9 -7 15 -8 15 -2 0 5 -7 12 -15 16 -8
3 -15 4 -15 2z"/>
<path d="M2366 7273 c-6 -14 -5 -15 5 -6 7 7 10 15 7 18 -3 3 -9 -2 -12 -12z"/>
<path d="M5060 7264 c0 -8 5 -12 10 -9 6 4 8 11 5 16 -9 14 -15 11 -15 -7z"/>
<path d="M5093 7255 c-13 -9 -23 -22 -23 -30 0 -7 -6 -15 -12 -18 -19 -7 82
-97 109 -97 12 0 28 -7 37 -15 17 -17 26 -19 26 -6 0 5 -9 12 -19 16 -19 6
-19 7 -1 38 21 37 17 77 -10 102 -27 24 -81 29 -107 10z"/>
<path d="M5240 7225 c-7 -9 -8 -15 -2 -15 5 0 12 7 16 15 3 8 4 15 2 15 -2 0
-9 -7 -16 -15z"/>
<path d="M2316 7221 c-3 -5 1 -12 10 -15 22 -8 25 -4 9 11 -8 7 -16 9 -19 4z"/>
<path d="M3124 7219 c-71 -12 -209 -56 -269 -87 -122 -61 -257 -174 -342 -286
-60 -80 -136 -239 -165 -346 l-23 -85 -2 -1606 c-3 -1426 -2 -1607 12 -1612 8
-4 14 -3 13 1 -3 15 15 42 24 36 6 -4 5 -10 -3 -15 -9 -5 -6 -7 11 -6 30 3 74
26 66 34 -3 4 -15 -2 -26 -12 -15 -13 -24 -15 -31 -8 -19 19 1 33 48 33 l45 0
-38 -34 c-21 -19 -43 -32 -48 -29 -5 4 -6 1 -3 -4 8 -13 -18 -37 -31 -29 -5 3
-7 -6 -4 -19 2 -15 0 -25 -7 -25 -6 0 -11 -5 -11 -11 0 -8 5 -8 15 1 13 11 26
2 82 -54 41 -40 61 -66 51 -66 -9 0 -19 6 -21 13 -4 9 -6 9 -6 0 -2 -28 -56
-8 -61 22 -1 6 -7 9 -14 7 -8 -1 -21 9 -30 23 -29 44 -36 29 -36 -82 0 -85 3
-110 17 -125 9 -10 11 -18 5 -18 -6 0 -13 6 -15 13 -3 6 -4 -121 -3 -283 3
-309 7 -346 56 -477 101 -271 311 -480 580 -577 144 -52 201 -56 880 -56 675
0 724 3 870 54 275 95 497 315 592 586 45 128 50 180 54 558 4 314 2 366 -11
392 -9 17 -13 36 -9 42 4 7 3 8 -4 4 -9 -5 -12 6 -12 38 0 25 4 46 10 46 5 0
14 17 19 38 15 52 15 3037 0 3169 -13 121 -48 234 -104 341 -52 98 -133 205
-151 198 -8 -3 -11 0 -8 8 6 16 -104 116 -128 116 -10 0 -18 5 -18 11 0 8 -5
8 -15 -1 -18 -15 -49 -5 -39 12 6 10 4 10 -8 0 -10 -8 -19 -9 -22 -3 -3 5 0
12 6 15 7 3 3 3 -9 0 -16 -4 -23 1 -29 18 -4 13 -7 26 -6 30 3 12 -43 38 -74
42 -16 3 -38 7 -49 11 -11 3 -7 -1 9 -11 28 -16 29 -17 11 -30 -10 -8 -13 -14
-7 -14 24 0 -40 -57 -78 -70 -32 -10 -47 -11 -85 0 -25 7 -50 20 -55 29 -5 9
-12 15 -17 13 -14 -6 -13 12 2 32 14 18 15 18 41 2 38 -26 70 -29 108 -11 26
13 33 21 28 37 -2 11 0 23 7 27 21 13 -89 41 -183 47 -50 3 -86 2 -80 -3 17
-13 25 -59 14 -87 -6 -17 -6 -27 1 -32 6 -3 3 -11 -8 -20 -11 -8 -13 -13 -5
-14 27 0 10 -20 -18 -20 l-30 0 0 90 0 90 -587 -1 c-324 -1 -611 -5 -639 -10z
m1538 -282 c-12 -13 -23 -34 -23 -48 l-2 -24 -4 23 c-4 21 28 72 45 72 3 0 -4
-10 -16 -23z m83 2 c15 -14 -7 -10 -35 7 l-25 15 25 -7 c14 -3 29 -10 35 -15z
m222 -31 c-2 -13 -4 -5 -4 17 -1 22 1 32 4 23 2 -10 2 -28 0 -40z m-512 -19
c4 -11 4 -23 1 -26 -3 -4 -6 1 -6 10 0 9 -10 26 -22 38 -23 21 -23 21 -1 10
12 -6 25 -20 28 -32z m465 31 c0 -5 -4 -10 -10 -10 -5 0 -10 5 -10 10 0 6 5
10 10 10 6 0 10 -4 10 -10z m-553 -22 c-3 -8 -6 -5 -6 6 -1 11 2 17 5 13 3 -3
4 -12 1 -19z m183 2 c-6 -11 -12 -20 -14 -20 -2 0 -2 9 1 20 3 11 9 20 15 20
5 0 4 -9 -2 -20z m252 8 c-18 -18 -15 -55 6 -67 9 -6 12 -11 7 -11 -18 0 -35
22 -35 45 0 19 17 45 29 45 3 0 0 -5 -7 -12z m231 -8 c3 -11 3 -20 1 -20 -2 0
-8 9 -14 20 -6 11 -7 20 -2 20 6 0 12 -9 15 -20z m-283 -14 c0 -2 3 -13 6 -23
6 -17 6 -17 -7 -1 -8 9 -27 19 -44 21 -27 4 -26 4 8 6 20 0 37 -1 37 -3z m330
-9 c0 -7 -6 -21 -13 -31 -13 -17 -14 -18 -20 -2 -4 11 -3 15 4 11 6 -4 13 2
16 14 6 24 13 28 13 8z m-113 -19 c-3 -8 -6 -5 -6 6 -1 11 2 17 5 13 3 -3 4
-12 1 -19z m-449 -4 c4 2 7 -9 7 -25 0 -22 -5 -29 -20 -29 -15 0 -17 2 -6 9 9
6 12 19 8 37 -4 16 -4 23 -1 16 3 -6 9 -10 12 -8z m222 2 c0 -2 -8 -10 -17
-17 -16 -13 -17 -12 -4 4 13 16 21 21 21 13z m-49 -24 c-7 -2 -18 1 -23 6 -8
8 -4 9 13 5 13 -4 18 -8 10 -11z m-268 1 c-7 -2 -19 -2 -25 0 -7 3 -2 5 12 5
14 0 19 -2 13 -5z m647 -28 c0 -2 -9 -3 -19 -2 -11 0 -18 5 -15 9 4 6 34 0 34
-7z m-1048 -521 c319 -73 568 -330 633 -654 22 -109 16 -272 -15 -380 -124
-437 -571 -694 -1012 -581 -72 19 -193 73 -248 111 -14 9 -31 15 -37 13 -7 -3
-13 0 -13 7 0 15 -61 70 -77 70 -7 0 -13 6 -13 13 0 6 -29 47 -65 90 -48 59
-72 100 -96 164 -22 57 -39 87 -51 91 -10 2 -18 12 -18 21 0 14 2 14 10 1 6
-9 10 -10 10 -3 0 6 -5 15 -11 19 -7 4 -8 9 -1 13 7 4 7 24 0 61 -16 85 -5
272 22 360 38 127 103 242 193 336 125 132 253 207 422 248 84 20 279 20 367
0z m-1322 -899 c0 -7 5 -15 11 -17 23 -8 -14 -48 -44 -48 -16 0 -26 4 -22 10
3 6 2 10 -4 10 -5 0 -9 9 -8 20 1 11 5 20 10 20 4 0 6 4 3 9 -4 5 0 11 6 14
20 6 48 -4 48 -18z m241 9 c47 -16 59 -27 40 -38 -5 -4 -12 0 -15 6 -3 7 -3 3
0 -10 5 -22 4 -23 -33 -16 -21 3 -45 13 -54 20 -22 19 -39 17 -38 -3 0 -11 3
-13 6 -5 5 14 23 16 23 3 0 -5 -9 -12 -19 -16 -48 -15 -25 -76 37 -96 68 -22
107 -53 122 -96 9 -26 9 -27 -5 -9 -17 23 -20 14 -4 -15 25 -47 -41 -110 -119
-114 -54 -2 -96 10 -87 26 4 5 -1 19 -11 30 -25 28 -10 34 33 14 41 -20 87
-22 108 -5 22 18 24 58 4 76 -10 9 -15 23 -12 32 4 13 3 14 -5 4 -8 -11 -20
-9 -67 13 -32 16 -60 36 -62 46 -3 10 -9 16 -14 13 -5 -3 -9 1 -9 10 0 8 -3
22 -7 32 -5 13 -3 15 7 9 9 -5 11 -4 6 4 -8 12 2 56 11 47 3 -3 13 4 22 15 9
11 32 24 51 29 19 4 36 8 38 9 2 1 25 -6 53 -15z m-242 -254 c-1 -139 -1 -140
-24 -140 -13 0 -26 7 -29 16 -3 9 -6 72 -6 140 l0 124 30 0 31 0 -2 -140z m91
-102 c0 -4 -4 -8 -10 -8 -5 0 -10 8 -10 18 0 14 -2 15 -10 2 -8 -12 -10 -10
-10 9 0 23 1 24 20 6 11 -10 20 -22 20 -27z m179 -131 c-2 -1 -15 -11 -29 -22
l-25 -20 19 23 c11 12 24 22 29 22 6 0 8 -1 6 -3z m61 -7 c0 -5 -2 -10 -4 -10
-3 0 -8 5 -11 10 -3 6 -1 10 4 10 6 0 11 -4 11 -10z m170 -20 c0 -5 -5 -10
-11 -10 -5 0 -7 5 -4 10 3 6 8 10 11 10 2 0 4 -4 4 -10z m-456 -27 c8 -21 -20
-63 -42 -62 -13 0 -13 2 4 9 30 12 38 39 17 62 -15 16 -15 18 -1 13 9 -4 19
-14 22 -22z m39 10 c2 -10 8 -27 12 -38 3 -11 -1 -6 -11 10 -9 17 -22 33 -28
37 -7 5 -5 8 5 8 9 0 19 -8 22 -17z m-119 -8 c-4 -8 -8 -15 -10 -15 -2 0 -4 7
-4 15 0 8 4 15 10 15 5 0 7 -7 4 -15z m496 -10 c0 -9 -9 -15 -22 -14 -17 1
-19 2 -5 6 9 2 17 9 17 14 0 5 2 9 5 9 3 0 5 -7 5 -15z m-163 -1 c-3 -3 -12
-4 -19 -1 -8 3 -5 6 6 6 11 1 17 -2 13 -5z m206 -34 c3 -11 1 -18 -4 -14 -5 3
-9 12 -9 20 0 20 7 17 13 -6z m-188 -10 c-3 -5 -16 -10 -28 -9 -20 1 -20 2 3
9 14 4 26 8 28 9 2 1 0 -3 -3 -9z m128 -2 c-2 -5 -15 -8 -28 -8 -13 0 -26 3
-28 8 -3 4 10 7 28 7 18 0 31 -3 28 -7z m834 -663 c29 -7 55 -57 47 -90 -3
-14 -18 -34 -31 -45 -23 -18 -41 -20 -149 -20 -135 0 -167 9 -184 50 -20 49 2
94 54 108 27 7 226 5 263 -3z m-777 -15 c41 -41 35 -93 -15 -126 -19 -13 -49
-15 -160 -12 -132 3 -137 4 -155 28 -27 35 -25 76 5 105 23 24 29 25 165 25
126 0 142 -2 160 -20z m1589 10 c30 -15 46 -65 32 -99 -18 -42 -49 -51 -181
-51 -67 0 -130 5 -144 11 -50 23 -57 103 -13 134 16 11 53 15 155 15 73 0 141
-4 151 -10z m-1604 -636 c18 -7 45 -55 45 -79 0 -9 -13 -30 -29 -46 l-29 -29
-135 0 c-153 0 -173 8 -183 72 -5 30 -2 41 19 62 25 25 29 26 161 26 74 0 142
-3 151 -6z m804 -4 c29 -15 44 -61 31 -95 -19 -50 -34 -54 -177 -55 -72 0
-139 3 -148 6 -25 10 -47 62 -40 95 12 51 35 59 183 59 73 0 141 -4 151 -10z
m796 4 c23 -9 48 -62 41 -90 -10 -40 -45 -64 -92 -64 -24 0 -45 -4 -48 -9 -3
-5 -24 -7 -45 -4 -22 3 -55 3 -74 -1 -30 -6 -34 -9 -32 -37 2 -34 13 -44 67
-61 21 -6 46 -19 57 -30 11 -10 24 -18 29 -18 11 0 42 -61 42 -83 0 -9 -6 -22
-12 -29 -7 -8 -18 -23 -24 -33 -27 -48 -120 -65 -181 -33 -55 29 -59 35 -37
56 17 17 21 17 41 5 34 -22 79 -26 112 -8 17 8 31 20 31 25 0 25 -22 61 -47
74 -15 8 -24 15 -20 16 5 0 17 -5 27 -10 13 -7 21 -7 26 2 4 6 3 8 -4 4 -6 -3
-17 0 -24 8 -10 9 -20 11 -31 5 -11 -6 -24 -5 -39 3 -32 18 -78 60 -78 71 0 6
9 2 20 -8 11 -10 20 -15 20 -11 0 11 -27 36 -39 36 -15 0 -14 19 2 50 11 21
10 30 -6 57 -13 23 -17 42 -12 63 12 52 34 60 181 60 73 0 140 -3 149 -6z
m-395 -104 c0 -5 6 -10 14 -10 17 0 28 -24 20 -45 -4 -8 -18 -18 -32 -22 -19
-4 -30 -1 -44 17 -18 23 -18 23 3 47 24 24 39 30 39 13z m477 -87 l-2 -38 50
-5 c42 -4 50 -8 52 -27 2 -19 -3 -22 -45 -25 l-47 -3 0 -89 c0 -71 3 -90 15
-93 13 -4 13 -3 0 6 -22 15 -9 20 35 11 22 -4 36 -8 32 -9 -4 0 -3 -10 3 -21
9 -17 7 -20 -14 -26 -32 -8 -88 11 -112 37 -13 15 -20 42 -24 102 l-5 82 -35
5 c-20 3 -35 10 -34 18 1 6 2 16 3 21 0 6 18 11 39 13 36 3 37 4 35 41 -2 35
-1 37 27 37 28 0 29 -2 27 -37z m349 -60 c31 -14 60 -56 55 -82 -1 -7 2 -10 8
-6 14 8 14 -42 0 -83 -7 -20 -15 -29 -25 -25 -10 4 -12 0 -8 -12 6 -14 3 -16
-17 -10 -18 5 -20 4 -9 -4 12 -8 11 -11 -5 -16 -11 -4 -30 -11 -42 -17 -37
-18 -91 0 -134 43 -25 25 -38 46 -35 55 3 9 1 12 -4 9 -15 -9 -12 37 4 76 37
87 118 115 212 72z m-804 -100 c2 -65 2 -126 0 -135 -6 -24 -62 -25 -62 -2 0
8 5 12 10 9 6 -3 10 -1 10 4 0 6 -4 11 -10 11 -6 0 -10 45 -10 115 l0 115 29
0 29 0 4 -117z m278 -253 c-20 -13 -33 -13 -25 0 3 6 14 10 23 10 15 0 15 -2
2 -10z m507 4 c-3 -3 -12 -4 -19 -1 -8 3 -5 6 6 6 11 1 17 -2 13 -5z m-453
-16 c-9 -14 47 -30 62 -17 9 7 14 8 14 1 0 -6 -5 -12 -11 -14 -8 -3 -7 -9 3
-18 15 -16 18 -22 18 -41 0 -6 7 -8 17 -5 11 5 9 -1 -8 -18 -13 -14 -33 -34
-43 -45 -18 -19 -31 -21 -152 -21 -73 0 -140 3 -149 7 -22 8 -54 79 -48 104 3
10 9 17 13 14 5 -3 11 3 15 14 7 22 57 33 110 24 21 -3 41 -1 50 7 10 9 15 9
15 1 0 -7 19 -11 48 -11 43 1 45 2 28 15 -18 13 -18 14 2 12 11 0 18 -5 16 -9z
m223 -40 c-2 -13 -4 -5 -4 17 -1 22 1 32 4 23 2 -10 2 -28 0 -40z m220 -40
c-2 -18 -4 -6 -4 27 0 33 2 48 4 33 2 -15 2 -42 0 -60z m-2787 68 c0 -2 -8
-10 -17 -17 -16 -13 -17 -12 -4 4 13 16 21 21 21 13z m1973 -9 c3 -8 1 -20 -4
-28 -6 -10 -9 -7 -9 14 0 29 5 35 13 14z m77 -13 c0 -2 -9 0 -20 6 -11 6 -20
13 -20 16 0 2 9 0 20 -6 11 -6 20 -13 20 -16z m-1265 10 c23 -9 48 -62 41 -90
-4 -13 -16 -33 -28 -44 -20 -18 -35 -20 -159 -20 -156 0 -175 8 -185 72 -5 30
-2 41 19 62 25 25 29 26 161 26 74 0 142 -3 151 -6z m804 -4 c29 -15 44 -61
31 -95 -19 -50 -34 -54 -177 -55 -72 0 -139 3 -148 6 -25 10 -47 62 -40 95 12
51 35 59 183 59 73 0 141 -4 151 -10z m1271 0 c0 -5 -2 -10 -4 -10 -3 0 -8 5
-11 10 -3 6 -1 10 4 10 6 0 11 -4 11 -10z m60 -47 c0 -18 -3 -33 -7 -33 -5 0
-8 20 -8 44 0 25 3 40 7 33 4 -7 8 -27 8 -44z m-440 12 c0 -5 -5 -3 -10 5 -5
8 -10 20 -10 25 0 6 5 3 10 -5 5 -8 10 -19 10 -25z m372 -15 c3 -16 1 -30 -4
-30 -4 0 -8 14 -8 30 0 17 2 30 4 30 2 0 6 -13 8 -30z m-2822 -5 c0 -8 -3 -16
-7 -18 -5 -3 -8 5 -8 18 0 13 3 21 8 18 4 -2 7 -10 7 -18z m2633 -19 c-3 -4
-9 -2 -14 5 -13 22 -11 31 5 17 8 -7 12 -17 9 -22z m-2678 4 c3 -5 1 -10 -4
-10 -6 0 -11 5 -11 10 0 6 2 10 4 10 3 0 8 -4 11 -10z m2032 -6 c-3 -3 -12 -4
-19 -1 -8 3 -5 6 6 6 11 1 17 -2 13 -5z"/>
<path d="M3655 6111 c-207 -59 -376 -221 -448 -430 -27 -76 -31 -99 -31 -201
-1 -132 14 -200 44 -200 24 0 42 -31 29 -51 -7 -12 -9 -12 -9 1 0 13 -2 13 -9
1 -7 -10 -1 -31 16 -65 22 -44 27 -48 33 -31 4 11 6 23 3 27 -6 11 45 88 60
89 6 1 21 1 32 0 17 -2 17 0 5 8 -8 6 -13 11 -10 11 82 13 102 11 141 -15 64
-42 83 -117 49 -188 -10 -20 -16 -24 -22 -15 -6 10 -8 9 -8 -2 0 -25 -50 -48
-102 -46 -42 2 -84 16 -46 16 9 0 21 7 28 15 10 12 7 12 -19 -1 -21 -10 -29
-20 -24 -29 12 -20 91 -83 113 -90 11 -4 20 -10 20 -15 0 -4 12 -13 28 -19 15
-6 38 -15 51 -21 19 -8 22 -8 17 5 -3 9 -2 13 4 10 6 -3 10 -12 10 -19 0 -16
44 -30 49 -15 1 5 9 2 17 -8 11 -14 15 -15 22 -5 7 11 10 10 16 -3 10 -26 70
-16 74 13 2 16 -3 25 -20 31 -21 9 -21 9 7 9 29 -1 30 -3 27 -35 l-4 -34 76 2
c55 2 76 7 76 16 0 7 5 13 10 13 6 0 10 -4 10 -10 0 -5 8 -10 18 -10 14 0 15
2 2 10 -11 7 -2 10 33 10 38 0 47 3 47 18 0 13 2 14 9 4 6 -11 11 -10 24 3 9
9 21 14 26 11 5 -4 17 1 25 10 9 8 16 12 16 7 0 -4 4 -3 8 2 4 6 19 17 34 25
85 47 203 195 247 308 142 369 -59 775 -439 883 -111 32 -100 62 -100 -281 l0
-301 -25 -24 c-15 -16 -36 -25 -55 -25 -19 0 -40 9 -55 25 l-25 24 0 301 0
300 -22 -1 c-13 0 -50 -8 -83 -18z m330 -749 c3 -19 5 -65 4 -103 -1 -38 0
-71 3 -74 3 -3 13 4 23 15 14 16 21 17 39 8 19 -10 20 -10 7 5 -9 12 -10 17
-2 17 7 0 9 5 5 12 -5 8 -2 9 10 5 9 -4 14 -3 11 2 -8 15 16 25 63 27 l43 2
-58 -54 c-32 -29 -61 -54 -65 -54 -19 0 -5 -31 27 -59 19 -17 35 -34 35 -38 0
-4 -5 -2 -12 5 -7 7 -16 12 -22 12 -5 0 -2 -6 9 -13 11 -9 15 -19 11 -28 -4
-8 -1 -6 7 4 17 21 31 22 23 2 -3 -8 -2 -14 2 -13 10 3 52 -25 52 -34 0 -5
-18 -8 -39 -8 -30 0 -44 6 -55 22 -8 12 -12 26 -9 31 3 6 1 7 -5 3 -6 -4 -29
10 -52 30 -22 20 -42 35 -45 33 -2 -3 -5 -30 -6 -62 l-2 -57 -34 0 -33 0 0
200 0 200 29 -2 c25 -2 31 -7 36 -36z m-161 -99 c38 -17 39 -33 3 -34 -21 0
-21 -1 -2 -8 11 -5 22 -4 23 0 2 5 8 9 14 9 7 0 6 -5 -1 -14 -14 -16 -25 -15
-90 8 -24 9 -46 14 -49 11 -3 -3 1 -5 9 -5 8 0 2 -10 -15 -23 -21 -17 -30 -35
-36 -70 -4 -25 -3 -44 1 -41 4 2 13 -5 19 -16 6 -12 21 -20 36 -20 14 0 23 -4
19 -9 -3 -5 0 -13 6 -17 7 -4 10 -3 6 2 -3 5 12 19 33 30 35 20 39 20 59 5
l22 -17 -25 -23 c-31 -29 -115 -37 -163 -14 -28 13 -32 19 -28 42 4 21 4 22
-3 6 -8 -19 -11 -18 -30 14 -24 39 -23 101 1 126 9 9 20 22 24 29 13 21 65 45
100 46 18 0 48 -7 67 -17z m-159 -393 c3 -6 -1 -7 -9 -4 -18 7 -21 14 -7 14 6
0 13 -4 16 -10z m63 -4 c-7 -8 -15 -12 -17 -11 -5 6 10 25 20 25 5 0 4 -6 -3
-14z m204 7 c-6 -3 -10 -9 -6 -14 3 -5 1 -9 -4 -9 -21 0 -19 26 2 27 11 0 15
-1 8 -4z m56 0 c-10 -2 -18 -9 -18 -15 0 -6 -3 -9 -6 -5 -10 10 6 27 24 26 15
-1 15 -2 0 -6z m53 -10 c13 -17 13 -17 -6 -3 -11 8 -22 16 -24 17 -2 2 0 3 6
3 6 0 17 -8 24 -17z m-198 -8 c-3 -9 -8 -14 -10 -11 -3 3 -2 9 2 15 9 16 15
13 8 -4z"/>
<path d="M4140 5259 c0 -5 5 -7 10 -4 6 3 10 8 10 11 0 2 -4 4 -10 4 -5 0 -10
-5 -10 -11z"/>
<path d="M4106 5235 c-11 -8 -17 -17 -14 -20 2 -3 13 4 23 15 21 23 18 25 -9
5z"/>
<path d="M4011 5164 c0 -11 3 -14 6 -6 3 7 2 16 -1 19 -3 4 -6 -2 -5 -13z"/>
<path d="M4055 5120 c3 -5 8 -10 11 -10 2 0 4 5 4 10 0 6 -5 10 -11 10 -5 0
-7 -4 -4 -10z"/>
<path d="M4051 5093 c7 -12 15 -20 18 -17 3 2 -3 12 -13 22 -17 16 -18 16 -5
-5z"/>
<path d="M3931 5024 c0 -11 3 -14 6 -6 3 7 2 16 -1 19 -3 4 -6 -2 -5 -13z"/>
<path d="M3651 5164 c0 -11 3 -14 6 -6 3 7 2 16 -1 19 -3 4 -6 -2 -5 -13z"/>
<path d="M3626 5107 c3 -10 9 -15 12 -12 3 3 0 11 -7 18 -10 9 -11 8 -5 -6z"/>
<path d="M3810 5054 c-16 -10 -18 -13 -5 -8 11 4 28 7 37 8 9 0 14 4 12 8 -7
11 -15 10 -44 -8z"/>
<path d="M3430 5250 c-9 -6 -10 -10 -3 -10 6 0 15 5 18 10 8 12 4 12 -15 0z"/>
<path d="M3514 5229 c-4 -7 -3 -9 4 -5 5 3 13 0 15 -6 4 -9 6 -10 6 -1 1 17
-16 25 -25 12z"/>
<path d="M3325 5221 c-3 -6 4 -15 15 -21 11 -6 18 -16 14 -22 -4 -7 -10 -6
-16 3 -6 9 -7 6 -2 -11 4 -14 7 -37 7 -52 0 -15 4 -26 11 -25 6 1 10 -6 10
-15 -1 -11 4 -14 14 -11 8 4 13 2 9 -3 -3 -5 7 -9 21 -8 15 1 33 -4 41 -10 11
-8 13 -8 7 2 -4 7 -2 12 7 12 41 0 65 91 36 137 -21 34 -54 36 -134 8 -20 -7
-20 -6 -1 9 11 9 15 16 9 16 -7 0 -15 -4 -18 -10 -3 -5 -11 -10 -16 -10 -6 0
-7 5 -4 10 3 6 4 10 1 10 -3 0 -7 -4 -11 -9z"/>
<path d="M3552 5141 c-6 -16 -6 -34 -1 -42 6 -10 8 -9 7 6 -1 11 2 30 6 43 11
33 0 27 -12 -7z"/>
<path d="M3321 5134 c0 -11 3 -14 6 -6 3 7 2 16 -1 19 -3 4 -6 -2 -5 -13z"/>
<path d="M3293 5115 c0 -8 4 -12 9 -9 5 3 6 10 3 15 -9 13 -12 11 -12 -6z"/>
<path d="M3300 5086 c0 -2 7 -9 15 -16 13 -11 14 -10 9 4 -5 14 -24 23 -24 12z"/>
<path d="M3340 5063 c0 -15 18 -35 23 -27 3 5 -1 15 -9 22 -8 7 -14 9 -14 5z"/>
<path d="M3425 5029 c-4 -6 -5 -12 -2 -15 2 -3 7 2 10 11 7 17 1 20 -8 4z"/>
<path d="M2662 5375 c-7 -8 -9 -15 -4 -15 5 0 15 7 22 15 16 19 -1 19 -18 0z"/>
<path d="M2848 5383 c7 -3 16 -2 19 1 4 3 -2 6 -13 5 -11 0 -14 -3 -6 -6z"/>
<path d="M2918 5373 c7 -3 16 -2 19 1 4 3 -2 6 -13 5 -11 0 -14 -3 -6 -6z"/>
<path d="M2805 5340 c-16 -7 -17 -9 -3 -9 9 -1 20 4 23 9 7 11 7 11 -20 0z"/>
<path d="M2790 5240 c0 -5 5 -10 11 -10 5 0 7 5 4 10 -3 6 -8 10 -11 10 -2 0
-4 -4 -4 -10z"/>
<path d="M2940 5175 c-7 -8 -9 -15 -6 -15 4 0 14 7 22 15 9 8 11 15 6 15 -5 0
-15 -7 -22 -15z"/>
<path d="M2947 5073 c-13 -13 -7 -33 11 -33 13 0 14 2 3 9 -7 5 -10 14 -7 20
8 12 3 15 -7 4z"/>
<path d="M4496 3332 c-3 -5 1 -9 9 -9 8 0 12 4 9 9 -3 4 -7 8 -9 8 -2 0 -6 -4
-9 -8z"/>
<path d="M4550 3225 c0 -5 5 -17 10 -25 5 -8 10 -10 10 -5 0 6 -5 17 -10 25
-5 8 -10 11 -10 5z"/>
<path d="M4676 3122 c-3 -5 1 -9 9 -9 8 0 12 4 9 9 -3 4 -7 8 -9 8 -2 0 -6 -4
-9 -8z"/>
<path d="M4640 3043 c0 -22 22 -26 38 -7 16 17 16 17 -1 4 -16 -12 -20 -12
-28 1 -5 9 -9 10 -9 2z"/>
<path d="M4355 3359 c-4 -6 -5 -12 -2 -15 2 -3 7 2 10 11 7 17 1 20 -8 4z"/>
<path d="M4397 3340 c-9 -11 -13 -20 -7 -20 5 0 14 9 20 20 6 11 9 20 8 20 -2
0 -11 -9 -21 -20z"/>
<path d="M4831 3059 c-1 -8 11 -26 27 -40 l27 -24 -21 25 c-12 14 -24 32 -27
40 -5 13 -6 13 -6 -1z"/>
<path d="M5213 3224 c18 -22 18 -22 -22 -20 -22 1 -43 5 -47 9 -10 10 -62 -21
-76 -46 -15 -28 -12 -75 7 -94 8 -8 13 -18 11 -22 -3 -4 22 -7 54 -6 32 0 56
3 54 6 -2 3 6 16 17 27 21 24 19 58 -8 100 -14 22 -13 23 5 18 30 -10 35 8 9
30 l-22 19 18 -21z"/>
<path d="M5078 3213 c7 -3 16 -2 19 1 4 3 -2 6 -13 5 -11 0 -14 -3 -6 -6z"/>
<path d="M5251 3164 c0 -11 3 -14 6 -6 3 7 2 16 -1 19 -3 4 -6 -2 -5 -13z"/>
<path d="M5255 3110 c-4 -12 -2 -27 3 -32 8 -8 9 -4 6 13 -5 19 -4 21 5 9 13
-18 15 -1 2 19 -7 11 -10 9 -16 -9z"/>
<path d="M5044 3071 c5 -8 3 -17 -5 -22 -8 -5 -9 -9 -4 -9 6 0 16 4 23 9 10 6
9 11 -4 22 -14 11 -16 11 -10 0z"/>
<path d="M5085 3010 c3 -5 14 -10 23 -10 15 0 15 2 2 10 -20 13 -33 13 -25 0z"/>
<path d="M4388 3033 c7 -3 16 -2 19 1 4 3 -2 6 -13 5 -11 0 -14 -3 -6 -6z"/>
<path d="M2280 7200 c0 -5 5 -10 11 -10 5 0 7 5 4 10 -3 6 -8 10 -11 10 -2 0
-4 -4 -4 -10z"/>
<path d="M2350 7160 c0 -5 5 -10 11 -10 5 0 7 5 4 10 -3 6 -8 10 -11 10 -2 0
-4 -4 -4 -10z"/>
<path d="M5230 7156 c0 -4 7 -14 15 -22 8 -9 15 -11 15 -6 0 5 -7 15 -15 22
-8 7 -15 9 -15 6z"/>
<path d="M2415 7100 c-3 -5 -1 -10 4 -10 6 0 11 5 11 10 0 6 -2 10 -4 10 -3 0
-8 -4 -11 -10z"/>
<path d="M4620 7095 c-14 -8 -20 -14 -14 -15 5 0 19 7 30 15 24 18 16 19 -16
0z"/>
<path d="M4635 7070 c-3 -6 1 -7 9 -4 18 7 21 14 7 14 -6 0 -13 -4 -16 -10z"/>
<path d="M1880 6024 c-130 -62 -233 -146 -281 -229 -26 -45 -29 -59 -29 -142
l0 -93 295 0 295 0 0 250 0 250 -103 0 c-97 0 -107 -2 -177 -36z"/>
<path d="M5520 5810 l0 -250 1575 0 1575 0 0 93 c0 83 -3 97 -29 142 -48 83
-151 167 -281 229 l-74 36 -1383 0 -1383 0 0 -250z"/>
<path d="M1570 5150 l0 -250 295 0 295 0 0 250 0 250 -295 0 -295 0 0 -250z"/>
<path d="M5520 5151 l0 -249 1575 -1 1575 -1 0 250 0 250 -634 0 -635 0 -3
-106 c-2 -58 0 -108 4 -110 4 -3 30 17 58 43 43 40 57 48 96 50 30 2 43 -1 39
-8 -4 -6 -13 -8 -21 -5 -8 3 -11 0 -7 -10 3 -7 1 -14 -3 -14 -5 0 -29 -19 -53
-41 -37 -36 -42 -45 -33 -60 10 -15 9 -17 -6 -13 -13 5 -14 4 -3 -4 8 -6 20
-8 28 -5 12 5 18 -8 14 -30 -1 -5 2 -6 7 -3 5 3 28 -15 52 -39 l44 -45 -39 0
c-35 1 -47 8 -100 60 -33 33 -64 60 -70 60 -6 0 -10 -26 -10 -57 0 -53 -2 -58
-24 -61 -24 -4 -41 11 -41 36 0 8 5 10 13 6 9 -6 9 -5 -1 8 -9 11 -12 59 -10
182 l3 166 -490 0 c-433 -1 -488 -2 -471 -15 11 -8 24 -15 30 -15 5 0 0 -9
-11 -19 -22 -21 -69 -18 -56 3 4 6 -1 5 -10 -3 -9 -7 -31 -12 -50 -9 -32 3
-33 2 -36 -34 -1 -27 3 -40 14 -44 8 -3 12 -10 9 -16 -3 -5 0 -8 7 -6 8 1 33
-5 56 -14 33 -14 40 -21 36 -38 -3 -11 0 -20 6 -20 5 0 8 7 5 15 -9 23 9 17
28 -9 27 -38 19 -107 -18 -143 -13 -14 -44 -7 -56 11 -5 8 -8 7 -8 -1 0 -7 8
-16 17 -21 13 -8 8 -11 -23 -16 -21 -3 -51 -4 -66 -2 -36 5 -100 45 -92 57 6
10 30 -4 46 -26 5 -6 8 -6 8 1 0 6 -7 17 -15 24 -19 16 -19 30 1 30 9 0 12 -5
8 -12 -4 -6 -3 -8 3 -5 6 4 29 -1 51 -10 38 -15 43 -15 67 1 14 9 25 26 25 39
0 18 2 19 10 7 5 -8 10 -10 10 -5 -1 24 -39 56 -95 79 -39 16 -70 37 -89 60
-30 36 -30 37 -14 79 13 35 19 42 39 39 17 -1 20 0 10 7 -11 7 -10 11 5 20 15
8 3 10 -55 11 -41 0 -71 -3 -68 -7 4 -3 3 -11 -3 -17 -5 -7 -5 -17 2 -26 8
-12 9 -12 4 2 -5 18 9 34 18 20 10 -16 -25 -53 -46 -50 -25 4 -48 35 -33 46 6
4 11 13 13 20 1 9 -57 12 -268 12 l-270 0 0 -249z m1048 158 l3 -36 50 3 c27
2 49 2 49 -1 0 -2 -7 -11 -16 -19 -14 -15 -14 -16 2 -16 10 0 14 -3 10 -7 -9
-9 -14 -10 -63 -12 l-38 -1 2 -72 c1 -56 6 -75 20 -85 9 -8 23 -11 30 -9 7 3
13 1 13 -4 0 -6 6 -9 13 -7 6 1 12 -7 12 -17 0 -14 -9 -20 -37 -23 -22 -2 -38
1 -38 7 0 5 -9 10 -20 10 -33 0 -55 47 -57 125 -1 38 -2 73 -3 77 0 4 -16 5
-35 3 -19 -3 -35 -2 -36 3 0 4 -2 17 -5 30 -2 12 1 22 6 22 6 0 11 -8 11 -17
1 -17 2 -17 6 0 3 11 14 17 33 17 25 0 28 3 26 28 -5 36 -2 39 31 38 25 -1 28
-5 31 -37z m-458 -150 c0 -88 -3 -118 -12 -113 -7 5 -8 3 -2 -7 17 -28 12 -39
-17 -39 l-29 0 0 140 0 140 30 0 30 0 0 -121z m799 103 c49 -24 73 -62 78
-122 2 -30 0 -49 -5 -46 -5 3 -12 -7 -15 -22 -9 -42 -68 -71 -137 -67 -102 7
-156 85 -129 185 6 22 56 70 74 70 8 0 15 5 15 10 0 16 82 11 119 -8z m321 5
c25 -13 33 -42 17 -64 -7 -9 -16 -7 -36 8 -21 15 -35 18 -57 13 -33 -9 -56 -6
-65 8 -4 7 -9 6 -13 -1 -4 -6 -4 -11 1 -11 4 0 14 -4 22 -9 11 -7 12 -13 4
-23 -10 -12 -17 -47 -14 -75 4 -44 93 -69 137 -39 17 12 23 12 43 -3 21 -16
22 -19 7 -34 -9 -8 -40 -21 -69 -27 -48 -11 -58 -10 -100 8 -34 15 -45 25 -41
37 5 11 2 14 -12 8 -13 -5 -16 -3 -11 10 4 10 2 17 -5 17 -6 0 -8 3 -5 7 4 3
2 12 -4 19 -15 18 -2 83 17 91 7 3 14 11 14 18 0 40 117 69 170 42z"/>
<path d="M6543 5175 c0 -33 2 -45 4 -27 2 18 2 45 0 60 -2 15 -4 0 -4 -33z"/>
<path d="M6567 5049 c7 -7 15 -10 18 -7 3 3 -2 9 -12 12 -14 6 -15 5 -6 -5z"/>
<path d="M6608 5023 c7 -3 16 -2 19 1 4 3 -2 6 -13 5 -11 0 -14 -3 -6 -6z"/>
<path d="M6760 5239 c0 -5 5 -7 10 -4 6 3 10 8 10 11 0 2 -4 4 -10 4 -5 0 -10
-5 -10 -11z"/>
<path d="M6838 5243 c7 -3 16 -2 19 1 4 3 -2 6 -13 5 -11 0 -14 -3 -6 -6z"/>
<path d="M6772 5193 c-6 -16 -13 -50 -16 -78 -2 -27 -2 -44 1 -38 4 10 10 10
26 -2 12 -8 31 -15 43 -15 32 0 55 -11 48 -22 -10 -15 39 13 53 31 7 9 12 21
12 26 0 6 -9 -2 -20 -17 -11 -16 -25 -28 -30 -28 -6 0 1 15 16 34 20 26 24 40
19 67 -4 19 -11 39 -15 45 -5 6 -6 14 -2 17 3 4 -23 7 -59 7 -62 0 -66 -1 -76
-27z"/>
<path d="M6946 5075 c-9 -26 -7 -32 5 -12 6 10 9 21 6 23 -2 3 -7 -2 -11 -11z"/>
<path d="M6784 5045 c8 -8 18 -15 22 -15 3 0 1 7 -6 15 -7 8 -17 15 -22 15 -5
0 -3 -7 6 -15z"/>
<path d="M7138 5263 c7 -3 16 -2 19 1 4 3 -2 6 -13 5 -11 0 -14 -3 -6 -6z"/>
<path d="M7220 5240 c-9 -6 -10 -10 -3 -10 6 0 15 5 18 10 8 12 4 12 -15 0z"/>
<path d="M7138 5233 c7 -3 16 -2 19 1 4 3 -2 6 -13 5 -11 0 -14 -3 -6 -6z"/>
<path d="M7052 5170 c0 -14 2 -19 5 -12 2 6 2 18 0 25 -3 6 -5 1 -5 -13z"/>
<path d="M7208 5023 c7 -3 16 -2 19 1 4 3 -2 6 -13 5 -11 0 -14 -3 -6 -6z"/>
<path d="M6070 5390 c0 -5 5 -10 10 -10 6 0 10 5 10 10 0 6 -4 10 -10 10 -5 0
-10 -4 -10 -10z"/>
<path d="M6358 5363 c7 -3 16 -2 19 1 4 3 -2 6 -13 5 -11 0 -14 -3 -6 -6z"/>
<path d="M6067 5344 c6 -15 23 -19 23 -5 0 5 -7 11 -14 14 -10 4 -13 1 -9 -9z"/>
<path d="M6221 5284 c0 -11 3 -14 6 -6 3 7 2 16 -1 19 -3 4 -6 -2 -5 -13z"/>
<path d="M716 5243 c-6 -14 -5 -15 5 -6 7 7 10 15 7 18 -3 3 -9 -2 -12 -12z"/>
<path d="M7508 5238 c5 -5 16 -8 23 -6 8 3 3 7 -10 11 -17 4 -21 3 -13 -5z"/>
<path d="M6290 5219 c0 -5 9 -9 19 -9 11 0 21 -8 23 -17 3 -17 4 -17 10 -1 5
12 -1 19 -23 27 -18 6 -29 6 -29 0z"/>
<path d="M7484 5222 c3 -5 0 -13 -6 -15 -9 -4 -10 -6 -1 -6 17 -1 25 16 12 25
-7 4 -9 3 -5 -4z"/>
<path d="M7356 5112 c-2 -4 4 -13 15 -20 22 -14 25 -7 5 14 -8 8 -17 11 -20 6z"/>
<path d="M7470 5091 c0 -10 19 -25 25 -20 1 2 -3 10 -11 17 -8 7 -14 8 -14 3z"/>
<path d="M6371 5074 c0 -11 3 -14 6 -6 3 7 2 16 -1 19 -3 4 -6 -2 -5 -13z"/>
<path d="M707 5055 c3 -8 9 -12 14 -9 12 7 11 11 -5 17 -10 4 -13 1 -9 -8z"/>
<path d="M7365 5050 c-3 -6 1 -7 9 -4 18 7 21 14 7 14 -6 0 -13 -4 -16 -10z"/>
<path d="M6268 5023 c7 -3 16 -2 19 1 4 3 -2 6 -13 5 -11 0 -14 -3 -6 -6z"/>
<path d="M1570 4590 l0 -150 295 0 295 0 0 150 0 150 -295 0 -295 0 0 -150z"/>
<path d="M5520 4590 l0 -150 1575 0 1575 0 0 150 0 150 -1575 0 -1575 0 0
-150z"/>
<path d="M6109 4240 c-46 -13 -78 -41 -99 -84 -43 -89 -14 -205 86 -345 33
-46 30 -70 -12 -132 -120 -176 -124 -331 -14 -500 28 -41 50 -85 50 -96 0 -12
-16 -45 -36 -74 -87 -128 -111 -237 -80 -358 14 -56 65 -156 86 -171 15 -11
30 -50 30 -80 0 -76 70 -140 155 -140 98 0 155 61 155 167 0 79 -21 141 -76
224 -57 86 -57 110 1 194 54 80 75 146 75 240 0 94 -20 157 -75 235 -59 85
-59 111 0 196 55 81 75 145 75 241 0 89 -24 164 -76 234 -21 29 -40 70 -45 96
-12 62 -28 92 -69 124 -38 30 -91 42 -131 29z"/>
<path d="M6987 4236 c-76 -28 -110 -79 -108 -167 1 -75 29 -153 80 -227 48
-68 52 -104 15 -153 -14 -19 -40 -61 -57 -94 -27 -52 -31 -73 -35 -155 -5
-113 13 -177 77 -268 50 -70 52 -101 10 -162 -66 -98 -82 -140 -87 -229 -6
-115 9 -177 69 -265 29 -45 49 -85 49 -102 0 -38 35 -105 67 -129 18 -13 49
-21 89 -23 59 -4 63 -3 102 33 51 45 66 89 57 162 -10 78 -28 124 -80 202 -25
37 -45 78 -45 91 0 13 19 51 41 83 119 170 116 344 -11 519 -40 54 -36 84 19
162 57 82 76 143 74 246 -1 100 -15 145 -74 232 -28 40 -45 79 -50 110 -17
106 -109 167 -202 134z"/>
<path d="M7879 4240 c-83 -25 -124 -91 -116 -184 8 -89 23 -128 74 -204 60
-86 60 -111 6 -189 -49 -69 -83 -164 -83 -228 0 -41 2 -46 19 -40 13 4 26 -2
39 -15 16 -18 18 -25 8 -46 -11 -24 -26 -32 -26 -14 0 6 -4 10 -8 10 -5 0 -9
-15 -8 -32 1 -25 6 -34 22 -36 15 -2 20 -10 20 -35 0 -20 10 -47 26 -68 15
-18 29 -46 33 -61 4 -15 10 -27 14 -26 27 3 33 -2 20 -19 -13 -16 -12 -17 3
-5 9 8 22 10 29 7 6 -4 32 -8 58 -9 l46 -2 3 46 c2 41 0 47 -28 63 -18 11 -28
23 -23 30 4 7 -1 6 -11 -2 -15 -13 -22 -11 -59 15 -23 17 -48 43 -56 58 -11
24 -11 33 5 67 11 26 22 38 31 35 8 -3 11 -2 8 4 -6 10 25 30 47 30 10 0 9 -3
-2 -11 -12 -9 -12 -10 3 -5 10 3 21 6 23 6 3 0 2 5 -2 11 -7 11 13 9 69 -7 14
-4 17 1 17 34 0 29 8 49 31 78 114 141 119 344 13 495 -24 35 -44 73 -44 86 0
65 -60 147 -119 163 -41 11 -46 11 -82 0z"/>
<path d="M7780 3379 c0 -5 5 -7 10 -4 6 3 10 8 10 11 0 2 -4 4 -10 4 -5 0 -10
-5 -10 -11z"/>
<path d="M7792 3354 c-7 -8 -8 -14 -3 -14 10 0 25 19 20 25 -2 1 -10 -3 -17
-11z"/>
<path d="M7976 3355 c-11 -8 -15 -15 -9 -15 6 0 16 7 23 15 16 19 11 19 -14 0z"/>
<path d="M8030 3339 c21 -7 19 -8 -12 -5 -29 4 -42 -1 -63 -20 -14 -13 -21
-24 -15 -24 6 0 9 -4 6 -9 -8 -13 23 -37 84 -64 59 -26 94 -58 103 -95 6 -26
-15 -86 -27 -75 -4 4 -4 1 -1 -7 8 -22 -59 -55 -109 -55 -23 0 -60 10 -84 22
l-42 23 -31 -43 c-40 -53 -62 -105 -56 -129 3 -10 1 -20 -4 -23 -4 -3 -4 -16
1 -30 7 -17 5 -25 -6 -29 -38 -15 0 -170 66 -267 27 -40 44 -78 49 -109 15
-91 69 -140 157 -140 65 0 126 40 144 96 27 81 -7 219 -76 309 -31 41 -48 112
-30 131 35 41 43 50 58 78 43 77 51 105 56 181 5 100 -6 149 -36 153 -23 4
-29 26 -13 51 8 13 -5 42 -37 81 -2 3 -10 -4 -18 -14 -8 -11 -14 -14 -14 -7 0
7 -4 10 -9 7 -5 -3 -11 1 -15 9 -3 8 -16 15 -28 14 -23 -1 -22 -1 2 -10z m94
-448 c4 -5 -3 -7 -13 -4 -13 3 -29 -4 -45 -21 -14 -14 -26 -22 -26 -18 1 31
70 66 84 43z m-262 -56 c9 -21 8 -28 -7 -45 -10 -11 -28 -19 -39 -19 -20 1
-20 2 -1 6 45 11 57 39 29 67 -8 9 -11 16 -4 16 6 0 16 -11 22 -25z m91 -10
c-3 -9 -8 -14 -10 -11 -3 3 -2 9 2 15 9 16 15 13 8 -4z m-33 -30 c0 -5 -5 -3
-10 5 -5 8 -10 20 -10 25 0 6 5 3 10 -5 5 -8 10 -19 10 -25z m140 4 c0 -6 -4
-7 -10 -4 -5 3 -10 11 -10 16 0 6 5 7 10 4 6 -3 10 -11 10 -16z m-127 -29 c-3
-11 -10 -23 -16 -27 -5 -3 -8 -2 -5 3 3 5 8 17 11 27 9 24 16 22 10 -3z"/>
<path d="M7935 3331 c-3 -6 -11 -9 -16 -6 -5 4 -9 1 -9 -4 0 -13 10 -14 30 -1
8 5 12 12 8 15 -3 4 -9 1 -13 -4z"/>
<path d="M7900 3286 c0 -2 7 -9 15 -16 9 -7 15 -8 15 -2 0 5 -7 12 -15 16 -8
3 -15 4 -15 2z"/>
<path d="M7910 3240 c0 -5 5 -10 11 -10 5 0 7 5 4 10 -3 6 -8 10 -11 10 -2 0
-4 -4 -4 -10z"/>
<path d="M8034 3196 c11 -9 24 -16 30 -16 12 0 7 5 -24 19 -24 11 -24 11 -6
-3z"/>
<path d="M8073 3115 c0 -8 4 -12 9 -9 4 3 8 9 8 15 0 5 -4 9 -8 9 -5 0 -9 -7
-9 -15z"/>
<path d="M8096 3094 c-4 -14 -5 -28 -3 -31 3 -2 8 8 11 23 4 14 5 28 3 31 -3
2 -8 -8 -11 -23z"/>
<path d="M2435 3019 c-4 -6 -5 -12 -2 -15 2 -3 7 2 10 11 7 17 1 20 -8 4z"/>
<path d="M8068 3023 c7 -3 16 -2 19 1 4 3 -2 6 -13 5 -11 0 -14 -3 -6 -6z"/>
<path d="M8020 3011 c0 -6 -8 -11 -17 -12 -10 0 -13 -3 -6 -5 18 -8 49 11 34
20 -6 4 -11 2 -11 -3z"/>
<path d="M7948 3003 c7 -3 16 -2 19 1 4 3 -2 6 -13 5 -11 0 -14 -3 -6 -6z"/>
<path d="M7761 2794 c0 -11 3 -14 6 -6 3 7 2 16 -1 19 -3 4 -6 -2 -5 -13z"/>
</g>
</svg>
