<?xml version="1.0" standalone="no"?>
<!DOCTYPE svg PUBLIC "-//W3C//DTD SVG 20010904//EN"
 "http://www.w3.org/TR/2001/REC-SVG-20010904/DTD/svg10.dtd">
<svg version="1.0" xmlns="http://www.w3.org/2000/svg"
 width="225.000000pt" height="225.000000pt" viewBox="0 0 225.000000 225.000000"
 preserveAspectRatio="xMidYMid meet">

<g transform="translate(0.000000,225.000000) scale(0.100000,-0.100000)"
fill="#000000" stroke="none">
<path d="M700 2049 c-186 -22 -361 -105 -406 -192 -9 -16 -35 -142 -59 -280
l-45 -252 0 -308 c0 -337 2 -348 59 -401 30 -29 31 -33 31 -114 0 -128 -10
-122 191 -122 l169 0 11 28 c6 15 9 55 7 90 l-3 62 47 0 46 0 4 163 5 162 80
202 c45 111 84 207 88 212 4 8 -80 11 -271 11 l-277 0 6 43 c44 343 51 380 71
410 27 39 80 71 171 100 65 20 89 22 310 22 198 0 251 -3 304 -18 86 -24 173
-71 194 -107 14 -23 57 -284 57 -342 0 -5 41 -8 90 -8 89 0 90 0 85 23 -3 12
-19 103 -36 202 -33 195 -53 252 -104 290 -47 37 -179 91 -265 110 -89 20
-444 29 -560 14z m-148 -929 c45 -13 95 -68 104 -114 10 -55 -26 -119 -82
-146 -56 -28 -101 -21 -149 21 -94 83 -45 227 85 248 3 1 22 -4 42 -9z"/>
<path d="M1064 1300 c-38 -15 -61 -57 -138 -250 l-76 -190 0 -323 c0 -238 3
-326 12 -335 17 -17 232 -16 246 1 6 7 12 49 14 92 l3 80 328 3 327 2 0 -76
c0 -115 -1 -114 138 -114 79 0 122 4 130 12 9 9 12 96 12 330 l0 318 -71 177
c-93 234 -97 242 -133 264 -29 18 -56 19 -401 18 -203 0 -380 -4 -391 -9z
m710 -162 c22 -35 129 -288 124 -293 -3 -3 -206 -4 -451 -3 l-446 3 65 150
c36 82 70 153 77 157 7 4 148 8 314 8 l303 0 14 -22z m-627 -408 c119 -72 81
-244 -56 -258 -88 -8 -151 50 -151 139 0 107 117 174 207 119z m754 -3 c65
-43 86 -124 49 -185 -42 -69 -130 -92 -197 -51 -42 26 -63 66 -63 120 0 109
121 176 211 116z"/>
</g>
</svg>
