<?xml version="1.0" standalone="no"?>
<!DOCTYPE svg PUBLIC "-//W3C//DTD SVG 20010904//EN"
 "http://www.w3.org/TR/2001/REC-SVG-20010904/DTD/svg10.dtd">
<svg version="1.0" xmlns="http://www.w3.org/2000/svg"
 width="1300.000000pt" height="1390.000000pt" viewBox="0 0 1300.000000 1390.000000"
 preserveAspectRatio="xMidYMid meet">

<g transform="translate(0.000000,1390.000000) scale(0.100000,-0.100000)"
fill="#000000" stroke="none">
<path d="M9475 13082 c-48 -25 -99 -65 -162 -128 l-92 -91 -3 -147 c-2 -80 -2
-146 -1 -146 4 0 83 119 83 124 0 4 -16 6 -36 6 -34 0 -36 1 -29 28 15 62 66
94 125 79 15 -4 46 21 130 104 60 60 114 109 120 109 5 0 10 5 10 10 0 19 -50
90 -63 90 -6 0 -43 -17 -82 -38z"/>
<path d="M9123 12723 c-9 -14 -13 -64 -13 -142 l0 -121 -30 0 c-17 0 -33 7
-39 17 -9 17 -11 16 -30 -1 -12 -11 -29 -16 -40 -13 -25 6 -31 -1 -128 -158
-229 -372 -389 -674 -577 -1092 l-118 -261 -43 16 c-41 15 -46 14 -101 -6
l-58 -21 -166 88 c-91 49 -292 157 -448 240 -155 83 -389 206 -520 273 -130
66 -241 124 -246 129 -4 4 14 10 40 14 107 14 107 14 9 61 -141 69 -292 99
-625 124 -247 19 -928 28 -1535 20 -701 -9 -667 -5 -1049 -123 l-169 -51 48
-11 48 -10 -39 -14 c-251 -88 -849 -344 -1215 -520 -137 -65 -220 -92 -386
-121 -59 -11 -146 -28 -193 -39 -100 -23 -288 -47 -490 -61 -234 -16 -247 -23
-269 -145 -20 -106 -54 -95 304 -95 301 0 315 -1 315 -19 0 -41 -178 -228
-253 -266 -48 -24 -59 -25 -214 -25 l-163 0 0 -134 0 -133 -51 -69 c-28 -38
-55 -77 -60 -86 -9 -17 -32 -268 -26 -275 2 -2 84 -14 182 -28 98 -14 187 -27
197 -31 23 -7 34 -49 19 -80 -13 -30 -37 -31 -214 -4 -73 11 -146 22 -163 24
-30 4 -33 2 -42 -34 -27 -108 115 -242 286 -269 37 -6 132 -19 212 -30 157
-22 884 -156 900 -166 6 -3 10 -12 10 -19 0 -8 19 -51 41 -96 33 -66 44 -79
51 -66 6 10 22 16 43 16 29 0 35 -4 35 -22 l0 -22 16 22 c18 27 48 28 72 4 13
-13 23 -16 34 -9 13 9 9 19 -30 71 -139 187 -159 415 -56 626 70 143 231 272
384 308 142 34 283 18 410 -44 94 -46 210 -160 258 -251 174 -333 12 -728
-348 -849 -41 -14 -85 -19 -172 -19 l-118 0 0 -91 0 -91 63 -7 c215 -22 471
81 626 250 53 58 137 190 148 232 l6 24 341 -6 c354 -7 1382 -19 3006 -36 520
-5 1170 -12 1446 -16 l500 -6 29 -57 c18 -35 65 -92 125 -152 81 -81 109 -102
190 -142 136 -66 200 -82 350 -82 100 0 141 5 204 23 192 55 359 182 458 347
l31 53 196 5 c210 5 245 11 552 81 245 56 308 72 387 97 l63 21 -3 411 c-4
494 1 473 -106 508 l-69 22 -17 52 c-34 110 -140 236 -258 307 -71 44 -132 68
-281 111 l-107 31 49 49 48 49 84 -41 c220 -108 477 -110 697 -6 84 40 127 70
199 139 29 27 54 48 56 45 2 -2 29 -45 60 -95 67 -111 131 -237 164 -324 14
-36 33 -74 43 -85 11 -11 54 -101 96 -200 l76 -180 -17 -150 -18 -150 57 -425
c31 -234 56 -435 56 -446 0 -16 -19 -34 -65 -64 -78 -51 -105 -82 -105 -122 0
-33 39 -78 68 -78 24 0 317 106 347 126 33 22 35 43 13 136 -13 54 -29 212
-48 458 l-28 375 43 230 c24 127 50 243 59 260 26 49 29 105 11 210 -59 348
-187 696 -341 927 -97 145 -166 190 -294 191 -156 1 -269 -94 -301 -252 -27
-137 -173 -270 -350 -316 -102 -27 -299 -6 -344 37 -16 16 52 65 122 89 71 23
86 42 96 121 8 60 -4 68 -31 19 -33 -58 -46 -66 -83 -51 -17 7 -37 23 -45 35
-13 20 -12 27 12 69 14 26 24 50 21 53 -9 8 -74 -35 -97 -64 -12 -16 -20 -41
-20 -65 0 -72 -57 -141 -142 -172 -51 -19 -81 -52 -92 -102 -4 -20 -36 -59
-91 -114 l-85 -84 -77 17 c-421 91 -996 195 -1235 222 -153 17 -522 45 -600
45 -88 0 -88 -1 -15 171 36 85 83 192 105 239 46 101 340 646 474 880 52 91
103 181 114 200 17 31 18 50 14 180 -4 123 -7 142 -17 123z m-4021 -1133 c4
-41 14 -142 23 -225 8 -82 22 -213 30 -290 8 -77 15 -153 15 -170 l0 -30 -632
7 c-900 10 -1604 26 -1668 38 -79 14 -138 38 -145 60 -23 73 193 239 613 469
223 123 412 198 527 211 39 4 331 7 650 6 l580 -1 7 -75z m501 70 c566 -24
868 -105 1332 -357 546 -297 688 -380 699 -408 6 -17 -15 -30 -67 -39 -36 -7
-43 -3 -105 47 -96 78 -164 125 -206 142 -32 14 -40 14 -65 1 -32 -17 -123
-113 -161 -170 l-25 -37 -200 6 c-368 11 -1098 25 -1308 25 -157 0 -209 3
-212 13 -3 6 -20 167 -40 357 -19 190 -38 364 -41 388 l-6 42 88 0 c49 0 192
-5 317 -10z m5013 -1275 c172 -35 234 -60 256 -105 21 -41 24 -155 7 -194 -7
-13 -26 -30 -43 -38 -41 -17 -136 -14 -174 6 -37 19 -272 266 -291 306 -12 25
-12 32 0 46 16 20 56 16 245 -21z m-7079 -263 c8 -11 12 -51 13 -114 0 -90 -2
-98 -19 -98 -11 0 -21 6 -24 13 -4 10 -7 10 -18 0 -29 -28 -68 -1 -68 47 0 30
14 50 52 74 27 19 36 49 16 61 -6 4 -13 -2 -16 -14 -7 -27 -53 -30 -53 -3 0
21 19 47 40 55 23 9 62 -2 77 -21z m3000 0 c18 -24 18 -212 0 -212 -7 0 -18 5
-24 11 -8 8 -16 7 -31 -2 -42 -27 -82 49 -49 92 7 8 24 24 40 33 29 19 37 56
12 56 -8 0 -15 -7 -15 -15 0 -9 -9 -15 -25 -15 -17 0 -25 5 -25 18 1 17 30 64
30 47 0 -5 6 -3 12 3 16 16 57 7 75 -16z m3000 0 c8 -11 12 -51 13 -114 0 -90
-2 -98 -19 -98 -11 0 -21 5 -23 12 -2 6 -10 8 -16 4 -21 -13 -13 -26 16 -26
93 0 251 -78 341 -168 113 -114 174 -259 174 -417 0 -100 -16 -170 -58 -260
-142 -300 -513 -423 -809 -267 -108 57 -197 146 -250 253 -24 48 -50 114 -56
146 -18 83 -8 243 19 317 79 223 273 374 513 401 53 6 57 8 48 25 -23 43 -8
81 43 114 27 19 36 49 16 61 -6 4 -13 -2 -16 -14 -7 -27 -53 -30 -53 -3 0 21
19 47 40 55 23 9 62 -2 77 -21z m1662 -588 c21 -15 23 -21 16 -83 -8 -80 -22
-138 -36 -146 -12 -8 -229 -34 -281 -35 l-38 0 0 48 c0 26 8 84 17 129 21 101
22 101 183 102 92 1 120 -2 139 -15z"/>
<path d="M3474 10006 c-8 -20 -1 -47 11 -49 6 -1 11 13 13 31 3 32 -14 45 -24
18z"/>
<path d="M6482 10013 c-15 -26 -16 -63 -2 -63 15 0 22 23 18 57 -3 28 -3 28
-16 6z"/>
<path d="M9474 10006 c-8 -20 -1 -47 11 -49 6 -1 11 13 13 31 3 32 -14 45 -24
18z"/>
<path d="M9355 9789 c-134 -20 -283 -124 -347 -245 -53 -99 -72 -236 -47 -343
38 -164 175 -304 348 -355 154 -45 344 7 461 125 97 98 140 203 140 339 -1
134 -35 227 -120 322 -109 122 -270 180 -435 157z m55 -204 c0 -158 1 -165 20
-165 19 0 20 7 20 166 l0 166 48 -7 c55 -7 154 -52 197 -88 l30 -26 -109 -109
c-72 -73 -104 -112 -96 -117 10 -6 107 80 201 178 16 17 18 16 48 -20 37 -45
70 -128 78 -195 l6 -48 -137 0 c-114 0 -136 -2 -136 -15 0 -13 21 -15 131 -15
l132 0 -6 -51 c-7 -54 -50 -155 -86 -199 l-20 -25 -90 89 c-56 56 -93 86 -101
81 -8 -5 18 -38 81 -101 83 -83 91 -95 78 -110 -37 -45 -155 -94 -226 -94
l-33 0 0 135 c0 83 -4 135 -10 135 -6 0 -10 -52 -10 -136 l0 -136 -54 4 c-59
5 -170 53 -201 88 -19 21 -18 22 79 119 63 63 96 103 91 111 -5 8 -40 -20
-106 -86 l-98 -98 -20 25 c-35 41 -79 141 -87 197 l-7 52 147 0 c123 0 146 2
146 15 0 13 -23 15 -151 15 l-151 0 7 53 c7 57 70 194 97 211 15 9 35 -6 127
-98 73 -72 111 -104 116 -96 5 8 -33 53 -106 126 l-114 114 30 25 c58 49 160
92 223 94 22 1 22 1 22 -164z"/>
<path d="M9391 9360 c-19 -11 -9 -45 14 -45 13 0 21 8 23 21 3 23 -17 37 -37
24z"/>
<path d="M9474 9335 c-4 -9 -2 -21 4 -27 16 -16 47 -5 47 17 0 26 -42 34 -51
10z"/>
<path d="M9367 9257 c-8 -21 8 -39 29 -35 27 5 25 42 -2 46 -12 2 -24 -3 -27
-11z"/>
<path d="M9464 9246 c-8 -21 13 -46 32 -39 20 8 13 47 -9 51 -9 2 -20 -4 -23
-12z"/>
<path d="M9310 12724 c0 -8 5 -12 10 -9 6 3 10 10 10 16 0 5 -4 9 -10 9 -5 0
-10 -7 -10 -16z"/>
<path d="M9007 12562 c-18 -31 -12 -47 12 -33 7 5 11 20 9 35 l-3 28 -18 -30z"/>
<path d="M11417 11976 c-60 -16 -113 -59 -152 -121 -26 -42 -30 -60 -34 -134
l-3 -85 -50 -44 c-111 -100 -91 -144 38 -83 l62 29 33 -34 c96 -99 253 -100
351 -2 146 147 86 416 -106 473 -59 18 -76 18 -139 1z"/>
<path d="M11825 10228 c-16 -40 -70 -179 -120 -310 l-92 -236 28 -414 c31
-460 34 -517 28 -521 -2 -2 -39 -14 -81 -27 l-78 -24 0 -83 0 -83 159 0 c88 0
171 4 186 10 14 5 30 22 36 37 8 19 11 181 10 523 l-2 495 64 156 65 157 -50
113 c-27 63 -63 148 -79 189 -17 41 -34 79 -39 83 -4 5 -20 -24 -35 -65z"/>
<path d="M2648 9790 c-163 -27 -292 -120 -362 -261 -95 -190 -60 -406 90 -556
34 -35 69 -63 78 -63 9 0 26 -10 38 -22 l22 -22 6 24 c5 21 -1 30 -42 58 -26
18 -48 34 -48 37 0 2 46 49 103 104 79 77 99 102 90 112 -9 9 -32 -10 -104
-85 -50 -53 -95 -96 -100 -96 -15 0 -68 80 -88 134 -10 28 -21 70 -24 94 l-4
42 143 0 c121 0 144 2 144 15 0 13 -23 15 -146 15 l-147 0 6 61 c6 67 43 152
82 189 l26 24 107 -107 c83 -82 110 -104 122 -97 12 8 -8 32 -100 125 l-115
116 39 35 c43 37 117 68 189 79 l47 7 0 -166 c0 -141 2 -166 15 -166 13 0 15
25 15 166 l0 166 47 -7 c72 -11 146 -42 189 -79 l39 -35 -109 -110 c-90 -90
-107 -111 -92 -117 14 -5 41 17 117 92 l98 98 24 -22 c40 -37 78 -125 84 -191
l6 -61 -136 0 c-117 0 -136 -2 -131 -15 5 -12 29 -15 129 -15 68 0 126 -3 129
-8 17 -27 -40 -181 -88 -237 l-26 -30 -84 88 c-78 81 -106 101 -106 77 0 -5
41 -52 91 -102 l90 -93 -28 -23 c-48 -39 -128 -73 -187 -79 l-55 -6 -3 133
c-2 96 -7 135 -15 138 -10 3 -13 -28 -13 -134 l0 -137 -53 6 c-52 5 -54 4 -49
-18 5 -27 34 -35 127 -35 173 0 348 114 425 276 88 183 49 403 -98 549 -105
105 -264 158 -404 135z"/>
<path d="M2672 9358 c-17 -17 -15 -35 5 -42 21 -8 36 6 31 30 -4 22 -20 28
-36 12z"/>
<path d="M2767 9344 c-4 -4 -7 -16 -7 -26 0 -14 6 -19 23 -16 14 2 22 10 22
23 0 20 -25 32 -38 19z"/>
<path d="M2654 9255 c-4 -9 -2 -21 4 -27 15 -15 44 -1 40 19 -4 23 -36 29 -44
8z"/>
<path d="M2747 9247 c-8 -21 8 -39 29 -35 27 5 25 42 -2 46 -12 2 -24 -3 -27
-11z"/>
<path d="M2156 8843 c-12 -12 -6 -71 9 -83 13 -11 18 -11 28 0 9 10 9 11 0 6
-10 -5 -13 4 -13 33 0 38 -10 57 -24 44z"/>
<path d="M2260 8762 c0 -72 9 -102 32 -102 4 0 8 41 8 90 0 83 -1 90 -20 90
-18 0 -20 -7 -20 -78z"/>
<path d="M2382 8713 c3 -95 5 -108 21 -111 16 -3 17 -1 8 16 -6 12 -11 59 -11
106 0 48 -5 88 -10 91 -7 5 -10 -29 -8 -102z"/>
<path d="M2480 8696 c0 -60 2 -66 20 -66 19 0 21 5 18 62 -2 50 -6 63 -20 66
-16 3 -18 -5 -18 -62z"/>
<path d="M2502 8584 c-11 -12 -10 -15 3 -20 20 -8 24 -3 16 17 -5 15 -8 15
-19 3z"/>
<path d="M5011 8387 c-7 -10 -12 -167 -13 -522 l-3 -508 -75 2 c-152 3 -1029
-19 -1150 -29 -168 -15 -362 -55 -436 -89 -111 -52 -149 -116 -318 -537 -68
-170 -139 -345 -158 -389 l-35 -79 -62 -20 c-54 -18 -63 -18 -71 -6 -7 11 0
25 26 51 43 44 54 81 43 150 -14 88 -83 128 -198 114 -117 -13 -222 -95 -252
-196 -11 -35 -10 -43 8 -67 34 -47 87 -65 188 -66 50 -1 102 3 118 8 23 7 27
5 27 -12 0 -13 -15 -29 -42 -45 -77 -45 -118 -109 -118 -183 0 -58 -28 -151
-72 -237 -24 -49 -43 -104 -49 -141 -24 -170 -41 -485 -43 -776 -1 -311 -1
-316 22 -358 49 -92 63 -180 68 -417 3 -121 7 -235 10 -253 7 -47 65 -107 116
-121 29 -8 111 -11 249 -9 l206 3 36 28 c19 15 41 43 48 62 7 19 16 35 20 35
3 0 26 -9 50 -19 174 -76 767 -143 1395 -158 l283 -6 3 -91 3 -91 47 -3 48 -3
-5 43 c-6 47 2 62 48 91 29 19 37 57 12 57 -8 0 -15 -7 -15 -15 0 -9 -9 -15
-25 -15 -45 0 -26 59 25 75 20 6 59 -9 72 -29 4 -6 8 -55 8 -108 0 -88 -2 -98
-18 -98 -10 0 -22 4 -28 10 -6 6 -8 -162 -6 -455 2 -372 0 -465 -10 -465 -9 0
-52 -152 -129 -448 l-115 -447 -297 -3 -297 -2 0 -110 0 -110 1010 0 1010 0 0
110 0 110 -297 2 -298 3 -42 165 c-24 91 -75 289 -114 440 -39 152 -77 280
-85 286 -12 10 -14 93 -12 560 l3 549 150 7 c533 23 1030 93 1165 163 30 15
30 15 41 -12 15 -42 68 -92 109 -103 19 -5 124 -10 233 -10 227 0 251 6 295
73 27 40 27 41 34 301 8 288 14 325 60 429 l32 72 -1 185 c-2 230 -18 556 -39
760 -15 146 -18 160 -60 252 -49 108 -74 193 -74 250 0 70 -19 100 -119 180
-11 10 -21 26 -21 35 0 16 12 18 117 18 104 0 123 3 161 23 30 16 48 35 58 58
14 33 13 39 -6 80 -22 45 -93 114 -145 142 -16 8 -64 17 -106 20 -134 8 -199
-40 -199 -147 0 -55 14 -87 55 -124 31 -28 34 -35 23 -50 -12 -16 -17 -16 -80
5 l-68 22 -39 90 c-22 50 -92 220 -155 378 -125 312 -168 404 -223 467 -41 48
-118 91 -165 91 -18 0 -42 7 -52 15 -25 19 -36 19 -36 0 0 -11 -11 -15 -41
-15 -36 0 -40 2 -37 22 2 15 -3 24 -14 26 -14 3 -18 -3 -18 -22 0 -22 -5 -26
-29 -26 -18 0 -34 8 -43 22 l-15 22 -12 -22 c-21 -39 -91 -17 -91 30 0 23 -43
27 -362 34 l-288 7 0 512 c0 384 -3 514 -12 523 -18 18 -282 17 -297 -1z
m-321 -1367 l5 -75 40 -6 c22 -4 89 -7 150 -7 l110 -1 3 -250 2 -251 -315 0
c-173 0 -315 1 -315 3 -1 33 -31 219 -38 238 -23 58 -27 59 -380 59 -203 0
-330 -4 -343 -10 -30 -16 -44 -55 -70 -186 l-24 -122 -50 -6 c-27 -3 -93 -6
-146 -6 l-97 0 73 183 c134 336 177 401 291 437 76 23 201 46 304 56 94 9 516
21 675 20 l120 -1 5 -75z m1180 56 c94 -9 228 -32 298 -52 77 -23 129 -67 174
-149 30 -56 198 -458 198 -476 0 -5 -269 7 -274 12 -2 2 -13 51 -25 109 -29
138 -39 167 -64 190 -20 19 -37 20 -353 20 l-331 0 -26 -25 c-26 -26 -38 -76
-53 -212 l-7 -63 -43 0 -44 0 0 328 c0 181 2 331 4 333 6 6 454 -7 546 -15z
m-857 -837 c34 -18 37 -28 37 -126 0 -93 -8 -115 -35 -93 -12 10 -18 10 -30 0
-21 -17 -54 -3 -61 27 -9 33 19 87 52 102 26 12 33 51 9 51 -8 0 -15 -7 -15
-15 0 -9 -9 -15 -25 -15 -49 0 -17 77 33 79 7 1 23 -4 35 -10z m-2058 -599
c66 -5 144 -12 172 -16 l53 -5 -5 -122 c-3 -67 -8 -159 -11 -205 l-6 -83 -228
3 -228 3 -44 30 c-66 46 -93 108 -93 215 0 65 4 92 18 113 48 74 124 87 372
67z m4160 -16 c61 -32 77 -72 73 -179 -5 -111 -31 -166 -100 -205 -42 -24 -49
-25 -269 -28 l-226 -3 -6 143 c-9 188 -9 268 1 269 268 31 470 32 527 3z
m-3650 -29 c140 -17 191 -35 214 -76 13 -23 12 -30 -7 -70 -30 -60 -117 -174
-155 -203 -27 -20 -49 -25 -135 -30 l-104 -7 3 200 4 201 25 0 c14 0 84 -7
155 -15z m3008 -182 c3 -109 4 -199 3 -201 -2 -1 -50 1 -107 4 l-103 7 -49 45
c-26 25 -70 79 -98 120 -67 100 -65 143 8 175 37 16 214 44 299 46 l41 1 6
-197z m-928 77 c154 -5 301 -14 326 -20 55 -14 119 -64 207 -163 l64 -72 -6
-55 c-6 -60 -75 -290 -157 -523 -56 -160 -111 -252 -168 -282 -26 -13 -139
-15 -933 -15 -865 0 -904 1 -931 19 -39 25 -79 76 -109 136 -26 52 -162 455
-198 585 -34 127 -35 126 88 249 98 99 112 109 162 121 107 25 1106 38 1655
20z m-2008 -568 c8 -11 12 -51 13 -114 0 -90 -2 -98 -19 -98 -11 0 -21 6 -24
13 -4 10 -7 10 -18 0 -29 -28 -68 -1 -68 47 0 30 14 50 52 74 27 19 36 49 16
61 -6 4 -13 -2 -16 -14 -7 -27 -53 -30 -53 -3 0 21 19 47 40 55 23 9 62 -2 77
-21z m3000 0 c8 -11 12 -50 13 -107 l0 -90 242 3 c237 3 244 3 288 -20 80 -41
110 -119 95 -245 -10 -82 -28 -111 -83 -136 -45 -21 -62 -22 -421 -25 l-373
-3 -39 41 c-55 58 -56 108 -4 185 61 89 133 151 198 170 31 9 57 21 57 26 0
12 -6 11 -30 -3 -40 -26 -80 51 -47 93 7 8 24 24 40 33 29 19 37 56 12 56 -8
0 -15 -7 -15 -15 0 -9 -9 -15 -25 -15 -17 0 -25 5 -25 18 1 17 30 64 30 47 0
-5 6 -3 12 3 16 16 57 7 75 -16z m-3337 -206 c135 -24 155 -33 213 -90 140
-138 159 -222 67 -300 l-32 -26 -321 0 c-514 1 -539 9 -545 196 -3 80 -1 100
18 138 21 45 53 72 99 86 45 14 419 11 501 -4z m1243 -735 c-4 -40 -1 -74 11
-107 9 -26 14 -49 12 -51 -4 -5 -478 15 -656 27 -168 12 -446 37 -507 46 l-43
6 0 69 0 69 594 0 594 0 -5 -59z m2047 -10 l0 -69 -32 -6 c-120 -21 -1058 -83
-1058 -70 0 1 7 19 16 40 11 26 15 59 12 106 l-4 68 533 0 533 0 0 -69z
m-1624 29 c12 0 14 -18 12 -97 l-3 -98 -28 -3 c-48 -6 -57 11 -57 104 0 68 3
85 18 93 9 6 23 8 30 6 8 -3 20 -5 28 -5z m212 -98 c3 -90 2 -92 -22 -98 -13
-3 -34 -3 -45 1 -19 6 -21 14 -21 95 0 98 9 114 59 101 25 -7 26 -10 29 -99z"/>
<path d="M4983 6115 c-18 -20 -16 -55 2 -55 10 0 15 11 15 35 0 39 0 40 -17
20z"/>
<path d="M4049 5410 c-77 -5 -127 -13 -150 -25 -36 -18 -69 -44 -69 -54 0 -3
473 -7 1050 -7 578 -1 1050 2 1050 6 0 11 -31 36 -68 55 -24 11 -77 19 -180
25 -172 11 -1464 10 -1633 0z"/>
<path d="M3723 5231 c-24 -28 -43 -52 -43 -55 0 -3 540 -6 1200 -6 660 0 1200
3 1200 8 0 4 -18 28 -41 55 l-41 47 -1116 0 -1117 0 -42 -49z"/>
<path d="M3693 5106 c3 -8 11 -33 17 -55 l11 -41 1159 0 1159 0 16 52 c8 28
15 53 15 55 0 2 -536 3 -1191 3 -1032 0 -1190 -2 -1186 -14z"/>
<path d="M4877 4962 l-1138 -2 7 -23 c3 -12 12 -37 20 -54 l13 -33 1104 0
1103 0 18 56 c10 31 16 56 14 57 -2 1 -515 1 -1141 -1z"/>
<path d="M3800 4793 c0 -5 8 -29 17 -55 l17 -48 1047 0 1047 0 16 47 c9 26 16
50 16 55 0 4 -486 8 -1080 8 -594 0 -1080 -3 -1080 -7z"/>
<path d="M3860 4630 c0 -6 7 -26 14 -45 l15 -35 990 0 c969 0 991 0 1001 19 5
11 14 31 20 45 l10 26 -1025 0 c-698 0 -1025 -3 -1025 -10z"/>
<path d="M3967 4460 l42 -40 871 0 871 0 42 40 42 39 -955 0 -955 0 42 -39z"/>
<path d="M3474 4806 c-8 -20 -1 -47 11 -49 6 -1 11 13 13 31 3 32 -14 45 -24
18z"/>
<path d="M6482 4813 c-15 -26 -16 -63 -2 -63 15 0 22 23 18 57 -3 28 -3 28
-16 6z"/>
<path d="M6551 4685 c-103 -19 -124 -30 -174 -89 -99 -117 -110 -160 -58 -218
l29 -33 339 0 c370 0 392 3 429 60 26 40 26 169 -1 214 -43 73 -53 76 -283 78
-140 1 -231 -3 -281 -12z"/>
<path d="M2701 4679 c-57 -29 -80 -79 -81 -172 0 -148 23 -158 377 -165 321
-6 407 1 439 33 54 54 38 114 -60 222 -53 57 -61 63 -129 79 -54 13 -127 18
-287 21 -206 4 -217 3 -259 -18z"/>
<path d="M8494 4836 c-52 -24 -119 -85 -129 -116 -4 -14 -21 -18 -88 -23 -91
-6 -117 -13 -117 -33 0 -21 40 -43 101 -55 l56 -11 7 -55 c16 -133 110 -222
237 -223 210 -1 353 213 267 401 -56 123 -206 175 -334 115z"/>
<path d="M8737 4290 c-135 -34 -225 -140 -235 -273 -6 -86 -34 -135 -115 -198
-103 -82 -207 -119 -331 -119 -103 1 -154 12 -239 55 -46 24 -82 35 -111 35
-40 0 -44 2 -61 40 -14 30 -16 53 -12 98 6 53 4 63 -22 104 -47 74 -73 78 -52
8 16 -54 7 -76 -34 -90 -53 -17 -69 -7 -89 57 -20 63 -29 59 -40 -18 -9 -63 2
-86 65 -128 30 -20 68 -57 86 -84 28 -42 31 -53 27 -100 -7 -67 16 -104 89
-151 44 -29 62 -50 104 -123 80 -139 77 -131 63 -174 -16 -48 -7 -81 35 -127
39 -43 49 -40 35 9 -18 60 -13 78 25 96 50 24 79 8 94 -51 6 -25 15 -46 20
-46 20 0 29 116 11 150 -5 10 -27 24 -47 31 -50 16 -56 20 -97 90 l-35 59 24
0 c20 0 25 5 25 26 0 36 16 61 50 79 32 16 42 55 15 55 -8 0 -15 -7 -15 -15 0
-9 -9 -15 -25 -15 -19 0 -25 5 -25 21 0 56 89 75 122 25 4 -6 8 -53 8 -104 l0
-94 68 7 c168 18 339 90 450 190 33 30 64 55 69 55 21 0 161 -253 213 -385 17
-44 40 -89 50 -100 27 -31 163 -356 162 -390 0 -16 -7 -84 -16 -149 l-16 -119
55 -441 c30 -243 57 -453 59 -468 5 -24 0 -28 -59 -53 -35 -15 -78 -40 -96
-54 -29 -24 -31 -30 -22 -56 5 -16 22 -38 37 -49 25 -19 44 -21 193 -24 225
-5 227 -2 200 226 -9 71 -28 295 -43 498 l-28 369 42 225 c22 124 49 241 59
260 39 79 19 251 -63 539 -78 276 -216 563 -330 690 -76 84 -198 125 -297 101z"/>
<path d="M4976 3504 c-11 -28 -6 -54 9 -54 10 0 15 11 15 35 0 36 -13 47 -24
19z"/>
<path d="M7976 3504 c-10 -27 -7 -56 7 -52 14 5 23 68 9 68 -6 0 -13 -7 -16
-16z"/>
<path d="M8745 2838 l-117 -303 30 -465 c17 -256 28 -468 24 -471 -4 -4 -46
-19 -93 -33 -110 -33 -139 -55 -139 -105 0 -26 7 -44 21 -57 19 -17 38 -19
210 -19 175 0 190 1 208 20 19 19 20 43 26 540 l7 520 60 146 60 146 -72 169
c-39 93 -75 179 -80 192 -5 12 -13 22 -18 22 -5 0 -62 -136 -127 -302z"/>
<path d="M7464 2906 c-274 -73 -481 -279 -556 -555 -30 -110 -30 -288 0 -394
43 -152 117 -274 227 -374 335 -306 852 -267 1135 86 272 339 209 838 -139
1105 -133 102 -263 147 -446 152 -114 4 -141 1 -221 -20z m387 -190 c241 -84
399 -300 402 -551 2 -174 -51 -305 -173 -428 -62 -62 -95 -85 -161 -116 -241
-113 -515 -62 -689 127 -274 297 -186 767 177 943 131 64 305 73 444 25z"/>
<path d="M7516 2599 c-169 -58 -287 -196 -316 -371 -42 -245 128 -487 374
-533 378 -71 674 314 510 662 -31 65 -121 164 -181 200 -110 64 -271 82 -387
42z m125 -179 c-3 -157 -3 -160 18 -160 20 0 21 4 21 160 l0 160 33 0 c18 0
56 -7 83 -17 49 -16 154 -79 154 -92 0 -3 -47 -53 -104 -110 -94 -94 -113
-121 -86 -121 4 0 54 44 110 97 l102 97 25 -29 c39 -47 72 -125 79 -188 l7
-57 -137 0 c-106 0 -137 -3 -134 -12 3 -9 41 -14 133 -16 l128 -3 -6 -50 c-7
-59 -43 -141 -81 -186 l-26 -31 -88 88 c-58 59 -92 86 -100 81 -9 -6 16 -37
84 -103 l97 -95 -48 -33 c-60 -41 -127 -67 -185 -71 l-45 -4 -3 133 c-4 176
-22 175 -22 -1 l0 -134 -61 9 c-72 9 -131 34 -177 73 l-34 28 96 96 c86 86
111 121 89 121 -4 0 -51 -43 -104 -96 l-96 -95 -27 36 c-38 49 -73 131 -81
188 l-7 47 146 0 c123 0 146 2 146 15 0 13 -23 15 -144 15 -80 0 -147 4 -150
9 -3 5 -1 35 5 67 17 91 80 201 109 189 8 -3 60 -50 115 -105 75 -75 102 -96
112 -88 10 8 -14 36 -102 121 l-116 110 23 24 c42 45 151 91 218 92 l35 1 -4
-160z"/>
<path d="M7614 2196 c-9 -24 4 -48 23 -44 12 2 18 12 18 28 0 29 -32 41 -41
16z"/>
<path d="M7706 2181 c-10 -16 5 -41 24 -41 19 0 34 25 24 41 -3 5 -14 9 -24 9
-10 0 -21 -4 -24 -9z"/>
<path d="M7612 2111 c-19 -11 -11 -45 11 -49 9 -2 20 4 23 13 9 21 -16 47 -34
36z"/>
<path d="M7694 2085 c-8 -19 3 -35 26 -35 19 0 30 17 23 38 -6 17 -42 15 -49
-3z"/>
<path d="M0 450 l0 -450 6500 0 6500 0 0 450 0 450 -6500 0 -6500 0 0 -450z
m780 50 l0 -200 -35 0 -35 0 0 200 0 200 35 0 35 0 0 -200z m-115 105 c24 -23
25 -30 25 -149 0 -68 3 -131 6 -140 5 -13 -1 -16 -30 -16 -27 0 -36 4 -36 17
0 15 -2 14 -20 -2 -22 -20 -63 -23 -85 -5 -8 6 -17 28 -21 47 -9 50 15 94 70
129 38 23 46 34 44 54 -4 31 -32 33 -36 3 -3 -19 -10 -23 -38 -23 -31 0 -34 2
-34 30 0 46 39 80 90 80 30 0 47 -6 65 -25z m273 19 c41 -11 52 -51 52 -194
l0 -130 -29 0 c-16 0 -31 6 -34 13 -4 10 -7 10 -18 0 -18 -18 -74 -16 -93 3
-21 20 -21 93 -1 122 9 12 36 36 61 53 34 23 44 36 42 52 -4 29 -30 28 -43 0
-7 -17 -18 -23 -44 -23 -32 0 -33 1 -27 33 11 59 66 89 134 71z m234 -13 c12
-19 12 -19 36 0 30 23 55 24 76 3 13 -13 16 -42 16 -165 l0 -149 -30 0 -30 0
0 113 c0 123 -6 157 -25 157 -21 0 -25 -25 -25 -151 l0 -119 -35 0 -34 0 -3
133 c-3 109 -6 132 -18 132 -12 0 -15 -23 -18 -132 l-3 -133 -34 0 -35 0 0
160 0 160 35 0 c21 0 35 -5 35 -12 0 -8 6 -6 17 5 23 23 60 22 75 -2z m220
-121 c3 -121 4 -125 26 -128 22 -3 22 -3 22 127 0 80 4 131 10 132 59 7 55 20
58 -166 2 -94 0 -184 -3 -201 -7 -39 -38 -54 -110 -54 -54 0 -55 0 -55 30 0
27 3 30 34 30 49 0 66 9 66 35 0 23 -1 23 -30 9 -36 -18 -66 -6 -80 32 -6 14
-10 83 -10 154 l0 129 28 3 c15 2 30 1 34 -2 4 -3 9 -62 10 -130z m9913 90 c0
-27 -4 -50 -10 -50 -5 0 -10 23 -10 50 0 28 5 50 10 50 6 0 10 -22 10 -50z
m470 0 c0 -27 -4 -50 -10 -50 -5 0 -10 23 -10 50 0 28 5 50 10 50 6 0 10 -22
10 -50z m93 38 c7 -7 12 -24 12 -38 0 -34 -17 -50 -52 -50 -27 0 -28 2 -28 50
0 48 1 50 28 50 15 0 33 -5 40 -12z m132 -10 c0 -21 0 -21 27 3 20 17 23 18
10 3 -21 -25 -21 -38 -2 -54 8 -7 15 -18 15 -24 -1 -6 -12 3 -25 19 l-25 30 0
-27 c0 -16 -4 -28 -10 -28 -5 0 -10 23 -10 50 0 28 5 50 10 50 6 0 10 -10 10
-22z m133 -35 c10 -24 12 -43 7 -43 -6 0 -10 7 -10 15 0 21 -40 19 -56 -2 -12
-16 -13 -15 -4 10 34 92 35 93 63 20z m47 37 c0 -30 47 -28 53 3 2 12 4 -3 4
-33 0 -30 -2 -43 -4 -27 -3 21 -10 27 -29 27 -19 0 -24 -5 -24 -25 0 -14 -4
-25 -10 -25 -5 0 -10 23 -10 50 0 28 5 50 10 50 6 0 10 -9 10 -20z m100 0 c0
-30 47 -28 53 3 2 12 4 -3 4 -33 0 -30 -2 -43 -4 -27 -3 21 -10 27 -29 27 -19
0 -24 -5 -24 -25 0 -14 -4 -25 -10 -25 -5 0 -10 23 -10 50 0 28 5 50 10 50 6
0 10 -9 10 -20z m123 13 c-13 -2 -23 -11 -23 -19 0 -8 10 -15 23 -15 l22 -2
-22 -4 c-16 -3 -23 -11 -23 -29 0 -13 -4 -24 -10 -24 -5 0 -10 23 -10 50 l0
50 33 -1 c23 -1 26 -3 10 -6z m57 -5 c-25 -11 -25 -12 -3 -15 26 -5 39 -38 23
-58 -14 -17 -50 -20 -50 -5 0 5 7 7 16 3 18 -7 35 14 27 34 -3 7 -14 13 -24
13 -12 0 -19 7 -19 20 0 15 6 20 28 19 l27 0 -25 -11z m-1023 -53 l1 -40 -6
35 c-4 22 -13 35 -22 35 -9 0 -17 -13 -21 -35 l-6 -35 -2 38 c-1 26 -6 37 -16
37 -8 0 -15 -3 -16 -7 -2 -23 -10 -57 -14 -62 -3 -2 -5 14 -5 36 l0 40 53 -1
52 -1 2 -40z m81 4 c3 -34 1 -36 -25 -35 -37 1 -39 37 -3 47 l25 6 -25 12 -25
11 25 -3 c21 -2 25 -8 28 -38z m80 -16 c-3 -54 -5 -58 -28 -60 -25 -3 -25 -3
-2 7 12 5 22 15 22 23 0 8 -10 13 -22 13 -17 -1 -24 5 -26 22 -5 36 5 52 33
52 25 0 26 -2 23 -57z m90 35 c3 -14 -3 -18 -23 -18 -33 0 -29 -21 6 -32 22
-6 21 -7 -6 -5 -23 2 -31 7 -33 25 -2 13 -1 30 2 38 8 21 50 14 54 -8z m232
12 c0 -5 -4 -10 -10 -10 -5 0 -10 5 -10 10 0 6 5 10 10 10 6 0 10 -4 10 -10z
m0 -60 c0 -5 -4 -10 -10 -10 -5 0 -10 5 -10 10 0 6 5 10 10 10 6 0 10 -4 10
-10z m-160 -190 c0 -47 -3 -60 -15 -60 -12 0 -15 13 -15 60 0 47 3 60 15 60
12 0 15 -13 15 -60z m-580 10 c0 -11 5 -20 10 -20 6 0 10 9 10 21 0 29 32 21
41 -11 l6 -25 8 28 c7 28 25 38 25 13 0 -27 -22 -76 -35 -76 -7 0 -16 15 -20
33 l-8 32 -6 -30 c-9 -44 -33 -37 -47 13 -11 35 -11 42 2 42 8 0 14 -9 14 -20z
m140 0 c0 -11 5 -20 10 -20 6 0 10 9 10 21 0 29 32 21 41 -11 l6 -25 8 28 c11
42 28 33 20 -10 -8 -46 -12 -53 -29 -53 -8 0 -17 15 -21 33 l-8 32 -6 -30 c-9
-44 -33 -37 -47 13 -11 35 -11 42 2 42 8 0 14 -9 14 -20z m140 0 c0 -11 5 -20
10 -20 6 0 10 9 10 21 0 29 32 21 41 -11 l6 -25 8 28 c7 28 25 38 25 13 0 -27
-22 -76 -35 -76 -7 0 -16 15 -20 33 l-7 32 -10 -33 c-12 -43 -29 -36 -45 16
-10 35 -9 42 3 42 8 0 14 -9 14 -20z m235 8 c2 -7 6 -27 8 -44 5 -30 4 -31
-32 -30 -31 1 -36 4 -36 26 0 17 7 26 25 31 24 7 24 7 3 8 -13 1 -23 6 -23 11
0 15 50 12 55 -2z m153 -5 c5 -10 9 -29 7 -43 -1 -20 -7 -24 -36 -25 -30 0
-34 3 -34 25 0 17 7 26 25 31 24 7 24 7 3 8 -31 1 -29 21 2 21 13 0 28 -8 33
-17z m162 -4 c12 -22 7 -62 -8 -67 -8 -2 -12 9 -12 32 0 25 -4 36 -15 36 -10
0 -15 -11 -15 -35 0 -44 -18 -46 -22 -3 -4 46 -28 49 -28 4 0 -25 -4 -36 -15
-36 -11 0 -15 12 -15 44 l0 43 60 0 c48 0 63 -4 70 -18z m55 -6 l8 -28 10 28
c13 33 42 38 31 5 -19 -61 -45 -108 -59 -108 -18 0 -20 17 -3 22 10 4 9 16 -4
56 -13 41 -13 52 -3 52 7 0 16 -12 20 -27z m175 18 c0 -5 -9 -11 -20 -14 -11
-3 -20 -13 -20 -22 0 -9 9 -19 20 -22 23 -6 27 -23 6 -23 -31 0 -46 13 -46 39
0 15 5 32 12 39 14 14 48 16 48 3z m90 -5 c28 -35 -11 -93 -47 -70 -36 22 -23
84 17 84 10 0 23 -7 30 -14z m162 -21 c9 -33 4 -55 -12 -55 -5 0 -10 16 -10
35 0 24 -5 35 -15 35 -10 0 -15 -11 -15 -35 0 -44 -18 -46 -22 -3 -4 46 -28
49 -28 4 0 -25 -4 -36 -15 -36 -11 0 -15 12 -15 44 l0 44 62 -2 c60 -1 62 -2
70 -31z m-891 -48 c-13 -13 -26 -3 -16 12 3 6 11 8 17 5 6 -4 6 -10 -1 -17z
m550 0 c-13 -13 -26 -3 -16 12 3 6 11 8 17 5 6 -4 6 -10 -1 -17z"/>
<path d="M592 427 c-26 -27 -28 -55 -7 -63 24 -9 42 12 43 51 2 41 -6 44 -36
12z"/>
<path d="M893 438 c-30 -32 -31 -78 -3 -78 25 0 32 17 28 65 l-3 37 -22 -24z"/>
<path d="M11820 580 c0 -33 3 -41 16 -38 26 5 41 35 28 56 -6 9 -19 18 -28 20
-13 3 -16 -5 -16 -38z"/>
<path d="M12097 595 c-8 -20 -4 -29 11 -24 5 2 6 13 2 23 -6 19 -7 19 -13 1z"/>
<path d="M11470 555 c0 -8 7 -15 15 -15 8 0 15 7 15 15 0 8 -7 15 -15 15 -8 0
-15 -7 -15 -15z"/>
<path d="M11554 586 c-8 -22 3 -49 19 -43 6 2 12 14 12 27 0 27 -22 39 -31 16z"/>
<path d="M11645 590 c-3 -5 3 -10 15 -10 12 0 18 5 15 10 -3 6 -10 10 -15 10
-5 0 -12 -4 -15 -10z"/>
<path d="M11657 333 c-12 -11 -8 -23 8 -23 8 0 15 7 15 15 0 16 -12 20 -23 8z"/>
<path d="M11807 333 c-12 -11 -8 -23 8 -23 8 0 15 7 15 15 0 16 -12 20 -23 8z"/>
<path d="M12283 344 c-8 -21 13 -42 28 -27 13 13 5 43 -11 43 -6 0 -13 -7 -17
-16z"/>
</g>
</svg>
