<?xml version="1.0" standalone="no"?>
<!DOCTYPE svg PUBLIC "-//W3C//DTD SVG 20010904//EN"
 "http://www.w3.org/TR/2001/REC-SVG-20010904/DTD/svg10.dtd">
<svg version="1.0" xmlns="http://www.w3.org/2000/svg"
 width="512.000000pt" height="512.000000pt" viewBox="0 0 512.000000 512.000000"
 preserveAspectRatio="xMidYMid meet">

<g transform="translate(0.000000,512.000000) scale(0.100000,-0.100000)"
fill="#000000" stroke="none">
<path d="M1905 4909 c-66 -28 -123 -54 -128 -58 -4 -4 -27 -52 -52 -106 l-45
-100 -65 -12 c-119 -22 -227 -101 -278 -203 -14 -28 -33 -84 -43 -125 -21 -87
-12 -120 36 -138 l30 -11 0 -96 c0 -52 3 -105 6 -117 6 -21 5 -21 -179 -25
l-184 -3 -69 -35 c-68 -35 -71 -38 -247 -270 -191 -253 -248 -350 -272 -465
-20 -93 -22 -1074 -3 -1139 16 -55 99 -138 154 -154 25 -7 103 -12 193 -12
148 0 153 1 176 25 23 22 25 32 25 120 0 94 0 95 24 95 13 0 31 3 40 6 15 6
16 -81 16 -935 l0 -942 25 -24 24 -25 751 0 751 0 24 25 c22 21 25 33 25 96 0
85 17 65 -228 259 l-171 135 -1 1312 0 1312 101 -61 c177 -106 320 -138 478
-104 115 24 184 63 349 194 l152 122 95 -40 c52 -22 98 -40 103 -40 15 0 246
92 261 104 19 15 61 111 61 139 0 38 -31 61 -169 121 l-131 58 0 42 c0 33 6
48 28 69 15 15 34 27 41 27 7 0 71 -25 144 -56 148 -63 165 -64 204 -5 51 76
51 97 -2 235 -26 69 -55 132 -64 140 -26 23 -320 146 -349 146 -16 0 -70 -28
-137 -70 -65 -42 -116 -68 -125 -65 -8 4 -191 83 -407 177 l-391 170 -38 100
c-22 61 -45 105 -58 113 -37 25 -323 145 -342 145 -11 -1 -73 -24 -139 -51z
m260 -168 l109 -48 38 -94 c21 -52 46 -102 56 -111 23 -24 905 -408 935 -408
13 0 71 30 128 66 57 37 109 68 115 71 6 2 59 -17 119 -43 103 -46 108 -50
126 -92 11 -25 17 -47 15 -50 -3 -2 -48 14 -99 37 -52 22 -103 41 -113 41 -23
0 -50 -17 -129 -84 -91 -77 -87 -66 -81 -200 5 -143 7 -145 139 -201 48 -21
87 -41 87 -45 0 -5 -21 -15 -46 -24 l-47 -16 -111 49 -111 48 -23 129 c-18
100 -28 134 -45 151 -18 18 -554 258 -848 380 l-87 36 -103 -40 c-118 -46
-105 -53 -138 63 -25 85 -78 161 -146 210 -26 18 -52 35 -57 36 -5 2 3 31 17
65 27 61 29 63 99 92 39 17 76 30 81 30 6 0 59 -21 120 -48z m-384 -288 c39
-20 63 -42 87 -78 l34 -50 -111 -3 c-61 -1 -161 -1 -222 0 l-111 3 34 50 c41
62 118 105 188 105 31 0 65 -9 101 -27z m57 -402 c-3 -118 -12 -141 -72 -185
-39 -29 -133 -29 -172 0 -60 44 -69 67 -72 185 l-4 109 162 0 162 0 -4 -109z
m792 -36 c173 -76 318 -140 322 -144 3 -3 -47 -43 -112 -89 l-119 -82 -126 93
c-166 124 -177 127 -417 127 l-190 0 6 23 c3 12 6 55 6 96 0 66 2 72 18 65 45
-20 89 -15 177 20 50 19 97 34 105 32 8 -2 157 -65 330 -141z m480 -248 c0 -2
9 -53 21 -113 11 -60 21 -114 22 -121 2 -13 -200 -176 -252 -202 -72 -37 -151
-54 -226 -48 -96 8 -138 25 -297 120 l-138 82 0 137 0 138 54 0 c30 0 65 -4
78 -9 13 -5 91 -59 173 -120 101 -75 157 -111 175 -111 18 0 84 41 201 125
157 112 189 132 189 122z m-1750 -45 c0 -152 129 -282 280 -282 151 0 280 130
280 282 l0 38 80 0 80 0 0 -480 0 -480 -440 0 -440 0 0 480 0 480 80 0 80 0 0
-38z m-320 -154 l-1 -183 -119 -159 -120 -159 0 -350 0 -349 62 -64 61 -64
-37 0 c-26 0 -44 -7 -61 -25 -23 -22 -25 -32 -25 -120 l0 -95 -95 0 c-88 0
-98 2 -120 25 l-25 24 0 505 c0 538 2 571 49 666 32 65 347 488 382 512 48 34
49 31 49 -164z m523 135 c22 -11 57 -17 109 -17 48 -1 78 -5 78 -12 0 -5 -14
-23 -31 -40 -25 -24 -39 -29 -79 -29 -42 0 -54 5 -79 30 -27 28 -52 85 -37 85
4 0 21 -8 39 -17z m-523 -970 l0 -377 -40 39 -40 39 0 289 0 289 36 49 c20 27
38 49 40 49 2 0 4 -170 4 -377z m1040 -1066 l0 -973 -121 -48 c-66 -27 -121
-47 -123 -45 -1 2 -19 378 -40 834 -30 663 -40 835 -52 852 -27 42 -101 42
-128 0 -10 -15 -35 -241 -85 -772 -39 -412 -74 -766 -77 -785 -5 -34 -8 -36
-112 -77 -59 -23 -115 -45 -124 -49 -17 -6 -18 47 -18 1015 l0 1021 440 0 440
0 0 -973z m-415 -841 l7 -198 -32 23 c-28 21 -31 28 -27 59 3 19 11 101 18
183 7 81 16 144 20 140 4 -5 10 -97 14 -207z m-47 -363 c59 -48 122 -99 140
-115 l33 -28 -296 0 -295 0 0 53 0 52 153 62 c83 33 154 62 155 62 2 1 52 -38
110 -86z m681 -36 l133 -107 -216 0 c-194 0 -216 2 -216 17 0 9 -23 38 -52 64
-47 43 -50 49 -33 55 11 5 67 27 125 50 58 23 110 39 115 35 6 -4 70 -56 144
-114z"/>
<path d="M3385 1815 c-24 -23 -25 -29 -25 -160 l0 -135 -255 0 -256 0 -24 -25
-25 -24 0 -631 0 -631 25 -24 24 -25 911 0 911 0 24 25 25 24 0 631 0 631 -25
24 -24 25 -256 0 -255 0 0 135 c0 131 -1 137 -25 160 l-24 25 -351 0 -351 0
-24 -25z m615 -215 l0 -80 -240 0 -240 0 0 80 0 80 240 0 240 0 0 -80z m560
-440 l0 -200 -120 0 -120 0 0 95 c0 88 -2 98 -25 120 -24 25 -26 25 -215 25
-189 0 -191 0 -215 -25 -23 -22 -25 -32 -25 -120 l0 -95 -80 0 -80 0 0 95 c0
88 -2 98 -25 120 -24 25 -26 25 -215 25 -189 0 -191 0 -215 -25 -23 -22 -25
-32 -25 -120 l0 -95 -120 0 -120 0 0 200 0 200 800 0 800 0 0 -200z m-1040
-160 l0 -40 -80 0 -80 0 0 40 0 40 80 0 80 0 0 -40z m640 0 l0 -40 -80 0 -80
0 0 40 0 40 80 0 80 0 0 -40z m-960 -295 c0 -88 2 -98 25 -120 24 -25 26 -25
215 -25 189 0 191 0 215 25 23 22 25 32 25 120 l0 95 80 0 80 0 0 -95 c0 -88
2 -98 25 -120 24 -25 26 -25 215 -25 189 0 191 0 215 25 23 22 25 32 25 120
l0 95 120 0 120 0 0 -240 0 -240 -800 0 -800 0 0 240 0 240 120 0 120 0 0 -95z
m320 55 l0 -40 -80 0 -80 0 0 40 0 40 80 0 80 0 0 -40z m640 0 l0 -40 -80 0
-80 0 0 40 0 40 80 0 80 0 0 -40z"/>
</g>
</svg>
