<?xml version="1.0" standalone="no"?>
<!DOCTYPE svg PUBLIC "-//W3C//DTD SVG 20010904//EN"
 "http://www.w3.org/TR/2001/REC-SVG-20010904/DTD/svg10.dtd">
<svg version="1.0" xmlns="http://www.w3.org/2000/svg"
 width="512.000000pt" height="512.000000pt" viewBox="0 0 512.000000 512.000000"
 preserveAspectRatio="xMidYMid meet">

<g transform="translate(0.000000,512.000000) scale(0.100000,-0.100000)"
fill="#000000" stroke="none">
<path d="M2575 5065 c-294 -65 -508 -299 -532 -581 -6 -75 -6 -76 15 -65 11 6
47 11 80 11 58 0 60 1 65 30 9 42 71 106 122 126 52 20 125 16 176 -10 26 -13
35 -14 38 -4 2 7 22 32 45 54 87 88 206 85 297 -6 l48 -48 38 19 c47 24 125
24 178 0 49 -22 104 -82 112 -123 7 -34 8 -35 87 -42 l59 -5 -7 63 c-24 234
-184 448 -406 541 -127 53 -285 69 -415 40z"/>
<path d="M2555 4405 c-256 -48 -417 -156 -543 -367 -72 -123 -105 -204 -126
-318 -46 -240 12 -698 123 -976 62 -154 117 -240 220 -344 52 -53 97 -108 102
-125 11 -36 13 -135 4 -167 -13 -41 -55 -88 -108 -118 -39 -22 -74 -59 -154
-161 l-103 -132 0 -392 0 -392 103 -21 c476 -100 828 -100 1305 0 l102 21 0
394 c0 249 4 393 10 393 17 0 294 -88 343 -109 l47 -20 0 -392 0 -392 65 -286
c36 -157 68 -294 71 -304 5 -17 27 -18 371 -15 l365 3 24 28 c14 17 24 41 24
59 0 17 -31 187 -69 377 -38 190 -80 406 -94 479 -32 169 -58 224 -156 322
-181 182 -491 324 -999 461 -234 63 -286 88 -321 157 -27 54 -34 97 -26 169 6
53 11 68 33 86 59 48 140 135 181 196 139 204 229 523 250 887 11 186 0 301
-39 431 -94 309 -259 478 -538 549 -125 32 -346 41 -467 19z m-61 -731 c127
-278 436 -443 829 -444 l58 0 -6 -47 c-12 -81 -52 -244 -80 -323 -93 -259
-248 -420 -442 -460 -83 -18 -234 -8 -305 19 -158 61 -290 219 -371 446 -28
79 -72 270 -82 356 l-7 57 73 35 c99 48 177 112 224 182 40 61 75 157 75 206
0 16 2 29 4 29 3 0 16 -25 30 -56z m241 -1479 c66 0 137 3 158 7 37 7 37 7 37
-27 0 -57 21 -137 52 -198 l29 -58 -28 -23 c-230 -194 -247 -206 -262 -192
-17 14 -254 208 -259 212 -2 1 8 20 21 41 33 52 53 114 62 190 l7 62 31 -7
c18 -4 86 -7 152 -7z m-276 -471 c64 -53 117 -99 118 -102 3 -9 -264 -149
-270 -142 -6 7 -87 261 -87 274 0 9 88 57 119 65 1 1 55 -42 120 -95z m734 66
l66 -30 -46 -137 c-25 -76 -48 -140 -50 -142 -5 -7 -273 133 -270 140 1 4 226
195 233 198 1 1 31 -12 67 -29z"/>
<path d="M1225 2495 c-22 -8 -54 -29 -70 -47 -29 -31 -32 -32 -65 -21 -50 17
-99 15 -145 -6 -47 -21 -92 -70 -101 -109 -3 -15 -7 -31 -8 -35 -1 -5 -27 -10
-58 -11 -100 -5 -178 -83 -178 -179 0 -34 -3 -37 -27 -37 -42 -1 -105 -33
-136 -69 -76 -90 -49 -229 56 -282 23 -12 105 -48 181 -80 l139 -57 51 52 c37
38 64 56 98 65 29 8 50 20 53 31 18 58 158 130 223 115 20 -4 42 2 78 22 64
36 148 38 212 7 36 -18 49 -20 85 -12 49 11 97 4 149 -23 l37 -19 108 136
c144 180 160 219 132 305 -34 101 -149 154 -246 114 -20 -8 -37 -14 -38 -13
-1 2 -12 20 -24 41 -46 76 -166 105 -243 60 l-37 -22 -35 33 c-20 19 -54 38
-80 45 -56 14 -61 14 -111 -4z"/>
<path d="M1395 1674 c-38 -38 -54 -40 -138 -19 -22 6 -34 2 -53 -15 -13 -13
-24 -29 -24 -36 0 -49 -44 -84 -105 -84 -37 0 -65 -8 -65 -19 0 -4 60 -33 133
-65 l132 -56 148 -600 149 -600 138 0 138 0 -18 73 c-11 39 -80 321 -155 625
l-137 552 92 115 c50 63 89 119 85 125 -10 16 -41 12 -84 -10 -47 -25 -78 -20
-117 21 -39 40 -74 38 -119 -7z"/>
<path d="M880 1275 c-5 -13 -30 -138 -55 -277 -26 -139 -66 -349 -91 -466 -53
-258 -54 -283 -15 -323 l29 -29 290 0 290 0 -132 527 -132 526 -79 34 c-44 18
-83 33 -88 33 -4 0 -12 -11 -17 -25z"/>
</g>
</svg>
