<?xml version="1.0" standalone="no"?>
<!DOCTYPE svg PUBLIC "-//W3C//DTD SVG 20010904//EN"
 "http://www.w3.org/TR/2001/REC-SVG-20010904/DTD/svg10.dtd">
<svg version="1.0" xmlns="http://www.w3.org/2000/svg"
 width="900.000000pt" height="520.000000pt" viewBox="0 0 900.000000 520.000000"
 preserveAspectRatio="xMidYMid meet">

<g transform="translate(0.000000,520.000000) scale(0.100000,-0.100000)"
fill="#000000" stroke="none">
<path d="M4658 5189 c-138 -11 -335 -51 -439 -89 -157 -57 -288 -146 -336
-227 -25 -43 -28 -57 -28 -138 0 -82 3 -97 32 -155 43 -89 127 -179 202 -219
l61 -32 33 32 c43 44 154 94 279 125 137 35 407 44 569 20 58 -8 115 -18 125
-22 18 -5 18 -5 -1 10 -11 9 -25 14 -33 11 -7 -2 -10 0 -7 5 3 6 0 10 -7 10
-10 0 -10 2 1 9 8 5 16 15 17 23 1 7 5 21 9 30 6 15 3 17 -23 12 -25 -5 -32
-2 -43 17 -6 13 -17 27 -23 31 -8 5 -4 21 12 49 23 40 23 64 0 41 -25 -25 -45
-13 -57 33 -12 48 -8 61 37 125 l17 25 -27 -17 c-41 -27 -48 -22 -48 31 0 52
19 110 44 131 9 7 16 19 16 26 0 8 5 14 10 14 6 0 10 7 10 15 0 19 -10 19 -40
-2 -24 -16 -24 -16 -11 0 11 14 11 17 0 17 -10 1 -8 4 4 11 9 5 21 8 25 5 4
-2 8 4 8 14 0 15 -10 19 -51 24 -107 12 -234 14 -337 5z m362 -29 c0 -5 -5
-10 -11 -10 -5 0 -7 5 -4 10 3 6 8 10 11 10 2 0 4 -4 4 -10z"/>
<path d="M5120 4526 c0 -2 9 -6 20 -9 11 -3 18 -1 14 4 -5 9 -34 13 -34 5z"/>
<path d="M5190 4478 c0 -11 28 -10 35 1 3 6 -4 9 -15 8 -11 -1 -20 -5 -20 -9z"/>
<path d="M4310 4259 c-137 -18 -155 -26 -220 -96 -179 -196 -218 -359 -110
-456 78 -71 230 -93 535 -76 388 21 676 105 853 249 35 28 65 50 67 48 14 -13
26 -167 23 -295 -2 -120 0 -155 11 -165 8 -8 11 -8 7 -1 -4 7 17 23 58 43 58
29 72 32 132 28 60 -4 69 -7 96 -37 22 -25 27 -36 18 -46 -8 -10 -7 -16 6 -23
18 -10 26 -66 17 -115 -8 -39 -18 -34 -38 21 -10 26 -27 58 -39 70 -29 32
-109 72 -145 72 -39 0 -62 -10 -54 -23 4 -6 0 -8 -10 -4 -14 5 -15 3 -5 -13
10 -16 3 -29 -58 -96 -76 -86 -232 -244 -240 -244 -3 0 -26 -21 -53 -48 -53
-53 -93 -82 -114 -82 -8 0 -25 -9 -39 -19 -13 -11 -44 -24 -68 -31 -25 -7 -53
-19 -64 -28 -16 -15 -15 -11 4 23 12 22 27 43 34 47 8 5 8 8 0 8 -6 0 -22 -10
-35 -21 -55 -48 -87 -69 -107 -69 -12 0 -22 -6 -22 -12 0 -9 -3 -8 -10 2 -8
12 -10 12 -16 -3 -4 -12 -18 -17 -46 -17 -43 0 -43 2 -22 55 7 19 7 19 -13 3
-11 -10 -24 -18 -30 -18 -6 0 -16 -6 -22 -14 -14 -17 -97 -27 -128 -15 -19 7
-21 12 -13 33 l9 24 -49 -25 c-33 -17 -55 -23 -67 -18 -10 5 -21 8 -25 7 -4
-1 -5 5 -1 14 5 14 3 15 -15 5 -18 -10 -22 -9 -22 4 0 9 5 25 10 36 13 23 -2
26 -20 4 -7 -8 -21 -15 -31 -15 -11 0 -19 -5 -19 -12 0 -6 -7 -3 -15 8 -14 18
-15 17 -9 -11 16 -71 80 -237 125 -325 88 -171 188 -282 301 -335 l48 -22 -90
-52 c-50 -28 -94 -51 -98 -51 -5 0 -30 29 -56 65 -183 250 -474 436 -787 504
-653 141 -1313 -236 -1529 -873 -52 -154 -64 -235 -65 -421 0 -181 12 -263 61
-413 63 -192 176 -375 324 -522 184 -184 404 -305 660 -361 135 -30 386 -33
522 -6 236 47 447 152 638 317 l56 48 151 -74 c549 -268 1347 -379 1878 -263
257 57 447 152 589 297 l59 61 -7 178 c-20 499 -106 839 -277 1103 -100 154
-300 318 -544 445 -169 89 -356 195 -393 222 -66 49 -102 188 -102 390 l0 125
90 85 c99 93 161 183 209 304 49 123 63 228 59 468 l-3 208 76 6 c96 8 118 16
168 67 39 40 53 81 32 95 -11 6 -34 -29 -24 -38 3 -4 -3 -5 -14 -3 -10 2 -43
0 -72 -6 -42 -7 -56 -6 -62 3 -4 8 -3 19 3 26 6 7 8 13 5 13 -8 0 -78 -39 -94
-52 -7 -5 -17 -7 -23 -3 -5 3 -10 1 -10 -4 0 -7 -7 -7 -20 1 -17 11 -22 10
-29 -1 -5 -8 -16 -11 -30 -6 -18 5 -19 10 -10 27 13 24 9 29 -19 22 -22 -6
-40 -42 -26 -53 7 -5 14 -141 7 -141 -1 0 -23 9 -50 21 -141 60 -607 209 -656
209 -18 0 -47 -22 -47 -36 0 -10 -89 -130 -204 -274 -54 -68 -108 -139 -120
-157 -11 -17 -31 -35 -43 -38 -55 -13 -223 -25 -378 -25 -176 0 -256 8 -315
32 l-35 14 23 19 c12 11 22 23 22 28 0 7 88 123 173 227 63 77 184 238 198
263 9 15 5 17 -28 16 -21 -1 -67 -5 -103 -10z m1190 -964 c0 -24 -5 -35 -15
-35 -8 0 -15 5 -15 10 0 6 5 10 10 10 6 0 10 11 10 25 0 14 2 25 5 25 3 0 5
-16 5 -35z m287 -47 c-3 -7 -5 -2 -5 12 0 14 2 19 5 13 2 -7 2 -19 0 -25z
m-2342 -587 l40 -8 -35 -6 c-19 -3 -85 -8 -147 -11 -185 -9 -349 -51 -493
-128 -328 -174 -543 -470 -616 -848 -13 -70 -26 -106 -48 -138 l-31 -44 -3 32
c-5 51 16 192 44 288 128 441 510 781 964 857 85 15 265 18 325 6z m195 -216
c238 -65 457 -219 590 -415 22 -32 40 -60 40 -62 0 -2 -32 -37 -71 -78 -84
-88 -164 -192 -208 -271 l-31 -55 203 -67 c111 -36 214 -69 230 -73 23 -5 27
-11 27 -44 0 -20 -3 -57 -6 -82 -6 -45 -7 -45 -38 -38 -46 12 -99 32 -114 43
-7 6 -24 12 -38 13 -36 4 -114 35 -114 46 0 5 -10 8 -22 6 -31 -3 -110 23
-124 41 -6 8 -20 12 -31 9 -18 -5 -21 1 -27 45 -18 160 -176 309 -386 364 -87
23 -262 23 -350 -1 -218 -57 -374 -210 -388 -381 -4 -62 -6 -65 -31 -65 -14 0
-55 -11 -91 -25 -73 -27 -190 -56 -201 -50 -4 3 -31 -6 -61 -20 l-53 -25 -7
23 c-12 44 -8 255 8 337 80 425 419 765 843 845 119 23 331 13 451 -20z m1141
-590 c13 -18 25 -32 27 -31 1 2 17 -11 35 -28 18 -17 42 -38 55 -46 l22 -15
-86 -129 -86 -129 16 -81 c9 -45 16 -94 16 -111 0 -16 -27 -133 -59 -260 l-59
-230 -3 75 c-4 126 1 229 18 365 11 89 14 163 9 234 -4 76 0 152 14 280 26
216 28 227 45 177 7 -20 23 -52 36 -71z m-303 -17 c76 -211 82 -497 15 -727
-81 -280 -284 -545 -532 -695 -188 -114 -361 -165 -582 -173 -223 -8 -393 24
-568 108 l-83 41 28 17 c27 17 30 16 119 -20 49 -21 124 -46 166 -57 527 -138
1066 105 1316 594 141 274 169 576 83 882 -16 59 -18 76 -8 92 7 11 14 20 14
20 1 0 16 -37 32 -82z m897 -4 c-19 -36 -41 -75 -50 -86 -8 -12 -12 -25 -9
-30 3 -4 0 -8 -6 -8 -6 0 -8 -5 -4 -11 5 -8 9 -8 14 1 4 7 13 10 19 6 7 -5 9
-1 5 11 -5 14 -4 15 4 4 6 -8 8 -20 5 -28 -3 -7 2 -13 11 -13 9 0 16 -8 16
-19 0 -17 5 -19 35 -14 45 7 105 -20 105 -47 0 -23 9 -25 43 -9 20 9 30 7 61
-13 20 -13 36 -31 36 -42 0 -12 5 -16 16 -12 39 15 60 16 76 4 15 -12 15 -21
5 -83 l-12 -70 -152 -65 c-83 -36 -154 -68 -158 -72 -3 -3 8 -63 26 -132 24
-97 29 -129 20 -140 -15 -17 -29 -16 -75 9 -25 14 -36 26 -36 42 0 20 -2 21
-24 12 -20 -9 -34 -8 -70 7 -40 17 -44 22 -39 43 5 21 3 23 -13 16 -10 -4 -33
-9 -51 -11 -24 -2 -31 0 -27 11 6 16 -35 8 -103 -20 -39 -16 -44 -22 -67 -88
l-24 -72 -1 164 -1 165 56 99 56 98 -24 138 -25 139 56 12 c31 7 72 19 91 28
19 8 38 14 43 14 4 -1 7 3 7 10 0 6 3 9 6 5 8 -8 86 34 144 78 25 19 46 34 47
34 2 1 -13 -29 -32 -65z m-1915 -91 c14 -6 43 -16 65 -23 47 -15 121 -64 150
-100 69 -84 81 -151 46 -248 -33 -88 -74 -127 -191 -179 -83 -37 -87 -38 -205
-37 -110 1 -127 3 -197 31 -101 40 -170 99 -202 175 -47 109 -20 209 81 298
93 82 155 101 313 96 63 -2 126 -8 140 -13z m-419 -673 c103 -47 181 -64 304
-64 123 0 201 17 305 65 58 27 71 30 125 24 81 -10 91 -17 98 -69 7 -49 55
-194 82 -246 10 -19 43 -61 74 -93 l56 -59 -35 -30 c-185 -158 -431 -248 -675
-248 -403 0 -775 238 -947 606 -17 36 -29 66 -27 68 5 3 523 73 555 75 12 1
50 -12 85 -29z"/>
</g>
</svg>
