<?xml version="1.0" standalone="no"?>
<!DOCTYPE svg PUBLIC "-//W3C//DTD SVG 20010904//EN"
 "http://www.w3.org/TR/2001/REC-SVG-20010904/DTD/svg10.dtd">
<svg version="1.0" xmlns="http://www.w3.org/2000/svg"
 width="500.000000pt" height="520.000000pt" viewBox="0 0 500.000000 520.000000"
 preserveAspectRatio="xMidYMid meet">

<g transform="translate(0.000000,520.000000) scale(0.100000,-0.100000)"
fill="#000000" stroke="none">
<path d="M1520 4941 c-41 -3 -84 -11 -95 -18 -11 -6 -29 -15 -40 -20 -14 -5 0
-9 46 -11 56 -2 74 1 125 27 32 17 55 30 49 29 -5 -1 -44 -4 -85 -7z"/>
<path d="M1645 4937 c-61 -20 -85 -35 -143 -91 -94 -89 -157 -194 -215 -362
-149 -430 -120 -997 69 -1364 124 -241 302 -346 476 -280 101 38 202 146 278
297 290 581 150 1575 -251 1779 -63 32 -154 40 -214 21z m226 -362 c224 -147
317 -688 189 -1089 -60 -188 -163 -308 -280 -330 -35 -6 -35 -6 10 18 236 126
349 622 239 1051 -43 168 -140 319 -234 365 -25 12 -45 23 -45 25 0 10 91 -20
121 -40z m-352 -283 c12 -34 29 -95 37 -135 22 -100 30 -346 14 -460 -13 -95
-50 -240 -74 -285 -13 -25 -15 -23 -44 68 -48 155 -57 218 -56 415 0 145 5
198 21 270 26 111 62 210 73 198 5 -4 18 -36 29 -71z"/>
<path d="M3774 4941 c-2 -2 -51 -3 -109 -2 -88 1 -105 -1 -105 -14 0 -8 8 -15
17 -15 15 0 15 -1 -1 -13 -13 -10 -16 -20 -12 -35 7 -20 14 -22 84 -22 71 0
80 2 114 30 20 17 60 41 90 55 l53 25 -63 -2 c-35 -2 -65 -5 -68 -7z"/>
<path d="M3940 4941 c-175 -54 -327 -272 -404 -577 -45 -184 -51 -238 -51
-484 0 -200 4 -252 23 -352 117 -617 465 -886 756 -584 115 119 209 335 258
591 32 169 32 522 0 696 -68 373 -234 647 -426 704 -53 16 -115 18 -156 6z
m188 -353 c107 -50 200 -217 248 -448 23 -106 26 -378 5 -490 -51 -282 -176
-471 -326 -494 l-40 -7 50 24 c249 119 363 678 226 1108 -50 154 -129 267
-218 310 -24 11 -43 23 -43 25 0 8 54 -8 98 -28z m-330 -293 c45 -133 57 -221
57 -415 0 -138 -5 -205 -17 -263 -23 -101 -60 -209 -73 -209 -5 0 -20 29 -32
64 -71 208 -83 514 -27 732 23 87 55 169 64 159 4 -4 17 -35 28 -68z"/>
<path d="M1083 4931 c-79 -8 -87 -17 -22 -25 37 -5 57 -3 73 7 12 8 31 17 41
20 27 6 -11 6 -92 -2z"/>
<path d="M1177 4916 c-140 -58 -251 -203 -330 -432 -167 -481 -110 -1123 128
-1460 58 -81 115 -131 191 -165 82 -38 94 -37 24 2 -67 37 -109 76 -165 154
-167 233 -250 610 -224 1007 29 437 188 787 403 889 73 35 54 38 -27 5z"/>
<path d="M1280 4928 c-59 -24 -110 -50 -114 -57 -5 -8 150 12 177 24 9 4 17
11 17 16 0 5 8 9 18 9 9 0 24 5 32 10 21 14 -97 12 -130 -2z m18 -25 c-10 -2
-28 -2 -40 0 -13 2 -5 4 17 4 22 1 32 -1 23 -4z"/>
<path d="M3275 4930 c-90 -7 -155 -24 -155 -41 0 -5 -7 -9 -16 -9 -17 0 -144
-117 -144 -132 0 -11 107 0 135 14 18 8 17 7 -2 -9 -18 -15 -21 -24 -14 -53 9
-44 22 -43 89 4 42 31 52 43 52 66 0 17 -7 33 -17 39 -10 6 -12 11 -5 11 7 0
12 13 12 29 0 28 -3 30 -42 34 l-43 4 47 1 c41 2 47 -1 50 -20 2 -18 9 -23 28
-21 l25 2 -22 -11 c-23 -11 -30 -42 -15 -65 6 -9 25 -3 72 21 52 27 66 40 68
60 2 14 -1 26 -6 26 -5 0 -7 14 -4 30 2 17 3 29 1 28 -2 -1 -44 -4 -94 -8z"/>
<path d="M3408 4933 c-21 -5 -24 -29 -5 -36 10 -4 10 -6 0 -6 -7 -1 -13 -10
-13 -21 0 -14 7 -20 22 -20 21 0 21 -1 3 -13 -13 -10 -16 -21 -11 -40 8 -32
15 -33 66 -7 22 11 40 18 40 15 0 -2 -15 -12 -32 -21 -61 -31 -66 -39 -55 -89
l10 -45 83 0 c65 0 83 3 88 16 9 23 71 115 96 142 l21 22 -81 0 c-45 0 -91 -5
-103 -11 -20 -9 -20 -9 -4 4 9 8 17 24 17 36 0 13 -7 21 -17 22 -11 0 -13 3
-5 6 6 2 12 16 12 29 0 23 -3 24 -57 23 -32 -1 -66 -3 -75 -6z m62 -73 c-8 -5
-19 -10 -25 -10 -5 0 -3 5 5 10 8 5 20 10 25 10 6 0 3 -5 -5 -10z"/>
<path d="M920 4923 c-14 -3 -29 -8 -35 -13 -5 -4 -22 -10 -37 -14 -16 -3 -28
-10 -28 -15 0 -8 53 -6 98 4 12 3 22 1 22 -3 0 -5 25 -12 56 -16 40 -5 61 -2
76 8 19 14 18 15 -26 21 -26 4 -60 5 -76 1 -17 -3 -30 -1 -30 4 0 6 8 10 18
10 9 0 24 5 32 10 11 7 8 9 -15 8 -16 0 -41 -3 -55 -5z m3 -20 c-7 -2 -19 -2
-25 0 -7 3 -2 5 12 5 14 0 19 -2 13 -5z"/>
<path d="M1321 4860 l-23 -20 72 0 c57 0 77 4 97 20 l26 20 -74 0 c-59 -1 -79
-5 -98 -20z"/>
<path d="M776 4848 c-20 -17 -20 -17 24 -17 38 0 80 16 80 30 0 13 -87 2 -104
-13z"/>
<path d="M899 4852 c-27 -19 -15 -29 46 -37 43 -6 53 -4 69 14 14 16 16 21 5
21 -8 1 -33 5 -56 9 -32 6 -48 5 -64 -7z"/>
<path d="M1195 4858 c-51 -8 -103 -33 -92 -44 9 -9 173 28 186 41 14 13 13 15
-9 14 -14 -1 -52 -6 -85 -11z"/>
<path d="M1270 4805 l-24 -26 78 3 c69 3 81 6 94 26 l14 22 -69 0 c-62 0 -72
-3 -93 -25z"/>
<path d="M718 4793 l-21 -23 50 0 c42 0 53 4 66 23 14 22 14 22 -30 22 -33 0
-50 -6 -65 -22z"/>
<path d="M1142 4805 c-55 -11 -90 -32 -92 -56 0 -3 36 1 80 10 54 11 88 24
102 39 l22 22 -24 -1 c-14 -1 -53 -7 -88 -14z"/>
<path d="M837 4792 c-21 -23 -19 -25 52 -42 52 -12 54 -12 72 11 23 31 16 37
-51 45 -47 5 -58 3 -73 -14z"/>
<path d="M3307 4781 c-67 -39 -68 -41 -56 -84 5 -20 12 -37 15 -37 3 0 34 20
68 45 57 40 62 47 58 75 -5 38 -22 38 -85 1z"/>
<path d="M1222 4743 l-27 -28 75 -3 c67 -3 76 -1 92 20 10 13 18 26 18 31 0 4
-29 7 -65 7 -59 0 -69 -3 -93 -27z"/>
<path d="M1107 4741 c-68 -14 -81 -20 -93 -43 -13 -25 -13 -28 2 -28 27 0 138
31 152 43 17 14 35 47 25 46 -4 -1 -43 -9 -86 -18z"/>
<path d="M666 4728 c-22 -31 -20 -38 12 -38 43 0 66 10 85 36 l18 24 -50 0
c-40 0 -53 -4 -65 -22z"/>
<path d="M785 4724 c-9 -14 -15 -27 -13 -28 2 -2 29 -10 60 -19 l58 -15 21 29
c12 17 20 31 18 33 -6 5 -97 26 -112 26 -8 0 -22 -12 -32 -26z"/>
<path d="M2914 4678 c-30 -51 -74 -144 -74 -157 0 -3 24 -4 54 -3 49 3 58 8
116 61 l63 56 -7 48 -7 47 -57 0 -57 0 -31 -52z"/>
<path d="M3331 4688 l-63 -42 6 -45 c3 -25 10 -49 16 -55 5 -5 32 11 69 43 55
48 60 55 54 84 -11 60 -15 60 -82 15z"/>
<path d="M3165 4689 c-77 -57 -74 -52 -62 -103 6 -25 15 -46 21 -46 18 0 125
100 121 113 -2 7 -6 24 -9 40 -8 34 -21 34 -71 -4z"/>
<path d="M1183 4678 c-6 -7 -16 -23 -22 -35 -12 -23 -11 -23 63 -23 73 0 76 1
91 30 8 16 15 31 15 35 0 11 -138 5 -147 -7z"/>
<path d="M617 4644 l-17 -35 47 3 c41 3 49 7 66 36 l19 32 -49 0 c-47 0 -50
-2 -66 -36z"/>
<path d="M746 4658 c-25 -35 -20 -45 31 -62 63 -22 78 -20 91 9 18 38 16 42
-32 54 -24 6 -50 13 -59 16 -9 4 -21 -3 -31 -17z"/>
<path d="M1052 4661 c-62 -16 -92 -39 -92 -69 0 -15 10 -14 107 14 41 11 56
21 68 44 19 36 14 37 -83 11z"/>
<path d="M3447 4633 c-16 -3 -53 -28 -89 -62 l-61 -57 18 -67 18 -67 82 0 82
0 14 48 c7 26 27 84 45 130 l32 82 -56 -1 c-32 -1 -70 -4 -85 -6z"/>
<path d="M1211 4600 c-73 -5 -75 -6 -88 -37 l-13 -33 78 0 79 0 11 37 c6 20
10 37 9 37 -1 1 -35 -1 -76 -4z"/>
<path d="M3007 4558 l-55 -53 15 -53 c9 -29 21 -52 27 -50 6 2 33 27 60 56 49
52 49 53 40 99 -5 26 -14 48 -20 50 -7 2 -37 -20 -67 -49z"/>
<path d="M3176 4560 l-54 -51 14 -47 c8 -25 18 -50 23 -55 9 -9 116 96 116
112 -3 42 -19 91 -31 91 -9 0 -39 -23 -68 -50z"/>
<path d="M1021 4577 c-64 -18 -75 -25 -89 -54 -8 -18 -13 -36 -9 -39 3 -3 39
4 80 16 66 20 76 26 91 56 24 52 31 51 -73 21z"/>
<path d="M575 4560 c-8 -16 -15 -31 -15 -35 0 -3 20 -5 45 -5 39 0 46 4 60 30
8 16 15 31 15 35 0 3 -20 5 -45 5 -39 0 -46 -4 -60 -30z"/>
<path d="M699 4560 c-6 -16 -11 -33 -12 -36 -2 -8 88 -42 113 -43 14 -1 48 65
38 73 -7 7 -103 36 -115 36 -8 0 -19 -13 -24 -30z"/>
<path d="M1102 4498 c-5 -7 -13 -28 -17 -45 l-7 -33 75 0 74 0 11 39 c7 21 12
41 12 45 0 12 -137 6 -148 -6z"/>
<path d="M537 4463 l-15 -38 45 -3 c52 -4 58 1 68 46 l7 32 -45 0 c-42 0 -46
-2 -60 -37z"/>
<path d="M664 4465 c-8 -19 -14 -39 -14 -44 0 -13 122 -53 132 -43 5 5 11 24
14 43 6 34 5 34 -56 56 l-61 22 -15 -34z"/>
<path d="M976 4476 c-64 -20 -70 -25 -82 -59 -7 -20 -10 -38 -6 -41 4 -2 41 7
83 20 63 20 78 29 83 48 3 13 9 31 12 40 8 20 -4 19 -90 -8z"/>
<path d="M2819 4473 c-16 -42 -59 -213 -59 -234 0 -16 8 -19 50 -19 49 0 50 0
105 69 30 37 55 76 55 86 0 9 -7 41 -16 71 l-15 54 -55 0 c-50 0 -55 -2 -65
-27z"/>
<path d="M3221 4435 c-28 -29 -51 -59 -51 -66 0 -29 35 -119 46 -119 17 0 106
120 100 136 -3 7 -10 31 -16 53 -6 22 -14 43 -19 45 -5 3 -32 -19 -60 -49z"/>
<path d="M3046 4430 c-25 -27 -46 -58 -46 -68 0 -32 31 -112 44 -112 6 0 32
27 58 60 l45 60 -15 55 c-8 30 -21 55 -27 55 -7 0 -33 -22 -59 -50z"/>
<path d="M554 4392 c-38 -3 -41 -5 -51 -43 -12 -46 -6 -52 49 -47 29 3 35 8
46 42 7 22 9 42 5 45 -4 3 -26 5 -49 3z"/>
<path d="M1066 4392 c-2 -4 -7 -24 -11 -45 l-7 -37 76 0 c74 0 76 0 82 28 3
15 8 35 11 45 4 15 -4 17 -71 17 -41 0 -77 -3 -80 -8z"/>
<path d="M636 4382 c-2 -4 -7 -23 -11 -43 l-7 -36 57 -21 c74 -29 81 -28 89 9
10 52 8 56 -53 78 -65 24 -68 24 -75 13z"/>
<path d="M940 4366 c-60 -21 -65 -25 -73 -60 -5 -20 -7 -40 -4 -43 3 -3 39 6
79 19 70 24 73 26 85 66 14 51 9 52 -87 18z"/>
<path d="M3406 4362 c-87 -3 -83 -1 -152 -99 l-37 -52 33 -81 33 -81 81 3 81
3 7 75 c4 41 15 110 24 153 8 43 14 79 12 80 -2 1 -38 1 -82 -1z"/>
<path d="M2926 4284 c-25 -33 -46 -66 -46 -76 0 -28 42 -128 54 -128 6 0 30
30 53 66 l41 65 -19 57 c-11 31 -23 60 -28 65 -5 5 -29 -16 -55 -49z"/>
<path d="M3095 4283 c-25 -32 -45 -66 -45 -75 0 -25 47 -128 58 -128 9 0 92
124 92 137 0 17 -44 123 -51 123 -5 0 -29 -26 -54 -57z"/>
<path d="M1040 4264 c-6 -14 -10 -36 -10 -50 0 -23 2 -24 74 -24 l73 0 7 38
c10 64 12 62 -64 62 -66 0 -71 -1 -80 -26z"/>
<path d="M486 4268 c-3 -7 -7 -28 -10 -45 l-5 -33 48 0 c46 0 49 1 55 31 11
56 9 59 -39 59 -28 0 -47 -5 -49 -12z"/>
<path d="M610 4254 c-22 -57 -15 -70 53 -97 34 -13 65 -21 68 -18 4 3 10 25
14 47 4 30 3 43 -7 47 -7 3 -37 14 -66 26 l-53 21 -9 -26z"/>
<path d="M918 4253 c-64 -24 -67 -26 -73 -65 -4 -21 -4 -42 -1 -46 7 -6 145
38 151 48 1 3 6 24 10 48 8 50 8 50 -87 15z"/>
<path d="M2746 4163 c-4 -21 -9 -95 -13 -164 l-6 -126 37 -1 c62 -2 78 10 119
94 l38 79 -28 75 -29 75 -56 3 -55 3 -7 -38z"/>
<path d="M2980 4111 l-42 -70 33 -71 c17 -38 35 -70 40 -70 9 0 79 126 79 144
0 21 -47 130 -58 134 -6 2 -29 -28 -52 -67z"/>
<path d="M3157 4120 c-20 -33 -37 -70 -36 -82 0 -29 51 -131 64 -131 6 0 27
31 47 69 l37 69 -27 64 c-15 36 -32 66 -37 68 -6 2 -27 -24 -48 -57z"/>
<path d="M1023 4154 c-3 -9 -6 -32 -7 -52 l-1 -37 69 -3 c79 -3 86 2 86 66 l0
42 -70 0 c-56 0 -72 -3 -77 -16z"/>
<path d="M467 4153 c-4 -3 -7 -26 -7 -50 l0 -43 44 0 c48 0 56 9 56 66 0 33
-1 34 -43 34 -24 0 -47 -3 -50 -7z"/>
<path d="M593 4143 c-3 -8 -6 -31 -7 -50 -1 -33 1 -35 58 -59 83 -34 86 -33
86 24 l0 49 -66 26 c-56 22 -66 24 -71 10z"/>
<path d="M905 4131 l-70 -27 -3 -47 c-2 -28 1 -47 7 -47 6 0 40 12 75 26 66
26 76 40 76 105 0 24 0 24 -85 -10z"/>
<path d="M457 4034 c-4 -4 -7 -29 -7 -56 l0 -49 48 3 47 3 0 50 0 50 -41 3
c-22 1 -43 -1 -47 -4z"/>
<path d="M1006 3994 c-3 -25 -3 -50 0 -55 3 -5 39 -9 80 -9 l74 0 0 55 0 55
-74 0 -73 0 -7 -46z"/>
<path d="M3284 4032 c-16 -10 -84 -148 -84 -169 0 -10 17 -49 38 -88 l38 -70
82 -3 82 -3 0 171 0 170 -72 0 c-40 0 -78 -4 -84 -8z"/>
<path d="M580 4018 c0 -7 -3 -29 -6 -49 -6 -34 -4 -37 32 -52 22 -8 56 -23 77
-31 l37 -16 0 54 0 54 -65 26 c-75 30 -75 30 -75 14z"/>
<path d="M890 4002 c-63 -26 -65 -28 -68 -66 -6 -65 -1 -68 70 -40 83 34 88
39 88 90 0 52 -2 52 -90 16z"/>
<path d="M2884 3938 l-37 -75 34 -63 c19 -35 40 -66 47 -68 7 -2 24 24 43 64
l30 68 -26 63 c-41 96 -48 97 -91 11z"/>
<path d="M3053 3936 l-36 -73 37 -67 c20 -36 43 -66 49 -66 12 0 67 112 67
136 0 21 -60 144 -70 144 -6 0 -27 -33 -47 -74z"/>
<path d="M450 3853 l0 -54 48 3 c47 3 47 3 50 42 4 48 -8 61 -58 62 l-40 0 0
-53z"/>
<path d="M1004 3895 c-3 -7 -4 -30 -2 -51 l3 -39 78 -3 78 -3 -3 53 -3 53 -73
2 c-52 1 -75 -3 -78 -12z"/>
<path d="M574 3886 c-3 -8 -4 -30 -2 -51 3 -35 6 -38 73 -66 38 -16 73 -25 77
-21 5 5 6 28 2 52 -7 41 -10 44 -70 71 -74 34 -73 33 -80 15z"/>
<path d="M890 3870 l-65 -29 2 -46 c1 -26 3 -49 6 -51 2 -2 35 9 73 24 60 25
69 32 68 53 -1 13 -2 36 -3 52 -1 33 0 33 -81 -3z"/>
<path d="M2730 3803 c0 -57 15 -205 25 -250 5 -20 12 -23 56 -23 l50 0 25 57
c41 92 41 100 -8 189 l-44 79 -52 3 -52 3 0 -58z"/>
<path d="M2976 3771 c-14 -32 -26 -66 -26 -76 0 -25 69 -135 85 -135 13 0 55
96 55 127 0 20 -68 143 -79 143 -5 0 -20 -26 -35 -59z"/>
<path d="M3147 3768 c-15 -35 -27 -69 -27 -77 0 -24 74 -131 89 -129 7 2 24
31 38 65 l25 63 -39 66 c-21 37 -43 69 -49 71 -6 2 -23 -25 -37 -59z"/>
<path d="M450 3751 c0 -10 3 -33 6 -50 6 -29 9 -31 50 -31 l44 0 0 50 0 50
-50 0 c-42 0 -50 -3 -50 -19z"/>
<path d="M580 3721 l0 -48 75 -31 c41 -16 78 -26 80 -21 3 4 2 26 -1 49 -5 29
-13 44 -28 50 -12 4 -45 17 -73 29 l-53 21 0 -49z"/>
<path d="M900 3740 c-70 -29 -82 -48 -61 -103 l10 -26 66 27 65 27 0 47 c0 26
-3 49 -7 51 -5 2 -37 -8 -73 -23z"/>
<path d="M1010 3720 l0 -50 78 0 77 0 -3 50 -4 50 -74 0 -74 0 0 -50z"/>
<path d="M3256 3609 c-14 -38 -26 -77 -26 -85 0 -8 25 -46 55 -85 l56 -69 80
0 c77 0 79 1 74 23 -17 73 -34 170 -41 225 l-7 62 -82 0 -83 0 -26 -71z"/>
<path d="M464 3627 c3 -12 6 -34 6 -49 0 -27 2 -28 50 -28 45 0 50 2 49 23 -3
61 -12 72 -63 74 -45 2 -48 0 -42 -20z"/>
<path d="M2905 3598 c-10 -29 -20 -58 -22 -64 -5 -13 84 -129 99 -129 10 0 48
89 48 113 0 20 -79 132 -93 132 -7 0 -21 -24 -32 -52z"/>
<path d="M3096 3642 c-16 -26 -44 -117 -39 -126 21 -35 89 -116 99 -116 10 0
44 92 44 119 0 16 -78 131 -90 131 -5 0 -11 -3 -14 -8z"/>
<path d="M594 3598 c4 -24 10 -46 14 -50 13 -13 142 -57 146 -50 2 4 1 25 -3
47 -6 38 -9 41 -76 67 -39 15 -74 27 -79 28 -5 0 -6 -19 -2 -42z"/>
<path d="M960 3632 c-8 -3 -38 -15 -67 -28 l-51 -22 9 -43 c6 -24 12 -45 13
-47 2 -1 34 9 71 24 l67 27 -6 41 c-8 47 -15 56 -36 48z"/>
<path d="M1020 3616 c0 -14 4 -36 10 -50 9 -25 14 -26 80 -26 77 0 77 1 64 69
l-6 31 -74 0 c-72 0 -74 -1 -74 -24z"/>
<path d="M483 3503 c3 -10 8 -30 11 -45 6 -25 10 -28 51 -28 48 0 50 3 39 59
-6 30 -9 31 -56 31 -42 0 -49 -3 -45 -17z"/>
<path d="M610 3506 c0 -7 3 -27 6 -44 6 -28 13 -33 82 -56 41 -14 78 -24 81
-21 2 3 0 22 -5 42 -8 35 -14 39 -84 65 -88 33 -80 31 -80 14z"/>
<path d="M1044 3478 c4 -23 8 -43 9 -44 1 -1 35 -5 75 -9 80 -8 80 -8 66 64
l-6 31 -76 0 -75 0 7 -42z"/>
<path d="M2767 3488 c7 -40 48 -183 62 -220 10 -26 15 -28 64 -28 l53 0 17 53
c9 30 17 60 17 67 0 7 -25 46 -56 86 l-57 74 -53 0 -53 0 6 -32z"/>
<path d="M921 3488 c-52 -21 -53 -22 -47 -56 8 -53 17 -56 85 -32 64 24 69 33
55 88 -8 27 -23 27 -93 0z"/>
<path d="M3035 3478 c-16 -43 -35 -101 -35 -105 0 -10 104 -113 115 -113 6 0
18 25 25 55 l13 55 -45 57 c-48 61 -65 73 -73 51z"/>
<path d="M3191 3429 l-20 -61 56 -59 c31 -33 60 -56 63 -52 4 5 15 30 24 57
17 54 21 45 -47 129 -21 26 -43 47 -47 47 -4 0 -17 -27 -29 -61z"/>
<path d="M510 3403 c0 -5 5 -25 11 -45 10 -37 11 -38 56 -38 l45 0 -7 37 c-4
21 -9 41 -11 45 -7 10 -94 10 -94 1z"/>
<path d="M642 3368 c6 -18 14 -37 19 -42 10 -12 147 -55 153 -49 2 3 -1 21 -8
41 -11 32 -19 38 -81 59 -93 31 -96 31 -83 -9z"/>
<path d="M957 3377 c-58 -21 -59 -22 -53 -56 3 -19 9 -38 14 -43 4 -4 36 2 71
13 l63 21 -7 37 c-11 60 -7 58 -88 28z"/>
<path d="M1064 3383 c2 -10 7 -28 11 -39 6 -24 40 -34 112 -34 l45 0 -7 37
c-4 21 -9 41 -11 45 -3 5 -39 8 -80 8 -67 0 -75 -2 -70 -17z"/>
<path d="M3326 3302 c-9 -32 -16 -63 -16 -70 0 -6 30 -36 66 -66 l65 -56 78 0
78 0 -43 108 c-24 59 -44 115 -44 125 0 15 -11 17 -84 17 l-83 0 -17 -58z"/>
<path d="M2980 3299 c-6 -22 -13 -46 -16 -53 -6 -15 113 -119 126 -111 5 3 12
26 16 51 6 45 6 47 -47 100 -29 30 -57 54 -61 54 -4 0 -12 -18 -18 -41z"/>
<path d="M3147 3288 l-15 -53 56 -52 c31 -29 61 -52 67 -50 5 2 15 23 22 47
l13 44 -57 58 c-32 32 -60 58 -64 58 -3 0 -13 -24 -22 -52z"/>
<path d="M540 3296 c0 -2 7 -20 15 -40 14 -34 18 -36 60 -36 49 0 53 6 30 50
-14 26 -21 30 -60 30 -25 0 -45 -2 -45 -4z"/>
<path d="M670 3285 c0 -8 5 -25 11 -39 12 -25 59 -44 148 -62 l30 -6 -12 32
c-13 35 -32 46 -124 73 -45 13 -53 14 -53 2z"/>
<path d="M992 3271 c-29 -10 -55 -20 -57 -23 -10 -10 20 -68 35 -68 14 0 110
29 118 35 6 5 -27 75 -35 74 -4 0 -32 -9 -61 -18z"/>
<path d="M1101 3263 c18 -48 28 -53 101 -53 60 0 69 2 64 16 -3 9 -9 27 -12
40 -6 23 -10 24 -85 24 l-79 0 11 -27z"/>
<path d="M2850 3220 c0 -16 49 -109 82 -157 19 -28 37 -43 51 -44 19 0 20 -1
4 -8 -16 -6 -10 -15 40 -63 82 -78 144 -104 266 -113 93 -7 97 -6 97 13 0 11
-8 23 -17 25 -15 4 -16 5 -2 6 9 0 19 10 22 21 4 17 -6 26 -65 56 -38 19 -71
34 -73 32 -1 -2 -5 -15 -9 -30 -4 -20 -1 -30 11 -37 17 -10 17 -10 1 -11 -11
0 -18 -8 -18 -20 0 -11 -5 -20 -11 -20 -7 0 -9 10 -5 24 5 19 0 29 -16 41 -22
16 -22 17 -2 11 18 -6 22 -1 28 25 3 18 5 33 4 34 -54 39 -131 86 -135 82 -2
-3 -7 -24 -10 -46 -5 -36 -9 -41 -31 -41 l-26 0 22 20 c12 12 23 32 24 45 0
14 1 30 2 35 1 6 -30 37 -68 70 -64 55 -73 60 -118 60 -26 0 -48 -5 -48 -10z"/>
<path d="M580 3195 c0 -4 7 -19 15 -35 14 -26 21 -30 60 -30 25 0 45 2 45 4 0
1 -5 17 -11 35 -10 29 -14 31 -60 31 -27 0 -49 -2 -49 -5z"/>
<path d="M710 3189 c0 -25 27 -60 49 -65 14 -3 51 -12 81 -20 30 -7 56 -11 58
-9 2 2 -4 17 -13 33 -14 24 -31 32 -96 49 -44 12 -79 17 -79 12z"/>
<path d="M1135 3190 c-1 -3 4 -20 11 -37 l14 -33 75 0 c41 0 75 2 75 5 0 4 -7
19 -15 35 -14 27 -19 29 -86 32 -39 2 -72 1 -74 -2z"/>
<path d="M3113 3155 l-10 -46 58 -39 c77 -53 81 -52 93 5 6 27 1 35 -50 78
-31 26 -62 47 -68 47 -7 0 -17 -20 -23 -45z"/>
<path d="M3296 3192 c-3 -5 -8 -27 -12 -49 l-6 -40 63 -42 c34 -23 66 -38 70
-34 4 4 10 24 14 43 5 33 3 38 -49 80 -61 50 -72 55 -80 42z"/>
<path d="M1025 3173 c-27 -8 -51 -16 -53 -18 -7 -6 29 -65 39 -65 17 0 119 31
119 36 0 16 -33 64 -43 63 -6 0 -34 -7 -62 -16z"/>
<path d="M620 3112 c0 -2 9 -17 21 -33 17 -25 27 -29 65 -29 l45 0 -15 29
c-14 25 -22 29 -66 33 -27 1 -50 1 -50 0z"/>
<path d="M750 3105 c0 -3 7 -16 16 -29 11 -19 33 -28 90 -41 41 -9 79 -15 84
-13 24 8 -30 50 -80 62 -93 23 -110 27 -110 21z"/>
<path d="M1174 3101 c-2 -2 6 -17 17 -32 19 -27 24 -29 94 -29 l74 0 -17 29
c-16 28 -21 30 -90 33 -41 2 -75 1 -78 -1z"/>
<path d="M1066 3086 c-47 -15 -51 -23 -28 -53 17 -22 18 -22 79 -6 l63 15 -17
29 c-19 32 -35 34 -97 15z"/>
<path d="M3444 3085 c-4 -9 -7 -33 -8 -52 -1 -35 2 -37 74 -75 66 -35 74 -43
72 -65 -2 -14 2 -30 10 -34 10 -7 8 -9 -6 -9 -12 0 -16 -3 -10 -9 5 -5 79 -12
164 -15 145 -5 153 -4 121 10 -19 9 -54 29 -77 45 -37 25 -53 29 -116 31 l-73
2 68 3 69 4 -35 42 c-19 23 -47 62 -63 87 l-29 45 -77 4 c-66 3 -79 1 -84 -14z"/>
<path d="M3266 3064 c-17 -45 -7 -61 58 -95 36 -19 67 -31 70 -29 2 3 7 17 11
31 6 23 0 31 -52 68 -63 45 -78 49 -87 25z"/>
<path d="M676 3028 c21 -37 39 -48 81 -48 49 0 53 7 20 38 -26 25 -114 33
-101 10z"/>
<path d="M812 3008 c15 -22 53 -35 150 -51 37 -6 37 -5 23 17 -11 17 -34 27
-93 39 -98 21 -97 21 -80 -5z"/>
<path d="M1220 3021 c0 -4 11 -18 24 -30 20 -19 32 -22 94 -19 70 3 70 3 53
24 -13 17 -32 22 -94 27 -42 4 -77 3 -77 -2z"/>
<path d="M1108 3008 c-43 -11 -46 -18 -19 -42 17 -15 26 -16 79 -5 l61 11 -16
24 c-17 26 -42 29 -105 12z"/>
<path d="M3417 2953 c-3 -16 0 -31 6 -35 9 -6 8 -8 -2 -8 -9 0 -12 -8 -9 -25
3 -14 1 -28 -4 -31 -22 -14 10 -24 78 -24 58 0 74 3 74 15 0 7 -8 19 -17 25
-15 10 -15 11 -1 6 10 -3 18 3 22 17 3 12 4 22 3 22 -29 19 -124 65 -133 65
-6 0 -14 -12 -17 -27z m83 -65 c10 -6 7 -7 -10 -2 -14 3 -32 11 -40 16 -10 6
-7 7 10 2 14 -3 32 -11 40 -16z"/>
<path d="M743 2950 c16 -13 40 -20 68 -20 41 0 42 0 24 20 -13 15 -31 20 -68
20 l-50 0 26 -20z"/>
<path d="M871 2941 c23 -18 179 -45 179 -31 0 17 -120 50 -183 50 -18 0 -18
-2 4 -19z"/>
<path d="M1171 2946 c-52 -11 -53 -12 -34 -29 16 -14 30 -16 81 -11 34 4 62 9
62 11 0 6 -44 43 -50 42 -3 -1 -29 -6 -59 -13z"/>
<path d="M1286 2939 c16 -16 38 -21 100 -25 l79 -6 -24 26 c-22 24 -32 26
-100 26 l-75 0 20 -21z"/>
<path d="M800 2901 c17 -14 39 -21 70 -20 42 0 44 1 26 14 -11 8 -34 15 -52
15 -18 0 -41 3 -51 6 -13 4 -11 0 7 -15z"/>
<path d="M924 2896 c11 -9 32 -16 47 -16 14 0 48 -3 74 -7 32 -4 46 -3 42 4
-4 6 -32 13 -64 16 -32 4 -71 9 -88 13 -29 5 -29 5 -11 -10z"/>
<path d="M1215 2891 c-38 -6 -39 -6 -15 -17 14 -6 51 -9 83 -6 51 4 55 6 40
18 -19 14 -42 15 -108 5z"/>
<path d="M1346 2885 c13 -10 44 -14 94 -14 68 0 73 1 56 14 -13 10 -44 15 -95
15 -68 0 -73 -1 -55 -15z"/>
<path d="M885 2855 c22 -8 53 -14 69 -14 28 -1 29 0 10 14 -11 8 -39 14 -69
14 l-50 -1 40 -13z"/>
<path d="M982 2866 c9 -10 137 -36 173 -35 48 1 2 15 -75 23 -36 4 -74 10 -85
13 -11 3 -17 2 -13 -1z"/>
<path d="M1285 2851 c-29 -7 -28 -7 15 -14 25 -3 68 -9 95 -12 l50 -6 -44 20
c-45 22 -64 24 -116 12z"/>
<path d="M1400 2856 c0 -12 109 -36 162 -35 35 1 52 4 38 6 -13 3 -33 11 -44
19 -18 12 -156 21 -156 10z"/>
<path d="M1350 2569 c-14 -6 -45 -8 -70 -5 -214 28 -430 -256 -510 -670 -113
-589 60 -1246 370 -1400 49 -24 67 -28 175 -30 120 -3 120 -3 84 14 -20 10
-52 30 -72 45 -24 18 -48 27 -74 28 -21 0 -47 4 -58 9 -13 6 -1 7 35 4 l55 -6
-31 31 c-25 26 -41 33 -87 38 -31 3 -57 9 -57 13 0 4 23 5 51 2 l52 -5 -19 33
c-20 35 -34 43 -104 59 l-45 10 56 -4 56 -5 -20 43 c-26 52 -28 54 -94 62 -29
3 -53 11 -53 16 0 8 63 4 98 -7 16 -4 15 -1 -5 56 -17 48 -18 48 -75 60 -72
14 -77 30 -6 19 29 -5 53 -7 54 -6 2 1 -4 28 -13 59 l-16 56 -58 12 c-33 7
-59 17 -59 21 0 8 26 6 88 -7 23 -5 23 -4 17 53 -4 32 -9 61 -11 65 -3 4 -29
12 -59 19 -30 7 -55 16 -55 21 0 10 12 10 69 -1 l43 -9 -6 37 c-3 20 -6 50 -6
68 0 30 -2 32 -55 44 -72 16 -72 33 0 24 l55 -7 -4 68 -3 69 -52 14 c-62 17
-68 34 -8 25 23 -4 47 -7 52 -8 6 0 12 29 15 66 l5 68 -52 11 c-69 16 -68 31
1 23 l54 -7 7 57 c4 30 7 59 7 63 -1 5 -21 13 -46 18 -67 15 -68 27 -2 23 l59
-3 13 55 c7 30 13 56 14 57 0 1 -17 5 -37 9 -66 12 -74 26 -12 21 l56 -5 16
51 c9 28 15 53 13 55 -3 2 -23 6 -45 9 -23 3 -44 10 -48 16 -4 7 13 8 50 4
l56 -7 21 46 c11 26 20 48 20 50 0 2 -12 4 -27 5 -16 0 -37 4 -48 9 -15 7 -6
9 33 8 50 -2 54 0 77 35 14 20 25 38 25 41 0 4 -20 6 -44 6 -25 0 -48 5 -51
11 -5 7 11 10 49 8 51 -2 60 0 82 24 13 14 24 28 24 31 0 3 -19 7 -42 9 l-43
4 48 1 c32 1 58 10 78 25 l31 22 -44 6 -43 6 52 1 c59 2 103 19 103 39 0 15
-15 16 -50 2z m-140 -50 c-198 -133 -332 -456 -359 -866 -36 -530 130 -1019
394 -1162 36 -20 37 -21 10 -16 -46 10 -120 62 -174 121 -176 199 -285 603
-268 999 12 262 61 477 154 664 44 90 71 130 125 187 63 66 133 114 167 114 7
0 -15 -19 -49 -41z m124 -2017 c2 -4 -12 -6 -32 -4 -56 5 -62 10 -15 11 23 1
44 -3 47 -7z"/>
<path d="M1490 2565 c0 -11 -7 -14 -22 -10 -13 2 -36 -2 -53 -9 l-30 -14 47
-1 c25 -1 52 -3 60 -6 7 -2 24 5 38 16 16 14 19 19 8 15 -10 -3 -18 -1 -18 5
0 7 10 9 23 5 13 -3 36 -1 52 3 25 8 18 9 -37 10 -55 1 -68 -2 -68 -14z"/>
<path d="M1645 2566 c-81 -26 -174 -94 -159 -118 4 -7 3 -8 -4 -4 -16 9 -87
-84 -132 -174 -120 -238 -177 -581 -151 -903 35 -441 186 -774 401 -884 46
-23 67 -28 130 -28 62 0 84 5 128 28 217 113 372 459 401 892 46 707 -261
1303 -614 1191z m205 -346 c43 -22 107 -90 143 -151 131 -223 164 -627 76
-922 -44 -149 -121 -272 -199 -322 -40 -25 -120 -49 -120 -35 0 4 14 10 31 14
42 8 137 106 175 181 70 135 103 276 111 475 14 371 -99 678 -282 767 l-50 25
40 -7 c21 -4 55 -15 75 -25z m-325 -313 c43 -136 58 -260 51 -442 -3 -88 -12
-190 -20 -227 -18 -79 -54 -189 -66 -201 -11 -12 -48 91 -73 203 -17 77 -21
130 -21 275 0 209 14 296 79 473 9 25 25 1 50 -81z"/>
<path d="M3747 2572 c6 -4 -48 -6 -119 -4 -74 2 -133 0 -137 -6 -3 -5 -31 -6
-66 -1 -96 12 -135 11 -135 -4 0 -15 -70 -18 -81 -4 -3 4 -16 4 -29 -1 -36
-13 -8 -24 61 -23 33 0 73 8 90 17 17 8 32 14 34 12 2 -2 -16 -14 -41 -27 -32
-17 -41 -27 -32 -32 9 -6 7 -9 -9 -9 -20 0 -133 -104 -133 -123 0 -5 -11 -23
-25 -41 -33 -44 -32 -48 11 -30 33 14 38 14 54 -1 16 -15 19 -13 39 21 26 44
16 57 -39 50 l-35 -4 33 14 c31 14 37 13 78 -10 38 -21 48 -23 79 -13 20 6 45
23 56 39 23 31 22 32 -16 18 -18 -7 -33 -7 -48 1 -18 10 -24 8 -44 -17 -26
-33 -31 -26 -7 10 14 22 14 25 -3 30 -10 3 -28 4 -41 1 -30 -5 -28 3 4 15 17
7 32 6 46 -1 16 -9 24 -7 44 12 13 12 24 18 24 12 0 -6 -7 -16 -16 -24 -14
-11 -14 -13 0 -21 20 -11 91 9 112 33 16 17 15 18 -12 10 -21 -6 -41 -3 -71
10 -47 20 -57 33 -18 23 28 -7 57 10 49 30 -3 8 7 12 30 12 19 0 32 -4 30 -8
-3 -4 7 -8 23 -8 21 0 24 -3 13 -9 -8 -6 -26 -7 -41 -4 -34 6 -80 -15 -58 -28
21 -11 101 10 121 32 9 11 22 19 30 19 8 0 19 5 25 11 6 6 19 9 29 7 14 -2 5
-10 -29 -27 -50 -24 -59 -39 -13 -21 19 7 33 7 47 -1 15 -8 24 -7 35 2 12 10
13 9 8 -5 -4 -11 -1 -16 10 -16 9 0 16 -4 16 -10 0 -6 -9 -6 -24 0 -19 7 -28
4 -46 -15 -20 -21 -20 -24 -5 -33 33 -18 125 24 125 57 0 6 5 11 10 11 20 0
90 53 83 63 -3 5 -2 7 4 4 5 -3 23 -2 39 2 22 6 9 8 -51 9 -44 1 -75 -2 -68
-6z m-184 -19 c-7 -2 -19 -2 -25 0 -7 3 -2 5 12 5 14 0 19 -2 13 -5z m171 -23
c8 -8 3 -10 -19 -4 -56 13 -73 23 -31 19 21 -2 44 -9 50 -15z m-17 -46 c-3 -3
-12 -4 -19 -1 -8 3 -5 6 6 6 11 1 17 -2 13 -5z"/>
<path d="M3935 2569 c-144 -42 -290 -228 -369 -470 -112 -348 -114 -804 -5
-1147 84 -263 231 -452 382 -493 121 -32 262 30 360 159 159 208 246 526 247
894 0 450 -134 841 -345 1000 -82 62 -182 83 -270 57z m201 -354 c105 -61 190
-215 235 -425 27 -126 32 -378 10 -500 -41 -228 -133 -406 -244 -470 -29 -16
-65 -29 -82 -29 l-30 1 35 11 c20 6 59 35 90 67 133 135 209 405 197 700 -14
329 -121 579 -282 656 l-50 25 40 -6 c22 -4 59 -17 81 -30z m-332 -312 c42
-136 51 -206 50 -398 0 -145 -5 -198 -21 -270 -26 -111 -62 -210 -73 -198 -13
12 -48 124 -66 206 -22 97 -30 340 -15 449 20 151 71 322 90 302 5 -5 21 -46
35 -91z"/>
<path d="M1070 2563 c-45 -3 -60 -7 -50 -13 11 -7 8 -10 -13 -10 -24 0 -87
-24 -87 -34 0 -2 18 -2 40 0 22 1 43 -2 46 -8 5 -7 -11 -9 -49 -6 -52 4 -59 2
-84 -24 l-27 -28 42 0 c25 0 42 -5 42 -11 0 -8 -16 -10 -49 -6 -47 6 -51 4
-75 -28 l-26 -34 37 -6 c61 -10 61 -13 2 -14 -54 -1 -56 -2 -77 -40 -25 -43
-19 -51 39 -51 16 0 29 -5 29 -11 0 -7 -16 -9 -49 -4 -47 6 -50 5 -64 -22 -33
-65 -32 -71 18 -78 68 -11 70 -29 1 -21 -62 8 -64 6 -80 -70 -7 -30 -6 -31 46
-47 l53 -16 -58 3 -57 3 -9 -36 c-21 -81 -20 -84 29 -94 70 -14 76 -31 8 -22
-64 7 -60 12 -72 -81 l-6 -41 55 -12 c65 -15 74 -34 13 -25 -24 3 -48 7 -54 9
-8 2 -14 -20 -19 -62 -8 -74 -5 -78 57 -88 64 -11 59 -29 -6 -21 l-56 7 0 -48
c0 -81 5 -89 66 -102 64 -15 73 -34 12 -25 -24 3 -49 8 -57 10 -11 4 -12 -7
-7 -58 4 -34 9 -65 12 -69 2 -4 23 -10 47 -14 70 -12 80 -27 14 -21 l-59 5 7
-42 c13 -77 19 -84 74 -92 28 -4 54 -11 57 -17 4 -6 -14 -7 -50 -3 -33 4 -56
3 -56 -2 0 -5 7 -30 16 -56 14 -42 19 -47 52 -53 73 -12 91 -24 29 -20 -43 4
-57 1 -54 -7 2 -7 10 -29 18 -49 11 -32 19 -39 48 -44 20 -3 50 -10 66 -15 23
-7 17 -8 -27 -5 -32 3 -58 2 -58 -1 0 -3 10 -23 22 -44 20 -36 25 -39 80 -45
32 -4 58 -10 58 -14 0 -4 -23 -5 -51 -2 -48 4 -50 4 -40 -14 24 -42 39 -51
101 -62 l65 -11 -58 3 -58 3 28 -29 c19 -20 37 -28 62 -29 20 -1 50 -5 66 -10
21 -6 14 -6 -25 -3 l-55 5 25 -20 c24 -20 39 -24 90 -23 l25 1 -25 -8 -25 -8
25 -6 c14 -3 54 -8 90 -11 l64 -4 -62 29 c-361 174 -525 992 -321 1604 22 68
62 160 87 206 59 104 160 209 233 244 30 13 47 24 39 23 -8 -1 -44 -3 -80 -5z
m3 -20 c-7 -2 -19 -2 -25 0 -7 3 -2 5 12 5 14 0 19 -2 13 -5z"/>
<path d="M928 2553 c12 -2 30 -2 40 0 9 3 -1 5 -23 4 -22 0 -30 -2 -17 -4z"/>
<path d="M840 2525 c-25 -14 -25 -14 15 -14 22 0 51 6 65 14 25 14 25 14 -15
14 -22 0 -51 -6 -65 -14z"/>
<path d="M3105 2516 c-19 -14 -19 -15 10 -26 17 -7 44 -12 60 -12 29 0 29 0 7
-11 -18 -8 -29 -8 -44 2 -11 7 -21 11 -22 9 0 -2 -10 -13 -21 -26 -15 -18 -16
-25 -6 -31 28 -18 140 36 125 60 -3 5 1 9 8 9 8 0 22 6 32 13 16 12 13 13 -21
13 -21 0 -54 3 -73 7 -25 6 -41 4 -55 -7z"/>
<path d="M1335 2496 l-30 -25 71 -1 c58 0 74 3 89 20 18 20 17 20 -21 20 -21
0 -48 3 -59 5 -12 4 -31 -4 -50 -19z"/>
<path d="M773 2475 l-28 -24 41 -1 c28 0 46 6 58 19 15 17 15 19 1 25 -28 11
-43 7 -72 -19z"/>
<path d="M3496 2472 c-11 -13 -32 -34 -44 -45 -13 -12 -28 -29 -33 -39 -8 -14
-5 -15 27 -5 26 8 40 8 54 -1 16 -10 22 -7 41 19 18 26 19 33 8 40 -8 5 -27 7
-44 4 -28 -5 -29 -5 -6 5 14 6 37 8 51 5 18 -4 31 0 44 14 21 23 10 32 -39 29
-24 -2 -45 -11 -59 -26z"/>
<path d="M3045 2470 c-16 -18 -16 -20 -1 -26 18 -7 59 23 50 37 -9 15 -30 10
-49 -11z"/>
<path d="M1265 2420 l-29 -30 45 -1 c24 0 54 -2 66 -5 15 -2 28 5 42 25 l21
29 -23 6 c-53 14 -93 7 -122 -24z"/>
<path d="M2983 2411 l-22 -28 22 -10 c18 -9 25 -6 40 13 21 28 22 40 1 48 -9
3 -17 6 -18 6 -1 0 -12 -13 -23 -29z"/>
<path d="M700 2405 c-27 -29 -26 -32 19 -37 28 -2 37 2 58 30 l26 32 -40 0
c-29 0 -46 -7 -63 -25z"/>
<path d="M3552 2401 c-15 -21 -18 -31 -9 -40 24 -24 97 -1 121 40 l17 28 -31
-11 c-22 -7 -38 -7 -54 0 -20 9 -26 6 -44 -17z"/>
<path d="M3136 2408 c-10 -5 -32 -7 -49 -4 -47 10 -93 -42 -51 -58 26 -10 92
15 110 41 18 29 16 35 -10 21z"/>
<path d="M3433 2369 c-18 -5 -40 -22 -51 -41 -25 -39 -23 -43 12 -27 20 9 32
9 51 1 23 -11 27 -9 45 21 19 30 19 33 3 45 -19 14 -17 13 -60 1z"/>
<path d="M1202 2331 l-23 -41 33 0 c18 0 49 -3 68 -6 33 -5 37 -3 53 31 10 21
17 39 15 40 -2 2 -30 7 -63 10 l-60 7 -23 -41z"/>
<path d="M2930 2339 c-22 -29 -22 -31 -4 -44 26 -19 27 -19 47 16 13 24 15 35
6 45 -17 20 -25 17 -49 -17z"/>
<path d="M640 2318 c-26 -43 -25 -48 10 -48 17 0 33 -1 36 -2 3 -2 17 16 31
40 l25 42 -41 0 c-36 0 -44 -4 -61 -32z"/>
<path d="M3241 2317 l-21 -32 21 -17 c20 -17 23 -17 60 2 21 11 46 34 54 50
17 34 16 35 -20 18 -18 -8 -31 -8 -49 0 -22 10 -27 8 -45 -21z"/>
<path d="M3498 2316 c-16 -32 -16 -34 5 -45 31 -17 87 8 111 50 18 30 18 32 2
26 -40 -15 -64 -18 -70 -8 -13 20 -32 11 -48 -23z"/>
<path d="M2986 2315 c-18 -28 -16 -52 7 -61 24 -9 82 24 101 57 l19 32 -24 -7
c-31 -10 -50 -11 -70 -2 -11 5 -21 -1 -33 -19z"/>
<path d="M3383 2285 c-20 -8 -40 -29 -53 -54 -23 -46 -22 -47 21 -25 27 14 33
14 54 0 22 -15 24 -14 39 26 16 38 16 41 -1 54 -22 16 -21 16 -60 -1z"/>
<path d="M2881 2253 l-19 -38 23 -17 c21 -16 22 -16 38 18 22 44 21 51 -3 64
-17 9 -22 5 -39 -27z"/>
<path d="M3117 2278 c-17 -6 -33 -23 -42 -45 -8 -20 -15 -37 -15 -39 0 -2 15
3 34 11 30 13 36 13 46 0 18 -22 24 -19 43 21 27 56 1 77 -66 52z"/>
<path d="M1150 2230 c-12 -23 -19 -45 -15 -48 3 -3 34 -8 68 -10 l63 -4 16 41
c18 46 20 45 -64 56 l-47 7 -21 -42z"/>
<path d="M3456 2234 c-21 -46 -20 -52 8 -65 34 -16 81 12 105 61 22 45 21 46
-20 24 -27 -14 -33 -14 -53 0 -22 14 -24 13 -40 -20z"/>
<path d="M2937 2225 c-21 -45 -21 -48 3 -63 17 -10 27 -9 59 7 21 11 41 28 44
38 2 10 8 26 12 37 8 17 6 17 -24 2 -28 -15 -33 -15 -54 -1 -22 14 -24 14 -40
-20z"/>
<path d="M3193 2225 c-16 -34 -16 -36 4 -56 l20 -21 41 25 c24 16 44 38 51 57
10 29 9 31 -7 25 -33 -15 -60 -17 -66 -6 -12 19 -26 12 -43 -24z"/>
<path d="M581 2208 c-18 -43 -18 -43 3 -50 46 -14 57 -9 75 35 20 47 15 57
-32 57 -23 0 -31 -7 -46 -42z"/>
<path d="M2836 2155 c-14 -43 -14 -45 7 -60 21 -15 23 -14 39 22 22 50 22 48
-6 67 -24 15 -25 15 -40 -29z"/>
<path d="M3075 2181 c-19 -11 -38 -35 -47 -60 -9 -23 -14 -41 -10 -39 4 2 19
10 34 17 23 12 30 12 51 -2 23 -15 24 -14 40 29 15 43 15 44 -6 59 -27 19 -26
19 -62 -4z"/>
<path d="M3335 2186 c-22 -9 -34 -24 -43 -52 -6 -21 -10 -40 -8 -42 2 -2 18 3
34 12 26 14 31 14 42 1 19 -23 26 -18 44 26 16 39 16 42 -1 55 -22 17 -30 17
-68 0z"/>
<path d="M3246 2150 c-27 -17 -31 -17 -53 -3 -27 18 -26 19 -42 -26 -15 -45
-15 -46 13 -64 22 -15 26 -14 58 8 22 15 38 37 46 61 6 21 10 39 9 41 -2 1
-16 -6 -31 -17z"/>
<path d="M3422 2149 c-22 -58 -22 -66 -2 -84 19 -18 22 -18 55 -2 33 16 42 28
59 85 l7 22 -35 -17 c-34 -16 -37 -16 -56 2 -19 17 -20 17 -28 -6z"/>
<path d="M2901 2138 c-21 -57 -21 -65 -2 -82 17 -16 21 -16 54 0 28 13 40 28
51 61 17 48 16 49 -23 29 -25 -13 -31 -13 -50 0 -19 14 -22 13 -30 -8z"/>
<path d="M1110 2125 c-25 -66 -24 -73 12 -79 99 -15 96 -16 113 32 8 25 13 47
11 50 -7 6 -79 21 -104 22 -15 0 -26 -8 -32 -25z"/>
<path d="M540 2105 c-25 -64 -24 -72 11 -79 17 -3 35 -6 39 -6 8 0 40 83 40
102 0 4 -18 8 -40 8 -34 0 -42 -4 -50 -25z"/>
<path d="M3302 2082 c-25 -12 -36 -26 -46 -61 -7 -25 -12 -48 -10 -49 1 -2 16
4 33 14 28 17 31 17 49 1 26 -24 28 -22 41 27 14 57 15 51 -11 68 -20 13 -27
13 -56 0z"/>
<path d="M2800 2045 c-12 -42 -11 -46 11 -64 l24 -19 12 46 c10 40 10 49 -4
64 -24 26 -29 23 -43 -27z"/>
<path d="M3032 2078 c-13 -7 -26 -26 -33 -50 -5 -22 -13 -46 -16 -54 -4 -11 4
-9 31 7 35 21 38 21 56 4 23 -21 23 -22 38 30 10 33 9 42 -5 57 -18 20 -37 22
-71 6z"/>
<path d="M3121 2024 c-15 -54 -14 -63 11 -83 21 -17 23 -17 54 1 24 14 35 30
43 63 15 59 15 57 -21 35 -32 -19 -32 -19 -54 1 l-22 21 -11 -38z"/>
<path d="M3381 2013 c-11 -42 -10 -48 8 -67 20 -19 22 -19 55 -3 28 13 37 25
49 64 7 26 13 49 12 51 -1 1 -16 -5 -32 -15 -28 -16 -32 -16 -56 0 l-25 16
-11 -46z"/>
<path d="M2860 2009 c-13 -47 -9 -63 17 -78 30 -16 80 22 94 71 13 49 8 55
-25 32 -25 -15 -28 -15 -45 0 -25 23 -29 21 -41 -25z"/>
<path d="M1075 2008 c-15 -47 -23 -93 -17 -99 4 -4 35 -10 69 -13 l61 -7 11
52 c6 29 10 53 9 54 -4 4 -107 25 -119 25 -5 0 -11 -6 -14 -12z"/>
<path d="M505 1989 c-2 -8 -9 -33 -13 -56 l-9 -41 39 -10 c29 -8 40 -7 43 1 7
19 24 101 22 103 -1 1 -19 5 -39 9 -28 5 -39 4 -43 -6z"/>
<path d="M2776 1962 c-19 -67 -18 -82 6 -101 27 -22 33 -16 42 44 5 35 3 42
-18 57 -23 17 -25 17 -30 0z"/>
<path d="M3007 1962 c-29 -18 -32 -24 -43 -86 l-7 -39 32 22 32 23 24 -22 23
-22 11 52 c10 48 10 53 -11 71 -27 22 -25 22 -61 1z"/>
<path d="M3267 1962 c-29 -18 -32 -24 -43 -86 l-7 -39 32 22 32 23 24 -22 c26
-24 27 -23 40 51 6 31 3 39 -16 53 -28 19 -27 20 -62 -2z"/>
<path d="M3091 1889 c-11 -50 -10 -54 11 -71 30 -23 38 -22 70 5 19 16 28 35
33 71 l7 49 -32 -23 -31 -22 -24 22 -23 22 -11 -53z"/>
<path d="M3360 1933 c-1 -5 -5 -27 -9 -50 -7 -36 -5 -45 14 -63 27 -25 34 -25
67 3 17 14 30 38 36 70 5 26 7 46 3 45 -60 -31 -60 -31 -86 -14 -14 9 -25 13
-25 9z"/>
<path d="M2831 1883 c-10 -46 -9 -49 16 -70 l26 -21 32 24 c25 19 34 35 38 67
3 23 4 43 2 45 -2 2 -15 -4 -29 -14 -25 -15 -28 -15 -45 0 -26 23 -28 21 -40
-31z"/>
<path d="M1036 1819 c-4 -34 -6 -62 -4 -64 7 -7 129 -21 132 -16 2 3 7 29 11
57 l7 52 -54 12 c-29 6 -60 14 -69 16 -13 4 -18 -7 -23 -57z"/>
<path d="M474 1845 c-2 -5 -5 -32 -6 -59 -3 -49 -3 -50 32 -57 19 -4 38 -5 41
-1 4 4 9 32 13 63 l6 57 -41 4 c-23 2 -43 -1 -45 -7z"/>
<path d="M2982 1832 c-23 -20 -32 -39 -37 -74 -7 -54 -2 -58 32 -26 l23 21 25
-23 c14 -13 27 -22 29 -19 2 2 6 27 8 56 5 47 3 53 -22 72 l-27 20 -31 -27z"/>
<path d="M3243 1832 c-24 -21 -32 -38 -37 -75 l-6 -49 33 20 32 20 25 -20 25
-20 6 53 c6 55 0 73 -31 89 -12 7 -25 2 -47 -18z"/>
<path d="M2746 1803 c-5 -39 -3 -50 16 -70 12 -13 25 -23 29 -23 4 0 9 24 11
53 3 43 0 55 -17 69 -29 25 -32 23 -39 -29z"/>
<path d="M2816 1788 c-13 -51 -6 -92 19 -111 24 -17 26 -17 54 4 23 17 30 31
34 72 4 28 5 52 3 54 -1 2 -15 -6 -30 -18 l-27 -21 -23 21 -23 22 -7 -23z"/>
<path d="M3077 1794 c-3 -11 -7 -36 -9 -56 -2 -30 3 -41 25 -58 l26 -21 31 22
c17 13 30 32 30 45 0 12 3 36 7 55 l6 33 -35 -22 -34 -21 -21 21 c-20 19 -21
20 -26 2z"/>
<path d="M3336 1778 c-11 -53 -7 -74 18 -97 l25 -23 28 22 c30 23 40 47 42 98
l1 33 -29 -17 c-27 -16 -31 -16 -54 -1 -24 16 -25 15 -31 -15z"/>
<path d="M1020 1657 c0 -73 -8 -66 98 -82 l42 -7 0 61 0 60 -38 10 c-21 6 -52
14 -70 17 l-32 7 0 -66z"/>
<path d="M2730 1666 c0 -49 3 -57 30 -76 l30 -21 0 59 c0 52 -3 62 -25 76 -13
9 -27 16 -30 16 -3 0 -5 -24 -5 -54z"/>
<path d="M2963 1701 c-15 -12 -23 -35 -28 -76 -8 -61 -5 -63 37 -27 15 12 20
12 47 -8 l31 -21 0 60 c0 51 -3 62 -22 75 -28 20 -38 20 -65 -3z"/>
<path d="M3224 1702 c-15 -13 -22 -34 -27 -75 l-6 -57 31 21 30 22 29 -22 29
-22 0 59 c0 83 -37 115 -86 74z"/>
<path d="M450 1641 c0 -33 3 -62 8 -65 4 -2 23 -7 42 -11 l35 -6 3 64 3 64
-32 7 c-58 11 -59 11 -59 -53z"/>
<path d="M2800 1622 c0 -53 3 -63 26 -81 l26 -20 29 21 c24 18 29 29 29 64 0
23 3 51 7 61 7 17 6 17 -17 0 -42 -30 -50 -30 -76 -7 l-24 23 0 -61z"/>
<path d="M3060 1621 c0 -52 3 -62 26 -80 l26 -21 27 21 c21 17 27 32 32 77 3
31 5 58 4 60 -1 1 -14 -7 -29 -19 l-28 -22 -29 22 -29 22 0 -60z"/>
<path d="M3320 1621 c0 -55 2 -61 29 -80 l29 -21 29 24 c26 21 30 33 32 82 l2
56 -30 -22 -31 -21 -30 21 -30 21 0 -60z"/>
<path d="M2730 1533 c0 -57 2 -63 31 -83 l30 -22 -2 56 c-2 46 -7 60 -31 83
l-28 27 0 -61z"/>
<path d="M2958 1565 c-24 -21 -28 -32 -28 -80 0 -30 3 -55 7 -55 4 0 17 10 30
22 21 19 25 20 40 6 40 -34 43 -32 39 27 -2 41 -10 63 -27 81 -27 29 -27 29
-61 -1z"/>
<path d="M3221 1564 c-28 -23 -31 -32 -31 -80 0 -30 3 -54 7 -54 4 0 17 10 29
21 l23 21 30 -22 31 -21 -1 58 c0 52 -3 60 -29 81 l-28 22 -31 -26z"/>
<path d="M1013 1544 c-3 -8 -2 -39 1 -68 l7 -54 42 -7 c23 -3 55 -8 70 -11
l28 -6 -3 63 -3 63 -68 17 c-58 15 -69 15 -74 3z"/>
<path d="M450 1477 l0 -65 42 -10 c23 -6 44 -10 45 -8 1 1 0 32 -4 69 -5 61
-8 67 -29 67 -12 0 -29 3 -38 6 -14 5 -16 -4 -16 -59z"/>
<path d="M2800 1482 c0 -55 2 -62 29 -81 l29 -21 26 21 c23 18 26 28 26 80 l0
60 -30 -23 -30 -22 -25 24 -25 23 0 -61z"/>
<path d="M3060 1482 c0 -55 2 -62 29 -81 l29 -21 26 21 c23 18 26 28 26 81 l0
61 -23 -21 c-13 -12 -27 -22 -32 -22 -5 0 -19 10 -32 22 l-23 21 0 -61z"/>
<path d="M3320 1484 c0 -55 2 -62 30 -83 l31 -22 27 23 c25 20 28 29 28 80 -1
32 -4 58 -7 58 -3 0 -14 -9 -24 -20 -23 -25 -33 -25 -62 2 l-23 21 0 -59z"/>
<path d="M2730 1397 c0 -51 2 -56 37 -83 l36 -27 -6 24 c-4 13 -7 40 -7 59 -1
26 -8 41 -31 58 l-29 24 0 -55z"/>
<path d="M3227 1428 c-24 -18 -27 -26 -27 -80 l0 -59 30 21 30 21 32 -22 31
-23 -6 33 c-4 19 -7 45 -8 60 0 16 -11 34 -27 47 l-28 22 -27 -20z"/>
<path d="M2957 1422 c-12 -13 -17 -37 -17 -76 l0 -57 29 22 29 22 30 -21 29
-21 -5 52 c-7 81 -56 122 -95 79z"/>
<path d="M2800 1387 c0 -8 3 -34 6 -59 5 -36 12 -49 35 -62 27 -16 30 -16 54
0 26 17 31 42 19 103 l-7 32 -23 -22 -24 -23 -30 22 c-22 16 -30 19 -30 9z"/>
<path d="M3064 1345 c5 -41 13 -62 29 -76 27 -23 37 -23 65 -3 23 16 29 61 16
112 l-7 23 -23 -22 -24 -23 -32 24 -31 23 7 -58z"/>
<path d="M3323 1370 c4 -18 7 -44 7 -59 0 -18 10 -32 34 -48 l34 -22 23 27
c20 22 23 36 21 79 l-3 53 -30 -22 -29 -22 -32 24 -31 23 6 -33z"/>
<path d="M1020 1357 c0 -19 3 -48 6 -65 5 -27 11 -31 48 -37 22 -3 53 -8 69
-11 24 -5 27 -3 27 24 0 16 -3 43 -6 60 -6 27 -12 32 -58 42 -28 7 -59 14 -68
17 -15 3 -18 -2 -18 -30z"/>
<path d="M457 1324 c7 -70 7 -70 53 -82 l42 -10 -7 61 c-3 34 -8 63 -10 65 -2
2 -21 6 -43 9 l-40 5 5 -48z"/>
<path d="M2740 1287 c0 -53 12 -84 40 -100 15 -10 30 -17 33 -17 2 0 1 19 -4
43 -4 23 -8 45 -9 49 0 4 -13 16 -30 28 l-30 21 0 -24z"/>
<path d="M2971 1286 c-20 -22 -22 -31 -16 -75 l7 -51 25 20 c26 20 26 20 58 0
l32 -20 -9 53 c-7 37 -17 58 -36 74 -34 28 -34 28 -61 -1z"/>
<path d="M3234 1287 c-26 -23 -27 -26 -18 -77 l9 -52 25 20 c25 20 25 20 57 1
29 -18 31 -18 28 -2 -2 10 -6 34 -10 54 -3 24 -15 43 -35 57 l-29 22 -27 -23z"/>
<path d="M2820 1213 c6 -35 15 -53 36 -70 34 -27 33 -27 61 -4 20 16 22 25 16
70 -6 56 -11 60 -38 31 -18 -19 -18 -19 -45 0 -16 11 -30 20 -32 20 -3 0 -2
-21 2 -47z"/>
<path d="M3073 1243 c3 -10 8 -34 11 -53 4 -26 15 -41 37 -54 28 -16 32 -17
55 -1 23 15 24 20 18 68 -4 29 -8 54 -10 56 -2 3 -15 -5 -27 -18 l-24 -21 -25
20 c-32 25 -41 25 -35 3z"/>
<path d="M3341 1218 c4 -24 8 -48 9 -54 0 -6 16 -19 35 -30 35 -18 35 -18 56
3 18 18 20 28 14 72 l-7 51 -25 -20 c-25 -20 -52 -16 -68 10 -15 23 -22 7 -14
-32z"/>
<path d="M1043 1171 c11 -67 9 -66 100 -76 54 -6 58 -5 53 12 -3 10 -8 35 -11
55 -7 35 -10 37 -58 48 -29 6 -61 13 -73 16 -20 5 -20 4 -11 -55z"/>
<path d="M474 1190 c3 -17 8 -43 11 -58 5 -25 13 -30 51 -39 44 -10 45 -10 40
11 -2 11 -8 38 -12 59 -7 40 -9 42 -62 51 -33 6 -33 5 -28 -24z"/>
<path d="M2762 1132 c8 -38 17 -52 44 -70 37 -24 40 -20 24 40 -9 31 -53 78
-73 78 -2 0 0 -21 5 -48z"/>
<path d="M2991 1157 c-24 -27 -25 -29 -10 -80 10 -36 12 -38 28 -23 22 20 35
20 68 -1 l25 -17 -7 35 c-13 58 -22 73 -52 91 -29 17 -31 17 -52 -5z"/>
<path d="M3251 1157 c-24 -27 -25 -29 -10 -80 10 -38 11 -38 35 -22 22 14 27
14 55 0 l30 -16 -7 38 c-9 52 -17 65 -52 85 -28 17 -30 17 -51 -5z"/>
<path d="M2843 1085 c8 -35 18 -50 43 -66 33 -20 34 -20 58 -2 14 10 24 23 21
30 -2 6 -7 28 -11 47 -7 41 -10 43 -36 19 -18 -16 -21 -16 -47 0 -16 9 -31 17
-34 17 -2 0 0 -20 6 -45z"/>
<path d="M3103 1084 c8 -35 18 -51 41 -65 37 -23 36 -23 63 -1 21 16 21 20 11
62 -14 57 -14 57 -38 35 -21 -19 -21 -19 -81 13 -4 1 -2 -18 4 -44z"/>
<path d="M3363 1084 c8 -35 19 -51 46 -70 l36 -24 23 23 c22 22 22 27 11 70
l-11 47 -27 -19 c-26 -19 -27 -19 -51 0 -36 27 -38 24 -27 -27z"/>
<path d="M1063 1066 c3 -8 9 -30 12 -50 9 -47 18 -52 97 -61 l67 -6 -16 50
-17 50 -67 16 c-83 18 -82 18 -76 1z"/>
<path d="M503 1057 c3 -8 9 -32 13 -51 7 -42 7 -42 60 -51 l42 -6 -16 55 c-12
45 -19 56 -36 56 -12 0 -32 3 -45 7 -20 5 -23 3 -18 -10z"/>
<path d="M2783 1044 c3 -10 9 -31 13 -46 5 -22 59 -68 79 -68 3 0 -3 21 -13
47 -12 33 -27 53 -51 67 -33 19 -33 19 -28 0z"/>
<path d="M3016 1035 c-14 -11 -17 -21 -12 -47 10 -55 21 -65 44 -44 19 16 22
16 51 1 35 -18 35 -17 20 35 -7 23 -22 43 -39 54 -34 19 -40 19 -64 1z"/>
<path d="M3275 1030 c-16 -17 -16 -25 -5 -64 12 -45 12 -45 37 -29 19 13 29
14 50 4 34 -15 37 -11 23 36 -8 25 -22 45 -42 56 -37 21 -41 21 -63 -3z"/>
<path d="M2876 967 c11 -34 23 -48 51 -61 35 -16 37 -16 54 1 16 16 17 24 7
61 -11 46 -14 48 -42 27 -16 -12 -22 -12 -47 0 -39 21 -40 20 -23 -28z"/>
<path d="M3133 968 c10 -33 21 -47 50 -63 37 -20 37 -20 57 0 17 18 18 24 8
60 -15 52 -15 51 -38 30 -18 -16 -23 -17 -48 -4 -15 7 -30 15 -34 17 -4 2 -2
-16 5 -40z"/>
<path d="M3391 981 c6 -17 8 -38 5 -47 -3 -8 -2 -12 3 -9 5 3 12 1 16 -5 3 -6
19 -17 35 -25 26 -13 30 -13 51 4 21 17 22 20 9 64 l-13 47 -25 -19 c-25 -18
-26 -18 -59 1 l-33 20 11 -31z"/>
<path d="M1100 938 c0 -2 7 -25 16 -51 l15 -46 57 -6 c31 -4 65 -9 75 -12 16
-4 18 -1 12 19 -18 57 -34 75 -72 81 -21 4 -53 9 -70 13 -18 4 -33 4 -33 2z"/>
<path d="M2828 899 c11 -29 25 -44 50 -55 19 -8 36 -14 38 -14 12 0 -39 86
-58 96 -41 23 -48 18 -30 -27z"/>
<path d="M3052 921 c-22 -16 -22 -17 -6 -58 16 -41 17 -41 40 -26 21 13 26 13
54 0 34 -17 36 -13 16 35 -9 21 -27 40 -48 50 -32 15 -36 15 -56 -1z"/>
<path d="M3312 920 c-22 -18 -22 -20 -6 -59 18 -46 20 -47 45 -25 16 14 20 14
48 -1 35 -17 37 -12 17 37 -9 21 -27 40 -48 50 -31 15 -35 14 -56 -2z"/>
<path d="M556 886 c15 -44 32 -56 82 -56 26 0 26 0 7 47 -19 45 -30 53 -72 53
l-32 0 15 -44z"/>
<path d="M2915 863 c9 -20 17 -38 18 -39 1 -1 17 -9 34 -18 27 -13 36 -14 53
-4 24 15 24 16 5 63 -15 35 -17 36 -38 22 -20 -13 -27 -13 -48 -1 -37 20 -41
17 -24 -23z"/>
<path d="M3160 895 c0 -25 34 -77 59 -89 36 -19 42 -20 65 -3 17 12 17 15 1
55 -16 40 -18 41 -40 26 -21 -14 -27 -14 -54 1 -17 8 -31 13 -31 10z"/>
<path d="M3420 895 c0 -3 7 -22 15 -43 11 -27 27 -44 52 -56 35 -16 37 -16 54
1 16 16 17 23 7 56 -12 39 -28 47 -48 22 -11 -14 -17 -13 -46 4 -19 11 -34 18
-34 16z"/>
<path d="M2869 803 c14 -28 31 -44 52 -52 18 -6 34 -11 36 -11 12 0 -39 78
-54 83 -10 2 -26 8 -36 12 -18 7 -18 5 2 -32z"/>
<path d="M3088 817 c-15 -10 -15 -14 3 -50 19 -36 21 -38 42 -24 18 12 26 12
55 0 l33 -14 -20 39 c-27 53 -76 74 -113 49z"/>
<path d="M3353 815 c-22 -15 -22 -17 -6 -50 17 -35 36 -45 49 -24 6 10 30 7
68 -7 34 -13 -14 62 -51 80 -41 19 -34 19 -60 1z"/>
<path d="M1150 809 c0 -4 8 -24 17 -44 17 -36 21 -38 121 -49 23 -2 42 -2 42
0 0 5 -30 66 -35 72 -7 8 -145 28 -145 21z"/>
<path d="M609 771 c15 -29 28 -40 52 -45 59 -11 61 -10 40 33 -20 38 -42 51
-89 51 l-22 0 19 -39z"/>
<path d="M2957 766 c21 -45 81 -71 112 -50 l20 14 -21 36 c-19 32 -22 34 -42
20 -19 -12 -26 -12 -47 0 -37 20 -40 17 -22 -20z"/>
<path d="M3200 794 c0 -4 9 -22 20 -40 26 -40 79 -61 108 -43 20 13 20 13 1
52 -20 38 -21 38 -40 21 -18 -16 -22 -16 -54 -1 -19 9 -35 14 -35 11z"/>
<path d="M3476 757 c22 -46 82 -73 113 -51 20 14 20 16 4 50 -12 25 -21 33
-32 28 -21 -10 -62 -9 -84 0 -17 8 -17 7 -1 -27z"/>
<path d="M2920 709 c20 -27 55 -49 80 -49 20 0 -27 60 -54 70 -45 16 -49 12
-26 -21z"/>
<path d="M3136 725 c-18 -13 -18 -15 3 -44 19 -27 24 -29 46 -19 19 8 32 8 50
0 36 -16 36 -16 17 18 -10 17 -33 36 -55 45 -44 18 -38 18 -61 0z"/>
<path d="M3392 717 c-8 -9 -5 -21 10 -45 18 -29 22 -31 40 -18 15 11 27 12 45
5 40 -15 46 -11 23 19 -38 48 -95 67 -118 39z"/>
<path d="M650 700 c0 -3 10 -18 23 -33 16 -20 34 -30 66 -34 l43 -6 -23 36
c-20 30 -30 36 -66 39 -24 2 -43 1 -43 -2z"/>
<path d="M1216 680 c11 -17 24 -35 29 -40 12 -9 145 -24 145 -15 0 3 -10 19
-21 34 -18 24 -31 30 -78 36 -31 3 -64 9 -75 12 -18 5 -18 4 0 -27z"/>
<path d="M3007 684 c16 -25 68 -54 95 -54 7 0 19 4 27 9 11 7 10 14 -8 40 -19
27 -24 29 -46 19 -19 -8 -32 -8 -50 0 -36 17 -38 15 -18 -14z"/>
<path d="M3250 702 c0 -4 10 -19 23 -33 28 -34 82 -53 108 -39 18 10 18 12 -4
45 -20 31 -24 33 -43 21 -17 -12 -25 -12 -52 0 -18 7 -32 10 -32 6z"/>
<path d="M3526 671 c11 -18 31 -33 54 -40 45 -13 51 -13 69 -2 11 7 10 14 -8
40 -19 27 -24 29 -46 19 -19 -8 -32 -8 -50 0 -37 17 -38 15 -19 -17z"/>
<path d="M2960 651 c0 -14 50 -51 69 -51 12 0 13 -2 3 -9 -15 -9 40 -58 106
-94 40 -22 79 -25 447 -32 105 -3 217 -7 250 -10 41 -3 55 -2 45 5 -8 5 -28
10 -45 11 -16 0 -24 3 -16 6 25 10 -29 30 -73 28 -26 -2 -29 -1 -8 2 38 5 39
9 10 33 -17 13 -29 15 -45 9 -14 -5 -34 -4 -49 2 -41 15 -41 2 0 -22 20 -12
35 -23 33 -25 -5 -5 -47 8 -47 15 0 5 -22 6 -80 1 -11 0 -10 -4 5 -16 11 -8
32 -14 48 -11 15 2 27 0 27 -5 0 -9 -1 -9 -53 -12 -21 -2 -33 0 -26 5 19 11
-29 32 -59 25 -25 -6 -25 -5 -9 8 16 12 16 14 1 27 -10 8 -40 14 -70 14 -45 0
-51 -2 -40 -14 8 -7 29 -17 47 -22 32 -8 31 -8 -8 -4 -24 3 -61 8 -83 11 -24
4 -40 3 -40 -3 0 -16 43 -30 80 -27 30 3 32 2 10 -5 -26 -9 -115 -13 -92 -4
24 9 -20 31 -57 28 -20 -1 -26 0 -13 2 28 5 28 18 0 37 -13 10 -27 12 -37 6
-9 -4 -30 -6 -46 -2 -27 5 -29 3 -17 -11 8 -9 23 -17 35 -19 14 -2 18 -6 11
-10 -7 -5 -32 9 -60 32 -26 21 -51 37 -56 34 -4 -3 -5 1 -3 8 3 8 -5 23 -17
35 -25 22 -78 39 -78 24z m529 -167 c10 -9 -35 -3 -49 6 -11 8 -7 9 15 4 17
-4 32 -8 34 -10z m246 -4 c13 -6 15 -9 5 -9 -8 0 -22 4 -30 9 -18 12 -2 12 25
0z"/>
<path d="M3192 646 l-22 -12 28 -27 c21 -21 31 -24 40 -15 8 8 21 9 47 1 40
-13 44 -5 13 24 -34 31 -80 43 -106 29z"/>
<path d="M3446 637 c-16 -12 -16 -14 4 -32 14 -13 36 -19 74 -19 53 -1 53 -1
37 21 -9 11 -32 26 -52 32 -45 14 -42 14 -63 -2z"/>
<path d="M3069 606 c14 -14 31 -26 38 -26 8 0 12 -4 9 -8 -2 -4 11 -6 30 -4
43 5 49 14 26 42 -14 18 -23 21 -43 14 -27 -9 -25 -9 -59 1 l-25 7 24 -26z"/>
<path d="M3320 605 c26 -27 88 -49 114 -39 21 8 20 13 -5 40 -17 19 -26 21
-41 13 -13 -7 -29 -7 -50 0 -43 15 -45 14 -18 -14z"/>
<path d="M734 591 c24 -25 38 -31 70 -31 l41 0 -25 24 c-15 14 -43 27 -70 31
l-45 7 29 -31z"/>
<path d="M1289 587 c24 -25 39 -30 96 -35 l68 -5 -19 25 c-16 22 -31 27 -97
35 l-77 9 29 -29z"/>
<path d="M3578 598 c30 -30 96 -50 116 -34 14 10 13 14 -3 36 -16 20 -23 22
-43 13 -13 -5 -32 -7 -43 -2 -40 15 -51 10 -27 -13z"/>
<path d="M3247 579 c-18 -10 -18 -12 4 -27 23 -16 131 -24 122 -8 -5 8 -50 29
-88 39 -11 4 -28 1 -38 -4z"/>
<path d="M3502 573 c-10 -4 -8 -11 8 -28 17 -18 27 -22 44 -15 12 4 35 5 52 2
26 -5 28 -4 15 11 -20 25 -89 42 -119 30z"/>
<path d="M805 531 c18 -13 46 -21 70 -21 36 0 38 1 20 14 -11 7 -42 16 -70 20
l-50 7 30 -20z"/>
<path d="M1359 520 c17 -14 37 -20 75 -20 28 0 62 -3 76 -7 l25 -6 -25 20
c-18 15 -47 22 -100 27 l-75 7 24 -21z"/>
<path d="M880 491 c8 -4 38 -11 65 -15 39 -5 46 -4 32 5 -10 6 -39 13 -65 15
-30 3 -42 1 -32 -5z"/>
<path d="M1434 478 c24 -13 168 -24 146 -10 -8 5 -49 12 -90 16 -58 4 -71 3
-56 -6z"/>
<path d="M1327 132 c-10 -10 -17 -28 -17 -39 0 -23 29 -53 53 -53 18 0 47 26
47 43 0 6 -7 2 -15 -9 -8 -10 -15 -14 -15 -7 0 7 -7 10 -15 7 -11 -5 -15 1
-15 21 0 20 4 26 15 21 8 -3 15 0 15 7 0 7 7 3 15 -7 13 -17 15 -17 15 -3 0
17 -28 37 -53 37 -8 0 -21 -8 -30 -18z m36 -2 c-16 -6 -23 -18 -23 -35 0 -17
7 -29 23 -35 21 -8 21 -9 2 -9 -27 -1 -45 17 -45 44 0 27 18 45 45 44 19 0 19
-1 -2 -9z"/>
<path d="M1469 126 c-17 -36 -4 -74 28 -82 19 -5 30 -2 39 11 8 10 12 21 9 24
-3 2 -12 -4 -20 -15 -11 -15 -17 -17 -32 -8 -24 14 -27 44 -9 69 13 18 17 18
36 7 19 -11 21 -11 18 0 -3 7 -17 14 -31 16 -21 3 -30 -3 -38 -22z"/>
<path d="M1727 143 c-17 -16 -5 -42 23 -52 17 -5 30 -15 30 -21 0 -18 -29 -23
-47 -9 -14 12 -16 12 -11 -1 3 -9 17 -15 34 -15 23 0 30 5 32 23 3 18 -3 25
-27 33 -17 6 -31 15 -31 20 0 17 30 22 48 8 15 -13 16 -12 3 4 -14 17 -42 23
-54 10z"/>
<path d="M1990 95 c0 -30 5 -55 10 -55 6 0 9 3 9 8 -5 30 3 35 21 12 21 -27
26 -21 9 11 -7 15 -7 24 2 35 15 19 0 18 -21 -1 -16 -15 -17 -13 -14 15 2 16
-1 30 -6 30 -6 0 -10 -25 -10 -55z"/>
<path d="M2071 93 c1 -32 4 -46 6 -31 3 20 11 28 31 30 21 2 27 8 27 28 0 21
-5 26 -32 28 l-33 3 1 -58z m54 27 c0 -8 -10 -16 -22 -18 -18 -3 -23 2 -23 18
0 16 5 21 23 18 12 -2 22 -10 22 -18z"/>
<path d="M2163 95 c0 -45 1 -52 6 -26 9 49 29 51 34 4 l4 -38 1 44 c2 38 0 43
-17 38 -15 -3 -21 1 -24 17 -2 11 -4 -6 -4 -39z"/>
<path d="M3087 115 c-24 -36 -25 -40 -10 -43 10 -2 23 -10 29 -18 10 -12 12
-12 16 3 2 10 1 36 -2 58 l-5 40 -28 -40z m23 -15 c0 -11 -7 -20 -15 -20 -18
0 -19 12 -3 28 16 16 18 15 18 -8z"/>
<path d="M3166 135 c-11 -8 -14 -15 -8 -15 7 0 12 -16 12 -40 0 -22 5 -40 10
-40 6 0 10 25 10 55 0 30 -1 55 -2 55 -2 0 -12 -7 -22 -15z"/>
<path d="M3231 136 c-17 -21 -4 -56 21 -56 11 0 18 -5 15 -12 -2 -7 -12 -12
-21 -12 -9 1 -16 -2 -16 -7 0 -22 41 -7 51 18 19 51 -20 105 -50 69z m36 -12
c8 -20 -13 -42 -27 -28 -12 12 -3 44 11 44 5 0 12 -7 16 -16z"/>
<path d="M3306 128 c-9 -36 -7 -40 14 -33 23 7 39 -20 22 -37 -8 -8 -16 -7
-28 3 -15 12 -17 12 -12 -1 2 -8 16 -15 29 -15 19 0 25 6 27 28 3 22 -1 30
-17 34 -28 7 -27 31 2 36 20 4 19 4 -4 6 -20 1 -28 -5 -33 -21z"/>
<path d="M3386 138 c-3 -7 -4 -31 -3 -53 2 -36 5 -40 27 -40 23 0 25 3 25 50
0 44 -3 50 -23 53 -12 2 -24 -3 -26 -10z m39 -7 c7 -12 -12 -24 -25 -16 -11 7
-4 25 10 25 5 0 11 -4 15 -9z m2 -47 c8 -21 -13 -42 -28 -27 -13 13 -5 43 11
43 6 0 13 -7 17 -16z"/>
<path d="M3465 139 c-11 -17 -8 -80 4 -92 17 -17 46 5 46 34 0 18 -5 24 -22
23 -13 0 -23 5 -23 12 0 20 19 27 36 13 12 -10 13 -9 8 5 -7 18 -39 22 -49 5z
m42 -55 c8 -21 -13 -42 -28 -27 -13 13 -5 43 11 43 6 0 13 -7 17 -16z"/>
<path d="M3547 143 c-4 -3 -7 -13 -7 -22 1 -14 2 -13 11 2 5 9 14 17 19 17 19
0 9 -37 -15 -58 -35 -30 -31 -42 13 -41 30 2 32 3 10 6 -32 5 -36 18 -9 32 10
6 22 18 25 27 11 28 -27 58 -47 37z"/>
<path d="M3622 138 c-7 -7 -12 -17 -12 -22 0 -6 7 -3 15 8 14 19 35 14 35 -8
0 -8 -11 -21 -25 -30 -36 -24 -33 -46 8 -45 23 1 26 3 10 6 -29 6 -29 10 2 39
21 20 24 27 15 44 -12 23 -30 26 -48 8z"/>
<path d="M1809 128 c-2 -29 3 -74 10 -81 4 -4 6 7 3 24 -3 17 0 34 6 38 6 4 5
11 -4 19 -11 10 -14 10 -15 0z"/>
<path d="M2308 127 c-8 -23 7 -80 22 -85 12 -4 13 -2 3 9 -15 15 -17 56 -4 61
5 2 3 8 -4 15 -10 9 -14 9 -17 0z"/>
<path d="M1564 109 c-5 -9 -2 -10 10 -6 23 9 43 -3 25 -14 -10 -6 -10 -9 -2
-9 7 0 10 -7 7 -15 -4 -8 -13 -15 -21 -15 -9 0 -13 6 -9 15 3 8 1 15 -5 15 -6
0 -9 -8 -7 -17 2 -12 13 -18 31 -19 26 -1 28 1 25 35 -2 28 -8 37 -25 39 -11
2 -25 -2 -29 -9z"/>
<path d="M1641 76 l2 -41 6 34 c8 43 28 51 37 14 10 -47 13 -50 11 -8 -2 36
-5 40 -29 41 -26 1 -28 -1 -27 -40z"/>
<path d="M1850 105 c-26 -31 13 -82 44 -56 19 16 21 42 4 59 -16 16 -33 15
-48 -3z m44 -10 c7 -20 -3 -45 -19 -45 -16 0 -26 25 -19 45 4 8 12 15 19 15 7
0 15 -7 19 -15z"/>
<path d="M1932 108 c-16 -16 -15 -43 3 -58 16 -14 45 -7 45 11 0 8 -4 8 -15
-1 -18 -15 -35 -5 -35 20 0 26 18 34 37 18 14 -11 15 -11 11 2 -6 20 -30 24
-46 8z"/>
<path d="M2240 106 c-7 -10 -10 -26 -6 -42 5 -19 12 -25 29 -22 18 2 22 9 22
38 0 39 -23 52 -45 26z m35 -26 c0 -13 -6 -25 -12 -27 -16 -6 -27 21 -19 43 9
23 31 11 31 -16z"/>
<path d="M2350 105 c-26 -31 13 -82 44 -56 19 16 21 42 4 59 -16 16 -33 15
-48 -3z m44 -10 c7 -18 -2 -45 -15 -45 -5 0 -12 7 -15 15 -7 18 2 45 15 45 5
0 11 -7 15 -15z"/>
<path d="M2467 114 c-4 -4 -7 -20 -7 -36 0 -35 25 -47 48 -24 9 9 11 16 5 16
-6 0 -13 -5 -15 -12 -6 -17 -28 0 -28 22 0 25 20 36 32 19 8 -12 9 -11 5 1 -4
16 -29 25 -40 14z"/>
<path d="M2534 106 c-3 -8 -4 -25 -2 -38 2 -17 9 -23 28 -23 22 0 25 4 25 35
0 29 -4 36 -23 38 -13 2 -24 -3 -28 -12z m41 -26 c0 -27 -22 -39 -31 -16 -8
22 3 49 19 43 6 -2 12 -14 12 -27z"/>
<path d="M2611 76 l2 -41 6 34 c9 49 31 52 32 4 l2 -38 6 34 c8 48 31 53 31 7
0 -20 5 -36 10 -36 12 0 13 49 2 66 -4 7 -26 11 -49 11 l-43 -1 1 -40z"/>
<path d="M2857 114 c-4 -4 -7 -20 -7 -36 0 -35 25 -47 48 -24 9 9 11 16 5 16
-6 0 -13 -5 -15 -12 -6 -17 -28 0 -28 22 0 25 20 36 32 19 8 -12 9 -11 5 1 -4
16 -29 25 -40 14z"/>
<path d="M2927 113 c-12 -12 -7 -33 7 -33 17 0 31 -18 22 -27 -3 -3 -12 0 -21
7 -11 9 -15 9 -15 1 0 -20 31 -25 47 -8 15 15 14 17 -10 28 -28 13 -28 33 0
22 11 -4 14 -3 9 5 -8 13 -29 16 -39 5z"/>
<path d="M2991 61 c1 -32 4 -48 7 -36 4 11 16 20 27 20 16 0 20 7 20 35 0 31
-3 35 -27 36 -27 1 -28 0 -27 -55z m44 19 c0 -27 -22 -39 -31 -16 -8 22 3 49
19 43 6 -2 12 -14 12 -27z"/>
<path d="M2768 83 c7 -3 16 -2 19 1 4 3 -2 6 -13 5 -11 0 -14 -3 -6 -6z"/>
</g>
</svg>
