<?xml version="1.0" standalone="no"?>
<!DOCTYPE svg PUBLIC "-//W3C//DTD SVG 20010904//EN"
 "http://www.w3.org/TR/2001/REC-SVG-20010904/DTD/svg10.dtd">
<svg version="1.0" xmlns="http://www.w3.org/2000/svg"
 width="225.000000pt" height="225.000000pt" viewBox="0 0 225.000000 225.000000"
 preserveAspectRatio="xMidYMid meet">

<g transform="translate(0.000000,225.000000) scale(0.100000,-0.100000)"
fill="#000000" stroke="none">
<path d="M967 2149 c-44 -10 -109 -42 -125 -61 -9 -11 -5 -23 16 -52 23 -33
26 -46 24 -100 -3 -42 2 -76 13 -102 72 -174 317 -179 396 -9 21 45 25 119 8
162 -9 25 -7 31 17 52 l28 24 -34 29 c-56 46 -129 68 -223 67 -45 -1 -99 -5
-120 -10z m147 -61 c12 -34 -6 -58 -44 -58 -36 0 -53 35 -32 68 21 32 63 27
76 -10z"/>
<path d="M734 1901 c-21 -15 -78 -69 -126 -118 -95 -98 -104 -120 -68 -166 17
-22 43 -31 160 -58 l140 -33 0 -202 0 -203 111 -3 c61 -2 113 0 116 5 2 4 13
7 24 7 14 0 19 -7 19 -29 l0 -28 -129 -2 c-80 -1 -132 2 -136 9 -7 12 -25 13
-42 2 -13 -8 -47 -208 -39 -229 3 -7 17 -13 30 -13 20 0 27 6 32 28 3 15 7 32
9 37 2 6 4 -160 4 -369 l1 -378 34 -34 c39 -39 77 -44 127 -18 56 28 59 50 59
414 l0 330 35 0 35 0 0 -330 c0 -364 3 -386 59 -414 50 -26 88 -21 127 18 l34
34 0 362 0 361 26 -20 c34 -27 67 -27 99 2 24 21 27 35 50 222 l25 200 -81
160 c-45 88 -92 175 -106 193 l-24 32 -98 0 -98 0 -18 -67 c-27 -104 -30 -104
-60 -14 l-27 81 -64 0 c-54 0 -188 24 -203 36 -2 2 19 28 47 58 61 64 68 101
27 141 -32 33 -63 31 -111 -4z m376 -447 c0 -14 -21 -19 -33 -7 -9 9 13 34 24
27 5 -3 9 -12 9 -20z m0 -88 c0 -8 -4 -17 -8 -20 -13 -8 -35 11 -28 23 10 16
36 14 36 -3z m265 -186 c-7 -91 -22 -174 -24 -132 -1 21 -4 22 -116 22 l-115
0 0 25 0 25 115 0 115 0 0 103 c1 98 1 101 16 73 13 -23 15 -46 9 -116z m-269
99 c10 -17 -13 -36 -27 -22 -12 12 -4 33 11 33 5 0 12 -5 16 -11z"/>
</g>
</svg>
