<?xml version="1.0" standalone="no"?>
<!DOCTYPE svg PUBLIC "-//W3C//DTD SVG 20010904//EN"
 "http://www.w3.org/TR/2001/REC-SVG-20010904/DTD/svg10.dtd">
<svg version="1.0" xmlns="http://www.w3.org/2000/svg"
 width="1024.000000pt" height="1024.000000pt" viewBox="0 0 1024.000000 1024.000000"
 preserveAspectRatio="xMidYMid meet">

<g transform="translate(0.000000,1024.000000) scale(0.100000,-0.100000)"
fill="#000000" stroke="none">
<path d="M925 8446 c-61 -19 -97 -41 -137 -83 -58 -59 -83 -124 -82 -213 0
-96 28 -162 94 -224 89 -83 70 -80 555 -86 l429 -5 818 -2165 c449 -1191 817
-2169 817 -2175 0 -5 -29 -28 -65 -50 -172 -105 -315 -296 -381 -512 -24 -80
-27 -103 -27 -248 0 -145 3 -168 27 -248 90 -294 298 -515 572 -606 122 -41
220 -55 335 -48 227 14 423 105 585 271 160 165 242 356 252 592 5 113 -4 193
-33 302 l-6 22 907 0 907 0 -6 -22 c-42 -158 -45 -346 -7 -493 79 -306 314
-546 628 -641 77 -24 106 -27 228 -28 200 -1 337 39 495 145 240 161 384 417
397 707 7 135 -7 233 -49 352 -98 278 -328 489 -623 572 l-80 23 -1719 5
-1718 5 -74 195 c-41 107 -77 203 -80 212 -5 17 101 18 1978 20 l1983 3 50 23
c54 25 115 78 145 127 10 17 211 656 447 1420 396 1287 428 1395 427 1460 -1
120 -63 219 -172 272 l-57 28 -3035 5 -3034 5 -163 430 c-89 237 -169 449
-178 472 -24 61 -95 136 -157 164 l-53 24 -550 2 c-424 2 -559 -1 -590 -11z
m3625 -1715 c0 -5 16 -215 35 -467 19 -252 35 -459 35 -461 0 -2 -318 -3 -707
-3 l-708 0 -164 438 c-91 240 -171 452 -178 470 l-13 32 850 0 c484 0 850 -4
850 -9z m1760 -5 c0 -8 -16 -214 -35 -458 -19 -244 -35 -449 -35 -455 0 -10
-138 -13 -654 -13 l-654 0 -7 63 c-8 85 -65 832 -65 857 0 20 7 20 725 20 619
0 725 -2 725 -14z m1875 -28 c-8 -24 -69 -221 -135 -438 -67 -217 -126 -410
-131 -427 l-11 -33 -679 0 -679 0 0 23 c0 26 56 759 65 855 l7 62 788 0 789 0
-14 -42z m-3512 -1585 c16 -203 31 -392 34 -420 l6 -53 -535 0 -535 0 -153
408 c-84 224 -155 413 -158 420 -3 9 132 12 655 12 l658 0 28 -367z m1537 339
c0 -15 -13 -199 -30 -407 -16 -209 -30 -386 -30 -392 0 -10 -120 -13 -564 -13
l-565 0 -5 53 c-9 76 -56 714 -56 753 l0 34 625 0 625 0 0 -28z m1600 26 c0
-2 -58 -190 -128 -418 l-128 -415 -547 -3 -547 -2 0 22 c0 13 14 194 30 403
17 208 30 387 30 397 0 17 31 18 645 18 355 0 645 -1 645 -2z m-3863 -2536
c61 -32 96 -65 128 -124 26 -46 30 -63 30 -133 0 -67 -5 -88 -27 -130 -53
-102 -134 -150 -248 -150 -115 1 -196 50 -247 149 -68 134 -22 297 106 373 29
17 65 34 80 37 51 9 138 -2 178 -22z m3519 -5 c173 -89 208 -315 69 -454 -106
-106 -262 -110 -382 -9 -70 59 -109 190 -84 283 25 92 126 192 210 207 56 9
138 -2 187 -27z"/>
</g>
</svg>
