<?xml version="1.0" standalone="no"?>
<!DOCTYPE svg PUBLIC "-//W3C//DTD SVG 20010904//EN"
 "http://www.w3.org/TR/2001/REC-SVG-20010904/DTD/svg10.dtd">
<svg version="1.0" xmlns="http://www.w3.org/2000/svg"
 width="600.000000pt" height="467.000000pt" viewBox="0 0 600.000000 467.000000"
 preserveAspectRatio="xMidYMid meet">

<g transform="translate(0.000000,467.000000) scale(0.100000,-0.100000)"
fill="#000000" stroke="none">
<path d="M2700 4430 c0 -132 -3 -240 -8 -240 -4 0 -214 41 -467 90 -922 181
-885 174 -901 158 -13 -12 -258 -341 -589 -788 -63 -85 -191 -258 -285 -385
l-170 -229 0 -81 c1 -65 3 -77 13 -64 7 9 250 334 542 722 497 663 531 706
545 688 8 -11 294 -380 634 -821 340 -441 624 -804 630 -806 6 -2 644 -3 1419
-2 l1407 3 -361 435 c-198 239 -413 499 -477 577 -83 102 -125 145 -144 149
-21 5 -62 54 -178 210 l-152 204 -346 0 -347 0 -90 -90 c-67 -66 -96 -89 -108
-84 -15 6 -17 33 -17 300 l0 294 -275 0 -275 0 0 -240z m1584 -614 l176 -250
0 -78 c0 -43 0 -196 1 -340 l0 -263 -468 -2 -468 -2 -313 362 -313 362 314 3
314 2 284 235 c156 129 287 231 291 227 3 -4 86 -119 182 -256z"/>
<path d="M3807 3418 c2 -134 3 -246 3 -250 0 -5 92 -8 205 -8 l205 0 0 250 0
250 -207 0 -208 0 2 -242z m193 107 l0 -95 -80 0 -80 0 0 95 0 95 80 0 80 0 0
-95z m180 0 l0 -95 -80 0 -80 0 0 95 0 95 80 0 80 0 0 -95z m-180 -215 l0
-100 -80 0 -80 0 0 100 0 100 80 0 80 0 0 -100z m180 0 l0 -101 -77 3 -78 3
-3 84 c-2 46 -1 90 2 98 4 9 27 13 81 13 l75 0 0 -100z"/>
<path d="M1053 3532 l-23 -3 0 -410 0 -409 350 0 351 0 -3 412 -3 413 -325 0
c-179 0 -335 -1 -347 -3z m297 -243 c0 -143 -2 -160 -16 -155 -9 3 -67 6 -130
6 l-114 0 0 155 0 155 130 0 130 0 0 -161z m298 4 c-3 -156 -3 -157 -25 -156
-13 0 -70 1 -128 2 l-105 1 0 155 0 155 130 0 131 0 -3 -157z m-298 -348 l0
-155 -130 0 -130 0 0 155 0 155 130 0 130 0 0 -155z m300 0 l0 -155 -130 0
-130 0 0 155 0 155 130 0 130 0 0 -155z"/>
<path d="M3809 2193 c0 -5 -1 -191 -2 -415 l-2 -408 348 0 347 0 0 415 c0 270
-3 415 -10 415 -5 0 -10 -7 -10 -15 0 -11 -11 -15 -40 -15 -22 0 -40 4 -40 9
0 17 -39 19 -67 4 -33 -18 -129 -21 -160 -5 -12 7 -53 12 -90 12 -39 0 -74 -5
-81 -12 -17 -17 -122 -14 -159 6 -18 9 -33 13 -34 9z m321 -237 l0 -155 -130
-3 -130 -3 0 158 0 157 130 0 130 0 0 -154z m300 1 c0 -85 -2 -156 -4 -158 -2
-2 -63 -3 -135 -1 l-131 3 0 148 c0 81 3 151 7 154 3 4 64 7 135 7 l128 0 0
-153z m-300 -352 l0 -155 -130 0 -130 0 0 155 0 155 130 0 130 0 0 -155z m300
0 l0 -155 -135 0 -135 0 0 155 0 155 135 0 135 0 0 -155z"/>
<path d="M847 2160 c-354 -44 -691 -339 -801 -700 -20 -67 -51 -258 -43 -267
5 -4 172 128 247 195 224 200 449 292 715 292 265 0 487 -77 1300 -455 569
-264 535 -249 519 -223 -4 7 -3 8 5 4 6 -4 9 -11 6 -16 -8 -14 589 -259 601
-247 3 2 -49 24 -113 48 -65 24 -134 52 -153 61 -19 10 -40 18 -47 18 -7 0
-13 5 -13 10 0 6 -6 10 -12 9 -27 -3 -39 1 -32 13 5 7 3 8 -5 4 -7 -5 -21 0
-31 9 -10 9 -23 15 -27 12 -5 -3 -8 7 -7 21 1 25 4 27 36 24 20 -2 38 0 41 5
8 13 -66 8 -93 -7 -23 -12 -24 -14 -5 -21 11 -4 15 -8 8 -8 -6 -1 -19 2 -27 5
-13 5 -14 9 -5 21 11 12 9 12 -13 2 -17 -7 -32 -8 -43 -2 -16 9 -16 11 -1 16
10 4 15 3 11 -3 -3 -6 1 -10 9 -10 8 0 18 5 22 12 4 6 3 8 -4 4 -5 -3 -12 -3
-14 1 -5 13 -88 52 -88 42 0 -5 -5 -9 -11 -9 -5 0 -7 5 -4 10 3 6 -4 14 -17
19 -13 5 -70 31 -128 59 -58 27 -136 64 -175 82 -38 18 -191 88 -340 157 -299
139 -556 247 -709 300 -289 100 -532 108 -775 27 -160 -53 -262 -116 -431
-264 -58 -50 -113 -96 -122 -101 -16 -8 -17 -6 -12 23 55 308 261 574 546 707
139 66 188 75 393 74 195 0 307 -16 542 -73 322 -80 714 -247 1192 -510 29
-16 58 -27 64 -23 5 3 7 2 4 -3 -3 -6 4 -16 15 -23 19 -12 20 -11 15 8 -6 25
2 26 29 7 10 -8 16 -18 11 -22 -4 -4 -7 -2 -7 4 0 7 -4 12 -10 12 -5 0 -7 -7
-4 -15 8 -21 45 -30 56 -14 6 10 7 7 3 -8 -4 -14 -2 -23 4 -23 6 0 11 5 11 10
0 6 5 10 10 10 13 0 13 -27 0 -33 -6 -3 -5 -4 2 -3 7 2 18 -4 25 -13 10 -14
13 -14 30 1 15 14 22 14 41 4 12 -7 19 -16 15 -20 -4 -5 -1 -7 7 -4 8 3 76
-25 150 -62 135 -68 219 -106 208 -95 -3 3 -73 39 -154 79 -82 41 -196 99
-253 129 -57 31 -108 54 -114 50 -5 -3 -7 -2 -4 3 3 5 -20 23 -51 39 -31 17
-99 54 -151 84 -152 85 -474 245 -611 302 -260 108 -569 198 -804 234 -123 18
-343 26 -429 15z m1882 -601 c-15 -9 -32 -2 -24 11 3 5 13 6 21 3 12 -4 13 -8
3 -14z m261 -123 c0 -2 -7 -7 -16 -10 -8 -3 -12 -2 -9 4 6 10 25 14 25 6z m20
-11 c0 -2 -10 -9 -22 -15 -22 -11 -22 -10 -4 4 21 17 26 19 26 11z"/>
<path d="M5892 1874 c-305 -478 -768 -818 -1267 -931 -125 -28 -456 -25 -585
5 -177 42 -495 164 -714 273 -32 17 -61 28 -63 25 -3 -3 -11 0 -19 7 -34 30
-44 37 -56 37 -7 0 -21 7 -31 14 -9 7 -35 12 -57 11 -22 -1 -37 1 -35 6 3 4 2
9 -2 12 -5 2 -1 2 7 -1 8 -2 24 -6 35 -9 19 -4 19 -4 -1 9 -69 43 -62 62 -62
-170 0 -115 3 -213 6 -219 15 -24 85 -54 111 -48 17 4 21 3 12 -3 -16 -12 -12
-15 75 -47 808 -307 1357 -341 1829 -115 143 69 271 158 391 273 199 190 339
413 418 663 27 87 60 248 54 265 -2 6 -23 -20 -46 -57z"/>
<path d="M5593 1834 c-18 -30 -30 -54 -27 -54 2 0 13 15 24 33 19 31 20 31 21
7 1 -15 5 -8 10 19 5 25 8 46 6 47 -1 1 -16 -22 -34 -52z"/>
<path d="M5596 1749 c-4 -23 -5 -44 -2 -46 2 -2 7 14 11 37 4 23 5 43 2 46 -2
3 -7 -14 -11 -37z"/>
<path d="M5493 1683 c-100 -141 -295 -344 -410 -427 -29 -21 -53 -40 -53 -43
0 -9 105 70 151 114 25 24 52 43 59 41 7 -2 14 5 15 15 4 24 47 58 60 46 12
-12 25 -11 25 2 0 5 -4 7 -10 4 -16 -10 -12 31 5 45 8 6 20 8 26 4 8 -4 9 -3
5 5 -5 7 15 38 49 79 32 36 60 72 62 80 3 7 12 11 20 8 8 -3 11 -1 8 4 -7 12
33 82 44 76 4 -3 7 4 7 15 0 10 -1 19 -1 19 0 0 -28 -39 -62 -87z"/>
<path d="M5560 1617 c-12 -39 -29 -83 -37 -97 l-14 -25 19 21 c18 22 68 161
60 170 -3 2 -15 -29 -28 -69z"/>
<path d="M5485 1629 c-4 -6 -5 -12 -2 -15 2 -3 7 2 10 11 7 17 1 20 -8 4z"/>
<path d="M5481 1481 c-46 -53 -51 -62 -16 -29 21 21 37 39 35 42 -3 2 -11 -3
-19 -13z"/>
<path d="M5387 1395 c-16 -14 -33 -22 -39 -19 -6 4 -8 2 -5 -3 4 -6 0 -13 -8
-17 -8 -3 -15 -10 -15 -16 0 -5 10 -2 22 8 42 34 83 71 78 71 -3 0 -18 -11
-33 -24z"/>
<path d="M5236 1329 c3 -5 9 -7 14 -4 5 3 13 -3 19 -12 9 -17 11 -17 26 -2 12
12 13 19 6 24 -6 3 -11 3 -10 -2 3 -20 -2 -24 -17 -12 -19 15 -47 21 -38 8z"/>
<path d="M5213 1264 l-28 -26 35 23 c46 29 45 29 32 29 -6 0 -24 -12 -39 -26z"/>
<path d="M3440 1210 c8 -5 20 -10 25 -10 6 0 3 5 -5 10 -8 5 -19 10 -25 10 -5
0 -3 -5 5 -10z"/>
<path d="M4989 1189 l-24 -20 26 15 c14 9 29 13 34 9 4 -5 5 -2 1 5 -9 16 -10
16 -37 -9z"/>
<path d="M3510 1185 c0 -7 61 -37 66 -33 2 3 -12 12 -31 21 -19 9 -35 15 -35
12z"/>
<path d="M4917 1146 c-48 -29 -61 -43 -22 -23 31 16 74 46 65 46 -3 0 -22 -10
-43 -23z"/>
<path d="M3607 1139 c7 -7 15 -10 18 -7 3 3 -2 9 -12 12 -14 6 -15 5 -6 -5z"/>
<path d="M4800 1080 c-19 -11 -31 -19 -27 -20 11 0 67 29 67 35 0 7 -1 7 -40
-15z"/>
<path d="M4690 1030 c-8 -5 -10 -10 -5 -10 6 0 17 5 25 10 8 5 11 10 5 10 -5
0 -17 -5 -25 -10z"/>
<path d="M3550 690 c8 -5 22 -9 30 -9 10 0 8 3 -5 9 -27 12 -43 12 -25 0z"/>
<path d="M3638 663 c7 -3 16 -2 19 1 4 3 -2 6 -13 5 -11 0 -14 -3 -6 -6z"/>
<path d="M1827 132 c-22 -24 -21 -55 1 -75 37 -33 82 -9 82 43 0 47 -52 66
-83 32z m63 -6 c28 -35 -11 -93 -47 -70 -36 22 -23 84 17 84 10 0 23 -7 30
-14z"/>
<path d="M1844 116 c-9 -23 0 -51 17 -54 9 -2 20 5 23 15 6 14 5 16 -5 6 -20
-20 -29 -15 -29 13 0 19 4 25 15 20 8 -3 15 -1 15 4 0 16 -30 12 -36 -4z"/>
<path d="M1968 125 c-15 -34 0 -79 28 -83 22 -3 60 25 49 37 -4 3 -11 -2 -16
-12 -24 -42 -73 8 -50 52 13 24 31 27 50 9 11 -11 13 -10 9 2 -3 8 -17 16 -31
18 -21 3 -30 -3 -39 -23z"/>
<path d="M2227 143 c-17 -16 -5 -42 23 -52 17 -5 30 -15 30 -21 0 -18 -29 -23
-47 -9 -14 12 -16 12 -11 -1 3 -9 17 -15 34 -15 23 0 30 5 32 23 3 18 -3 25
-27 33 -17 6 -31 15 -31 20 0 16 29 22 45 9 9 -7 15 -8 15 -2 0 17 -49 30 -63
15z"/>
<path d="M2490 95 c0 -34 4 -55 11 -55 6 0 9 7 6 15 -10 23 11 28 23 4 7 -11
14 -18 17 -16 2 3 -1 15 -7 27 -9 16 -9 25 1 36 7 9 8 14 1 14 -6 0 -14 -4
-17 -10 -13 -20 -27 -10 -21 15 4 14 2 25 -4 25 -5 0 -10 -24 -10 -55z"/>
<path d="M2571 93 c1 -32 4 -46 6 -31 3 20 11 28 31 30 21 2 27 8 27 28 0 21
-5 26 -32 28 l-33 3 1 -58z m54 27 c0 -8 -10 -16 -22 -18 -18 -3 -23 2 -23 18
0 16 5 21 23 18 12 -2 22 -10 22 -18z"/>
<path d="M2663 95 c0 -45 1 -52 6 -26 9 49 29 51 34 4 l4 -38 1 44 c2 38 0 43
-17 38 -15 -3 -21 1 -24 17 -2 11 -4 -6 -4 -39z"/>
<path d="M3570 119 c0 -26 3 -29 20 -24 14 4 22 1 26 -10 10 -24 -11 -41 -31
-25 -9 8 -15 8 -15 2 0 -17 18 -24 41 -17 29 10 23 59 -9 63 -29 4 -24 24 9
33 21 6 21 7 -8 8 -30 1 -33 -2 -33 -30z"/>
<path d="M3666 135 c-11 -8 -14 -15 -8 -15 7 0 12 -16 12 -40 0 -22 5 -40 10
-40 6 0 10 25 10 55 0 30 -1 55 -2 55 -2 0 -12 -7 -22 -15z"/>
<path d="M3758 145 c-4 -4 -4 -20 -1 -36 4 -24 2 -29 -13 -29 -14 0 -15 3 -6
12 7 7 12 17 12 23 -1 11 -30 -25 -30 -37 0 -4 9 -8 19 -8 11 0 22 -8 24 -17
4 -17 5 -17 6 0 0 9 7 17 14 17 9 0 9 2 0 8 -6 4 -13 22 -15 41 -2 18 -6 30
-10 26z"/>
<path d="M3812 141 c-22 -13 -11 -55 16 -59 23 -4 29 -16 12 -27 -6 -4 -17 -1
-25 5 -11 9 -15 9 -15 1 0 -18 29 -25 46 -10 20 16 16 93 -6 96 -8 2 -21 -1
-28 -6z m35 -17 c8 -21 -13 -42 -28 -27 -13 13 -5 43 11 43 6 0 13 -7 17 -16z"/>
<path d="M3886 138 c-3 -7 -4 -31 -3 -53 2 -36 5 -40 27 -40 23 0 25 3 25 50
0 44 -3 50 -23 53 -12 2 -24 -3 -26 -10z m39 -7 c7 -12 -12 -24 -25 -16 -11 7
-4 25 10 25 5 0 11 -4 15 -9z m2 -47 c8 -21 -13 -42 -28 -27 -13 13 -5 43 11
43 6 0 13 -7 17 -16z"/>
<path d="M3964 135 c-3 -8 -3 -18 -1 -22 3 -5 2 -15 -3 -23 -12 -19 6 -50 30
-50 27 0 38 65 17 98 -11 16 -36 15 -43 -3z m36 -10 c0 -8 -7 -15 -15 -15 -16
0 -20 12 -8 23 11 12 23 8 23 -8z m7 -41 c8 -21 -13 -42 -28 -27 -13 13 -5 43
11 43 6 0 13 -7 17 -16z"/>
<path d="M4040 121 c0 -23 4 -28 19 -24 21 5 33 -17 20 -38 -7 -12 -12 -12
-31 0 -22 13 -22 13 -5 -5 13 -15 21 -16 35 -8 24 16 21 47 -5 59 -13 5 -23
15 -23 22 0 6 10 14 23 16 19 4 18 4 -5 6 -25 1 -28 -3 -28 -28z"/>
<path d="M4122 138 c-17 -17 -15 -73 3 -88 29 -24 46 -4 43 47 -3 50 -21 66
-46 41z m33 -43 c0 -42 -19 -58 -30 -25 -9 29 3 72 18 67 7 -2 12 -21 12 -42z"/>
<path d="M2309 128 c-2 -29 3 -74 10 -81 4 -4 6 7 3 24 -3 17 0 34 6 38 6 4 5
11 -4 19 -11 10 -14 10 -15 0z"/>
<path d="M2808 127 c-7 -22 7 -80 20 -83 7 -1 8 0 2 3 -12 6 -13 60 -1 65 5 2
3 8 -4 15 -10 9 -14 9 -17 0z"/>
<path d="M2065 110 c-5 -9 -1 -10 15 -5 18 6 22 4 17 -8 -3 -9 -1 -17 5 -19
16 -6 0 -28 -19 -28 -9 0 -13 6 -9 15 3 8 1 15 -5 15 -6 0 -9 -8 -7 -17 2 -12
13 -19 34 -20 30 -1 30 0 25 35 -5 28 -12 38 -28 40 -11 2 -24 -2 -28 -8z"/>
<path d="M2141 76 l2 -41 6 34 c8 43 28 51 37 14 10 -47 13 -50 11 -8 -2 36
-5 40 -29 41 -26 1 -28 -1 -27 -40z"/>
<path d="M2350 105 c-26 -31 13 -82 44 -56 19 16 21 42 4 59 -16 16 -33 15
-48 -3z m44 -10 c6 -17 -2 -45 -14 -45 -4 0 -13 7 -20 15 -10 12 -10 18 0 30
7 8 16 15 20 15 4 0 10 -7 14 -15z"/>
<path d="M2432 108 c-16 -16 -15 -43 3 -58 16 -14 45 -7 45 11 0 8 -4 8 -15
-1 -18 -15 -35 -5 -35 20 0 26 18 34 37 18 14 -11 15 -11 11 2 -6 20 -30 24
-46 8z"/>
<path d="M2735 101 c-10 -34 4 -63 28 -59 18 2 22 10 22 38 0 28 -4 36 -22 38
-14 2 -23 -3 -28 -17z m40 -21 c0 -27 -22 -39 -31 -16 -8 22 3 49 19 43 6 -2
12 -14 12 -27z"/>
<path d="M2850 105 c-26 -31 13 -82 44 -56 19 16 21 42 4 59 -16 16 -33 15
-48 -3z m44 -10 c6 -16 -2 -45 -13 -45 -18 0 -30 24 -20 42 12 22 25 23 33 3z"/>
<path d="M2967 113 c-4 -3 -7 -19 -7 -35 0 -35 25 -47 48 -24 9 9 11 16 5 16
-6 0 -13 -6 -16 -12 -3 -10 -8 -10 -17 -2 -17 16 -8 49 13 48 9 -1 14 2 11 7
-6 11 -28 12 -37 2z"/>
<path d="M3034 106 c-3 -8 -4 -25 -2 -38 2 -17 9 -23 28 -23 22 0 25 4 25 35
0 29 -4 36 -23 38 -13 2 -24 -3 -28 -12z m41 -26 c0 -27 -22 -39 -31 -16 -8
22 3 49 19 43 6 -2 12 -14 12 -27z"/>
<path d="M3111 76 l2 -41 6 34 c9 49 31 52 32 4 l2 -38 6 34 c8 48 31 53 31 7
0 -20 5 -36 11 -36 6 0 9 16 7 38 -3 37 -3 37 -50 38 l-48 1 1 -41z"/>
<path d="M3357 114 c-4 -4 -7 -20 -7 -36 0 -35 25 -47 48 -24 9 9 11 16 5 16
-6 0 -13 -5 -15 -12 -6 -17 -28 0 -28 22 0 25 20 36 32 19 8 -12 9 -11 5 1 -4
16 -29 25 -40 14z"/>
<path d="M3427 113 c-13 -13 -7 -31 13 -36 11 -3 20 -10 20 -16 0 -14 -27 -14
-33 -1 -3 6 -4 5 -3 -2 4 -19 42 -22 50 -3 4 10 -3 19 -19 27 -25 11 -24 34 2
24 8 -3 11 -1 8 4 -7 11 -28 13 -38 3z"/>
<path d="M3491 61 c1 -32 4 -48 7 -36 4 11 16 20 27 20 16 0 20 7 20 35 0 31
-3 35 -27 36 -27 1 -28 0 -27 -55z m44 19 c0 -27 -22 -39 -31 -16 -8 22 3 49
19 43 6 -2 12 -14 12 -27z"/>
<path d="M3268 83 c7 -3 16 -2 19 1 4 3 -2 6 -13 5 -11 0 -14 -3 -6 -6z"/>
</g>
</svg>
