<?xml version="1.0" standalone="no"?>
<!DOCTYPE svg PUBLIC "-//W3C//DTD SVG 20010904//EN"
 "http://www.w3.org/TR/2001/REC-SVG-20010904/DTD/svg10.dtd">
<svg version="1.0" xmlns="http://www.w3.org/2000/svg"
 width="1920.000000pt" height="1536.000000pt" viewBox="0 0 1920.000000 1536.000000"
 preserveAspectRatio="xMidYMid meet">

<g transform="translate(0.000000,1536.000000) scale(0.100000,-0.100000)"
fill="#000000" stroke="none">
<path d="M9350 10840 l0 -150 -972 2 -972 3 -8 30 c-10 38 -33 55 -73 55 -34
0 -70 -31 -77 -65 -3 -20 -13 -20 -498 -25 -473 -5 -497 -6 -550 -26 -160 -61
-272 -159 -339 -295 -93 -191 -198 -702 -248 -1209 -23 -232 -26 -1001 -5
-1225 35 -372 78 -637 152 -930 71 -278 102 -345 213 -456 84 -83 240 -159
329 -159 21 0 38 -4 38 -10 0 -7 -175 -10 -505 -10 l-505 0 0 353 c0 395 -4
422 -65 494 -28 33 -113 93 -131 93 -2 0 -4 -105 -4 -233 l0 -233 31 -18 c18
-11 39 -37 51 -62 18 -41 19 -66 16 -378 -3 -322 -4 -336 -24 -363 -41 -55
-77 -68 -209 -71 -161 -5 -197 5 -255 71 -172 195 -323 319 -495 405 -303 150
-660 178 -992 77 -414 -127 -745 -454 -882 -871 -16 -50 -32 -111 -36 -137
l-7 -47 137 0 137 0 -5 -27 c-3 -16 -13 -64 -23 -108 -23 -105 -23 -321 -1
-422 77 -343 278 -604 582 -753 392 -193 824 -144 1171 134 271 218 422 584
385 936 -6 60 -18 130 -26 157 -28 92 -73 83 434 83 l450 0 3 258 c3 229 5
260 21 287 24 39 75 74 124 86 57 13 1779 11 1827 -2 54 -15 115 -74 126 -124
5 -22 10 -145 10 -272 l0 -233 323 0 c178 0 326 -2 329 -5 3 -3 -3 -34 -13
-70 -38 -139 -42 -349 -9 -501 43 -199 136 -370 283 -521 353 -364 899 -433
1337 -171 349 209 555 624 512 1031 -7 62 -19 134 -27 161 -8 27 -15 55 -15
63 0 11 59 13 321 13 l321 0 -6 -22 c-45 -155 -58 -357 -31 -508 98 -557 610
-947 1170 -890 683 70 1126 735 929 1398 l-6 22 321 0 321 0 0 175 0 175 105
0 105 0 0 -60 0 -60 65 0 c63 0 65 1 65 25 0 22 4 25 39 25 57 0 62 13 39 100
-22 86 -20 205 6 279 20 54 9 71 -45 71 -34 0 -38 3 -41 28 -3 26 -5 27 -63
27 l-60 0 -3 -63 -3 -63 -102 3 -102 3 -3 133 -3 132 113 0 c206 0 344 49 466
165 80 76 125 147 162 258 27 80 87 313 110 430 6 31 15 57 20 57 5 0 321
-210 702 -467 516 -349 713 -486 770 -541 134 -128 225 -282 276 -471 l26 -96
4 -703 3 -702 264 0 265 0 0 643 c0 365 -4 689 -10 752 -33 346 -178 665 -413
911 -117 122 -153 149 -707 522 -843 568 -1084 732 -1095 744 -8 9 -9 36 -4
88 16 154 22 713 10 921 -25 445 -75 802 -166 1167 -50 201 -100 346 -117 336
-6 -4 -8 -2 -5 3 9 15 -51 95 -65 87 -6 -4 -8 -3 -5 3 8 13 -27 46 -38 36 -4
-5 -5 -3 -2 4 17 29 -169 134 -272 153 -31 6 -248 10 -517 10 -446 0 -464 1
-464 19 0 10 -9 30 -21 45 -37 48 -124 27 -131 -32 l-3 -27 -974 0 -973 0 1
130 c1 72 -1 139 -5 148 -6 16 -61 17 -800 17 l-794 0 0 -150z m-2109 -420 c0
-5 0 -39 0 -75 0 -36 0 -72 0 -80 -1 -13 -60 -15 -469 -15 -351 0 -471 3 -480
12 -18 18 -15 133 4 152 14 14 71 16 480 16 302 0 464 -3 465 -10z m5649 -80
l0 -90 -2740 -2 -2740 -3 0 93 0 92 2740 0 2740 0 0 -90z m1112 73 c24 -21 26
-124 2 -147 -14 -14 -71 -16 -485 -16 l-469 0 0 90 0 90 467 0 c420 0 468 -2
485 -17z m-3667 -578 c428 -62 795 -327 985 -712 97 -197 133 -354 133 -583 0
-228 -41 -404 -138 -594 -190 -373 -547 -633 -964 -702 -123 -20 -353 -15
-465 10 -400 90 -731 345 -909 701 -96 193 -131 348 -132 585 0 247 37 399
146 610 66 127 133 216 246 327 290 286 692 417 1098 358z m1930 -3380 c140
-20 261 -57 391 -121 258 -126 445 -300 595 -556 21 -36 39 -69 39 -72 0 -3
-38 -6 -85 -6 l-84 0 -52 77 c-63 93 -190 227 -279 294 -85 64 -253 150 -360
184 -234 73 -503 71 -740 -7 -99 -32 -246 -109 -335 -175 -100 -74 -216 -196
-284 -297 l-52 -76 -302 0 -302 0 -48 75 c-165 253 -440 438 -759 512 -113 26
-386 24 -498 -4 -324 -81 -573 -252 -747 -514 l-46 -69 -83 0 c-46 0 -84 2
-84 5 0 3 10 25 21 48 47 92 148 227 239 317 212 213 492 353 775 389 39 4
725 9 1525 10 1213 0 1472 -2 1555 -14z m-8481 -735 c111 -28 197 -74 276
-147 270 -250 279 -657 21 -913 -130 -130 -262 -184 -446 -184 -185 0 -317 54
-446 184 -198 198 -242 472 -118 730 52 110 168 228 274 280 142 69 296 87
439 50z m5719 4 c124 -28 211 -77 308 -173 67 -67 94 -103 122 -161 89 -186
89 -383 1 -567 -30 -61 -57 -97 -124 -163 -89 -90 -156 -130 -276 -167 -80
-24 -256 -24 -339 1 -245 73 -420 275 -457 530 -10 75 -10 101 4 183 61 360
409 596 761 517z m2719 -3 c229 -59 404 -232 462 -457 21 -80 21 -238 0 -317
-90 -348 -455 -552 -799 -447 -211 65 -376 238 -429 451 -20 83 -21 233 0 312
34 133 122 266 227 344 161 119 356 161 539 114z"/>
<path d="M10105 9593 c-49 -26 -127 -92 -169 -141 -85 -103 -105 -217 -61
-359 7 -20 5 -22 -27 -17 -57 10 -118 -13 -165 -62 -70 -72 -80 -166 -28 -246
31 -46 31 -50 1 -42 -40 10 -132 -15 -183 -49 -118 -80 -161 -216 -108 -348 4
-12 -1 -18 -22 -22 -45 -9 -109 -62 -132 -109 -27 -56 -28 -138 -2 -194 22
-49 78 -97 130 -113 27 -8 251 -11 773 -11 830 0 800 -3 886 75 123 111 129
289 14 408 -38 40 -99 77 -127 77 -26 0 -16 14 30 42 57 34 85 88 85 163 0 93
-41 155 -123 190 l-38 16 30 35 c73 82 59 214 -30 286 -29 23 -76 38 -294 89
-284 66 -340 89 -387 153 -32 45 -37 104 -14 161 17 40 9 44 -39 18z"/>
<path d="M3556 5592 c-8 -13 18 -106 38 -136 19 -30 56 -34 78 -8 17 19 35 72
40 117 l3 30 -77 3 c-42 2 -79 -1 -82 -6z"/>
<path d="M3284 5456 l-59 -57 29 -24 c139 -112 224 -29 113 109 l-24 29 -59
-57z"/>
<path d="M3890 5465 c-53 -76 -51 -145 4 -145 26 0 119 45 136 65 9 11 3 23
-31 60 -66 72 -73 73 -109 20z"/>
<path d="M3144 5176 c-3 -7 -4 -44 -2 -82 l3 -69 30 3 c142 15 184 98 70 140
-54 19 -95 23 -101 8z"/>
<path d="M4060 5179 c-61 -12 -95 -39 -95 -75 0 -24 7 -33 45 -51 24 -13 61
-23 83 -23 l38 0 -3 77 c-2 42 -7 77 -13 79 -5 1 -30 -2 -55 -7z"/>
<path d="M3315 4875 c-16 -8 -43 -26 -59 -38 l-29 -24 50 -51 c27 -29 57 -52
66 -52 21 0 77 95 77 131 0 49 -45 63 -105 34z"/>
<path d="M3862 4878 c-7 -7 -12 -23 -12 -37 0 -26 51 -124 70 -136 13 -8 123
102 115 115 -12 19 -110 70 -135 70 -15 0 -31 -5 -38 -12z"/>
<path d="M3598 4763 c-20 -24 -36 -70 -40 -113 l-3 -35 80 0 80 0 -3 30 c-8
80 -39 135 -77 135 -12 0 -29 -8 -37 -17z"/>
<path d="M9290 5562 c0 -52 39 -126 68 -130 42 -6 72 38 87 126 l7 42 -81 0
-81 0 0 -38z"/>
<path d="M9021 5463 c-28 -27 -51 -56 -51 -64 0 -19 75 -67 117 -75 40 -8 63
8 63 44 0 31 -34 103 -59 126 -19 17 -22 16 -70 -31z"/>
<path d="M9627 5472 c-54 -78 -59 -136 -11 -148 29 -7 85 15 130 51 l29 24
-45 46 c-67 69 -73 71 -103 27z"/>
<path d="M8877 5183 c-4 -3 -7 -39 -7 -80 l0 -73 34 0 c40 0 95 17 119 38 41
36 2 95 -72 108 -20 3 -43 8 -52 10 -8 2 -18 1 -22 -3z"/>
<path d="M9793 5181 c-17 -5 -46 -17 -65 -28 -25 -15 -33 -26 -33 -49 0 -24 7
-33 45 -51 24 -13 61 -23 83 -23 l38 0 -3 77 c-3 85 -6 88 -65 74z"/>
<path d="M9044 4872 c-16 -9 -41 -25 -54 -35 -24 -16 -24 -18 -8 -45 9 -15 34
-42 56 -60 l40 -33 31 42 c34 47 49 104 34 128 -14 22 -62 24 -99 3z"/>
<path d="M9589 4866 c-9 -18 -8 -33 0 -58 17 -48 54 -98 72 -98 9 0 38 23 64
51 45 48 46 51 30 69 -24 27 -96 60 -128 60 -19 0 -31 -7 -38 -24z"/>
<path d="M9331 4767 c-20 -25 -41 -86 -41 -122 l0 -35 74 0 c41 0 77 4 80 9
10 16 -14 109 -35 136 -22 27 -60 33 -78 12z"/>
<path d="M11990 5573 c1 -64 46 -143 80 -143 36 0 80 80 80 148 0 21 -4 22
-80 22 l-80 0 0 -27z"/>
<path d="M11722 5459 c-29 -28 -52 -55 -52 -60 0 -5 19 -22 41 -39 49 -35 102
-48 124 -30 31 26 10 113 -39 159 l-22 21 -52 -51z"/>
<path d="M12342 5487 c-31 -35 -52 -83 -52 -121 0 -29 4 -37 24 -42 33 -8 85
10 126 44 l33 28 -24 33 c-13 18 -38 43 -55 56 l-31 24 -21 -22z"/>
<path d="M11576 5168 c-8 -30 -8 -102 0 -122 8 -22 69 -20 121 3 93 43 54 111
-78 135 -32 6 -37 4 -43 -16z"/>
<path d="M12497 5179 c-84 -20 -120 -56 -98 -98 14 -25 89 -53 132 -49 34 3
34 4 37 57 4 65 -4 101 -21 100 -6 -1 -29 -5 -50 -10z"/>
<path d="M11740 4871 c-19 -11 -44 -29 -54 -40 l-20 -22 52 -52 c59 -59 71
-58 109 9 25 43 30 93 11 112 -17 17 -57 14 -98 -7z"/>
<path d="M12302 4878 c-19 -19 -14 -69 11 -112 38 -67 50 -68 108 -10 32 32
49 56 44 64 -4 7 -28 25 -53 41 -48 31 -90 37 -110 17z"/>
<path d="M12032 4760 c-20 -21 -42 -90 -42 -129 0 -20 6 -21 81 -21 l82 0 -7
47 c-14 103 -68 152 -114 103z"/>
<path d="M3189 10334 c-9 -10 -16 -53 -19 -108 l-5 -91 -47 -3 -48 -3 0 -60 0
-59 440 0 440 0 0 59 0 60 -47 3 -48 3 -5 92 c-4 68 -9 97 -22 109 -15 16 -19
15 -55 -13 -80 -63 -148 -85 -266 -84 -113 1 -183 23 -258 82 -43 34 -43 34
-60 13z"/>
<path d="M2052 9343 c-39 -19 -62 -59 -62 -109 0 -28 8 -44 34 -70 30 -30 40
-34 84 -34 43 0 50 -3 55 -22 4 -14 -4 -38 -22 -68 -33 -53 -97 -203 -139
-321 -65 -184 -110 -391 -157 -716 -29 -207 -27 -237 27 -292 l32 -32 -20 -57
c-10 -31 -31 -70 -46 -87 l-28 -30 -17 21 c-51 62 -148 59 -186 -6 -27 -46
-22 -106 11 -140 62 -62 148 -44 188 39 11 23 34 54 51 66 25 20 63 89 86 156
4 11 23 18 63 22 47 5 61 3 82 -14 55 -43 155 -13 189 57 l18 37 320 94 c603
177 720 213 745 232 14 10 39 37 55 60 l30 43 3 391 c4 456 2 478 -62 541 -67
67 -69 67 -606 64 -470 -3 -475 -3 -519 -25 -25 -13 -46 -23 -48 -23 -2 0 -7
10 -12 23 -6 14 -4 31 5 49 19 37 17 67 -6 106 -19 31 -71 62 -102 62 -7 0
-28 -8 -46 -17z m488 -222 c0 -5 -13 -40 -29 -77 -16 -38 -43 -108 -61 -156
-29 -78 -35 -87 -54 -83 -56 13 -121 23 -128 19 -5 -3 -8 -14 -8 -24 0 -11 -5
-42 -11 -70 -9 -43 -14 -50 -34 -50 -13 0 -26 4 -29 9 -3 5 3 69 14 143 11 73
20 157 20 185 0 58 12 72 88 99 42 15 232 19 232 5z m580 -4 c0 -13 -58 -165
-105 -277 -12 -30 -37 -91 -54 -135 -17 -44 -73 -188 -125 -320 -51 -132 -117
-299 -145 -371 -46 -118 -55 -132 -79 -138 -15 -3 -48 -12 -74 -20 -43 -14
-46 -13 -41 2 3 9 39 103 80 207 41 105 85 217 98 250 13 33 53 134 88 225 68
172 111 283 170 435 67 173 53 155 124 155 45 0 63 -4 63 -13z m235 -40 c18
-18 38 -51 44 -72 14 -53 15 -755 0 -808 -5 -21 -24 -53 -40 -72 -32 -37 -36
-38 -254 -101 -66 -19 -149 -43 -184 -55 -35 -11 -65 -18 -68 -16 -2 2 17 55
43 118 25 63 64 161 86 219 106 272 152 391 232 594 47 120 86 220 86 222 0
13 27 -1 55 -29z m-1200 -144 c-12 -105 -83 -525 -120 -708 -35 -172 -110
-484 -119 -493 -9 -8 -24 8 -40 42 -14 29 -14 46 -6 113 53 405 111 668 194
883 46 120 89 219 94 220 2 0 0 -26 -3 -57z m53 -342 c11 -7 7 -40 -20 -177
-33 -166 -35 -169 -59 -166 -13 2 -25 5 -26 5 0 1 9 56 22 122 12 66 26 144
30 173 7 53 21 64 53 43z m-72 -450 c-3 -9 -10 -42 -16 -73 -6 -32 -26 -93
-43 -137 -25 -62 -36 -78 -47 -71 -11 7 -10 22 7 97 12 48 27 115 34 149 12
58 13 60 41 56 21 -3 27 -9 24 -21z m-126 -375 c0 -15 -24 -66 -31 -66 -8 0
-3 43 8 63 4 7 23 10 23 3z"/>
<path d="M1726 9142 c-143 -284 -279 -701 -345 -1057 -37 -198 -64 -505 -44
-505 38 0 130 39 166 70 69 61 83 102 106 300 38 330 110 617 242 968 22 56
39 114 39 129 0 38 -35 106 -67 129 -56 41 -60 39 -97 -34z"/>
<path d="M3905 9158 c-45 -16 -90 -53 -117 -95 -23 -38 -23 -40 -26 -413 -2
-256 0 -389 8 -420 15 -58 51 -105 103 -133 39 -20 55 -22 227 -22 170 0 188
2 225 22 50 27 80 58 100 105 13 32 15 97 15 420 0 351 -2 386 -19 423 -24 52
-66 91 -120 110 -51 18 -346 20 -396 3z m355 -37 c0 -11 -25 -82 -44 -124 -8
-17 -46 -113 -85 -212 -38 -99 -108 -278 -155 -398 -48 -120 -86 -222 -86
-227 0 -18 -26 -11 -46 13 -11 12 -26 35 -32 50 -16 38 -17 739 -1 788 15 44
66 97 104 108 39 12 345 14 345 2z m135 -877 c-5 -29 -65 -118 -65 -98 0 5 -4
4 -8 -2 -4 -6 -20 -15 -37 -21 -33 -10 -125 -18 -125 -10 0 3 13 38 29 79 84
209 201 511 203 521 2 7 4 -89 6 -213 1 -124 0 -239 -3 -256z"/>
<path d="M1293 7224 c-25 -11 -12 -24 25 -24 91 0 150 -94 106 -169 -23 -39
-51 -54 -108 -61 -47 -5 -49 -6 -32 -22 14 -15 36 -18 117 -18 l99 0 0 93 c0
102 -15 145 -63 181 -26 19 -118 32 -144 20z"/>
</g>
</svg>
