<?xml version="1.0" standalone="no"?>
<!DOCTYPE svg PUBLIC "-//W3C//DTD SVG 20010904//EN"
 "http://www.w3.org/TR/2001/REC-SVG-20010904/DTD/svg10.dtd">
<svg version="1.0" xmlns="http://www.w3.org/2000/svg"
 width="1080.000000pt" height="1080.000000pt" viewBox="0 0 1080.000000 1080.000000"
 preserveAspectRatio="xMidYMid meet">

<g transform="translate(0.000000,1080.000000) scale(0.100000,-0.100000)"
fill="#000000" stroke="none">
<path d="M6380 9973 c-297 -56 -505 -178 -558 -325 -14 -40 -23 -50 -51 -59
-19 -7 -64 -41 -101 -79 -97 -96 -138 -186 -191 -415 -27 -117 -30 -376 -5
-505 29 -149 83 -336 116 -397 11 -21 20 -45 20 -55 0 -9 8 -36 19 -60 10 -24
44 -120 76 -215 52 -155 74 -198 93 -178 3 3 -7 51 -23 107 -110 406 -126 696
-56 989 38 161 62 231 123 359 39 80 141 259 164 289 2 2 70 -12 151 -32 82
-19 164 -38 183 -42 19 -3 73 -15 120 -25 74 -17 178 -35 518 -94 59 -11 71
-11 60 0 -7 7 -29 17 -48 22 -65 19 -325 111 -315 111 64 3 538 -114 571 -141
14 -10 62 -108 98 -199 105 -265 140 -581 97 -869 -18 -118 -63 -319 -95 -422
-16 -50 -10 -66 16 -45 17 13 17 13 89 227 28 80 74 210 104 290 126 340 158
604 104 880 -16 87 -69 269 -97 339 -97 241 -347 424 -702 513 -111 28 -144
31 -290 34 -91 1 -176 0 -190 -3z"/>
<path d="M2147 9314 c-4 -4 -7 -40 -7 -80 0 -63 2 -72 20 -77 20 -5 20 -14 20
-426 0 -232 -3 -421 -7 -421 -15 0 -122 -105 -149 -145 -15 -22 -37 -70 -50
-107 -22 -63 -24 -83 -24 -277 l0 -210 38 -8 c49 -10 626 -10 675 0 l38 8 -3
237 -3 237 -29 59 c-19 39 -57 86 -108 138 l-79 78 0 125 c0 69 0 256 1 416 0
284 0 291 20 296 19 5 21 12 18 82 l-3 76 -181 3 c-99 1 -183 -1 -187 -4z"/>
<path d="M5985 8753 c-81 -18 -155 -47 -155 -61 0 -13 -3 -13 -12 -4 -31 31
-38 -1 -7 -34 20 -21 25 -22 177 -17 103 3 192 0 260 -9 56 -8 106 -11 111 -8
4 3 20 24 35 48 l26 42 -26 12 c-24 11 -28 9 -55 -22 l-30 -35 3 39 c3 35 0
41 -22 47 -27 8 -273 9 -305 2z"/>
<path d="M6850 8751 c-22 -6 -25 -12 -22 -47 l4 -39 -34 32 c-24 24 -39 31
-56 27 -29 -8 -28 -17 10 -70 23 -33 36 -43 52 -39 80 17 233 27 360 24 l149
-4 20 27 c21 28 17 52 -5 30 -15 -15 -29 -15 -25 0 1 6 -27 23 -63 37 -57 21
-84 25 -215 27 -82 2 -161 0 -175 -5z"/>
<path d="M6080 8469 c-93 -38 -108 -168 -24 -220 41 -25 112 -23 144 6 32 29
52 82 45 119 -13 69 -103 121 -165 95z m24 -42 c8 -13 6 -21 -7 -34 -13 -13
-21 -15 -34 -7 -24 15 -26 29 -7 48 19 19 33 17 48 -7z m-39 -82 c0 -13 -8
-21 -22 -23 -17 -3 -23 2 -23 16 0 10 3 22 7 26 13 13 38 1 38 -19z"/>
<path d="M6970 8462 c-46 -25 -73 -79 -64 -128 22 -116 178 -142 228 -38 33
70 8 142 -60 170 -44 18 -63 18 -104 -4z m35 -47 c0 -21 -5 -31 -19 -33 -26
-5 -40 12 -32 43 5 20 12 26 29 23 17 -2 22 -10 22 -33z m-37 -73 c3 -16 -2
-22 -17 -22 -24 0 -33 13 -25 35 9 23 38 14 42 -13z"/>
<path d="M3115 7496 l-80 -11 -3 -57 c-2 -42 3 -71 19 -110 54 -129 176 -271
272 -316 54 -25 86 -19 152 31 138 104 235 268 239 401 l1 51 -85 12 c-105 14
-408 14 -515 -1z"/>
<path d="M4070 7496 l-75 -11 -3 -46 c-6 -100 63 -237 179 -352 84 -83 147
-114 193 -95 46 18 85 47 144 107 104 106 161 218 165 326 l2 59 -85 12 c-105
15 -419 15 -520 0z m70 -337 c0 -6 -4 -7 -10 -4 -5 3 -10 11 -10 16 0 6 5 7
10 4 6 -3 10 -11 10 -16z"/>
<path d="M5855 7283 c-68 -15 -284 -81 -360 -110 -312 -121 -588 -279 -840
-482 -82 -66 -68 -53 -189 -165 l-96 -89 0 -172 0 -172 38 -6 c20 -4 75 -9
122 -13 110 -8 447 -70 525 -96 90 -31 135 -56 143 -81 9 -25 8 -82 -2 -113
-12 -39 -150 -96 -277 -114 -39 -6 -75 -12 -78 -15 -19 -11 -353 -54 -596 -75
-66 -6 -127 -12 -135 -13 -8 -2 4 -13 27 -27 24 -13 45 -31 47 -39 8 -26 10
-227 2 -239 -29 -48 -234 -115 -403 -132 -104 -11 -287 0 -304 17 -5 5 -11 46
-15 93 -10 126 -11 127 -62 91 -23 -17 -44 -42 -48 -57 -8 -29 7 -169 41 -399
13 -88 36 -245 50 -350 14 -104 35 -251 46 -325 11 -74 24 -171 30 -215 5 -44
12 -87 14 -95 5 -16 29 -178 45 -305 11 -94 39 -173 116 -332 35 -72 64 -136
64 -141 0 -6 9 -27 19 -49 11 -21 37 -74 59 -118 56 -112 83 -161 125 -227 20
-31 37 -62 37 -68 0 -5 4 -10 8 -10 4 0 15 -12 24 -27 106 -180 392 -494 608
-669 94 -76 250 -188 310 -222 25 -14 52 -31 60 -37 33 -26 294 -157 397 -199
231 -95 408 -144 683 -193 117 -20 191 -26 385 -30 308 -7 492 9 738 63 l27 6
-2 658 -3 658 75 11 c41 6 113 18 160 26 47 8 118 20 158 27 l72 12 0 135 c0
325 -48 586 -131 722 -30 48 -33 50 -68 45 -20 -3 -83 -8 -141 -11 -113 -7
-116 -2 -32 36 56 25 169 37 462 49 849 36 802 35 894 17 186 -37 294 -102
403 -242 77 -100 153 -313 173 -484 5 -46 11 -86 14 -88 3 -4 48 85 99 197
105 232 200 591 232 876 22 205 20 508 -6 713 -43 354 -155 714 -316 1021 -63
121 -175 307 -217 362 -12 15 -37 48 -56 74 -185 248 -424 480 -678 660 -46
32 -91 63 -100 69 -10 5 -30 19 -47 31 -16 12 -68 41 -115 66 -47 25 -101 54
-120 65 -125 69 -514 214 -653 243 -55 11 -60 11 -79 -10 -11 -11 -24 -35 -29
-53 -13 -43 0 -248 16 -267 24 -28 75 -162 75 -197 0 -19 -9 -74 -20 -121 -12
-48 -23 -97 -25 -109 -5 -20 -80 -73 -104 -73 -6 0 -11 15 -11 33 0 21 -8 41
-21 52 -18 17 -24 18 -52 6 -18 -8 -63 -24 -101 -37 -38 -13 -74 -28 -80 -33
-6 -5 -27 -12 -46 -16 -19 -4 -50 -15 -67 -23 -31 -15 -34 -14 -55 5 -44 39
-233 38 -262 -2 -11 -16 -18 -17 -42 -7 -16 6 -72 27 -124 47 -52 20 -117 45
-144 56 -77 32 -108 14 -112 -66 -1 -16 -2 -35 -3 -42 -2 -18 -82 17 -92 41
-4 12 -20 74 -34 138 -14 65 -28 124 -31 132 -7 18 43 159 72 202 20 30 23 46
25 164 2 115 0 133 -17 153 -33 38 -36 40 -79 30z m1535 -377 c0 -3 -4 -8 -10
-11 -5 -3 -10 -1 -10 4 0 6 5 11 10 11 6 0 10 -2 10 -4z m-208 -615 c-11 -42
-34 -137 -52 -211 -17 -74 -40 -169 -52 -210 -11 -41 -26 -102 -33 -135 -34
-147 -72 -281 -156 -540 -32 -99 -81 -259 -109 -355 -28 -96 -62 -211 -75
-255 -13 -44 -47 -163 -76 -265 -28 -102 -54 -189 -57 -194 -5 -9 -48 130 -96
309 -15 55 -37 134 -50 175 -13 41 -38 125 -56 185 -17 61 -44 151 -60 200
-163 515 -210 685 -330 1188 -40 171 -40 173 8 161 21 -6 22 -11 22 -118 0
-69 5 -120 13 -136 17 -34 61 -37 133 -7 33 13 105 41 162 62 l102 38 24 -22
c22 -21 34 -23 127 -22 90 0 105 3 125 22 20 19 26 20 61 9 21 -7 52 -18 68
-26 61 -27 171 -66 217 -77 74 -17 78 -10 78 154 l0 139 38 19 c48 25 51 14
24 -88z m-630 -2621 c207 -41 274 -69 352 -148 55 -55 61 -59 80 -47 26 16
256 35 273 23 21 -16 74 -180 99 -303 17 -89 23 -151 23 -240 -1 -161 -4 -169
-59 -176 -214 -29 -224 -30 -250 -19 -15 6 -33 22 -40 36 -17 31 -24 30 -65
-9 -43 -41 -108 -74 -172 -86 -27 -5 -121 -13 -209 -17 -173 -7 -194 -3 -240
48 -33 35 -43 60 -86 202 -22 72 -55 171 -75 220 -35 87 -44 155 -27 209 3 12
24 40 45 63 36 37 39 43 29 68 -42 112 36 182 207 185 34 1 86 -4 115 -9z"/>
<path d="M4195 6233 c-47 -59 -85 -110 -85 -114 0 -8 169 -21 181 -14 13 8 12
235 -1 235 -6 0 -48 -48 -95 -107z"/>
<path d="M1950 6041 l0 -160 31 -16 c41 -22 153 -42 275 -51 151 -10 395 23
430 58 15 15 22 323 7 323 -4 -1 -42 -7 -83 -14 -139 -26 -565 -15 -644 15
-14 5 -16 -13 -16 -155z"/>
</g>
</svg>
