<?xml version="1.0" standalone="no"?>
<!DOCTYPE svg PUBLIC "-//W3C//DTD SVG 20010904//EN"
 "http://www.w3.org/TR/2001/REC-SVG-20010904/DTD/svg10.dtd">
<svg version="1.0" xmlns="http://www.w3.org/2000/svg"
 width="1000.000000pt" height="732.000000pt" viewBox="0 0 1000.000000 732.000000"
 preserveAspectRatio="xMidYMid meet">

<g transform="translate(0.000000,732.000000) scale(0.100000,-0.100000)"
fill="#000000" stroke="none">
<path d="M900 3830 l0 -2490 1293 -2 1292 -3 -48 -33 c-78 -54 -189 -105 -391
-178 -142 -52 -190 -73 -196 -89 -10 -25 10 -59 36 -63 11 -1 100 27 199 63
200 74 335 109 470 125 122 13 2728 13 2850 0 135 -16 270 -51 470 -125 99
-36 188 -64 199 -63 26 4 46 38 36 64 -6 15 -45 34 -156 74 -236 84 -326 124
-405 176 l-74 49 1308 3 1307 2 0 2490 0 2490 -4095 0 -4095 0 0 -2490z"/>
</g>
</svg>
