<?xml version="1.0" standalone="no"?>
<!DOCTYPE svg PUBLIC "-//W3C//DTD SVG 20010904//EN"
 "http://www.w3.org/TR/2001/REC-SVG-20010904/DTD/svg10.dtd">
<svg version="1.0" xmlns="http://www.w3.org/2000/svg"
 width="1067.000000pt" height="729.000000pt" viewBox="0 0 1067.000000 729.000000"
 preserveAspectRatio="xMidYMid meet">

<g transform="translate(0.000000,729.000000) scale(0.100000,-0.100000)"
fill="#000000" stroke="none">
<path d="M2607 4839 c-120 -29 -221 -123 -261 -244 -15 -47 -16 -176 -14
-1600 l3 -1550 26 -56 c66 -141 203 -219 385 -219 l41 0 17 -62 c23 -82 66
-172 111 -230 19 -26 35 -49 35 -52 0 -3 -77 -6 -170 -6 -194 0 -216 -6 -245
-66 -19 -40 -15 -82 11 -122 35 -54 -6 -52 1199 -52 1228 0 1165 -3 1205 62
24 39 25 66 6 113 -28 65 -27 65 -501 65 l-427 0 36 48 c46 64 102 182 117
248 l12 53 1116 3 c852 2 1122 6 1143 15 26 12 28 11 34 -15 24 -112 68 -213
128 -297 l36 -50 -362 -5 c-259 -4 -369 -9 -384 -17 -12 -7 -29 -29 -39 -49
-31 -66 3 -144 73 -164 26 -8 362 -10 1089 -8 1050 3 1052 3 1080 24 59 44 63
132 7 185 -25 23 -33 24 -205 29 l-179 5 36 50 c45 61 97 172 115 242 l12 52
276 3 c297 3 314 6 348 57 17 24 18 76 21 706 2 374 0 700 -3 725 -6 44 -22
61 -573 614 -326 327 -581 574 -599 582 -25 11 -99 14 -338 14 l-305 0 0 323
c0 259 -3 335 -15 382 -32 123 -123 218 -242 255 -64 20 -90 20 -1195 20
-1240 0 -1174 3 -1211 -59 -21 -36 -22 -83 -2 -121 33 -63 -36 -60 1195 -60
1230 0 1165 3 1207 -58 17 -26 18 -98 21 -1502 2 -811 0 -1495 -3 -1519 -5
-32 -16 -54 -40 -78 l-33 -33 -1106 0 c-1094 0 -1106 0 -1106 20 0 11 -13 56
-30 101 -116 318 -445 513 -777 459 -157 -25 -285 -91 -398 -205 -86 -86 -137
-172 -173 -287 l-27 -88 -65 0 c-73 1 -102 13 -131 56 -18 28 -19 63 -19 1534
0 1492 0 1505 20 1538 35 58 59 62 354 62 l264 0 31 26 c59 50 58 143 -2 188
-27 20 -41 21 -310 23 -155 1 -299 -3 -320 -8z m4493 -1704 l5 -490 29 -60
c55 -111 162 -192 285 -215 31 -6 228 -10 462 -10 l409 0 0 -470 0 -470 -198
0 -199 0 -12 56 c-7 30 -33 97 -59 147 -81 163 -238 296 -417 353 -201 65
-431 33 -603 -83 -37 -25 -70 -47 -74 -49 -5 -3 -8 398 -8 891 l0 895 188 -2
187 -3 5 -490z m752 -97 l420 -428 -421 0 -422 0 -42 39 -42 40 -3 433 -3 433
47 -45 c25 -25 235 -237 466 -472z m-4252 -1284 c157 -35 286 -155 340 -315
18 -53 21 -81 18 -165 -3 -92 -7 -107 -40 -175 -45 -91 -91 -146 -160 -191
-193 -126 -426 -107 -587 47 -198 189 -201 487 -6 679 116 113 273 157 435
120z m3682 5 c131 -27 259 -122 322 -238 127 -237 34 -528 -207 -646 -138 -67
-276 -67 -414 0 -241 118 -334 409 -207 646 96 178 310 279 506 238z"/>
<path d="M3605 4841 c-88 -39 -98 -173 -15 -216 90 -47 190 20 177 118 -10 74
-97 127 -162 98z"/>
<path d="M4545 4418 c-11 -6 -261 -218 -557 -470 -352 -302 -540 -470 -548
-489 -15 -36 -7 -95 17 -122 27 -30 76 -47 138 -47 l55 0 0 -445 0 -445 -55 0
c-72 0 -119 -20 -145 -62 -24 -39 -25 -66 -6 -113 29 -69 -44 -65 1165 -65
l1091 0 31 28 c26 23 33 38 36 79 5 47 3 53 -30 89 -34 37 -38 39 -111 42
l-76 4 0 444 0 444 61 0 c73 0 124 22 144 61 18 33 19 92 4 120 -8 16 -583
513 -1042 902 -59 50 -72 57 -110 57 -23 0 -51 -6 -62 -12z m395 -554 c184
-157 346 -296 360 -310 l25 -24 -719 0 c-453 0 -716 4 -714 10 3 9 699 608
708 609 3 1 156 -128 340 -285z m370 -1019 l0 -445 -170 0 -170 0 0 285 c0
312 -3 335 -56 370 -27 19 -48 20 -329 20 -275 0 -303 -2 -329 -18 -52 -35
-56 -60 -56 -372 l0 -285 -155 0 -155 0 0 445 0 445 710 0 710 0 0 -445z
m-580 -230 l0 -215 -145 0 -145 0 0 215 0 215 145 0 145 0 0 -215z"/>
<path d="M5264 786 c-28 -28 -34 -42 -34 -75 0 -57 22 -95 66 -116 101 -48
207 58 159 159 -21 44 -59 66 -116 66 -33 0 -47 -6 -75 -34z"/>
</g>
</svg>
