<?xml version="1.0" standalone="no"?>
<!DOCTYPE svg PUBLIC "-//W3C//DTD SVG 20010904//EN"
 "http://www.w3.org/TR/2001/REC-SVG-20010904/DTD/svg10.dtd">
<svg version="1.0" xmlns="http://www.w3.org/2000/svg"
 width="612.000000pt" height="612.000000pt" viewBox="0 0 612.000000 612.000000"
 preserveAspectRatio="xMidYMid meet">

<g transform="translate(0.000000,612.000000) scale(0.100000,-0.100000)"
fill="#000000" stroke="none">
<path d="M2845 5255 c-94 -21 -150 -37 -285 -83 l-55 -19 -3 -165 -2 -164 -53
-27 c-70 -35 -150 -82 -195 -112 -20 -14 -41 -25 -45 -25 -5 0 -59 31 -121 69
-170 105 -147 101 -224 34 -126 -109 -292 -286 -292 -312 0 -11 101 -184 142
-244 l19 -27 -47 -77 c-27 -42 -47 -85 -47 -95 1 -10 -2 -16 -7 -13 -11 7 -63
-92 -55 -105 3 -5 -66 -6 -164 -4 -195 6 -173 17 -215 -107 -32 -97 -50 -162
-76 -284 l-21 -100 26 -20 c14 -11 78 -47 142 -81 l115 -61 -1 -174 c0 -96 -4
-175 -8 -176 -4 -2 -68 -35 -141 -75 l-132 -72 6 -36 c17 -98 59 -267 92 -364
l36 -109 163 6 163 6 36 -71 c20 -39 58 -107 85 -150 l50 -79 -29 -42 c-57
-83 -133 -220 -130 -232 6 -25 138 -172 226 -251 145 -131 124 -121 179 -89
26 15 87 52 134 81 47 30 91 54 97 54 5 0 52 -27 104 -59 52 -33 116 -70 142
-83 l47 -22 -2 -159 c0 -88 3 -163 8 -167 30 -30 453 -140 486 -127 7 3 46 66
87 142 l75 137 95 -3 c117 -4 245 -1 239 6 -3 2 -32 6 -65 9 -32 2 -66 7 -74
9 -54 19 -155 35 -161 25 -4 -7 -8 -6 -11 2 -2 7 -57 30 -123 51 -208 68 -460
209 -625 348 -143 120 -294 292 -394 449 -99 156 -198 380 -241 550 -10 39
-22 72 -25 72 -3 0 -6 10 -7 23 -1 12 -9 92 -18 177 -60 549 102 1073 461
1490 305 353 727 584 1191 652 l88 13 -70 7 c-38 4 -114 5 -167 1 l-97 -5 -14
33 c-8 19 -42 81 -75 139 -70 123 -63 120 -217 85z"/>
<path d="M4049 4673 c-136 -111 -218 -297 -205 -463 3 -41 6 -85 6 -96 0 -12
12 -38 26 -59 15 -23 22 -44 19 -56 -4 -12 6 -40 29 -77 35 -56 64 -90 165
-186 28 -27 63 -74 79 -105 l27 -56 3 -335 c2 -248 6 -336 15 -342 9 -6 8 -8
-3 -8 -13 0 -13 -1 0 -10 10 -6 11 -10 3 -10 -9 0 -13 -18 -13 -57 0 -41 3
-54 10 -43 8 13 10 12 10 -2 0 -10 -4 -18 -10 -18 -6 0 -10 -136 -10 -389 0
-430 2 -445 63 -510 94 -99 251 -94 341 10 55 65 57 86 54 491 -2 296 -6 370
-17 380 -11 11 -13 8 -7 -15 5 -20 3 -27 -5 -22 -6 4 -9 19 -6 33 3 18 -2 31
-17 44 l-21 19 25 -13 c14 -7 28 -11 33 -10 4 1 8 -6 9 -15 1 -10 5 173 8 407
l5 425 34 62 c21 39 54 79 90 110 159 133 225 271 225 468 1 125 -19 199 -80
301 -38 64 -137 170 -167 180 -42 13 -47 -7 -47 -213 l0 -195 -29 -26 c-44
-41 -212 -133 -252 -139 -31 -5 -52 4 -153 63 -65 37 -124 77 -132 88 -11 16
-14 60 -14 204 0 238 -7 253 -91 185z m-150 -522 c-31 -25 -39 -17 -9 9 13 11
25 18 28 15 3 -2 -6 -13 -19 -24z m355 -1285 c-6 -16 -24 -13 -24 5 0 6 5 7
10 4 6 -3 10 -1 10 6 0 7 2 10 5 7 3 -3 3 -13 -1 -22z m119 -13 c-7 -2 -19 -2
-25 0 -7 3 -2 5 12 5 14 0 19 -2 13 -5z m23 -33 c27 0 15 -37 -13 -43 -36 -7
-43 0 -9 9 14 3 26 10 26 14 0 13 -41 19 -66 10 -14 -6 -24 -6 -24 0 0 10 38
19 58 14 8 -2 20 -4 28 -4z m148 -36 c-35 -18 -37 -18 -16 4 9 10 23 17 30 14
8 -3 3 -10 -14 -18z m-269 -83 c-3 -14 -16 -35 -27 -46 l-21 -20 16 27 c20 32
22 75 5 98 -7 9 -3 5 10 -8 18 -19 22 -32 17 -51z m96 -11 c9 13 10 13 6 0 -2
-8 2 -23 11 -32 16 -19 7 -24 -17 -9 -8 5 -15 29 -16 57 -2 35 -1 38 2 9 3
-30 7 -36 14 -25z m119 58 c0 6 4 12 8 12 5 0 6 -14 4 -31 -4 -27 -6 -29 -15
-14 -8 14 -11 15 -19 4 -8 -11 -8 -10 -4 4 3 10 6 24 6 30 0 7 4 6 10 -3 6
-10 10 -11 10 -2z m-240 -26 c0 -15 -2 -15 -10 -2 -13 20 -13 33 0 25 6 -3 10
-14 10 -23z m-33 -84 c-3 -7 -5 -2 -5 12 0 14 2 19 5 13 2 -7 2 -19 0 -25z
m303 23 c0 -17 44 -20 77 -4 19 8 37 13 40 9 3 -3 -1 -6 -10 -6 -9 0 -17 -4
-17 -9 0 -5 -14 -11 -31 -15 -23 -4 -41 0 -63 14 -22 14 -26 20 -13 20 9 0 17
-4 17 -9z m53 2 c-7 -2 -19 -2 -25 0 -7 3 -2 5 12 5 14 0 19 -2 13 -5z m-143
-13 c0 -5 -5 -10 -11 -10 -5 0 -7 5 -4 10 3 6 8 10 11 10 2 0 4 -4 4 -10z m54
-581 c55 -43 18 -139 -54 -139 -19 0 -40 9 -55 25 -73 72 28 178 109 114z"/>
<path d="M3330 4409 c-57 -15 -131 -51 -192 -92 -58 -38 -67 -50 -48 -62 6 -4
8 -11 5 -16 -4 -5 1 -9 10 -9 10 0 13 5 9 12 -5 7 -3 8 5 3 20 -11 -3 -28 -28
-20 -12 3 -19 11 -16 16 4 5 1 9 -4 9 -6 0 -11 -4 -11 -10 0 -5 -5 -10 -11
-10 -6 0 -18 -7 -26 -16 -14 -13 -14 -20 -4 -36 10 -15 10 -23 1 -32 -6 -6
-11 -7 -10 -1 4 20 0 35 -10 35 -5 0 -7 -6 -4 -14 4 -10 0 -13 -13 -10 -13 3
-24 -6 -40 -36 -12 -22 -17 -38 -12 -35 5 4 6 -1 3 -9 -3 -9 -11 -13 -17 -9
-5 3 -7 1 -3 -5 3 -6 -2 -17 -12 -24 -10 -7 -46 -62 -81 -123 -203 -350 -229
-389 -276 -418 -99 -62 -188 -189 -220 -312 -18 -70 -22 -370 -5 -380 8 -5 7
-11 0 -20 -8 -10 -10 -56 -7 -146 5 -126 7 -135 41 -204 65 -131 160 -216 288
-259 69 -24 91 -26 235 -26 l159 0 131 158 c103 125 142 164 184 187 l54 30
310 0 310 0 3 -47 3 -48 -298 0 c-270 0 -302 -2 -333 -18 -20 -11 -78 -71
-133 -138 l-98 -119 442 -3 c318 -1 446 1 455 9 11 9 14 59 14 240 0 146 -4
229 -10 229 -5 0 -10 7 -10 15 0 8 6 15 13 15 9 0 9 2 -1 9 -10 6 -12 25 -7
72 4 45 3 60 -4 49 -9 -13 -11 -13 -11 3 0 9 7 17 15 17 9 0 15 9 15 25 0 20
-5 25 -27 26 l-28 1 30 8 c24 5 27 8 13 14 -9 4 -22 4 -29 0 -8 -5 -9 -3 -4 5
4 7 16 11 26 8 18 -5 19 7 19 334 0 324 -1 339 -19 349 -13 6 -230 10 -635 10
-339 0 -616 2 -616 4 0 2 28 51 62 108 33 56 73 126 87 153 15 28 39 68 53 91
15 23 28 49 30 59 2 10 16 31 32 47 27 28 28 30 11 48 -10 11 -14 20 -9 20 5
0 1 5 -10 11 -14 9 -21 8 -28 -2 -7 -11 -8 -9 -4 4 3 10 6 20 6 22 0 2 11 -2
25 -8 14 -7 23 -17 21 -24 -3 -6 2 -14 10 -17 8 -3 13 -2 10 3 -3 5 5 12 19
15 18 5 25 13 25 32 0 15 4 23 10 19 6 -4 23 1 37 10 20 14 23 19 12 26 -10 6
-7 9 12 9 14 0 54 12 90 27 59 25 77 27 232 31 189 5 183 2 189 88 l3 49 -185
2 c-102 1 -201 -3 -220 -8z m-391 -381 c0 -22 -1 -22 -9 -3 -8 19 -9 19 -9 -2
-1 -12 -5 -25 -11 -28 -12 -8 -13 -3 0 29 12 32 30 34 29 4z m61 12 c0 -5 -2
-10 -4 -10 -3 0 -8 5 -11 10 -3 6 -1 10 4 10 6 0 11 -4 11 -10z m30 -30 c0 -5
-4 -10 -9 -10 -6 0 -13 5 -16 10 -3 6 1 10 9 10 9 0 16 -4 16 -10z m-62 -681
c205 -121 189 -119 675 -119 l387 0 0 -45 0 -46 -442 3 c-414 3 -446 4 -488
23 -51 22 -306 170 -332 193 -34 29 -17 82 27 82 11 0 89 -41 173 -91z m-327
-115 c200 -59 459 -280 447 -381 -6 -57 -148 -89 -277 -64 -66 13 -113 7 -105
-14 3 -7 1 -16 -5 -19 -6 -4 -9 6 -7 29 2 26 -2 35 -13 36 -9 1 -20 2 -26 3
-17 2 -139 78 -168 105 -96 88 -77 244 35 300 52 25 50 25 119 5z m-91 -425
c0 -5 -7 -9 -15 -9 -9 0 -12 6 -9 15 6 15 24 11 24 -6z m101 -12 c1 -7 1 -17
0 -24 -1 -7 8 -17 19 -23 11 -6 20 -16 20 -22 0 -7 -5 -7 -14 1 -11 10 -17 8
-25 -6 -9 -15 -10 -13 -5 10 4 18 2 27 -6 27 -8 0 -10 9 -6 25 4 14 2 25 -3
25 -5 0 -12 -8 -14 -17 -3 -10 -4 -6 -4 9 1 22 4 25 19 17 10 -5 19 -15 19
-22z m-205 8 c-8 -9 -13 -23 -10 -33 5 -14 4 -15 -5 -2 -9 12 -11 13 -11 1 0
-8 -3 -11 -6 -8 -9 8 23 57 37 57 6 0 4 -7 -5 -15z m1597 -80 c3 -36 2 -52 -3
-40 -8 19 -14 113 -6 104 2 -2 6 -31 9 -64z m-1666 13 c-3 -8 -6 -5 -6 6 -1
11 2 17 5 13 3 -3 4 -12 1 -19z m-30 -55 c-13 -13 -14 -12 -14 12 0 19 2 23 8
14 7 -11 9 -9 10 6 1 18 2 19 6 1 3 -10 -2 -25 -10 -33z m373 17 c0 -5 5 -10
11 -10 5 0 7 5 3 12 -4 7 -3 8 5 4 6 -4 9 -11 6 -16 -3 -5 3 -10 12 -12 16 -3
16 -4 2 -10 -11 -4 -25 2 -40 18 -12 13 -17 24 -11 24 7 0 12 -4 12 -10z
m-270 -15 c11 -13 10 -14 -4 -9 -9 3 -16 10 -16 15 0 13 6 11 20 -6z m73 -22
c-7 -2 -19 -2 -25 0 -7 3 -2 5 12 5 14 0 19 -2 13 -5z m124 1 c-3 -3 -12 -4
-19 -1 -8 3 -5 6 6 6 11 1 17 -2 13 -5z"/>
<path d="M2118 3840 c-74 -22 -118 -80 -118 -154 0 -53 31 -96 93 -127 33 -18
59 -21 166 -21 143 -1 179 9 229 66 52 59 53 110 5 175 -43 56 -90 71 -228 70
-66 0 -132 -4 -147 -9z"/>
<path d="M2390 2075 c0 -153 12 -216 52 -261 l30 -34 202 0 c142 1 206 4 217
13 33 25 60 96 66 177 l6 80 -115 0 c-172 0 -301 38 -402 119 -21 17 -43 31
-47 31 -5 0 -9 -56 -9 -125z"/>
</g>
</svg>
