<?xml version="1.0" standalone="no"?>
<!DOCTYPE svg PUBLIC "-//W3C//DTD SVG 20010904//EN"
 "http://www.w3.org/TR/2001/REC-SVG-20010904/DTD/svg10.dtd">
<svg version="1.0" xmlns="http://www.w3.org/2000/svg"
 width="209.000000pt" height="241.000000pt" viewBox="0 0 209.000000 241.000000"
 preserveAspectRatio="xMidYMid meet">

<g transform="translate(0.000000,241.000000) scale(0.100000,-0.100000)"
fill="#000000" stroke="none">
<path d="M970 2230 l0 -40 69 0 c39 0 73 5 76 10 4 6 130 10 346 10 l339 0 0
-965 0 -965 -790 0 -790 0 0 -70 0 -70 825 0 825 0 0 1065 0 1065 -450 0 -450
0 0 -40z"/>
<path d="M970 2150 c0 -26 -5 -31 -40 -40 -24 -6 -40 -17 -40 -25 0 -13 26
-15 155 -15 126 0 155 3 155 14 0 8 -19 20 -42 28 -35 11 -44 18 -46 41 -3 27
-4 27 -73 27 l-69 0 0 -30z"/>
<path d="M798 2028 c-31 -18 -38 -28 -38 -52 l0 -31 285 3 285 3 0 27 c0 21
-9 32 -40 50 -37 21 -49 22 -247 22 -195 0 -210 -2 -245 -22z"/>
<path d="M795 1839 c-6 -53 -3 -80 9 -68 2 2 8 32 13 67 8 48 7 62 -3 62 -7 0
-15 -23 -19 -61z"/>
<path d="M866 1839 c-4 -34 -5 -64 -2 -67 12 -12 20 11 24 68 6 80 -13 79 -22
-1z"/>
<path d="M936 1839 c-7 -63 -5 -76 13 -64 13 7 15 125 2 125 -4 0 -12 -27 -15
-61z"/>
<path d="M1010 1858 c0 -24 -3 -53 -6 -65 -5 -17 -2 -23 10 -23 13 0 16 12 16
65 0 37 -4 65 -10 65 -5 0 -10 -19 -10 -42z"/>
<path d="M1070 1835 c0 -51 3 -65 15 -65 16 0 21 62 9 108 -12 43 -24 21 -24
-43z"/>
<path d="M1140 1866 c0 -47 11 -96 21 -96 10 0 12 54 3 99 -9 41 -24 40 -24
-3z"/>
<path d="M1210 1873 c0 -46 12 -103 21 -103 10 0 12 54 3 99 -8 38 -24 41 -24
4z"/>
<path d="M1284 1838 c8 -67 10 -72 23 -67 12 6 -7 129 -19 129 -7 0 -8 -21 -4
-62z"/>
<path d="M775 1698 c-3 -24 -9 -58 -12 -75 -4 -25 -2 -33 9 -33 11 0 17 21 24
75 7 57 7 75 -2 75 -7 0 -15 -19 -19 -42z"/>
<path d="M850 1711 c0 -15 -3 -49 -6 -75 -6 -38 -4 -46 10 -46 11 0 16 9 16
29 0 15 3 49 6 75 6 38 4 46 -10 46 -11 0 -16 -9 -16 -29z"/>
<path d="M926 1694 c-10 -76 -8 -104 9 -104 12 0 15 15 15 75 0 84 -14 100
-24 29z"/>
<path d="M1000 1665 c0 -60 3 -75 15 -75 12 0 15 15 15 75 0 60 -3 75 -15 75
-12 0 -15 -15 -15 -75z"/>
<path d="M1070 1665 c0 -60 3 -75 15 -75 12 0 15 15 15 75 0 60 -3 75 -15 75
-12 0 -15 -15 -15 -75z"/>
<path d="M1150 1665 c0 -60 3 -75 15 -75 11 0 15 12 15 53 0 60 -8 97 -21 97
-5 0 -9 -34 -9 -75z"/>
<path d="M1224 1709 c3 -17 6 -51 6 -75 0 -34 4 -44 16 -44 14 0 16 8 10 53
-3 28 -6 62 -6 75 0 14 -6 22 -16 22 -13 0 -15 -7 -10 -31z"/>
<path d="M1304 1688 c3 -29 6 -63 6 -75 0 -15 6 -23 16 -23 14 0 16 8 10 53
-10 74 -17 97 -28 97 -7 0 -8 -19 -4 -52z"/>
<path d="M745 1503 c-3 -32 -9 -68 -12 -80 -4 -16 -1 -23 10 -23 19 0 23 15
32 98 6 51 4 62 -8 62 -10 0 -17 -16 -22 -57z"/>
<path d="M830 1526 c0 -18 -3 -54 -6 -80 -5 -37 -4 -46 8 -46 11 0 17 15 22
46 10 79 8 114 -9 114 -10 0 -15 -10 -15 -34z"/>
<path d="M916 1538 c-3 -13 -6 -49 -6 -80 0 -45 3 -58 15 -58 12 0 15 14 15
64 0 35 3 71 6 80 4 10 1 16 -9 16 -8 0 -17 -10 -21 -22z"/>
<path d="M998 1484 c-2 -42 0 -78 5 -81 19 -11 27 14 27 83 0 57 -3 74 -14 74
-11 0 -15 -19 -18 -76z"/>
<path d="M1074 1514 c3 -26 6 -62 6 -80 0 -24 5 -34 15 -34 17 0 19 24 9 108
-5 37 -11 52 -22 52 -12 0 -13 -9 -8 -46z"/>
<path d="M1160 1481 c0 -66 3 -81 15 -81 13 0 15 13 13 77 -2 50 -7 78 -15 81
-10 3 -13 -17 -13 -77z"/>
<path d="M1240 1533 c0 -68 13 -133 26 -133 16 0 17 12 8 99 -5 41 -11 61 -20
61 -9 0 -14 -11 -14 -27z"/>
<path d="M1324 1520 c3 -22 9 -58 12 -80 4 -27 11 -40 21 -40 12 0 14 8 10 33
-3 17 -9 53 -13 80 -4 32 -11 47 -21 47 -12 0 -13 -9 -9 -40z"/>
<path d="M726 1358 c-12 -61 -15 -88 -8 -88 19 1 30 19 36 63 6 39 5 47 -8 47
-9 0 -18 -10 -20 -22z"/>
<path d="M817 1373 c-13 -13 -7 -73 7 -73 11 0 26 40 26 71 0 11 -24 12 -33 2z"/>
<path d="M907 1373 c-13 -13 -7 -73 7 -73 16 0 26 21 26 56 0 23 -18 32 -33
17z"/>
<path d="M997 1374 c-4 -4 -7 -22 -7 -41 0 -27 4 -33 21 -33 17 0 20 5 17 37
-3 35 -17 51 -31 37z"/>
<path d="M1080 1340 c0 -29 4 -40 15 -40 11 0 15 11 15 40 0 29 -4 40 -15 40
-11 0 -15 -11 -15 -40z"/>
<path d="M1170 1340 c0 -29 4 -40 15 -40 11 0 15 11 15 40 0 29 -4 40 -15 40
-11 0 -15 -11 -15 -40z"/>
<path d="M1259 1376 c-11 -12 4 -76 18 -76 10 0 13 10 11 37 -3 33 -16 51 -29
39z"/>
<path d="M1346 1333 c5 -40 29 -81 41 -69 2 1 0 27 -4 57 -6 39 -13 55 -26 57
-15 3 -16 -3 -11 -45z"/>
<path d="M766 1226 c-54 -20 -111 -79 -149 -156 -24 -46 -39 -65 -53 -65 -11
0 -20 8 -22 20 -7 34 -23 45 -68 45 -53 0 -84 -26 -84 -70 0 -29 0 -29 67 -32
86 -4 90 -19 20 -73 -75 -59 -90 -107 -91 -295 -1 -218 26 -280 124 -280 67 0
87 9 104 43 16 35 9 47 -32 47 -28 0 -93 32 -112 55 -9 11 3 8 35 -10 l49 -26
501 3 c466 3 503 4 529 21 15 10 30 16 33 13 7 -7 -56 -45 -84 -51 -13 -3 -34
-7 -47 -10 -23 -5 -24 -8 -14 -35 5 -17 18 -35 28 -40 24 -13 116 -13 139 0
55 29 84 207 62 375 -15 111 -33 150 -91 194 -65 49 -60 65 20 71 l65 5 -2 35
c-2 42 -24 60 -74 60 -49 0 -69 -8 -69 -29 0 -19 -19 -41 -35 -41 -6 0 -25 29
-42 64 -18 35 -46 80 -64 100 -61 70 -65 71 -349 73 -200 2 -263 0 -294 -11z
m560 -63 c33 -23 87 -100 99 -140 l6 -23 -385 0 c-261 0 -386 3 -386 10 0 19
40 89 71 125 17 19 45 39 63 44 17 6 137 9 266 8 226 -2 236 -3 266 -24z m241
-409 c34 -21 39 -52 13 -79 -45 -48 -80 -43 -205 29 l-59 35 29 11 c73 29 179
31 222 4z m-822 -3 l29 -12 -59 -35 c-107 -62 -124 -67 -167 -55 -61 19 -73
57 -32 98 24 24 29 25 112 21 48 -3 100 -11 117 -17z m525 -191 l0 -40 -225 0
-225 0 0 40 0 40 225 0 225 0 0 -40z"/>
</g>
</svg>
