<?xml version="1.0" standalone="no"?>
<!DOCTYPE svg PUBLIC "-//W3C//DTD SVG 20010904//EN"
 "http://www.w3.org/TR/2001/REC-SVG-20010904/DTD/svg10.dtd">
<svg version="1.0" xmlns="http://www.w3.org/2000/svg"
 width="512.000000pt" height="512.000000pt" viewBox="0 0 512.000000 512.000000"
 preserveAspectRatio="xMidYMid meet">

<g transform="translate(0.000000,512.000000) scale(0.100000,-0.100000)"
fill="#000000" stroke="none">
<path d="M2986 4559 l-759 -559 -344 0 c-329 0 -343 -1 -343 -19 0 -10 92
-496 205 -1080 113 -584 205 -1066 205 -1071 0 -7 464 -9 1277 -8 l1276 3 243
1075 c134 591 244 1081 244 1088 0 9 -65 12 -293 12 l-294 0 14 92 c7 51 12
97 9 103 -4 13 -652 894 -670 912 -8 8 -198 -126 -770 -548z m1038 22 c147
-200 266 -364 264 -366 -2 -1 -68 -50 -148 -109 l-144 -106 -106 0 c-109 1
-113 4 -51 39 10 6 -34 73 -179 269 l-192 262 -29 -21 c-16 -11 -30 -23 -33
-27 -2 -4 59 -93 136 -197 76 -105 162 -220 189 -257 l49 -68 -49 0 -49 0
-172 234 -172 235 -34 -22 c-18 -12 -34 -24 -34 -27 0 -3 61 -88 136 -189 189
-257 176 -231 118 -231 l-49 0 -125 170 c-69 94 -130 178 -137 186 -10 14 -15
13 -42 -7 -17 -13 -31 -26 -31 -31 0 -4 52 -78 115 -163 l115 -155 -58 0 -58
0 -99 135 -98 134 -28 -20 c-16 -11 -31 -24 -33 -28 -3 -5 28 -54 69 -110 41
-56 75 -104 75 -106 0 -3 -21 -5 -47 -5 l-48 0 -55 77 c-30 42 -58 81 -61 86
-7 10 -69 -31 -69 -46 0 -6 18 -34 40 -64 l41 -53 -43 0 c-37 0 -47 5 -74 37
l-31 37 -32 -23 c-19 -14 -30 -29 -27 -37 4 -12 -24 -14 -166 -14 -94 0 -169
2 -167 5 3 2 302 223 665 490 620 456 660 484 675 467 9 -9 137 -181 283 -381z
m290 -518 c-4 -27 -10 -52 -14 -56 -4 -4 -35 -7 -69 -5 l-62 3 68 52 c37 28
71 52 75 52 4 1 5 -20 2 -46z"/>
<path d="M3559 4637 l-26 -22 187 -255 c104 -140 192 -255 197 -257 4 -1 21 9
37 22 22 17 27 27 20 37 -6 7 -90 122 -188 256 -98 133 -183 242 -189 242 -7
-1 -24 -11 -38 -23z"/>
<path d="M130 3985 l0 -175 392 -2 393 -3 287 -1300 c158 -715 287 -1301 288
-1302 0 -2 704 -3 1565 -3 l1565 0 0 175 0 175 -1422 0 -1423 0 -283 1288
c-156 708 -286 1295 -288 1305 -5 16 -39 17 -540 17 l-534 0 0 -175z"/>
<path d="M2006 950 c-73 -13 -185 -72 -239 -126 -236 -232 -176 -625 118 -770
267 -131 575 0 670 287 24 70 24 207 1 277 -66 198 -229 325 -431 337 -38 2
-92 0 -119 -5z"/>
<path d="M3987 950 c-170 -31 -328 -177 -372 -345 -57 -222 49 -455 251 -552
192 -92 400 -56 550 94 90 89 136 202 136 333 0 209 -128 385 -328 454 -60 20
-172 28 -237 16z"/>
</g>
</svg>
