<?xml version="1.0" standalone="no"?>
<!DOCTYPE svg PUBLIC "-//W3C//DTD SVG 20010904//EN"
 "http://www.w3.org/TR/2001/REC-SVG-20010904/DTD/svg10.dtd">
<svg version="1.0" xmlns="http://www.w3.org/2000/svg"
 width="512.000000pt" height="512.000000pt" viewBox="0 0 512.000000 512.000000"
 preserveAspectRatio="xMidYMid meet">

<g transform="translate(0.000000,512.000000) scale(0.100000,-0.100000)"
fill="#000000" stroke="none">
<path d="M2365 5109 c-870 -72 -1623 -559 -2048 -1324 -294 -528 -385 -1178
-251 -1785 171 -773 716 -1442 1446 -1771 496 -224 1068 -282 1608 -163 872
192 1604 861 1874 1712 137 433 158 902 60 1339 -234 1047 -1102 1840 -2164
1977 -152 20 -389 27 -525 15z m265 -1281 c25 -13 55 -38 67 -57 23 -34 23
-35 23 -450 0 -386 -1 -419 -19 -451 -55 -104 -198 -116 -269 -22 l-27 35 -3
427 -3 426 23 35 c25 37 98 79 138 79 14 0 46 -10 70 -22z m-495 -529 c40 -23
75 -87 75 -134 0 -61 -27 -102 -109 -164 -209 -159 -313 -365 -314 -621 0
-140 18 -220 78 -345 96 -199 279 -351 495 -411 91 -26 309 -26 399 0 218 60
400 211 496 411 59 123 78 205 78 340 0 135 -19 217 -78 340 -54 112 -131 206
-233 284 -113 85 -139 156 -90 243 30 52 77 80 137 81 57 1 104 -24 206 -110
186 -156 315 -376 365 -623 30 -145 24 -349 -13 -492 -106 -402 -435 -716
-842 -804 -97 -21 -330 -24 -423 -5 -422 83 -758 395 -870 809 -23 87 -26 115
-26 277 -1 166 1 187 27 279 67 241 203 447 391 591 114 87 175 100 251 54z"/>
</g>
</svg>
