<?xml version="1.0" standalone="no"?>
<!DOCTYPE svg PUBLIC "-//W3C//DTD SVG 20010904//EN"
 "http://www.w3.org/TR/2001/REC-SVG-20010904/DTD/svg10.dtd">
<svg version="1.0" xmlns="http://www.w3.org/2000/svg"
 width="512.000000pt" height="512.000000pt" viewBox="0 0 512.000000 512.000000"
 preserveAspectRatio="xMidYMid meet">

<g transform="translate(0.000000,512.000000) scale(0.100000,-0.100000)"
fill="#000000" stroke="none">
<path d="M1625 3481 c-51 -13 -66 -25 -227 -189 -154 -155 -158 -161 -158
-202 0 -50 22 -91 60 -114 25 -14 105 -16 827 -16 832 0 823 0 823 41 0 25
-354 445 -392 466 -30 16 -72 18 -468 20 -239 1 -448 -2 -465 -6z"/>
<path d="M2813 3480 c-15 -6 -23 -18 -23 -33 0 -33 348 -449 394 -471 25 -12
63 -16 140 -16 58 0 106 2 106 5 0 11 -419 493 -442 509 -25 18 -137 21 -175
6z"/>
<path d="M730 2581 c-199 -64 -342 -232 -372 -438 -23 -157 34 -316 156 -438
107 -107 220 -155 366 -155 202 0 387 114 474 292 46 94 56 136 56 228 0 241
-162 455 -391 515 -75 20 -221 18 -289 -4z m295 -185 c279 -127 279 -513 0
-643 -51 -24 -72 -28 -145 -28 -70 1 -95 5 -140 26 -72 34 -145 106 -178 177
-36 77 -39 211 -5 284 84 182 293 265 468 184z"/>
<path d="M4097 2585 c-176 -48 -325 -202 -372 -382 -17 -66 -20 -190 -5 -248
48 -183 206 -343 385 -390 74 -19 193 -19 264 0 195 51 355 226 392 427 39
211 -88 456 -286 556 -103 51 -267 68 -378 37z m228 -170 c105 -27 191 -101
238 -203 34 -73 31 -207 -5 -284 -33 -71 -106 -143 -178 -177 -45 -21 -70 -25
-140 -26 -73 0 -94 4 -145 28 -111 52 -183 144 -204 263 -32 177 81 353 258
400 63 17 106 17 176 -1z"/>
</g>
</svg>
